# MagicaVoxel @ Ephtracy

# group
g 6

# material
mtllib 6.mtl
usemtl palette

# normals
vn -1 0 0
vn 1 0 0
vn 0 0 1
vn 0 0 -1
vn 0 -1 0
vn 0 1 0

# texcoords
vt 0.931641 0.5
vt 0.994141 0.5

# verts
v -3 1 -2
v -3 1 -3
v -3 7 -2
v -3 7 -3
v -2 0 -2
v -2 0 -3
v -2 1 -2
v -2 1 -3
v -2 2 -1
v -2 2 -2
v -2 2 -3
v -2 2 -4
v -2 3 -3
v -2 3 -4
v -2 5 -3
v -2 5 -4
v -2 6 -1
v -2 6 -2
v -2 6 -3
v -2 6 -4
v -2 7 -2
v -2 7 -3
v -2 8 -2
v -2 8 -3
v -1 1 -1
v -1 1 -2
v -1 1 -3
v -1 1 -4
v -1 2 -1
v -1 2 -2
v -1 2 -3
v -1 2 -4
v -1 3 -3
v -1 3 -4
v -1 4 -3
v -1 4 -4
v -1 6 -1
v -1 6 -2
v -1 6 -3
v -1 6 -4
v -1 7 -1
v -1 7 -2
v -1 7 -3
v -1 7 -4
v 1 1 -2
v 1 1 -3
v 1 2 -1
v 1 2 -2
v 1 2 -3
v 1 2 -4
v 1 3 -1
v 1 3 -2
v 1 3 -3
v 1 3 -4
v 1 4 -3
v 1 4 -4
v 1 5 -1
v 1 5 -2
v 1 6 -1
v 1 6 -2
v 1 6 -3
v 1 6 -4
v 1 7 -2
v 1 7 -3
v 2 2 -2
v 2 2 -3
v 2 3 -2
v 2 3 -3
v 2 5 -2
v 2 5 -3
v 2 6 -2
v 2 6 -3
v -1 1 -2
v -1 1 -3
v -1 2 -1
v -1 2 -2
v -1 2 -3
v -1 2 -4
v -1 3 -1
v -1 3 -2
v -1 3 -3
v -1 3 -4
v -1 4 -1
v -1 4 -2
v -1 5 -3
v -1 5 -4
v -1 6 -1
v -1 6 -2
v -1 6 -3
v -1 6 -4
v -1 7 -2
v -1 7 -3
v 1 1 -1
v 1 1 -2
v 1 1 -3
v 1 1 -4
v 1 2 -1
v 1 2 -2
v 1 2 -3
v 1 2 -4
v 1 3 -1
v 1 3 -2
v 1 3 -3
v 1 4 -1
v 1 4 -2
v 1 5 -2
v 1 5 -3
v 1 6 -1
v 1 6 -2
v 1 6 -3
v 1 6 -4
v 1 7 -1
v 1 7 -2
v 1 7 -3
v 1 7 -4
v 2 0 -2
v 2 0 -3
v 2 1 -2
v 2 1 -3
v 2 2 -1
v 2 2 -2
v 2 2 -3
v 2 2 -4
v 2 3 -1
v 2 3 -2
v 2 5 -1
v 2 5 -2
v 2 6 -1
v 2 6 -2
v 2 6 -3
v 2 6 -4
v 2 7 -2
v 2 7 -3
v 2 8 -2
v 2 8 -3
v 3 1 -2
v 3 1 -3
v 3 7 -2
v 3 7 -3
v -2 2 -1
v -2 6 -1
v -1 1 -1
v -1 2 -1
v -1 3 -1
v -1 4 -1
v -1 6 -1
v -1 7 -1
v 1 1 -1
v 1 2 -1
v 1 3 -1
v 1 4 -1
v 1 5 -1
v 1 6 -1
v 1 7 -1
v 2 2 -1
v 2 3 -1
v 2 5 -1
v 2 6 -1
v -3 1 -2
v -3 7 -2
v -2 0 -2
v -2 1 -2
v -2 2 -2
v -2 6 -2
v -2 7 -2
v -2 8 -2
v -1 1 -2
v -1 2 -2
v -1 3 -2
v -1 4 -2
v -1 6 -2
v -1 7 -2
v 1 1 -2
v 1 2 -2
v 1 3 -2
v 1 4 -2
v 1 5 -2
v 1 6 -2
v 1 7 -2
v 2 0 -2
v 2 1 -2
v 2 2 -2
v 2 3 -2
v 2 5 -2
v 2 6 -2
v 2 7 -2
v 2 8 -2
v 3 1 -2
v 3 7 -2
v -1 1 -3
v -1 2 -3
v -1 6 -3
v -1 7 -3
v 1 1 -3
v 1 2 -3
v 1 3 -3
v 1 5 -3
v 1 6 -3
v 1 7 -3
v 2 2 -3
v 2 3 -3
v 2 5 -3
v 2 6 -3
v -1 1 -2
v -1 2 -2
v -1 6 -2
v -1 7 -2
v 1 1 -2
v 1 2 -2
v 1 3 -2
v 1 5 -2
v 1 6 -2
v 1 7 -2
v 2 2 -2
v 2 3 -2
v 2 5 -2
v 2 6 -2
v -3 1 -3
v -3 7 -3
v -2 0 -3
v -2 1 -3
v -2 2 -3
v -2 3 -3
v -2 5 -3
v -2 6 -3
v -2 7 -3
v -2 8 -3
v -1 1 -3
v -1 2 -3
v -1 3 -3
v -1 4 -3
v -1 5 -3
v -1 6 -3
v -1 7 -3
v 1 1 -3
v 1 2 -3
v 1 3 -3
v 1 4 -3
v 1 6 -3
v 1 7 -3
v 2 0 -3
v 2 1 -3
v 2 2 -3
v 2 6 -3
v 2 7 -3
v 2 8 -3
v 3 1 -3
v 3 7 -3
v -2 2 -4
v -2 3 -4
v -2 5 -4
v -2 6 -4
v -1 1 -4
v -1 2 -4
v -1 3 -4
v -1 4 -4
v -1 5 -4
v -1 6 -4
v -1 7 -4
v 1 1 -4
v 1 2 -4
v 1 3 -4
v 1 4 -4
v 1 6 -4
v 1 7 -4
v 2 2 -4
v 2 6 -4
v -2 0 -2
v 2 0 -2
v -2 0 -3
v 2 0 -3
v -1 1 -1
v 1 1 -1
v -3 1 -2
v -2 1 -2
v -1 1 -2
v 1 1 -2
v 2 1 -2
v 3 1 -2
v -3 1 -3
v -2 1 -3
v -1 1 -3
v 1 1 -3
v 2 1 -3
v 3 1 -3
v -1 1 -4
v 1 1 -4
v -2 2 -1
v -1 2 -1
v 1 2 -1
v 2 2 -1
v -2 2 -2
v -1 2 -2
v 1 2 -2
v 2 2 -2
v -2 2 -3
v -1 2 -3
v 1 2 -3
v 2 2 -3
v -2 2 -4
v -1 2 -4
v 1 2 -4
v 2 2 -4
v -1 3 -1
v 1 3 -1
v -1 3 -2
v 1 3 -2
v 2 3 -2
v -1 3 -3
v 1 3 -3
v 2 3 -3
v -1 3 -4
v 1 3 -4
v 1 5 -1
v 2 5 -1
v 1 5 -2
v 2 5 -2
v -2 5 -3
v -1 5 -3
v -2 5 -4
v -1 5 -4
v -1 6 -1
v 1 6 -1
v -1 6 -2
v 1 6 -2
v 2 6 -2
v -1 6 -3
v 1 6 -3
v 2 6 -3
v -1 6 -4
v 1 6 -4
v -1 7 -2
v 1 7 -2
v -1 7 -3
v 1 7 -3
v -1 1 -2
v 1 1 -2
v -1 1 -3
v 1 1 -3
v -1 2 -1
v 1 2 -1
v -1 2 -2
v 1 2 -2
v 2 2 -2
v -1 2 -3
v 1 2 -3
v 2 2 -3
v -1 2 -4
v 1 2 -4
v 1 3 -1
v 2 3 -1
v 1 3 -2
v 2 3 -2
v -2 3 -3
v -1 3 -3
v -2 3 -4
v -1 3 -4
v -1 4 -1
v 1 4 -1
v -1 4 -2
v 1 4 -2
v -1 4 -3
v 1 4 -3
v -1 4 -4
v 1 4 -4
v 1 5 -2
v 2 5 -2
v 1 5 -3
v 2 5 -3
v -2 6 -1
v -1 6 -1
v 1 6 -1
v 2 6 -1
v -2 6 -2
v -1 6 -2
v 1 6 -2
v 2 6 -2
v -2 6 -3
v -1 6 -3
v 1 6 -3
v 2 6 -3
v -2 6 -4
v -1 6 -4
v 1 6 -4
v 2 6 -4
v -1 7 -1
v 1 7 -1
v -3 7 -2
v -2 7 -2
v -1 7 -2
v 1 7 -2
v 2 7 -2
v 3 7 -2
v -3 7 -3
v -2 7 -3
v -1 7 -3
v 1 7 -3
v 2 7 -3
v 3 7 -3
v -1 7 -4
v 1 7 -4
v -2 8 -2
v 2 8 -2
v -2 8 -3
v 2 8 -3

# faces
f 3/2/1 2/2/1 1/2/1
f 4/2/1 2/2/1 3/2/1
f 7/2/1 6/2/1 5/2/1
f 8/2/1 6/2/1 7/2/1
f 13/1/1 12/1/1 11/1/1
f 14/1/1 12/1/1 13/1/1
f 17/1/1 10/1/1 9/1/1
f 18/1/1 10/1/1 17/1/1
f 19/1/1 16/1/1 15/1/1
f 20/1/1 16/1/1 19/1/1
f 23/2/1 22/2/1 21/2/1
f 24/2/1 22/2/1 23/2/1
f 29/1/1 26/1/1 25/1/1
f 30/1/1 26/1/1 29/1/1
f 31/1/1 28/1/1 27/1/1
f 32/1/1 28/1/1 31/1/1
f 35/1/1 34/1/1 33/1/1
f 36/1/1 34/1/1 35/1/1
f 41/1/1 38/1/1 37/1/1
f 42/1/1 38/1/1 41/1/1
f 43/1/1 40/1/1 39/1/1
f 44/1/1 40/1/1 43/1/1
f 48/2/1 46/2/1 45/2/1
f 49/2/1 46/2/1 48/2/1
f 51/1/1 48/1/1 47/1/1
f 52/1/1 48/1/1 51/1/1
f 53/1/1 50/1/1 49/1/1
f 54/1/1 50/1/1 53/1/1
f 59/1/1 58/1/1 57/1/1
f 60/1/1 58/1/1 59/1/1
f 61/1/1 56/1/1 55/1/1
f 62/1/1 56/1/1 61/1/1
f 63/2/1 61/2/1 60/2/1
f 64/2/1 61/2/1 63/2/1
f 67/2/1 66/2/1 65/2/1
f 68/2/1 66/2/1 67/2/1
f 71/2/1 70/2/1 69/2/1
f 72/2/1 70/2/1 71/2/1
f 73/2/2 74/2/2 76/2/2
f 76/2/2 74/2/2 77/2/2
f 75/1/2 76/1/2 79/1/2
f 79/1/2 76/1/2 80/1/2
f 77/1/2 78/1/2 81/1/2
f 81/1/2 78/1/2 82/1/2
f 83/1/2 84/1/2 87/1/2
f 87/1/2 84/1/2 88/1/2
f 85/1/2 86/1/2 89/1/2
f 89/1/2 86/1/2 90/1/2
f 88/2/2 89/2/2 91/2/2
f 91/2/2 89/2/2 92/2/2
f 93/1/2 94/1/2 97/1/2
f 97/1/2 94/1/2 98/1/2
f 95/1/2 96/1/2 99/1/2
f 99/1/2 96/1/2 100/1/2
f 98/2/2 99/2/2 102/2/2
f 102/2/2 99/2/2 103/2/2
f 101/1/2 102/1/2 104/1/2
f 104/1/2 102/1/2 105/1/2
f 106/2/2 107/2/2 109/2/2
f 109/2/2 107/2/2 110/2/2
f 108/1/2 109/1/2 112/1/2
f 112/1/2 109/1/2 113/1/2
f 110/1/2 111/1/2 114/1/2
f 114/1/2 111/1/2 115/1/2
f 116/2/2 117/2/2 118/2/2
f 118/2/2 117/2/2 119/2/2
f 120/1/2 121/1/2 124/1/2
f 124/1/2 121/1/2 125/1/2
f 126/1/2 127/1/2 128/1/2
f 128/1/2 127/1/2 129/1/2
f 122/1/2 123/1/2 130/1/2
f 130/1/2 123/1/2 131/1/2
f 132/2/2 133/2/2 134/2/2
f 134/2/2 133/2/2 135/2/2
f 136/2/2 137/2/2 138/2/2
f 138/2/2 137/2/2 139/2/2
f 143/1/3 141/1/3 140/1/3
f 144/1/3 141/1/3 143/1/3
f 145/1/3 141/1/3 144/1/3
f 146/1/3 141/1/3 145/1/3
f 148/1/3 143/1/3 142/1/3
f 149/1/3 143/1/3 148/1/3
f 150/1/3 145/1/3 144/1/3
f 151/1/3 145/1/3 150/1/3
f 153/1/3 147/1/3 146/1/3
f 154/1/3 147/1/3 153/1/3
f 155/1/3 150/1/3 149/1/3
f 156/1/3 150/1/3 155/1/3
f 157/1/3 153/1/3 152/1/3
f 158/1/3 153/1/3 157/1/3
f 162/2/3 160/2/3 159/2/3
f 163/2/3 160/2/3 162/2/3
f 164/2/3 160/2/3 163/2/3
f 165/2/3 160/2/3 164/2/3
f 167/2/3 162/2/3 161/2/3
f 167/2/3 163/2/3 162/2/3
f 168/2/3 163/2/3 167/2/3
f 171/2/3 166/2/3 165/2/3
f 171/2/3 165/2/3 164/2/3
f 172/2/3 166/2/3 171/2/3
f 173/2/3 167/2/3 161/2/3
f 174/2/3 169/2/3 168/2/3
f 175/2/3 169/2/3 174/2/3
f 176/2/3 171/2/3 170/2/3
f 177/2/3 171/2/3 176/2/3
f 178/2/3 171/2/3 177/2/3
f 179/2/3 166/2/3 172/2/3
f 180/2/3 173/2/3 161/2/3
f 180/2/3 174/2/3 173/2/3
f 181/2/3 174/2/3 180/2/3
f 182/2/3 174/2/3 181/2/3
f 183/2/3 177/2/3 176/2/3
f 183/2/3 176/2/3 175/2/3
f 184/2/3 177/2/3 183/2/3
f 185/2/3 179/2/3 178/2/3
f 186/2/3 166/2/3 179/2/3
f 186/2/3 179/2/3 185/2/3
f 187/2/3 166/2/3 186/2/3
f 188/2/3 184/2/3 183/2/3
f 188/2/3 185/2/3 184/2/3
f 188/2/3 186/2/3 185/2/3
f 188/2/3 182/2/3 181/2/3
f 188/2/3 183/2/3 182/2/3
f 189/2/3 186/2/3 188/2/3
f 194/1/3 191/1/3 190/1/3
f 195/1/3 191/1/3 194/1/3
f 198/1/3 193/1/3 192/1/3
f 199/1/3 193/1/3 198/1/3
f 200/1/3 196/1/3 195/1/3
f 201/1/3 196/1/3 200/1/3
f 202/1/3 198/1/3 197/1/3
f 203/1/3 198/1/3 202/1/3
f 204/1/4 205/1/4 208/1/4
f 208/1/4 205/1/4 209/1/4
f 206/1/4 207/1/4 212/1/4
f 212/1/4 207/1/4 213/1/4
f 209/1/4 210/1/4 214/1/4
f 214/1/4 210/1/4 215/1/4
f 211/1/4 212/1/4 216/1/4
f 216/1/4 212/1/4 217/1/4
f 218/2/4 219/2/4 221/2/4
f 221/2/4 219/2/4 222/2/4
f 222/2/4 219/2/4 223/2/4
f 223/2/4 219/2/4 224/2/4
f 224/2/4 219/2/4 225/2/4
f 225/2/4 219/2/4 226/2/4
f 220/2/4 221/2/4 228/2/4
f 221/2/4 222/2/4 228/2/4
f 228/2/4 222/2/4 229/2/4
f 223/2/4 224/2/4 230/2/4
f 230/2/4 224/2/4 231/2/4
f 231/2/4 224/2/4 232/2/4
f 226/2/4 227/2/4 233/2/4
f 225/2/4 226/2/4 233/2/4
f 233/2/4 227/2/4 234/2/4
f 220/2/4 228/2/4 235/2/4
f 229/2/4 230/2/4 236/2/4
f 236/2/4 230/2/4 237/2/4
f 231/2/4 232/2/4 238/2/4
f 232/2/4 233/2/4 238/2/4
f 238/2/4 233/2/4 239/2/4
f 234/2/4 227/2/4 240/2/4
f 235/2/4 236/2/4 241/2/4
f 220/2/4 235/2/4 241/2/4
f 241/2/4 236/2/4 242/2/4
f 242/2/4 236/2/4 243/2/4
f 239/2/4 240/2/4 244/2/4
f 240/2/4 227/2/4 245/2/4
f 244/2/4 240/2/4 245/2/4
f 245/2/4 227/2/4 246/2/4
f 242/2/4 243/2/4 247/2/4
f 243/2/4 244/2/4 247/2/4
f 244/2/4 245/2/4 247/2/4
f 247/2/4 245/2/4 248/2/4
f 249/1/4 250/1/4 254/1/4
f 254/1/4 250/1/4 255/1/4
f 251/1/4 252/1/4 257/1/4
f 257/1/4 252/1/4 258/1/4
f 253/1/4 254/1/4 260/1/4
f 260/1/4 254/1/4 261/1/4
f 255/1/4 256/1/4 262/1/4
f 262/1/4 256/1/4 263/1/4
f 258/1/4 259/1/4 264/1/4
f 264/1/4 259/1/4 265/1/4
f 262/1/4 263/1/4 266/1/4
f 263/1/4 264/1/4 266/1/4
f 261/1/4 262/1/4 266/1/4
f 266/1/4 264/1/4 267/1/4
f 270/2/5 269/2/5 268/2/5
f 271/2/5 269/2/5 270/2/5
f 276/1/5 273/1/5 272/1/5
f 277/1/5 273/1/5 276/1/5
f 280/2/5 275/2/5 274/2/5
f 281/2/5 275/2/5 280/2/5
f 284/2/5 279/2/5 278/2/5
f 285/2/5 279/2/5 284/2/5
f 286/1/5 283/1/5 282/1/5
f 287/1/5 283/1/5 286/1/5
f 292/1/5 289/1/5 288/1/5
f 293/1/5 289/1/5 292/1/5
f 294/1/5 291/1/5 290/1/5
f 295/1/5 291/1/5 294/1/5
f 297/2/5 294/2/5 293/2/5
f 298/2/5 294/2/5 297/2/5
f 300/1/5 297/1/5 296/1/5
f 301/1/5 297/1/5 300/1/5
f 302/1/5 299/1/5 298/1/5
f 303/1/5 299/1/5 302/1/5
f 306/1/5 305/1/5 304/1/5
f 307/1/5 305/1/5 306/1/5
f 310/2/5 308/2/5 307/2/5
f 311/2/5 308/2/5 310/2/5
f 312/1/5 310/1/5 309/1/5
f 313/1/5 310/1/5 312/1/5
f 316/1/5 315/1/5 314/1/5
f 317/1/5 315/1/5 316/1/5
f 320/1/5 319/1/5 318/1/5
f 321/1/5 319/1/5 320/1/5
f 324/1/5 323/1/5 322/1/5
f 325/1/5 323/1/5 324/1/5
f 328/2/5 326/2/5 325/2/5
f 329/2/5 326/2/5 328/2/5
f 330/1/5 328/1/5 327/1/5
f 331/1/5 328/1/5 330/1/5
f 334/2/5 333/2/5 332/2/5
f 335/2/5 333/2/5 334/2/5
f 336/2/6 337/2/6 338/2/6
f 338/2/6 337/2/6 339/2/6
f 340/1/6 341/1/6 342/1/6
f 342/1/6 341/1/6 343/1/6
f 343/2/6 344/2/6 346/2/6
f 346/2/6 344/2/6 347/2/6
f 345/1/6 346/1/6 348/1/6
f 348/1/6 346/1/6 349/1/6
f 350/1/6 351/1/6 352/1/6
f 352/1/6 351/1/6 353/1/6
f 354/1/6 355/1/6 356/1/6
f 356/1/6 355/1/6 357/1/6
f 358/1/6 359/1/6 360/1/6
f 360/1/6 359/1/6 361/1/6
f 362/1/6 363/1/6 364/1/6
f 364/1/6 363/1/6 365/1/6
f 366/2/6 367/2/6 368/2/6
f 368/2/6 367/2/6 369/2/6
f 370/1/6 371/1/6 374/1/6
f 374/1/6 371/1/6 375/1/6
f 372/1/6 373/1/6 376/1/6
f 376/1/6 373/1/6 377/1/6
f 375/2/6 376/2/6 379/2/6
f 379/2/6 376/2/6 380/2/6
f 378/1/6 379/1/6 382/1/6
f 382/1/6 379/1/6 383/1/6
f 380/1/6 381/1/6 384/1/6
f 384/1/6 381/1/6 385/1/6
f 386/1/6 387/1/6 390/1/6
f 390/1/6 387/1/6 391/1/6
f 388/2/6 389/2/6 394/2/6
f 394/2/6 389/2/6 395/2/6
f 392/2/6 393/2/6 398/2/6
f 398/2/6 393/2/6 399/2/6
f 396/1/6 397/1/6 400/1/6
f 400/1/6 397/1/6 401/1/6
f 402/2/6 403/2/6 404/2/6
f 404/2/6 403/2/6 405/2/6
