# MagicaVoxel @ Ephtracy

# group
g bonus1

# material
mtllib bonus1.mtl
usemtl palette

# normals
vn -1 0 0
vn 1 0 0
vn 0 0 1
vn 0 0 -1
vn 0 -1 0
vn 0 1 0

# texcoords
vt 0.314453 0.5
vt 0.318359 0.5
vt 0.931641 0.5
vt 0.994141 0.5

# verts
v -5 2 1
v -5 2 -0
v -5 2 -1
v -5 14 1
v -5 14 -0
v -5 14 -1
v -4 1 1
v -4 1 -0
v -4 1 -1
v -4 2 1
v -4 2 -0
v -4 2 -1
v -4 14 1
v -4 14 -0
v -4 14 -1
v -4 15 1
v -4 15 -0
v -4 15 -1
v 4 1 1
v 4 1 -0
v 4 1 -1
v 4 2 1
v 4 2 -0
v 4 2 -1
v 4 14 1
v 4 14 -0
v 4 14 -1
v 4 15 1
v 4 15 -0
v 4 15 -1
v 5 2 1
v 5 2 -0
v 5 2 -1
v 5 14 1
v 5 14 -0
v 5 14 -1
v -5 2 1
v -5 14 1
v -4 1 1
v -4 2 1
v -4 6 1
v -4 7 1
v -4 10 1
v -4 13 1
v -4 14 1
v -4 15 1
v -3 3 1
v -3 4 1
v -3 7 1
v -3 8 1
v -3 10 1
v -3 11 1
v -3 12 1
v -3 13 1
v -3 14 1
v -2 5 1
v -2 6 1
v -2 8 1
v -2 9 1
v -2 10 1
v -2 11 1
v -2 12 1
v -2 13 1
v -2 14 1
v -1 4 1
v -1 5 1
v -1 9 1
v -1 10 1
v -1 13 1
v 1 4 1
v 1 5 1
v 1 9 1
v 1 10 1
v 2 5 1
v 2 6 1
v 2 8 1
v 2 9 1
v 3 3 1
v 3 4 1
v 3 7 1
v 3 8 1
v 4 1 1
v 4 2 1
v 4 6 1
v 4 7 1
v 4 14 1
v 4 15 1
v 5 2 1
v 5 14 1
v -5 2 -1
v -5 14 -1
v -4 1 -1
v -4 2 -1
v -4 4 -1
v -4 5 -1
v -4 8 -1
v -4 9 -1
v -4 12 -1
v -4 13 -1
v -4 14 -1
v -4 15 -1
v -3 3 -1
v -3 4 -1
v -3 5 -1
v -3 6 -1
v -3 7 -1
v -3 8 -1
v -3 9 -1
v -3 10 -1
v -3 11 -1
v -3 12 -1
v -3 13 -1
v -3 14 -1
v -2 2 -1
v -2 3 -1
v -2 4 -1
v -2 5 -1
v -2 6 -1
v -2 7 -1
v -2 8 -1
v -2 9 -1
v -2 10 -1
v -2 11 -1
v -2 12 -1
v -2 13 -1
v -2 14 -1
v -1 2 -1
v -1 3 -1
v -1 4 -1
v -1 5 -1
v -1 6 -1
v -1 7 -1
v -1 8 -1
v -1 9 -1
v -1 10 -1
v -1 11 -1
v -1 12 -1
v -1 13 -1
v -1 14 -1
v 0 3 -1
v 0 4 -1
v 0 5 -1
v 0 6 -1
v 0 7 -1
v 0 8 -1
v 0 9 -1
v 0 10 -1
v 0 11 -1
v 0 12 -1
v 0 13 -1
v 0 14 -1
v 1 3 -1
v 1 4 -1
v 1 5 -1
v 1 6 -1
v 1 7 -1
v 1 8 -1
v 1 9 -1
v 1 10 -1
v 1 11 -1
v 1 12 -1
v 1 13 -1
v 1 14 -1
v 2 2 -1
v 2 3 -1
v 2 4 -1
v 2 5 -1
v 2 6 -1
v 2 7 -1
v 2 8 -1
v 2 9 -1
v 2 10 -1
v 2 11 -1
v 2 12 -1
v 2 13 -1
v 2 14 -1
v 3 2 -1
v 3 3 -1
v 3 4 -1
v 3 5 -1
v 3 6 -1
v 3 7 -1
v 3 8 -1
v 3 9 -1
v 3 10 -1
v 3 11 -1
v 3 12 -1
v 3 13 -1
v 3 14 -1
v 4 1 -1
v 4 2 -1
v 4 3 -1
v 4 4 -1
v 4 5 -1
v 4 6 -1
v 4 7 -1
v 4 8 -1
v 4 9 -1
v 4 10 -1
v 4 11 -1
v 4 12 -1
v 4 13 -1
v 4 14 -1
v 4 15 -1
v 5 2 -1
v 5 14 -1
v -4 1 1
v 4 1 1
v -4 1 -0
v 4 1 -0
v -4 1 -1
v 4 1 -1
v -5 2 1
v -4 2 1
v 4 2 1
v 5 2 1
v -5 2 -0
v -4 2 -0
v 4 2 -0
v 5 2 -0
v -5 2 -1
v -4 2 -1
v 4 2 -1
v 5 2 -1
v -5 14 1
v -4 14 1
v 4 14 1
v 5 14 1
v -5 14 -0
v -4 14 -0
v 4 14 -0
v 5 14 -0
v -5 14 -1
v -4 14 -1
v 4 14 -1
v 5 14 -1
v -4 15 1
v 4 15 1
v -4 15 -0
v 4 15 -0
v -4 15 -1
v 4 15 -1

# faces
f 4/3/1 2/3/1 1/3/1
f 5/2/1 3/2/1 2/2/1
f 5/3/1 2/3/1 4/3/1
f 6/2/1 3/2/1 5/2/1
f 10/3/1 8/3/1 7/3/1
f 11/2/1 9/2/1 8/2/1
f 11/3/1 8/3/1 10/3/1
f 12/2/1 9/2/1 11/2/1
f 16/3/1 14/3/1 13/3/1
f 17/2/1 15/2/1 14/2/1
f 17/3/1 14/3/1 16/3/1
f 18/2/1 15/2/1 17/2/1
f 19/3/2 20/3/2 22/3/2
f 20/2/2 21/2/2 23/2/2
f 22/3/2 20/3/2 23/3/2
f 23/2/2 21/2/2 24/2/2
f 25/3/2 26/3/2 28/3/2
f 26/2/2 27/2/2 29/2/2
f 28/3/2 26/3/2 29/3/2
f 29/2/2 27/2/2 30/2/2
f 31/3/2 32/3/2 34/3/2
f 32/2/2 33/2/2 35/2/2
f 34/3/2 32/3/2 35/3/2
f 35/2/2 33/2/2 36/2/2
f 40/3/3 38/3/3 37/3/3
f 41/3/3 38/3/3 40/3/3
f 42/3/3 38/3/3 41/3/3
f 43/3/3 38/3/3 42/3/3
f 44/3/3 38/3/3 43/3/3
f 45/3/3 38/3/3 44/3/3
f 47/3/3 40/3/3 39/3/3
f 47/3/3 41/3/3 40/3/3
f 48/3/3 41/3/3 47/3/3
f 49/4/3 42/4/3 41/4/3
f 49/3/3 43/3/3 42/3/3
f 50/3/3 43/3/3 49/3/3
f 51/4/3 44/4/3 43/4/3
f 51/3/3 43/3/3 50/3/3
f 52/4/3 44/4/3 51/4/3
f 53/4/3 44/4/3 52/4/3
f 54/3/3 46/3/3 45/3/3
f 54/4/3 44/4/3 53/4/3
f 54/3/3 45/3/3 44/3/3
f 55/3/3 46/3/3 54/3/3
f 56/3/3 41/3/3 48/3/3
f 57/4/3 50/4/3 49/4/3
f 57/3/3 41/3/3 56/3/3
f 57/4/3 49/4/3 41/4/3
f 58/3/3 52/3/3 51/3/3
f 58/4/3 50/4/3 57/4/3
f 58/3/3 51/3/3 50/3/3
f 59/3/3 52/3/3 58/3/3
f 60/3/3 52/3/3 59/3/3
f 61/4/3 53/4/3 52/4/3
f 61/3/3 52/3/3 60/3/3
f 62/3/3 54/3/3 53/3/3
f 62/4/3 53/4/3 61/4/3
f 63/4/3 55/4/3 54/4/3
f 63/3/3 54/3/3 62/3/3
f 64/3/3 46/3/3 55/3/3
f 64/4/3 55/4/3 63/4/3
f 65/4/3 48/4/3 47/4/3
f 65/3/3 56/3/3 48/3/3
f 66/4/3 57/4/3 56/4/3
f 66/3/3 56/3/3 65/3/3
f 66/4/3 58/4/3 57/4/3
f 66/4/3 59/4/3 58/4/3
f 67/3/3 60/3/3 59/3/3
f 67/4/3 59/4/3 66/4/3
f 68/4/3 63/4/3 62/4/3
f 68/3/3 60/3/3 67/3/3
f 68/4/3 62/4/3 61/4/3
f 68/4/3 61/4/3 60/4/3
f 69/3/3 64/3/3 63/3/3
f 69/4/3 63/4/3 68/4/3
f 70/4/3 66/4/3 65/4/3
f 70/4/3 65/4/3 47/4/3
f 70/4/3 67/4/3 66/4/3
f 70/4/3 68/4/3 67/4/3
f 71/4/3 68/4/3 70/4/3
f 72/4/3 68/4/3 71/4/3
f 73/3/3 69/3/3 68/3/3
f 73/4/3 68/4/3 72/4/3
f 74/4/3 72/4/3 71/4/3
f 74/3/3 71/3/3 70/3/3
f 75/4/3 72/4/3 74/4/3
f 76/4/3 72/4/3 75/4/3
f 77/3/3 73/3/3 72/3/3
f 77/4/3 72/4/3 76/4/3
f 78/3/3 47/3/3 39/3/3
f 78/4/3 70/4/3 47/4/3
f 79/3/3 74/3/3 70/3/3
f 79/4/3 70/4/3 78/4/3
f 79/3/3 75/3/3 74/3/3
f 80/4/3 76/4/3 75/4/3
f 81/3/3 77/3/3 76/3/3
f 81/4/3 76/4/3 80/4/3
f 82/3/3 78/3/3 39/3/3
f 82/3/3 79/3/3 78/3/3
f 83/3/3 79/3/3 82/3/3
f 84/4/3 80/4/3 75/4/3
f 84/3/3 79/3/3 83/3/3
f 84/3/3 75/3/3 79/3/3
f 85/3/3 81/3/3 80/3/3
f 85/4/3 80/4/3 84/4/3
f 86/3/3 64/3/3 69/3/3
f 86/3/3 81/3/3 85/3/3
f 86/3/3 69/3/3 73/3/3
f 86/3/3 73/3/3 77/3/3
f 86/3/3 77/3/3 81/3/3
f 86/3/3 46/3/3 64/3/3
f 87/3/3 46/3/3 86/3/3
f 88/3/3 85/3/3 84/3/3
f 88/3/3 84/3/3 83/3/3
f 88/3/3 86/3/3 85/3/3
f 89/3/3 86/3/3 88/3/3
f 90/2/4 91/2/4 93/2/4
f 93/2/4 91/2/4 94/2/4
f 94/2/4 91/2/4 95/2/4
f 95/2/4 91/2/4 96/2/4
f 96/2/4 91/2/4 97/2/4
f 97/2/4 91/2/4 98/2/4
f 98/2/4 91/2/4 99/2/4
f 99/2/4 91/2/4 100/2/4
f 93/1/4 94/1/4 102/1/4
f 94/2/4 95/2/4 103/2/4
f 102/1/4 94/1/4 103/1/4
f 95/1/4 96/1/4 104/1/4
f 103/2/4 95/2/4 104/2/4
f 104/1/4 96/1/4 105/1/4
f 105/1/4 96/1/4 106/1/4
f 96/2/4 97/2/4 107/2/4
f 106/1/4 96/1/4 107/1/4
f 97/1/4 98/1/4 108/1/4
f 107/2/4 97/2/4 108/2/4
f 108/1/4 98/1/4 109/1/4
f 109/1/4 98/1/4 110/1/4
f 98/2/4 99/2/4 111/2/4
f 110/1/4 98/1/4 111/1/4
f 99/1/4 100/1/4 112/1/4
f 111/2/4 99/2/4 112/2/4
f 100/2/4 101/2/4 113/2/4
f 112/1/4 100/1/4 113/1/4
f 92/2/4 93/2/4 114/2/4
f 93/1/4 102/1/4 114/1/4
f 102/2/4 103/2/4 115/2/4
f 114/1/4 102/1/4 115/1/4
f 103/1/4 104/1/4 116/1/4
f 115/2/4 103/2/4 116/2/4
f 104/2/4 105/2/4 117/2/4
f 116/1/4 104/1/4 117/1/4
f 105/1/4 106/1/4 118/1/4
f 117/2/4 105/2/4 118/2/4
f 106/2/4 107/2/4 119/2/4
f 118/1/4 106/1/4 119/1/4
f 107/1/4 108/1/4 120/1/4
f 119/2/4 107/2/4 120/2/4
f 108/2/4 109/2/4 121/2/4
f 120/1/4 108/1/4 121/1/4
f 109/1/4 110/1/4 122/1/4
f 121/2/4 109/2/4 122/2/4
f 110/2/4 111/2/4 123/2/4
f 122/1/4 110/1/4 123/1/4
f 111/1/4 112/1/4 124/1/4
f 123/2/4 111/2/4 124/2/4
f 112/2/4 113/2/4 125/2/4
f 124/1/4 112/1/4 125/1/4
f 113/2/4 101/2/4 126/2/4
f 125/2/4 113/2/4 126/2/4
f 92/2/4 114/2/4 127/2/4
f 114/2/4 115/2/4 127/2/4
f 116/1/4 117/1/4 128/1/4
f 127/2/4 115/2/4 128/2/4
f 117/1/4 118/1/4 128/1/4
f 115/1/4 116/1/4 128/1/4
f 128/1/4 118/1/4 129/1/4
f 129/1/4 118/1/4 130/1/4
f 118/2/4 119/2/4 131/2/4
f 130/1/4 118/1/4 131/1/4
f 119/1/4 120/1/4 132/1/4
f 131/2/4 119/2/4 132/2/4
f 120/1/4 121/1/4 132/1/4
f 121/1/4 122/1/4 132/1/4
f 132/1/4 122/1/4 133/1/4
f 133/1/4 122/1/4 134/1/4
f 122/2/4 123/2/4 135/2/4
f 134/1/4 122/1/4 135/1/4
f 124/1/4 125/1/4 136/1/4
f 135/2/4 123/2/4 136/2/4
f 123/1/4 124/1/4 136/1/4
f 125/1/4 126/1/4 136/1/4
f 136/1/4 126/1/4 137/1/4
f 137/1/4 126/1/4 138/1/4
f 126/2/4 101/2/4 139/2/4
f 138/1/4 126/1/4 139/1/4
f 128/2/4 129/2/4 140/2/4
f 127/1/4 128/1/4 140/1/4
f 129/1/4 130/1/4 141/1/4
f 140/2/4 129/2/4 141/2/4
f 130/2/4 131/2/4 142/2/4
f 141/1/4 130/1/4 142/1/4
f 131/1/4 132/1/4 143/1/4
f 142/2/4 131/2/4 143/2/4
f 132/2/4 133/2/4 144/2/4
f 143/1/4 132/1/4 144/1/4
f 133/1/4 134/1/4 145/1/4
f 144/2/4 133/2/4 145/2/4
f 134/2/4 135/2/4 146/2/4
f 145/1/4 134/1/4 146/1/4
f 135/1/4 136/1/4 147/1/4
f 146/2/4 135/2/4 147/2/4
f 136/2/4 137/2/4 148/2/4
f 147/1/4 136/1/4 148/1/4
f 137/1/4 138/1/4 149/1/4
f 148/2/4 137/2/4 149/2/4
f 138/2/4 139/2/4 150/2/4
f 149/1/4 138/1/4 150/1/4
f 139/2/4 101/2/4 151/2/4
f 150/2/4 139/2/4 151/2/4
f 140/1/4 141/1/4 152/1/4
f 127/1/4 140/1/4 152/1/4
f 141/2/4 142/2/4 153/2/4
f 152/1/4 141/1/4 153/1/4
f 144/1/4 145/1/4 154/1/4
f 153/2/4 142/2/4 154/2/4
f 143/1/4 144/1/4 154/1/4
f 142/1/4 143/1/4 154/1/4
f 154/1/4 145/1/4 155/1/4
f 155/1/4 145/1/4 156/1/4
f 145/2/4 146/2/4 157/2/4
f 156/1/4 145/1/4 157/1/4
f 146/1/4 147/1/4 158/1/4
f 157/2/4 146/2/4 158/2/4
f 147/1/4 148/1/4 158/1/4
f 148/1/4 149/1/4 158/1/4
f 158/1/4 149/1/4 159/1/4
f 159/1/4 149/1/4 160/1/4
f 149/2/4 150/2/4 161/2/4
f 160/1/4 149/1/4 161/1/4
f 150/1/4 151/1/4 162/1/4
f 161/2/4 150/2/4 162/2/4
f 151/2/4 101/2/4 163/2/4
f 162/1/4 151/1/4 163/1/4
f 92/2/4 127/2/4 164/2/4
f 127/1/4 152/1/4 164/1/4
f 152/2/4 153/2/4 165/2/4
f 164/1/4 152/1/4 165/1/4
f 153/1/4 154/1/4 166/1/4
f 165/2/4 153/2/4 166/2/4
f 154/2/4 155/2/4 167/2/4
f 166/1/4 154/1/4 167/1/4
f 155/1/4 156/1/4 168/1/4
f 167/2/4 155/2/4 168/2/4
f 156/2/4 157/2/4 169/2/4
f 168/1/4 156/1/4 169/1/4
f 157/1/4 158/1/4 170/1/4
f 169/2/4 157/2/4 170/2/4
f 158/2/4 159/2/4 171/2/4
f 170/1/4 158/1/4 171/1/4
f 159/1/4 160/1/4 172/1/4
f 171/2/4 159/2/4 172/2/4
f 160/2/4 161/2/4 173/2/4
f 172/1/4 160/1/4 173/1/4
f 161/1/4 162/1/4 174/1/4
f 173/2/4 161/2/4 174/2/4
f 162/2/4 163/2/4 175/2/4
f 174/1/4 162/1/4 175/1/4
f 163/2/4 101/2/4 176/2/4
f 175/2/4 163/2/4 176/2/4
f 92/2/4 164/2/4 177/2/4
f 164/2/4 165/2/4 177/2/4
f 167/1/4 168/1/4 178/1/4
f 177/2/4 165/2/4 178/2/4
f 166/1/4 167/1/4 178/1/4
f 165/1/4 166/1/4 178/1/4
f 178/1/4 168/1/4 179/1/4
f 179/1/4 168/1/4 180/1/4
f 168/2/4 169/2/4 181/2/4
f 180/1/4 168/1/4 181/1/4
f 169/1/4 170/1/4 182/1/4
f 181/2/4 169/2/4 182/2/4
f 170/1/4 171/1/4 182/1/4
f 171/1/4 172/1/4 182/1/4
f 182/1/4 172/1/4 183/1/4
f 183/1/4 172/1/4 184/1/4
f 172/2/4 173/2/4 185/2/4
f 184/1/4 172/1/4 185/1/4
f 174/1/4 175/1/4 186/1/4
f 185/2/4 173/2/4 186/2/4
f 175/1/4 176/1/4 186/1/4
f 173/1/4 174/1/4 186/1/4
f 186/1/4 176/1/4 187/1/4
f 187/1/4 176/1/4 188/1/4
f 176/2/4 101/2/4 189/2/4
f 188/1/4 176/1/4 189/1/4
f 92/2/4 177/2/4 190/2/4
f 177/1/4 178/1/4 191/1/4
f 190/2/4 177/2/4 191/2/4
f 178/2/4 179/2/4 192/2/4
f 191/1/4 178/1/4 192/1/4
f 179/1/4 180/1/4 193/1/4
f 192/2/4 179/2/4 193/2/4
f 180/2/4 181/2/4 194/2/4
f 193/1/4 180/1/4 194/1/4
f 181/1/4 182/1/4 195/1/4
f 194/2/4 181/2/4 195/2/4
f 182/2/4 183/2/4 196/2/4
f 195/1/4 182/1/4 196/1/4
f 183/1/4 184/1/4 197/1/4
f 196/2/4 183/2/4 197/2/4
f 184/2/4 185/2/4 198/2/4
f 197/1/4 184/1/4 198/1/4
f 185/1/4 186/1/4 199/1/4
f 198/2/4 185/2/4 199/2/4
f 186/2/4 187/2/4 200/2/4
f 199/1/4 186/1/4 200/1/4
f 187/1/4 188/1/4 201/1/4
f 200/2/4 187/2/4 201/2/4
f 188/2/4 189/2/4 202/2/4
f 201/1/4 188/1/4 202/1/4
f 189/2/4 101/2/4 203/2/4
f 202/2/4 189/2/4 203/2/4
f 203/2/4 101/2/4 204/2/4
f 199/2/4 200/2/4 205/2/4
f 201/2/4 202/2/4 205/2/4
f 202/2/4 203/2/4 205/2/4
f 200/2/4 201/2/4 205/2/4
f 198/2/4 199/2/4 205/2/4
f 197/2/4 198/2/4 205/2/4
f 192/2/4 193/2/4 205/2/4
f 193/2/4 194/2/4 205/2/4
f 194/2/4 195/2/4 205/2/4
f 195/2/4 196/2/4 205/2/4
f 196/2/4 197/2/4 205/2/4
f 191/2/4 192/2/4 205/2/4
f 205/2/4 203/2/4 206/2/4
f 209/3/5 208/3/5 207/3/5
f 210/3/5 208/3/5 209/3/5
f 211/2/5 210/2/5 209/2/5
f 212/2/5 210/2/5 211/2/5
f 217/3/5 214/3/5 213/3/5
f 218/3/5 214/3/5 217/3/5
f 219/3/5 216/3/5 215/3/5
f 220/3/5 216/3/5 219/3/5
f 221/2/5 218/2/5 217/2/5
f 222/2/5 218/2/5 221/2/5
f 223/2/5 220/2/5 219/2/5
f 224/2/5 220/2/5 223/2/5
f 225/3/6 226/3/6 229/3/6
f 229/3/6 226/3/6 230/3/6
f 227/3/6 228/3/6 231/3/6
f 231/3/6 228/3/6 232/3/6
f 229/2/6 230/2/6 233/2/6
f 233/2/6 230/2/6 234/2/6
f 231/2/6 232/2/6 235/2/6
f 235/2/6 232/2/6 236/2/6
f 237/3/6 238/3/6 239/3/6
f 239/3/6 238/3/6 240/3/6
f 239/2/6 240/2/6 241/2/6
f 241/2/6 240/2/6 242/2/6
