# MagicaVoxel @ Ephtracy

# group
g bonus2

# material
mtllib bonus2.mtl
usemtl palette

# normals
vn -1 0 0
vn 1 0 0
vn 0 0 1
vn 0 0 -1
vn 0 -1 0
vn 0 1 0

# texcoords
vt 0.283203 0.5
vt 0.287109 0.5
vt 0.291016 0.5
vt 0.294922 0.5
vt 0.298828 0.5
vt 0.994141 0.5

# verts
v -5 2 5
v -5 2 -5
v -5 4 5
v -5 4 1
v -5 6 5
v -5 6 2
v -5 14 5
v -5 14 2
v -5 15 5
v -5 15 1
v -5 18 5
v -5 18 -5
v -4 18 4
v -4 18 -4
v -4 19 4
v -4 19 3
v -4 19 -3
v -4 19 -4
v -4 20 3
v -4 20 -3
v -3 19 4
v -3 19 3
v -3 19 -3
v -3 19 -4
v -3 20 4
v -3 20 3
v -3 20 -3
v -3 20 -4
v -3 21 3
v -3 21 2
v -3 21 -2
v -3 21 -3
v -3 22 2
v -3 22 -2
v -2 21 3
v -2 21 2
v -2 21 -2
v -2 21 -3
v -2 22 3
v -2 22 2
v -2 22 -2
v -2 22 -3
v -2 24 2
v -2 24 -2
v -2 26 2
v -2 26 -2
v -2 29 2
v -2 29 1
v -2 29 -1
v -2 29 -2
v -2 30 1
v -2 30 -1
v -1 29 2
v -1 29 1
v -1 29 -1
v -1 29 -2
v -1 30 2
v -1 30 1
v -1 30 -1
v -1 30 -2
v 1 22 1
v 1 22 -1
v 1 24 1
v 1 24 -1
v 1 26 1
v 1 26 -1
v 1 29 1
v 1 29 -1
v 2 20 2
v 2 20 -2
v 2 22 2
v 2 22 -2
v 3 18 3
v 3 18 -3
v 3 20 3
v 3 20 -3
v 4 2 4
v 4 2 -4
v 4 4 4
v 4 4 1
v 4 4 -4
v 4 6 4
v 4 6 2
v 4 8 4
v 4 10 4
v 4 11 4
v 4 12 4
v 4 14 4
v 4 14 2
v 4 15 4
v 4 15 1
v 4 15 -4
v 4 18 4
v 4 18 -4
v -4 2 4
v -4 2 -4
v -4 4 4
v -4 4 1
v -4 4 -4
v -4 6 4
v -4 6 2
v -4 7 4
v -4 8 4
v -4 12 4
v -4 13 4
v -4 14 4
v -4 14 2
v -4 15 4
v -4 15 1
v -4 15 -4
v -4 18 4
v -4 18 -4
v -3 18 3
v -3 18 -3
v -3 20 3
v -3 20 -3
v -2 20 2
v -2 20 -2
v -2 22 2
v -2 22 -2
v -1 22 1
v -1 22 -1
v -1 24 1
v -1 24 -1
v -1 26 1
v -1 26 -1
v -1 29 1
v -1 29 -1
v 1 29 2
v 1 29 1
v 1 29 -1
v 1 29 -2
v 1 30 2
v 1 30 1
v 1 30 -1
v 1 30 -2
v 2 21 3
v 2 21 2
v 2 21 -2
v 2 21 -3
v 2 22 3
v 2 22 2
v 2 22 -2
v 2 22 -3
v 2 24 2
v 2 24 -2
v 2 26 2
v 2 26 -2
v 2 29 2
v 2 29 1
v 2 29 -1
v 2 29 -2
v 2 30 1
v 2 30 -1
v 3 19 4
v 3 19 3
v 3 19 -3
v 3 19 -4
v 3 20 4
v 3 20 3
v 3 20 -3
v 3 20 -4
v 3 21 3
v 3 21 2
v 3 21 -2
v 3 21 -3
v 3 22 2
v 3 22 -2
v 4 18 4
v 4 18 -4
v 4 19 4
v 4 19 3
v 4 19 -3
v 4 19 -4
v 4 20 3
v 4 20 -3
v 5 2 5
v 5 2 -5
v 5 4 5
v 5 4 1
v 5 6 5
v 5 6 2
v 5 14 5
v 5 14 2
v 5 15 5
v 5 15 1
v 5 18 5
v 5 18 -5
v -5 2 5
v -5 4 5
v -5 6 5
v -5 14 5
v -5 15 5
v -5 18 5
v -4 7 5
v -4 8 5
v -4 12 5
v -4 13 5
v -3 8 5
v -3 12 5
v -3 15 5
v -3 16 5
v -2 7 5
v -2 12 5
v -2 14 5
v -2 16 5
v -2 17 5
v -1 12 5
v -1 13 5
v 0 7 5
v 0 13 5
v 1 8 5
v 1 10 5
v 1 11 5
v 1 12 5
v 2 14 5
v 2 16 5
v 2 17 5
v 3 7 5
v 3 8 5
v 3 10 5
v 3 11 5
v 3 12 5
v 3 13 5
v 3 15 5
v 3 16 5
v 4 8 5
v 4 10 5
v 4 11 5
v 4 12 5
v 5 2 5
v 5 4 5
v 5 6 5
v 5 14 5
v 5 15 5
v 5 18 5
v -4 18 4
v -4 19 4
v -3 19 4
v -3 20 4
v 3 19 4
v 3 20 4
v 4 18 4
v 4 19 4
v -4 19 3
v -4 20 3
v -3 19 3
v -3 20 3
v -3 21 3
v -2 21 3
v -2 22 3
v 2 21 3
v 2 22 3
v 3 19 3
v 3 20 3
v 3 21 3
v 4 19 3
v 4 20 3
v -3 21 2
v -3 22 2
v -2 21 2
v -2 22 2
v -2 24 2
v -2 26 2
v -2 29 2
v -1 29 2
v -1 30 2
v 1 29 2
v 1 30 2
v 2 21 2
v 2 22 2
v 2 24 2
v 2 26 2
v 2 29 2
v 3 21 2
v 3 22 2
v -2 29 1
v -2 30 1
v -1 29 1
v -1 30 1
v 1 29 1
v 1 30 1
v 2 29 1
v 2 30 1
v -1 22 -1
v -1 24 -1
v -1 26 -1
v -1 29 -1
v 1 22 -1
v 1 24 -1
v 1 26 -1
v 1 29 -1
v -2 20 -2
v -2 22 -2
v 2 20 -2
v 2 22 -2
v -3 18 -3
v -3 20 -3
v 3 18 -3
v 3 20 -3
v -4 2 -4
v -4 4 -4
v -4 15 -4
v -4 18 -4
v -3 5 -4
v -3 14 -4
v -2 6 -4
v -2 7 -4
v -2 8 -4
v -2 9 -4
v -2 12 -4
v -2 13 -4
v -1 8 -4
v -1 9 -4
v -1 10 -4
v -1 11 -4
v 0 8 -4
v 0 9 -4
v 0 10 -4
v 0 11 -4
v 0 12 -4
v 0 13 -4
v 1 10 -4
v 1 11 -4
v 1 12 -4
v 1 13 -4
v 2 6 -4
v 2 7 -4
v 2 8 -4
v 2 9 -4
v 2 10 -4
v 2 11 -4
v 2 12 -4
v 2 13 -4
v 3 5 -4
v 3 14 -4
v 4 2 -4
v 4 4 -4
v 4 15 -4
v 4 18 -4
v -4 2 4
v -4 4 4
v -4 6 4
v -4 7 4
v -4 8 4
v -4 12 4
v -4 13 4
v -4 14 4
v -4 15 4
v -4 18 4
v -3 8 4
v -3 12 4
v -3 15 4
v -3 16 4
v -2 7 4
v -2 12 4
v -2 14 4
v -2 16 4
v -2 17 4
v -1 12 4
v -1 13 4
v 0 7 4
v 0 13 4
v 1 8 4
v 1 10 4
v 1 11 4
v 1 12 4
v 2 14 4
v 2 16 4
v 2 17 4
v 3 7 4
v 3 8 4
v 3 10 4
v 3 11 4
v 3 12 4
v 3 13 4
v 3 15 4
v 3 16 4
v 4 2 4
v 4 4 4
v 4 6 4
v 4 8 4
v 4 10 4
v 4 11 4
v 4 12 4
v 4 14 4
v 4 15 4
v 4 18 4
v -3 18 3
v -3 20 3
v 3 18 3
v 3 20 3
v -2 20 2
v -2 22 2
v 2 20 2
v 2 22 2
v -1 22 1
v -1 24 1
v -1 26 1
v -1 29 1
v 1 22 1
v 1 24 1
v 1 26 1
v 1 29 1
v -2 29 -1
v -2 30 -1
v -1 29 -1
v -1 30 -1
v 1 29 -1
v 1 30 -1
v 2 29 -1
v 2 30 -1
v -3 21 -2
v -3 22 -2
v -2 21 -2
v -2 22 -2
v -2 24 -2
v -2 26 -2
v -2 29 -2
v -1 29 -2
v -1 30 -2
v 1 29 -2
v 1 30 -2
v 2 21 -2
v 2 22 -2
v 2 24 -2
v 2 26 -2
v 2 29 -2
v 3 21 -2
v 3 22 -2
v -4 19 -3
v -4 20 -3
v -3 19 -3
v -3 20 -3
v -3 21 -3
v -2 21 -3
v -2 22 -3
v 2 21 -3
v 2 22 -3
v 3 19 -3
v 3 20 -3
v 3 21 -3
v 4 19 -3
v 4 20 -3
v -4 18 -4
v -4 19 -4
v -3 19 -4
v -3 20 -4
v 3 19 -4
v 3 20 -4
v 4 18 -4
v 4 19 -4
v -5 2 -5
v -5 18 -5
v -4 4 -5
v -4 15 -5
v -3 5 -5
v -3 14 -5
v -2 6 -5
v -2 7 -5
v -2 8 -5
v -2 9 -5
v -2 12 -5
v -2 13 -5
v -1 8 -5
v -1 9 -5
v -1 10 -5
v -1 11 -5
v 0 8 -5
v 0 9 -5
v 0 10 -5
v 0 11 -5
v 0 12 -5
v 0 13 -5
v 1 10 -5
v 1 11 -5
v 1 12 -5
v 1 13 -5
v 2 6 -5
v 2 7 -5
v 2 8 -5
v 2 9 -5
v 2 10 -5
v 2 11 -5
v 2 12 -5
v 2 13 -5
v 3 5 -5
v 3 14 -5
v 4 4 -5
v 4 15 -5
v 5 2 -5
v 5 18 -5
v -5 2 5
v 5 2 5
v -4 2 4
v 4 2 4
v -4 2 -4
v 4 2 -4
v -5 2 -5
v 5 2 -5
v -4 18 4
v 4 18 4
v -3 18 3
v 3 18 3
v -3 18 -3
v 3 18 -3
v -4 18 -4
v 4 18 -4
v -3 20 3
v 3 20 3
v -2 20 2
v 2 20 2
v -2 20 -2
v 2 20 -2
v -3 20 -3
v 3 20 -3
v -2 22 2
v 2 22 2
v -1 22 1
v 1 22 1
v -1 22 -1
v 1 22 -1
v -2 22 -2
v 2 22 -2
v -1 29 1
v 1 29 1
v -1 29 -1
v 1 29 -1
v -5 18 5
v 5 18 5
v -4 18 4
v 4 18 4
v -4 18 -4
v 4 18 -4
v -5 18 -5
v 5 18 -5
v -4 19 4
v -3 19 4
v 3 19 4
v 4 19 4
v -4 19 3
v -3 19 3
v 3 19 3
v 4 19 3
v -4 19 -3
v -3 19 -3
v 3 19 -3
v 4 19 -3
v -4 19 -4
v -3 19 -4
v 3 19 -4
v 4 19 -4
v -3 20 4
v 3 20 4
v -4 20 3
v -3 20 3
v 3 20 3
v 4 20 3
v -4 20 -3
v -3 20 -3
v 3 20 -3
v 4 20 -3
v -3 20 -4
v 3 20 -4
v -3 21 3
v -2 21 3
v 2 21 3
v 3 21 3
v -3 21 2
v -2 21 2
v 2 21 2
v 3 21 2
v -3 21 -2
v -2 21 -2
v 2 21 -2
v 3 21 -2
v -3 21 -3
v -2 21 -3
v 2 21 -3
v 3 21 -3
v -2 22 3
v 2 22 3
v -3 22 2
v -2 22 2
v 2 22 2
v 3 22 2
v -3 22 -2
v -2 22 -2
v 2 22 -2
v 3 22 -2
v -2 22 -3
v 2 22 -3
v -2 29 2
v -1 29 2
v 1 29 2
v 2 29 2
v -2 29 1
v -1 29 1
v 1 29 1
v 2 29 1
v -2 29 -1
v -1 29 -1
v 1 29 -1
v 2 29 -1
v -2 29 -2
v -1 29 -2
v 1 29 -2
v 2 29 -2
v -1 30 2
v 1 30 2
v -2 30 1
v -1 30 1
v 1 30 1
v 2 30 1
v -2 30 -1
v -1 30 -1
v 1 30 -1
v 2 30 -1
v -1 30 -2
v 1 30 -2

# faces
f 3/1/1 2/1/1 1/1/1
f 4/1/1 2/1/1 3/1/1
f 5/6/1 4/6/1 3/6/1
f 6/6/1 4/6/1 5/6/1
f 7/5/1 6/5/1 5/5/1
f 8/6/1 4/6/1 6/6/1
f 8/5/1 6/5/1 7/5/1
f 9/6/1 8/6/1 7/6/1
f 10/1/1 2/1/1 4/1/1
f 10/6/1 8/6/1 9/6/1
f 10/6/1 4/6/1 8/6/1
f 11/1/1 10/1/1 9/1/1
f 12/1/1 2/1/1 10/1/1
f 12/1/1 10/1/1 11/1/1
f 15/1/1 14/1/1 13/1/1
f 16/1/1 14/1/1 15/1/1
f 17/1/1 14/1/1 16/1/1
f 18/1/1 14/1/1 17/1/1
f 19/1/1 17/1/1 16/1/1
f 20/1/1 17/1/1 19/1/1
f 25/1/1 22/1/1 21/1/1
f 26/1/1 22/1/1 25/1/1
f 27/1/1 24/1/1 23/1/1
f 28/1/1 24/1/1 27/1/1
f 29/1/1 27/1/1 26/1/1
f 30/1/1 27/1/1 29/1/1
f 31/1/1 27/1/1 30/1/1
f 32/1/1 27/1/1 31/1/1
f 33/1/1 31/1/1 30/1/1
f 34/1/1 31/1/1 33/1/1
f 39/1/1 36/1/1 35/1/1
f 40/1/1 36/1/1 39/1/1
f 41/1/1 38/1/1 37/1/1
f 42/1/1 38/1/1 41/1/1
f 43/1/1 41/1/1 40/1/1
f 44/1/1 41/1/1 43/1/1
f 45/2/1 44/2/1 43/2/1
f 46/2/1 44/2/1 45/2/1
f 47/4/1 46/4/1 45/4/1
f 48/4/1 46/4/1 47/4/1
f 49/4/1 46/4/1 48/4/1
f 50/4/1 46/4/1 49/4/1
f 51/4/1 49/4/1 48/4/1
f 52/4/1 49/4/1 51/4/1
f 57/4/1 54/4/1 53/4/1
f 58/4/1 54/4/1 57/4/1
f 59/4/1 56/4/1 55/4/1
f 60/4/1 56/4/1 59/4/1
f 63/1/1 62/1/1 61/1/1
f 64/1/1 62/1/1 63/1/1
f 65/2/1 64/2/1 63/2/1
f 66/2/1 64/2/1 65/2/1
f 67/4/1 66/4/1 65/4/1
f 68/4/1 66/4/1 67/4/1
f 71/1/1 70/1/1 69/1/1
f 72/1/1 70/1/1 71/1/1
f 75/1/1 74/1/1 73/1/1
f 76/1/1 74/1/1 75/1/1
f 79/1/1 78/1/1 77/1/1
f 80/1/1 78/1/1 79/1/1
f 81/1/1 78/1/1 80/1/1
f 82/6/1 80/6/1 79/6/1
f 83/6/1 80/6/1 82/6/1
f 84/5/1 83/5/1 82/5/1
f 85/5/1 83/5/1 84/5/1
f 86/5/1 83/5/1 85/5/1
f 87/5/1 83/5/1 86/5/1
f 88/5/1 83/5/1 87/5/1
f 89/6/1 80/6/1 83/6/1
f 89/5/1 83/5/1 88/5/1
f 90/6/1 89/6/1 88/6/1
f 91/1/1 81/1/1 80/1/1
f 91/6/1 89/6/1 90/6/1
f 91/6/1 80/6/1 89/6/1
f 92/1/1 81/1/1 91/1/1
f 93/1/1 91/1/1 90/1/1
f 93/1/1 92/1/1 91/1/1
f 94/1/1 92/1/1 93/1/1
f 95/1/2 96/1/2 97/1/2
f 97/1/2 96/1/2 98/1/2
f 98/1/2 96/1/2 99/1/2
f 97/6/2 98/6/2 100/6/2
f 100/6/2 98/6/2 101/6/2
f 100/5/2 101/5/2 102/5/2
f 102/5/2 101/5/2 103/5/2
f 103/5/2 101/5/2 104/5/2
f 104/5/2 101/5/2 105/5/2
f 105/5/2 101/5/2 106/5/2
f 101/6/2 98/6/2 107/6/2
f 106/5/2 101/5/2 107/5/2
f 106/6/2 107/6/2 108/6/2
f 98/1/2 99/1/2 109/1/2
f 108/6/2 107/6/2 109/6/2
f 107/6/2 98/6/2 109/6/2
f 109/1/2 99/1/2 110/1/2
f 108/1/2 109/1/2 111/1/2
f 109/1/2 110/1/2 111/1/2
f 111/1/2 110/1/2 112/1/2
f 113/1/2 114/1/2 115/1/2
f 115/1/2 114/1/2 116/1/2
f 117/1/2 118/1/2 119/1/2
f 119/1/2 118/1/2 120/1/2
f 121/1/2 122/1/2 123/1/2
f 123/1/2 122/1/2 124/1/2
f 123/2/2 124/2/2 125/2/2
f 125/2/2 124/2/2 126/2/2
f 125/4/2 126/4/2 127/4/2
f 127/4/2 126/4/2 128/4/2
f 129/4/2 130/4/2 133/4/2
f 133/4/2 130/4/2 134/4/2
f 131/4/2 132/4/2 135/4/2
f 135/4/2 132/4/2 136/4/2
f 137/1/2 138/1/2 141/1/2
f 141/1/2 138/1/2 142/1/2
f 139/1/2 140/1/2 143/1/2
f 143/1/2 140/1/2 144/1/2
f 142/1/2 143/1/2 145/1/2
f 145/1/2 143/1/2 146/1/2
f 145/2/2 146/2/2 147/2/2
f 147/2/2 146/2/2 148/2/2
f 147/4/2 148/4/2 149/4/2
f 149/4/2 148/4/2 150/4/2
f 150/4/2 148/4/2 151/4/2
f 151/4/2 148/4/2 152/4/2
f 150/4/2 151/4/2 153/4/2
f 153/4/2 151/4/2 154/4/2
f 155/1/2 156/1/2 159/1/2
f 159/1/2 156/1/2 160/1/2
f 157/1/2 158/1/2 161/1/2
f 161/1/2 158/1/2 162/1/2
f 160/1/2 161/1/2 163/1/2
f 163/1/2 161/1/2 164/1/2
f 164/1/2 161/1/2 165/1/2
f 165/1/2 161/1/2 166/1/2
f 164/1/2 165/1/2 167/1/2
f 167/1/2 165/1/2 168/1/2
f 169/1/2 170/1/2 171/1/2
f 171/1/2 170/1/2 172/1/2
f 172/1/2 170/1/2 173/1/2
f 173/1/2 170/1/2 174/1/2
f 172/1/2 173/1/2 175/1/2
f 175/1/2 173/1/2 176/1/2
f 177/1/2 178/1/2 179/1/2
f 179/1/2 178/1/2 180/1/2
f 179/6/2 180/6/2 181/6/2
f 181/6/2 180/6/2 182/6/2
f 181/5/2 182/5/2 183/5/2
f 182/6/2 180/6/2 184/6/2
f 183/5/2 182/5/2 184/5/2
f 183/6/2 184/6/2 185/6/2
f 180/1/2 178/1/2 186/1/2
f 185/6/2 184/6/2 186/6/2
f 184/6/2 180/6/2 186/6/2
f 185/1/2 186/1/2 187/1/2
f 186/1/2 178/1/2 188/1/2
f 187/1/2 186/1/2 188/1/2
f 195/5/3 192/5/3 191/5/3
f 196/5/3 192/5/3 195/5/3
f 197/5/3 192/5/3 196/5/3
f 198/5/3 192/5/3 197/5/3
f 199/3/3 196/3/3 195/3/3
f 199/5/3 197/5/3 196/5/3
f 200/3/3 198/3/3 197/3/3
f 200/5/3 197/5/3 199/5/3
f 201/1/3 194/1/3 193/1/3
f 201/6/3 193/6/3 192/6/3
f 202/1/3 194/1/3 201/1/3
f 203/3/3 200/3/3 199/3/3
f 203/5/3 195/5/3 191/5/3
f 203/3/3 199/3/3 195/3/3
f 204/3/3 198/3/3 200/3/3
f 204/3/3 200/3/3 203/3/3
f 205/6/3 202/6/3 201/6/3
f 205/5/3 192/5/3 198/5/3
f 205/6/3 201/6/3 192/6/3
f 206/1/3 194/1/3 202/1/3
f 206/6/3 202/6/3 205/6/3
f 207/1/3 194/1/3 206/1/3
f 208/3/3 198/3/3 204/3/3
f 208/5/3 204/5/3 203/5/3
f 209/5/3 205/5/3 198/5/3
f 209/3/3 198/3/3 208/3/3
f 209/5/3 206/5/3 205/5/3
f 210/5/3 203/5/3 191/5/3
f 210/5/3 208/5/3 203/5/3
f 210/5/3 209/5/3 208/5/3
f 211/5/3 206/5/3 209/5/3
f 211/5/3 209/5/3 210/5/3
f 212/3/3 211/3/3 210/3/3
f 213/3/3 211/3/3 212/3/3
f 214/3/3 211/3/3 213/3/3
f 215/3/3 211/3/3 214/3/3
f 216/5/3 206/5/3 211/5/3
f 217/6/3 207/6/3 206/6/3
f 217/5/3 206/5/3 216/5/3
f 218/1/3 194/1/3 207/1/3
f 218/6/3 207/6/3 217/6/3
f 219/5/3 210/5/3 191/5/3
f 219/3/3 212/3/3 210/3/3
f 220/5/3 213/5/3 212/5/3
f 220/3/3 212/3/3 219/3/3
f 221/3/3 214/3/3 213/3/3
f 221/5/3 213/5/3 220/5/3
f 222/5/3 215/5/3 214/5/3
f 222/3/3 214/3/3 221/3/3
f 223/3/3 211/3/3 215/3/3
f 223/5/3 215/5/3 222/5/3
f 224/5/3 216/5/3 211/5/3
f 224/3/3 211/3/3 223/3/3
f 225/6/3 217/6/3 216/6/3
f 226/1/3 218/1/3 217/1/3
f 226/6/3 217/6/3 225/6/3
f 227/5/3 220/5/3 219/5/3
f 227/3/3 221/3/3 220/3/3
f 228/5/3 222/5/3 221/5/3
f 228/3/3 221/3/3 227/3/3
f 229/3/3 223/3/3 222/3/3
f 229/5/3 222/5/3 228/5/3
f 230/5/3 224/5/3 223/5/3
f 230/3/3 223/3/3 229/3/3
f 231/1/3 190/1/3 189/1/3
f 232/6/3 191/6/3 190/6/3
f 232/1/3 190/1/3 231/1/3
f 233/5/3 228/5/3 227/5/3
f 233/6/3 191/6/3 232/6/3
f 233/5/3 227/5/3 219/5/3
f 233/5/3 230/5/3 229/5/3
f 233/5/3 229/5/3 228/5/3
f 233/5/3 219/5/3 191/5/3
f 234/5/3 224/5/3 230/5/3
f 234/5/3 230/5/3 233/5/3
f 234/5/3 216/5/3 224/5/3
f 234/6/3 225/6/3 216/6/3
f 235/1/3 226/1/3 225/1/3
f 235/6/3 225/6/3 234/6/3
f 236/1/3 194/1/3 218/1/3
f 236/1/3 226/1/3 235/1/3
f 236/1/3 218/1/3 226/1/3
f 239/1/3 238/1/3 237/1/3
f 241/1/3 239/1/3 237/1/3
f 241/1/3 240/1/3 239/1/3
f 242/1/3 240/1/3 241/1/3
f 243/1/3 241/1/3 237/1/3
f 244/1/3 241/1/3 243/1/3
f 247/1/3 246/1/3 245/1/3
f 248/1/3 246/1/3 247/1/3
f 250/1/3 249/1/3 248/1/3
f 252/1/3 250/1/3 248/1/3
f 252/1/3 251/1/3 250/1/3
f 253/1/3 251/1/3 252/1/3
f 255/1/3 252/1/3 248/1/3
f 256/1/3 252/1/3 255/1/3
f 257/1/3 255/1/3 254/1/3
f 258/1/3 255/1/3 257/1/3
f 261/1/3 260/1/3 259/1/3
f 262/1/3 260/1/3 261/1/3
f 266/4/3 265/4/3 264/4/3
f 268/4/3 266/4/3 264/4/3
f 268/4/3 267/4/3 266/4/3
f 269/4/3 267/4/3 268/4/3
f 271/1/3 263/1/3 262/1/3
f 272/2/3 264/2/3 263/2/3
f 272/1/3 263/1/3 271/1/3
f 273/4/3 268/4/3 264/4/3
f 273/2/3 264/2/3 272/2/3
f 274/4/3 268/4/3 273/4/3
f 275/1/3 271/1/3 270/1/3
f 276/1/3 271/1/3 275/1/3
f 279/4/3 278/4/3 277/4/3
f 280/4/3 278/4/3 279/4/3
f 283/4/3 282/4/3 281/4/3
f 284/4/3 282/4/3 283/4/3
f 289/1/3 286/1/3 285/1/3
f 290/2/3 287/2/3 286/2/3
f 290/1/3 286/1/3 289/1/3
f 291/4/3 288/4/3 287/4/3
f 291/2/3 287/2/3 290/2/3
f 292/4/3 288/4/3 291/4/3
f 295/1/3 294/1/3 293/1/3
f 296/1/3 294/1/3 295/1/3
f 299/1/3 298/1/3 297/1/3
f 300/1/3 298/1/3 299/1/3
f 305/6/3 303/6/3 302/6/3
f 306/6/3 303/6/3 305/6/3
f 307/5/3 306/5/3 305/5/3
f 308/5/3 306/5/3 307/5/3
f 309/5/3 306/5/3 308/5/3
f 310/5/3 306/5/3 309/5/3
f 311/5/3 306/5/3 310/5/3
f 312/5/3 306/5/3 311/5/3
f 313/5/3 309/5/3 308/5/3
f 313/6/3 310/6/3 309/6/3
f 314/5/3 311/5/3 310/5/3
f 314/6/3 310/6/3 313/6/3
f 315/5/3 311/5/3 314/5/3
f 316/5/3 311/5/3 315/5/3
f 317/5/3 313/5/3 308/5/3
f 317/5/3 314/5/3 313/5/3
f 317/5/3 315/5/3 314/5/3
f 318/5/3 315/5/3 317/5/3
f 319/6/3 316/6/3 315/6/3
f 319/5/3 315/5/3 318/5/3
f 320/5/3 311/5/3 316/5/3
f 320/6/3 316/6/3 319/6/3
f 321/6/3 312/6/3 311/6/3
f 321/5/3 311/5/3 320/5/3
f 322/5/3 306/5/3 312/5/3
f 322/6/3 312/6/3 321/6/3
f 323/5/3 321/5/3 320/5/3
f 323/5/3 320/5/3 319/5/3
f 323/5/3 322/5/3 321/5/3
f 323/5/3 319/5/3 318/5/3
f 324/5/3 322/5/3 323/5/3
f 325/5/3 322/5/3 324/5/3
f 326/5/3 306/5/3 322/5/3
f 326/5/3 322/5/3 325/5/3
f 327/5/3 307/5/3 305/5/3
f 327/6/3 308/6/3 307/6/3
f 328/5/3 317/5/3 308/5/3
f 328/6/3 308/6/3 327/6/3
f 329/6/3 318/6/3 317/6/3
f 329/5/3 317/5/3 328/5/3
f 330/5/3 323/5/3 318/5/3
f 330/6/3 318/6/3 329/6/3
f 331/6/3 324/6/3 323/6/3
f 331/5/3 323/5/3 330/5/3
f 332/5/3 325/5/3 324/5/3
f 332/6/3 324/6/3 331/6/3
f 333/6/3 326/6/3 325/6/3
f 333/5/3 325/5/3 332/5/3
f 334/5/3 306/5/3 326/5/3
f 334/6/3 326/6/3 333/6/3
f 335/6/3 305/6/3 302/6/3
f 335/5/3 333/5/3 332/5/3
f 335/5/3 334/5/3 333/5/3
f 335/5/3 330/5/3 329/5/3
f 335/5/3 329/5/3 328/5/3
f 335/5/3 328/5/3 327/5/3
f 335/5/3 327/5/3 305/5/3
f 335/5/3 331/5/3 330/5/3
f 335/5/3 332/5/3 331/5/3
f 336/5/3 306/5/3 334/5/3
f 336/5/3 334/5/3 335/5/3
f 336/6/3 303/6/3 306/6/3
f 337/1/3 302/1/3 301/1/3
f 338/6/3 335/6/3 302/6/3
f 338/1/3 302/1/3 337/1/3
f 338/6/3 336/6/3 335/6/3
f 339/6/3 303/6/3 336/6/3
f 339/6/3 336/6/3 338/6/3
f 339/1/3 304/1/3 303/1/3
f 340/1/3 304/1/3 339/1/3
f 344/3/4 345/3/4 351/3/4
f 345/5/4 346/5/4 351/5/4
f 346/3/4 347/3/4 352/3/4
f 351/5/4 346/5/4 352/5/4
f 349/1/4 350/1/4 353/1/4
f 348/6/4 349/6/4 353/6/4
f 353/1/4 350/1/4 354/1/4
f 343/5/4 344/5/4 355/5/4
f 351/3/4 352/3/4 355/3/4
f 344/3/4 351/3/4 355/3/4
f 352/3/4 347/3/4 356/3/4
f 355/3/4 352/3/4 356/3/4
f 353/6/4 354/6/4 357/6/4
f 348/6/4 353/6/4 357/6/4
f 347/5/4 348/5/4 357/5/4
f 354/1/4 350/1/4 358/1/4
f 357/6/4 354/6/4 358/6/4
f 358/1/4 350/1/4 359/1/4
f 356/3/4 347/3/4 360/3/4
f 355/5/4 356/5/4 360/5/4
f 347/5/4 357/5/4 361/5/4
f 360/3/4 347/3/4 361/3/4
f 357/5/4 358/5/4 361/5/4
f 355/5/4 360/5/4 362/5/4
f 343/5/4 355/5/4 362/5/4
f 360/5/4 361/5/4 362/5/4
f 361/5/4 358/5/4 363/5/4
f 362/5/4 361/5/4 363/5/4
f 362/3/4 363/3/4 364/3/4
f 364/3/4 363/3/4 365/3/4
f 365/3/4 363/3/4 366/3/4
f 366/3/4 363/3/4 367/3/4
f 363/5/4 358/5/4 368/5/4
f 358/6/4 359/6/4 369/6/4
f 368/5/4 358/5/4 369/5/4
f 359/1/4 350/1/4 370/1/4
f 369/6/4 359/6/4 370/6/4
f 343/5/4 362/5/4 371/5/4
f 362/3/4 364/3/4 371/3/4
f 364/5/4 365/5/4 372/5/4
f 371/3/4 364/3/4 372/3/4
f 365/3/4 366/3/4 373/3/4
f 372/5/4 365/5/4 373/5/4
f 366/5/4 367/5/4 374/5/4
f 373/3/4 366/3/4 374/3/4
f 367/3/4 363/3/4 375/3/4
f 374/5/4 367/5/4 375/5/4
f 363/5/4 368/5/4 376/5/4
f 375/3/4 363/3/4 376/3/4
f 368/6/4 369/6/4 377/6/4
f 369/1/4 370/1/4 378/1/4
f 377/6/4 369/6/4 378/6/4
f 341/1/4 342/1/4 379/1/4
f 342/6/4 343/6/4 380/6/4
f 379/1/4 342/1/4 380/1/4
f 343/5/4 371/5/4 381/5/4
f 380/6/4 343/6/4 381/6/4
f 371/5/4 372/5/4 381/5/4
f 372/3/4 373/3/4 382/3/4
f 381/5/4 372/5/4 382/5/4
f 373/5/4 374/5/4 383/5/4
f 382/3/4 373/3/4 383/3/4
f 374/3/4 375/3/4 384/3/4
f 383/5/4 374/5/4 384/5/4
f 375/5/4 376/5/4 385/5/4
f 384/3/4 375/3/4 385/3/4
f 376/5/4 368/5/4 386/5/4
f 385/5/4 376/5/4 386/5/4
f 368/6/4 377/6/4 386/6/4
f 377/1/4 378/1/4 387/1/4
f 386/6/4 377/6/4 387/6/4
f 378/1/4 370/1/4 388/1/4
f 387/1/4 378/1/4 388/1/4
f 370/1/4 350/1/4 388/1/4
f 389/1/4 390/1/4 391/1/4
f 391/1/4 390/1/4 392/1/4
f 393/1/4 394/1/4 395/1/4
f 395/1/4 394/1/4 396/1/4
f 397/1/4 398/1/4 401/1/4
f 398/2/4 399/2/4 402/2/4
f 401/1/4 398/1/4 402/1/4
f 399/4/4 400/4/4 403/4/4
f 402/2/4 399/2/4 403/2/4
f 403/4/4 400/4/4 404/4/4
f 405/4/4 406/4/4 407/4/4
f 407/4/4 406/4/4 408/4/4
f 409/4/4 410/4/4 411/4/4
f 411/4/4 410/4/4 412/4/4
f 413/1/4 414/1/4 415/1/4
f 415/1/4 414/1/4 416/1/4
f 418/4/4 419/4/4 420/4/4
f 418/4/4 420/4/4 422/4/4
f 420/4/4 421/4/4 422/4/4
f 422/4/4 421/4/4 423/4/4
f 416/1/4 417/1/4 425/1/4
f 417/2/4 418/2/4 426/2/4
f 425/1/4 417/1/4 426/1/4
f 418/4/4 422/4/4 427/4/4
f 426/2/4 418/2/4 427/2/4
f 427/4/4 422/4/4 428/4/4
f 424/1/4 425/1/4 429/1/4
f 429/1/4 425/1/4 430/1/4
f 431/1/4 432/1/4 433/1/4
f 433/1/4 432/1/4 434/1/4
f 434/1/4 435/1/4 436/1/4
f 434/1/4 436/1/4 438/1/4
f 436/1/4 437/1/4 438/1/4
f 438/1/4 437/1/4 439/1/4
f 434/1/4 438/1/4 441/1/4
f 441/1/4 438/1/4 442/1/4
f 440/1/4 441/1/4 443/1/4
f 443/1/4 441/1/4 444/1/4
f 445/1/4 446/1/4 447/1/4
f 445/1/4 447/1/4 449/1/4
f 447/1/4 448/1/4 449/1/4
f 449/1/4 448/1/4 450/1/4
f 445/1/4 449/1/4 451/1/4
f 451/1/4 449/1/4 452/1/4
f 453/1/4 454/1/4 455/1/4
f 455/1/4 454/1/4 456/1/4
f 455/6/4 456/6/4 457/6/4
f 457/6/4 456/6/4 458/6/4
f 457/5/4 458/5/4 459/5/4
f 459/5/4 458/5/4 460/5/4
f 460/5/4 458/5/4 461/5/4
f 461/5/4 458/5/4 462/5/4
f 462/5/4 458/5/4 463/5/4
f 463/5/4 458/5/4 464/5/4
f 460/5/4 461/5/4 465/5/4
f 461/6/4 462/6/4 465/6/4
f 462/5/4 463/5/4 466/5/4
f 465/6/4 462/6/4 466/6/4
f 466/5/4 463/5/4 467/5/4
f 467/5/4 463/5/4 468/5/4
f 460/5/4 465/5/4 469/5/4
f 465/5/4 466/5/4 469/5/4
f 466/5/4 467/5/4 469/5/4
f 469/5/4 467/5/4 470/5/4
f 467/6/4 468/6/4 471/6/4
f 470/5/4 467/5/4 471/5/4
f 468/5/4 463/5/4 472/5/4
f 471/6/4 468/6/4 472/6/4
f 463/6/4 464/6/4 473/6/4
f 472/5/4 463/5/4 473/5/4
f 464/5/4 458/5/4 474/5/4
f 473/6/4 464/6/4 474/6/4
f 472/5/4 473/5/4 475/5/4
f 471/5/4 472/5/4 475/5/4
f 473/5/4 474/5/4 475/5/4
f 470/5/4 471/5/4 475/5/4
f 475/5/4 474/5/4 476/5/4
f 476/5/4 474/5/4 477/5/4
f 474/5/4 458/5/4 478/5/4
f 477/5/4 474/5/4 478/5/4
f 457/5/4 459/5/4 479/5/4
f 459/6/4 460/6/4 479/6/4
f 460/5/4 469/5/4 480/5/4
f 479/6/4 460/6/4 480/6/4
f 469/6/4 470/6/4 481/6/4
f 480/5/4 469/5/4 481/5/4
f 470/5/4 475/5/4 482/5/4
f 481/6/4 470/6/4 482/6/4
f 475/6/4 476/6/4 483/6/4
f 482/5/4 475/5/4 483/5/4
f 476/5/4 477/5/4 484/5/4
f 483/6/4 476/6/4 484/6/4
f 477/6/4 478/6/4 485/6/4
f 484/5/4 477/5/4 485/5/4
f 478/5/4 458/5/4 486/5/4
f 485/6/4 478/6/4 486/6/4
f 455/6/4 457/6/4 487/6/4
f 484/5/4 485/5/4 487/5/4
f 485/5/4 486/5/4 487/5/4
f 481/5/4 482/5/4 487/5/4
f 480/5/4 481/5/4 487/5/4
f 479/5/4 480/5/4 487/5/4
f 457/5/4 479/5/4 487/5/4
f 482/5/4 483/5/4 487/5/4
f 483/5/4 484/5/4 487/5/4
f 486/5/4 458/5/4 488/5/4
f 487/5/4 486/5/4 488/5/4
f 458/6/4 456/6/4 488/6/4
f 453/1/4 455/1/4 489/1/4
f 455/6/4 487/6/4 489/6/4
f 487/6/4 488/6/4 489/6/4
f 488/6/4 456/6/4 490/6/4
f 489/6/4 488/6/4 490/6/4
f 456/1/4 454/1/4 490/1/4
f 453/1/4 489/1/4 491/1/4
f 489/1/4 490/1/4 491/1/4
f 490/1/4 454/1/4 492/1/4
f 491/1/4 490/1/4 492/1/4
f 495/1/5 494/1/5 493/1/5
f 496/1/5 494/1/5 495/1/5
f 497/1/5 495/1/5 493/1/5
f 498/1/5 494/1/5 496/1/5
f 499/1/5 497/1/5 493/1/5
f 499/1/5 498/1/5 497/1/5
f 500/1/5 494/1/5 498/1/5
f 500/1/5 498/1/5 499/1/5
f 503/1/5 502/1/5 501/1/5
f 504/1/5 502/1/5 503/1/5
f 505/1/5 503/1/5 501/1/5
f 506/1/5 502/1/5 504/1/5
f 507/1/5 505/1/5 501/1/5
f 507/1/5 506/1/5 505/1/5
f 508/1/5 502/1/5 506/1/5
f 508/1/5 506/1/5 507/1/5
f 511/1/5 510/1/5 509/1/5
f 512/1/5 510/1/5 511/1/5
f 513/1/5 511/1/5 509/1/5
f 514/1/5 510/1/5 512/1/5
f 515/1/5 513/1/5 509/1/5
f 515/1/5 514/1/5 513/1/5
f 516/1/5 510/1/5 514/1/5
f 516/1/5 514/1/5 515/1/5
f 519/1/5 518/1/5 517/1/5
f 520/1/5 518/1/5 519/1/5
f 521/1/5 519/1/5 517/1/5
f 522/1/5 518/1/5 520/1/5
f 523/1/5 521/1/5 517/1/5
f 523/1/5 522/1/5 521/1/5
f 524/1/5 518/1/5 522/1/5
f 524/1/5 522/1/5 523/1/5
f 527/4/5 526/4/5 525/4/5
f 528/4/5 526/4/5 527/4/5
f 529/1/6 530/1/6 531/1/6
f 531/1/6 530/1/6 532/1/6
f 529/1/6 531/1/6 533/1/6
f 532/1/6 530/1/6 534/1/6
f 529/1/6 533/1/6 535/1/6
f 533/1/6 534/1/6 535/1/6
f 534/1/6 530/1/6 536/1/6
f 535/1/6 534/1/6 536/1/6
f 537/1/6 538/1/6 541/1/6
f 541/1/6 538/1/6 542/1/6
f 539/1/6 540/1/6 543/1/6
f 543/1/6 540/1/6 544/1/6
f 545/1/6 546/1/6 549/1/6
f 549/1/6 546/1/6 550/1/6
f 547/1/6 548/1/6 551/1/6
f 551/1/6 548/1/6 552/1/6
f 553/1/6 554/1/6 556/1/6
f 556/1/6 554/1/6 557/1/6
f 555/1/6 556/1/6 559/1/6
f 559/1/6 556/1/6 560/1/6
f 557/1/6 558/1/6 561/1/6
f 561/1/6 558/1/6 562/1/6
f 560/1/6 561/1/6 563/1/6
f 563/1/6 561/1/6 564/1/6
f 565/1/6 566/1/6 569/1/6
f 569/1/6 566/1/6 570/1/6
f 567/1/6 568/1/6 571/1/6
f 571/1/6 568/1/6 572/1/6
f 573/1/6 574/1/6 577/1/6
f 577/1/6 574/1/6 578/1/6
f 575/1/6 576/1/6 579/1/6
f 579/1/6 576/1/6 580/1/6
f 581/1/6 582/1/6 584/1/6
f 584/1/6 582/1/6 585/1/6
f 583/1/6 584/1/6 587/1/6
f 587/1/6 584/1/6 588/1/6
f 585/1/6 586/1/6 589/1/6
f 589/1/6 586/1/6 590/1/6
f 588/1/6 589/1/6 591/1/6
f 591/1/6 589/1/6 592/1/6
f 593/4/6 594/4/6 597/4/6
f 597/4/6 594/4/6 598/4/6
f 595/4/6 596/4/6 599/4/6
f 599/4/6 596/4/6 600/4/6
f 601/4/6 602/4/6 605/4/6
f 605/4/6 602/4/6 606/4/6
f 603/4/6 604/4/6 607/4/6
f 607/4/6 604/4/6 608/4/6
f 609/4/6 610/4/6 612/4/6
f 612/4/6 610/4/6 613/4/6
f 611/4/6 612/4/6 615/4/6
f 613/4/6 614/4/6 615/4/6
f 612/4/6 613/4/6 615/4/6
f 615/4/6 614/4/6 616/4/6
f 616/4/6 614/4/6 617/4/6
f 617/4/6 614/4/6 618/4/6
f 616/4/6 617/4/6 619/4/6
f 619/4/6 617/4/6 620/4/6
