# MagicaVoxel @ Ephtracy

# group
g cowboy

# material
mtllib cowboy.mtl
usemtl palette

# normals
vn -1 0 0
vn 1 0 0
vn 0 0 1
vn 0 0 -1
vn 0 -1 0
vn 0 1 0

# texcoords
vt 0.0449219 0.5
vt 0.0605469 0.5
vt 0.501953 0.5
vt 0.505859 0.5
vt 0.533203 0.5
vt 0.537109 0.5
vt 0.681641 0.5
vt 0.697266 0.5
vt 0.701172 0.5
vt 0.853516 0.5
vt 0.966797 0.5
vt 0.994141 0.5

# verts
v -4 19 3
v -4 19 -3
v -4 21 3
v -4 21 -3
v -3 8 1
v -3 8 -0
v -3 10 1
v -3 10 -0
v -3 12 1
v -3 12 -0
v -3 13 1
v -3 13 -0
v -2 0 2
v -2 0 -0
v -2 0 -1
v -2 1 2
v -2 1 1
v -2 1 -0
v -2 1 -1
v -2 3 1
v -2 3 -1
v -2 7 2
v -2 7 1
v -2 7 -1
v -2 7 -2
v -2 8 2
v -2 8 1
v -2 8 -0
v -2 8 -2
v -2 10 1
v -2 10 -0
v -2 12 2
v -2 12 1
v -2 12 -0
v -2 12 -2
v -2 13 2
v -2 13 1
v -2 13 -0
v -2 13 -2
v -2 14 2
v -2 14 1
v -2 14 -1
v -2 15 -1
v -2 15 -2
v -2 16 2
v -2 16 1
v -2 17 2
v -2 17 1
v -2 17 -2
v -2 18 2
v -2 18 1
v -2 19 2
v -2 19 1
v -2 19 -2
v -2 20 2
v -2 20 -2
v -2 21 2
v -2 21 -2
v -2 22 2
v -2 22 -2
v -1 13 1
v -1 13 -1
v -1 14 1
v -1 14 -1
v -1 14 -2
v -1 15 -1
v -1 15 -2
v -1 22 1
v -1 22 -1
v -1 23 1
v -1 23 -1
v 0 15 4
v 0 15 3
v 0 15 2
v 0 15 1
v 0 16 4
v 0 16 3
v 0 16 2
v 0 16 1
v 1 0 2
v 1 0 -0
v 1 0 -1
v 1 1 2
v 1 1 1
v 1 1 -0
v 1 1 -1
v 1 3 1
v 1 3 -1
v 1 6 1
v 1 6 -1
v 1 7 1
v 1 7 -1
v 1 8 1
v 1 8 -0
v 1 8 -1
v 1 10 -0
v 1 10 -1
v 1 11 -1
v 1 12 -0
v 1 12 -1
v 1 15 1
v 1 15 -1
v 1 16 1
v 1 17 1
v 1 17 -1
v 1 18 -0
v 1 18 -1
v 1 19 1
v 1 19 -0
v 1 20 1
v 1 20 -1
v 1 21 1
v 1 21 -1
v 1 22 1
v 1 22 -1
v 2 8 1
v 2 8 -0
v 2 10 1
v 2 10 -0
v 2 12 1
v 2 12 -0
v 2 19 2
v 2 19 1
v 2 19 -2
v 2 20 2
v 2 20 -2
v 3 20 3
v 3 20 -3
v 3 21 3
v 3 21 -3
v -3 20 3
v -3 20 -3
v -3 21 3
v -3 21 -3
v -2 8 1
v -2 8 -0
v -2 10 1
v -2 10 -0
v -2 12 1
v -2 12 -0
v -2 19 2
v -2 19 1
v -2 19 -2
v -2 20 2
v -2 20 -2
v -1 0 2
v -1 0 -0
v -1 0 -1
v -1 1 2
v -1 1 1
v -1 1 -0
v -1 1 -1
v -1 3 1
v -1 3 -1
v -1 6 1
v -1 6 -1
v -1 7 1
v -1 7 -1
v -1 8 1
v -1 8 -0
v -1 8 -1
v -1 12 -0
v -1 12 -1
v -1 15 2
v -1 15 1
v -1 15 -0
v -1 15 -1
v -1 16 2
v -1 16 1
v -1 16 -0
v -1 17 1
v -1 17 -1
v -1 18 -0
v -1 18 -1
v -1 19 1
v -1 19 -0
v -1 20 1
v -1 20 -1
v -1 21 1
v -1 21 -1
v -1 22 1
v -1 22 -1
v 0 15 1
v 0 15 -0
v 0 16 1
v 0 16 -0
v 1 13 1
v 1 13 -1
v 1 14 1
v 1 14 -1
v 1 14 -2
v 1 15 4
v 1 15 3
v 1 15 2
v 1 15 -1
v 1 15 -2
v 1 16 4
v 1 16 3
v 1 16 2
v 1 22 1
v 1 22 -1
v 1 23 1
v 1 23 -1
v 2 0 2
v 2 0 -0
v 2 0 -1
v 2 1 2
v 2 1 1
v 2 1 -0
v 2 1 -1
v 2 3 1
v 2 3 -1
v 2 7 2
v 2 7 1
v 2 7 -1
v 2 7 -2
v 2 8 2
v 2 8 1
v 2 8 -0
v 2 8 -2
v 2 10 2
v 2 10 1
v 2 10 -0
v 2 10 -2
v 2 12 1
v 2 12 -0
v 2 13 2
v 2 13 1
v 2 13 -0
v 2 13 -2
v 2 14 2
v 2 14 1
v 2 14 -1
v 2 15 -1
v 2 15 -2
v 2 16 2
v 2 16 1
v 2 17 2
v 2 17 1
v 2 17 -2
v 2 18 2
v 2 18 1
v 2 19 2
v 2 19 1
v 2 19 -2
v 2 20 2
v 2 20 -2
v 2 21 2
v 2 21 -2
v 2 22 2
v 2 22 -2
v 3 8 1
v 3 8 -0
v 3 10 1
v 3 10 -0
v 3 12 1
v 3 12 -0
v 3 13 1
v 3 13 -0
v 4 19 3
v 4 19 -3
v 4 21 3
v 4 21 -3
v 0 15 4
v 0 16 4
v 1 15 4
v 1 16 4
v -4 19 3
v -4 21 3
v -3 20 3
v -3 21 3
v 3 20 3
v 3 21 3
v 4 19 3
v 4 21 3
v -2 0 2
v -2 1 2
v -2 7 2
v -2 8 2
v -2 12 2
v -2 13 2
v -2 14 2
v -2 16 2
v -2 17 2
v -2 18 2
v -2 19 2
v -2 20 2
v -2 21 2
v -2 22 2
v -1 0 2
v -1 1 2
v -1 7 2
v -1 8 2
v -1 15 2
v -1 16 2
v -1 17 2
v -1 18 2
v 0 11 2
v 0 12 2
v 0 15 2
v 0 16 2
v 1 0 2
v 1 1 2
v 1 7 2
v 1 8 2
v 1 10 2
v 1 11 2
v 1 15 2
v 1 16 2
v 1 17 2
v 1 18 2
v 2 0 2
v 2 1 2
v 2 7 2
v 2 8 2
v 2 10 2
v 2 13 2
v 2 14 2
v 2 16 2
v 2 17 2
v 2 18 2
v 2 19 2
v 2 20 2
v 2 21 2
v 2 22 2
v -3 8 1
v -3 10 1
v -3 12 1
v -3 13 1
v -2 1 1
v -2 3 1
v -2 7 1
v -2 8 1
v -2 10 1
v -2 12 1
v -2 13 1
v -1 1 1
v -1 3 1
v -1 6 1
v -1 7 1
v -1 13 1
v -1 14 1
v -1 15 1
v -1 16 1
v -1 22 1
v -1 23 1
v 0 15 1
v 0 16 1
v 1 1 1
v 1 3 1
v 1 6 1
v 1 7 1
v 1 13 1
v 1 14 1
v 1 22 1
v 1 23 1
v 2 1 1
v 2 3 1
v 2 7 1
v 2 8 1
v 2 10 1
v 2 12 1
v 2 13 1
v 3 8 1
v 3 10 1
v 3 12 1
v 3 13 1
v -2 8 -0
v -2 10 -0
v -2 12 -0
v -1 8 -0
v -1 12 -0
v -1 18 -0
v -1 19 -0
v 1 8 -0
v 1 10 -0
v 1 12 -0
v 1 18 -0
v 1 19 -0
v 2 8 -0
v 2 10 -0
v 2 12 -0
v -1 7 -1
v -1 8 -1
v -1 12 -1
v -1 15 -1
v -1 17 -1
v -1 18 -1
v -1 20 -1
v -1 21 -1
v -1 22 -1
v 0 11 -1
v 0 12 -1
v 1 7 -1
v 1 8 -1
v 1 10 -1
v 1 11 -1
v 1 12 -1
v 1 15 -1
v 1 17 -1
v 1 18 -1
v 1 20 -1
v 1 21 -1
v 1 22 -1
v -2 19 -2
v -2 20 -2
v 2 19 -2
v 2 20 -2
v -2 19 2
v -2 20 2
v 2 19 2
v 2 20 2
v -2 8 1
v -2 10 1
v -2 12 1
v -1 7 1
v -1 8 1
v -1 16 1
v -1 17 1
v -1 19 1
v -1 20 1
v -1 21 1
v -1 22 1
v 0 11 1
v 0 12 1
v 0 15 1
v 0 16 1
v 1 7 1
v 1 8 1
v 1 10 1
v 1 11 1
v 1 15 1
v 1 16 1
v 1 17 1
v 1 19 1
v 1 20 1
v 1 21 1
v 1 22 1
v 2 8 1
v 2 10 1
v 2 12 1
v -3 8 -0
v -3 10 -0
v -3 12 -0
v -3 13 -0
v -2 8 -0
v -2 10 -0
v -2 12 -0
v -2 13 -0
v -1 15 -0
v -1 16 -0
v 0 15 -0
v 0 16 -0
v 2 8 -0
v 2 10 -0
v 2 12 -0
v 2 13 -0
v 3 8 -0
v 3 10 -0
v 3 12 -0
v 3 13 -0
v -2 0 -1
v -2 1 -1
v -2 3 -1
v -2 7 -1
v -2 14 -1
v -2 15 -1
v -1 0 -1
v -1 1 -1
v -1 3 -1
v -1 6 -1
v -1 13 -1
v -1 14 -1
v -1 15 -1
v -1 22 -1
v -1 23 -1
v 1 0 -1
v 1 1 -1
v 1 3 -1
v 1 6 -1
v 1 13 -1
v 1 14 -1
v 1 15 -1
v 1 22 -1
v 1 23 -1
v 2 0 -1
v 2 1 -1
v 2 3 -1
v 2 7 -1
v 2 14 -1
v 2 15 -1
v -2 7 -2
v -2 8 -2
v -2 12 -2
v -2 13 -2
v -2 15 -2
v -2 17 -2
v -2 19 -2
v -2 20 -2
v -2 21 -2
v -2 22 -2
v -1 14 -2
v -1 15 -2
v 0 11 -2
v 0 12 -2
v 1 10 -2
v 1 11 -2
v 1 14 -2
v 1 15 -2
v 2 7 -2
v 2 8 -2
v 2 10 -2
v 2 13 -2
v 2 15 -2
v 2 17 -2
v 2 19 -2
v 2 20 -2
v 2 21 -2
v 2 22 -2
v -4 19 -3
v -4 21 -3
v -3 20 -3
v -3 21 -3
v 3 20 -3
v 3 21 -3
v 4 19 -3
v 4 21 -3
v -2 0 2
v -1 0 2
v 1 0 2
v 2 0 2
v -2 0 -0
v -1 0 -0
v 1 0 -0
v 2 0 -0
v -2 0 -1
v -1 0 -1
v 1 0 -1
v 2 0 -1
v -1 6 1
v 1 6 1
v -1 6 -1
v 1 6 -1
v -2 7 2
v -1 7 2
v 1 7 2
v 2 7 2
v -2 7 1
v -1 7 1
v 1 7 1
v 2 7 1
v -2 7 -1
v 2 7 -1
v -2 7 -2
v 2 7 -2
v -3 8 1
v -2 8 1
v 2 8 1
v 3 8 1
v -3 8 -0
v -2 8 -0
v 2 8 -0
v 3 8 -0
v -2 12 1
v 0 12 1
v 2 12 1
v -2 12 -0
v -1 12 -0
v 1 12 -0
v 2 12 -0
v -1 12 -1
v 0 12 -1
v 1 12 -1
v -2 14 2
v 2 14 2
v -2 14 1
v -1 14 1
v 1 14 1
v 2 14 1
v -2 14 -1
v -1 14 -1
v 1 14 -1
v 2 14 -1
v -1 14 -2
v 1 14 -2
v 0 15 4
v 1 15 4
v 0 15 3
v 1 15 3
v 0 15 2
v 1 15 2
v -2 15 -1
v -1 15 -1
v 1 15 -1
v 2 15 -1
v -2 15 -2
v -1 15 -2
v 1 15 -2
v 2 15 -2
v -1 16 2
v 0 16 2
v -1 16 1
v 0 16 1
v -1 18 -0
v 1 18 -0
v -1 18 -1
v 1 18 -1
v -4 19 3
v 4 19 3
v -2 19 2
v 2 19 2
v -2 19 1
v 2 19 1
v -2 19 -2
v 2 19 -2
v -4 19 -3
v 4 19 -3
v -2 20 2
v 2 20 2
v -1 20 1
v 1 20 1
v -1 20 -1
v 1 20 -1
v -2 20 -2
v 2 20 -2
v -1 22 1
v 1 22 1
v -1 22 -1
v 1 22 -1
v -2 1 2
v -1 1 2
v 1 1 2
v 2 1 2
v -2 1 1
v -1 1 1
v 1 1 1
v 2 1 1
v -1 7 1
v 1 7 1
v -1 7 -1
v 1 7 -1
v -2 8 1
v -1 8 1
v 1 8 1
v 2 8 1
v -2 8 -0
v -1 8 -0
v 1 8 -0
v 2 8 -0
v -2 13 2
v 2 13 2
v -3 13 1
v -2 13 1
v -1 13 1
v 1 13 1
v 2 13 1
v 3 13 1
v -3 13 -0
v -2 13 -0
v 2 13 -0
v 3 13 -0
v -1 13 -1
v 1 13 -1
v -2 13 -2
v 2 13 -2
v -1 15 2
v 0 15 2
v -1 15 1
v 0 15 1
v 1 15 1
v -1 15 -0
v 0 15 -0
v -1 15 -1
v 1 15 -1
v 0 16 4
v 1 16 4
v 0 16 3
v 1 16 3
v 0 16 2
v 1 16 2
v -1 16 1
v 0 16 1
v -1 16 -0
v 0 16 -0
v -2 19 2
v 2 19 2
v -2 19 1
v -1 19 1
v 1 19 1
v 2 19 1
v -1 19 -0
v 1 19 -0
v -2 19 -2
v 2 19 -2
v -3 20 3
v 3 20 3
v -2 20 2
v 2 20 2
v -2 20 -2
v 2 20 -2
v -3 20 -3
v 3 20 -3
v -4 21 3
v -3 21 3
v 3 21 3
v 4 21 3
v -4 21 -3
v -3 21 -3
v 3 21 -3
v 4 21 -3
v -2 22 2
v 2 22 2
v -1 22 1
v 1 22 1
v -1 22 -1
v 1 22 -1
v -2 22 -2
v 2 22 -2
v -1 23 1
v 1 23 1
v -1 23 -1
v 1 23 -1

# faces
f 3/6/1 2/6/1 1/6/1
f 4/6/1 2/6/1 3/6/1
f 7/2/1 6/2/1 5/2/1
f 8/2/1 6/2/1 7/2/1
f 9/10/1 8/10/1 7/10/1
f 10/10/1 8/10/1 9/10/1
f 11/4/1 10/4/1 9/4/1
f 12/4/1 10/4/1 11/4/1
f 16/9/1 14/9/1 13/9/1
f 17/9/1 14/9/1 16/9/1
f 18/1/1 15/1/1 14/1/1
f 18/9/1 14/9/1 17/9/1
f 19/1/1 15/1/1 18/1/1
f 20/9/1 18/9/1 17/9/1
f 20/9/1 19/9/1 18/9/1
f 21/9/1 19/9/1 20/9/1
f 23/7/1 21/7/1 20/7/1
f 24/7/1 21/7/1 23/7/1
f 26/6/1 24/6/1 23/6/1
f 26/6/1 25/6/1 24/6/1
f 26/6/1 23/6/1 22/6/1
f 27/6/1 25/6/1 26/6/1
f 28/6/1 25/6/1 27/6/1
f 29/6/1 25/6/1 28/6/1
f 30/10/1 27/10/1 26/10/1
f 31/10/1 29/10/1 28/10/1
f 32/10/1 30/10/1 26/10/1
f 33/10/1 30/10/1 32/10/1
f 34/10/1 29/10/1 31/10/1
f 35/10/1 29/10/1 34/10/1
f 36/4/1 33/4/1 32/4/1
f 37/4/1 33/4/1 36/4/1
f 38/4/1 35/4/1 34/4/1
f 39/4/1 35/4/1 38/4/1
f 43/2/1 42/2/1 41/2/1
f 45/5/1 41/5/1 40/5/1
f 46/2/1 44/2/1 43/2/1
f 46/5/1 41/5/1 45/5/1
f 46/2/1 43/2/1 41/2/1
f 47/2/1 46/2/1 45/2/1
f 48/2/1 44/2/1 46/2/1
f 48/2/1 46/2/1 47/2/1
f 49/2/1 44/2/1 48/2/1
f 50/12/1 48/12/1 47/12/1
f 51/5/1 49/5/1 48/5/1
f 51/12/1 48/12/1 50/12/1
f 52/2/1 51/2/1 50/2/1
f 53/5/1 49/5/1 51/5/1
f 53/2/1 51/2/1 52/2/1
f 54/5/1 49/5/1 53/5/1
f 57/8/1 56/8/1 55/8/1
f 58/8/1 56/8/1 57/8/1
f 59/6/1 58/6/1 57/6/1
f 60/6/1 58/6/1 59/6/1
f 63/2/1 62/2/1 61/2/1
f 64/2/1 62/2/1 63/2/1
f 66/2/1 65/2/1 64/2/1
f 67/2/1 65/2/1 66/2/1
f 70/6/1 69/6/1 68/6/1
f 71/6/1 69/6/1 70/6/1
f 76/11/1 73/11/1 72/11/1
f 77/3/1 75/3/1 74/3/1
f 77/11/1 73/11/1 76/11/1
f 77/3/1 74/3/1 73/3/1
f 78/3/1 75/3/1 77/3/1
f 79/3/1 75/3/1 78/3/1
f 83/9/1 81/9/1 80/9/1
f 84/9/1 81/9/1 83/9/1
f 85/1/1 82/1/1 81/1/1
f 85/9/1 81/9/1 84/9/1
f 86/1/1 82/1/1 85/1/1
f 87/9/1 85/9/1 84/9/1
f 87/9/1 86/9/1 85/9/1
f 88/9/1 86/9/1 87/9/1
f 89/7/1 88/7/1 87/7/1
f 90/7/1 88/7/1 89/7/1
f 93/6/1 92/6/1 91/6/1
f 94/6/1 92/6/1 93/6/1
f 95/6/1 92/6/1 94/6/1
f 96/10/1 95/10/1 94/10/1
f 97/10/1 95/10/1 96/10/1
f 98/4/1 97/4/1 96/4/1
f 99/4/1 98/4/1 96/4/1
f 100/4/1 98/4/1 99/4/1
f 103/2/1 102/2/1 101/2/1
f 104/2/1 102/2/1 103/2/1
f 105/2/1 102/2/1 104/2/1
f 106/5/1 105/5/1 104/5/1
f 107/5/1 105/5/1 106/5/1
f 108/5/1 106/5/1 104/5/1
f 109/5/1 106/5/1 108/5/1
f 112/8/1 111/8/1 110/8/1
f 113/8/1 111/8/1 112/8/1
f 114/6/1 113/6/1 112/6/1
f 115/6/1 113/6/1 114/6/1
f 118/2/1 117/2/1 116/2/1
f 119/2/1 117/2/1 118/2/1
f 120/10/1 119/10/1 118/10/1
f 121/10/1 119/10/1 120/10/1
f 125/6/1 123/6/1 122/6/1
f 125/6/1 124/6/1 123/6/1
f 126/6/1 124/6/1 125/6/1
f 129/6/1 128/6/1 127/6/1
f 130/6/1 128/6/1 129/6/1
f 131/6/2 132/6/2 133/6/2
f 133/6/2 132/6/2 134/6/2
f 135/2/2 136/2/2 137/2/2
f 137/2/2 136/2/2 138/2/2
f 137/10/2 138/10/2 139/10/2
f 139/10/2 138/10/2 140/10/2
f 141/6/2 142/6/2 144/6/2
f 142/6/2 143/6/2 144/6/2
f 144/6/2 143/6/2 145/6/2
f 146/9/2 147/9/2 149/9/2
f 149/9/2 147/9/2 150/9/2
f 147/1/2 148/1/2 151/1/2
f 150/9/2 147/9/2 151/9/2
f 151/1/2 148/1/2 152/1/2
f 150/9/2 151/9/2 153/9/2
f 151/9/2 152/9/2 153/9/2
f 153/9/2 152/9/2 154/9/2
f 153/7/2 154/7/2 155/7/2
f 155/7/2 154/7/2 156/7/2
f 157/6/2 158/6/2 159/6/2
f 159/6/2 158/6/2 160/6/2
f 160/6/2 158/6/2 161/6/2
f 160/10/2 161/10/2 162/10/2
f 162/10/2 161/10/2 163/10/2
f 164/5/2 165/5/2 168/5/2
f 168/5/2 165/5/2 169/5/2
f 166/2/2 167/2/2 170/2/2
f 169/2/2 170/2/2 171/2/2
f 170/2/2 167/2/2 172/2/2
f 171/2/2 170/2/2 172/2/2
f 171/5/2 172/5/2 173/5/2
f 173/5/2 172/5/2 174/5/2
f 171/5/2 173/5/2 175/5/2
f 175/5/2 173/5/2 176/5/2
f 177/8/2 178/8/2 179/8/2
f 179/8/2 178/8/2 180/8/2
f 179/6/2 180/6/2 181/6/2
f 181/6/2 180/6/2 182/6/2
f 183/5/2 184/5/2 185/5/2
f 185/5/2 184/5/2 186/5/2
f 187/2/2 188/2/2 189/2/2
f 189/2/2 188/2/2 190/2/2
f 190/2/2 191/2/2 195/2/2
f 195/2/2 191/2/2 196/2/2
f 192/11/2 193/11/2 197/11/2
f 193/3/2 194/3/2 198/3/2
f 197/11/2 193/11/2 198/11/2
f 198/3/2 194/3/2 199/3/2
f 200/6/2 201/6/2 202/6/2
f 202/6/2 201/6/2 203/6/2
f 204/9/2 205/9/2 207/9/2
f 207/9/2 205/9/2 208/9/2
f 205/1/2 206/1/2 209/1/2
f 208/9/2 205/9/2 209/9/2
f 209/1/2 206/1/2 210/1/2
f 208/9/2 209/9/2 211/9/2
f 209/9/2 210/9/2 211/9/2
f 211/9/2 210/9/2 212/9/2
f 211/7/2 212/7/2 214/7/2
f 214/7/2 212/7/2 215/7/2
f 214/6/2 215/6/2 217/6/2
f 215/6/2 216/6/2 217/6/2
f 213/6/2 214/6/2 217/6/2
f 217/6/2 216/6/2 218/6/2
f 218/6/2 216/6/2 219/6/2
f 219/6/2 216/6/2 220/6/2
f 217/10/2 218/10/2 221/10/2
f 221/10/2 218/10/2 222/10/2
f 219/10/2 220/10/2 223/10/2
f 223/10/2 220/10/2 224/10/2
f 221/4/2 222/4/2 225/4/2
f 223/4/2 224/4/2 226/4/2
f 221/4/2 225/4/2 227/4/2
f 227/4/2 225/4/2 228/4/2
f 226/4/2 224/4/2 229/4/2
f 229/4/2 224/4/2 230/4/2
f 232/2/2 233/2/2 234/2/2
f 231/5/2 232/5/2 236/5/2
f 234/2/2 235/2/2 237/2/2
f 236/5/2 232/5/2 237/5/2
f 232/2/2 234/2/2 237/2/2
f 236/2/2 237/2/2 238/2/2
f 237/2/2 235/2/2 239/2/2
f 238/2/2 237/2/2 239/2/2
f 239/2/2 235/2/2 240/2/2
f 238/12/2 239/12/2 241/12/2
f 239/5/2 240/5/2 242/5/2
f 241/12/2 239/12/2 242/12/2
f 241/2/2 242/2/2 243/2/2
f 242/5/2 240/5/2 244/5/2
f 243/2/2 242/2/2 244/2/2
f 244/5/2 240/5/2 245/5/2
f 246/8/2 247/8/2 248/8/2
f 248/8/2 247/8/2 249/8/2
f 248/6/2 249/6/2 250/6/2
f 250/6/2 249/6/2 251/6/2
f 252/2/2 253/2/2 254/2/2
f 254/2/2 253/2/2 255/2/2
f 254/10/2 255/10/2 256/10/2
f 256/10/2 255/10/2 257/10/2
f 256/4/2 257/4/2 258/4/2
f 258/4/2 257/4/2 259/4/2
f 260/6/2 261/6/2 262/6/2
f 262/6/2 261/6/2 263/6/2
f 266/11/3 265/11/3 264/11/3
f 267/11/3 265/11/3 266/11/3
f 270/6/3 269/6/3 268/6/3
f 271/6/3 269/6/3 270/6/3
f 272/6/3 270/6/3 268/6/3
f 274/6/3 272/6/3 268/6/3
f 274/6/3 273/6/3 272/6/3
f 275/6/3 273/6/3 274/6/3
f 290/9/3 277/9/3 276/9/3
f 291/9/3 277/9/3 290/9/3
f 292/6/3 279/6/3 278/6/3
f 293/10/3 280/10/3 279/10/3
f 293/6/3 279/6/3 292/6/3
f 294/5/3 283/5/3 282/5/3
f 295/2/3 284/2/3 283/2/3
f 295/5/3 283/5/3 294/5/3
f 296/12/3 285/12/3 284/12/3
f 296/2/3 284/2/3 295/2/3
f 297/2/3 286/2/3 285/2/3
f 297/12/3 285/12/3 296/12/3
f 298/10/3 280/10/3 293/10/3
f 299/4/3 281/4/3 280/4/3
f 299/10/3 280/10/3 298/10/3
f 300/5/3 294/5/3 282/5/3
f 301/2/3 297/2/3 296/2/3
f 301/2/3 296/2/3 295/2/3
f 304/1/3 293/1/3 292/1/3
f 305/10/3 298/10/3 293/10/3
f 305/1/3 293/1/3 304/1/3
f 306/10/3 298/10/3 305/10/3
f 307/4/3 299/4/3 298/4/3
f 307/10/3 298/10/3 306/10/3
f 308/5/3 300/5/3 282/5/3
f 309/2/3 297/2/3 301/2/3
f 310/2/3 297/2/3 309/2/3
f 311/2/3 286/2/3 297/2/3
f 311/2/3 297/2/3 310/2/3
f 312/9/3 303/9/3 302/9/3
f 313/9/3 303/9/3 312/9/3
f 314/6/3 305/6/3 304/6/3
f 315/10/3 306/10/3 305/10/3
f 315/6/3 305/6/3 314/6/3
f 316/4/3 307/4/3 306/4/3
f 316/10/3 306/10/3 315/10/3
f 317/4/3 299/4/3 307/4/3
f 317/4/3 307/4/3 316/4/3
f 317/4/3 281/4/3 299/4/3
f 318/5/3 308/5/3 282/5/3
f 318/5/3 309/5/3 308/5/3
f 319/2/3 310/2/3 309/2/3
f 319/5/3 309/5/3 318/5/3
f 320/12/3 311/12/3 310/12/3
f 320/2/3 310/2/3 319/2/3
f 321/2/3 286/2/3 311/2/3
f 321/12/3 311/12/3 320/12/3
f 322/2/3 286/2/3 321/2/3
f 323/8/3 288/8/3 287/8/3
f 324/6/3 289/6/3 288/6/3
f 324/8/3 288/8/3 323/8/3
f 325/6/3 289/6/3 324/6/3
f 333/2/3 327/2/3 326/2/3
f 334/10/3 328/10/3 327/10/3
f 334/2/3 327/2/3 333/2/3
f 335/4/3 329/4/3 328/4/3
f 335/10/3 328/10/3 334/10/3
f 336/4/3 329/4/3 335/4/3
f 337/9/3 331/9/3 330/9/3
f 338/7/3 332/7/3 331/7/3
f 338/9/3 331/9/3 337/9/3
f 339/7/3 332/7/3 338/7/3
f 340/7/3 332/7/3 339/7/3
f 347/5/3 344/5/3 343/5/3
f 348/5/3 344/5/3 347/5/3
f 351/7/3 340/7/3 339/7/3
f 352/7/3 340/7/3 351/7/3
f 353/2/3 342/2/3 341/2/3
f 354/2/3 342/2/3 353/2/3
f 355/6/3 346/6/3 345/6/3
f 356/6/3 346/6/3 355/6/3
f 357/9/3 350/9/3 349/9/3
f 358/7/3 352/7/3 351/7/3
f 358/9/3 350/9/3 357/9/3
f 358/7/3 351/7/3 350/7/3
f 359/7/3 352/7/3 358/7/3
f 364/2/3 361/2/3 360/2/3
f 365/10/3 362/10/3 361/10/3
f 365/2/3 361/2/3 364/2/3
f 366/4/3 363/4/3 362/4/3
f 366/10/3 362/10/3 365/10/3
f 367/4/3 363/4/3 366/4/3
f 371/10/3 369/10/3 368/10/3
f 371/10/3 370/10/3 369/10/3
f 372/10/3 370/10/3 371/10/3
f 378/5/3 374/5/3 373/5/3
f 379/5/3 374/5/3 378/5/3
f 380/10/3 376/10/3 375/10/3
f 381/4/3 377/4/3 376/4/3
f 381/10/3 376/10/3 380/10/3
f 382/4/3 377/4/3 381/4/3
f 392/10/3 385/10/3 384/10/3
f 393/10/3 385/10/3 392/10/3
f 394/6/3 384/6/3 383/6/3
f 395/10/3 392/10/3 384/10/3
f 395/6/3 384/6/3 394/6/3
f 396/10/3 392/10/3 395/10/3
f 397/4/3 393/4/3 392/4/3
f 397/10/3 392/10/3 396/10/3
f 398/4/3 393/4/3 397/4/3
f 399/2/3 387/2/3 386/2/3
f 400/5/3 388/5/3 387/5/3
f 400/2/3 387/2/3 399/2/3
f 401/5/3 388/5/3 400/5/3
f 402/8/3 390/8/3 389/8/3
f 403/6/3 391/6/3 390/6/3
f 403/8/3 390/8/3 402/8/3
f 404/6/3 391/6/3 403/6/3
f 407/6/3 406/6/3 405/6/3
f 408/6/3 406/6/3 407/6/3
f 409/6/4 410/6/4 411/6/4
f 411/6/4 410/6/4 412/6/4
f 413/10/4 414/10/4 417/10/4
f 414/10/4 415/10/4 417/10/4
f 417/10/4 415/10/4 424/10/4
f 424/10/4 415/10/4 425/10/4
f 418/2/4 419/2/4 427/2/4
f 419/2/4 420/2/4 427/2/4
f 416/1/4 417/1/4 428/1/4
f 417/10/4 424/10/4 429/10/4
f 428/1/4 417/1/4 429/1/4
f 429/10/4 424/10/4 430/10/4
f 424/4/4 425/4/4 431/4/4
f 430/10/4 424/10/4 431/10/4
f 426/3/4 427/3/4 432/3/4
f 427/2/4 420/2/4 433/2/4
f 432/3/4 427/3/4 433/3/4
f 433/2/4 420/2/4 434/2/4
f 434/2/4 420/2/4 435/2/4
f 421/8/4 422/8/4 436/8/4
f 422/6/4 423/6/4 437/6/4
f 436/8/4 422/8/4 437/8/4
f 437/6/4 423/6/4 438/6/4
f 429/10/4 430/10/4 439/10/4
f 430/4/4 431/4/4 440/4/4
f 439/10/4 430/10/4 440/10/4
f 431/4/4 425/4/4 441/4/4
f 440/4/4 431/4/4 441/4/4
f 442/2/4 443/2/4 446/2/4
f 443/10/4 444/10/4 447/10/4
f 446/2/4 443/2/4 447/2/4
f 444/4/4 445/4/4 448/4/4
f 447/10/4 444/10/4 448/10/4
f 448/4/4 445/4/4 449/4/4
f 450/5/4 451/5/4 452/5/4
f 452/5/4 451/5/4 453/5/4
f 454/2/4 455/2/4 458/2/4
f 455/10/4 456/10/4 459/10/4
f 458/2/4 455/2/4 459/2/4
f 456/4/4 457/4/4 460/4/4
f 459/10/4 456/10/4 460/10/4
f 460/4/4 457/4/4 461/4/4
f 462/1/4 463/1/4 468/1/4
f 463/9/4 464/9/4 469/9/4
f 468/1/4 463/1/4 469/1/4
f 464/7/4 465/7/4 470/7/4
f 469/9/4 464/9/4 470/9/4
f 470/7/4 465/7/4 471/7/4
f 466/2/4 467/2/4 473/2/4
f 473/2/4 467/2/4 474/2/4
f 471/7/4 465/7/4 480/7/4
f 472/2/4 473/2/4 481/2/4
f 481/2/4 473/2/4 482/2/4
f 475/6/4 476/6/4 484/6/4
f 484/6/4 476/6/4 485/6/4
f 477/1/4 478/1/4 486/1/4
f 478/9/4 479/9/4 487/9/4
f 486/1/4 478/1/4 487/1/4
f 479/7/4 480/7/4 488/7/4
f 487/9/4 479/9/4 488/9/4
f 480/7/4 465/7/4 489/7/4
f 488/7/4 480/7/4 489/7/4
f 482/2/4 483/2/4 490/2/4
f 490/2/4 483/2/4 491/2/4
f 496/2/4 497/2/4 503/2/4
f 493/10/4 494/10/4 504/10/4
f 494/4/4 495/4/4 505/4/4
f 504/10/4 494/10/4 505/10/4
f 493/10/4 504/10/4 506/10/4
f 504/4/4 505/4/4 507/4/4
f 506/10/4 504/10/4 507/10/4
f 502/2/4 503/2/4 508/2/4
f 503/2/4 497/2/4 509/2/4
f 508/2/4 503/2/4 509/2/4
f 492/6/4 493/6/4 510/6/4
f 493/10/4 506/10/4 511/10/4
f 510/6/4 493/6/4 511/6/4
f 506/4/4 507/4/4 512/4/4
f 511/10/4 506/10/4 512/10/4
f 507/4/4 505/4/4 513/4/4
f 512/4/4 507/4/4 513/4/4
f 505/4/4 495/4/4 513/4/4
f 509/2/4 497/2/4 514/2/4
f 497/5/4 498/5/4 515/5/4
f 514/2/4 497/2/4 515/2/4
f 515/5/4 498/5/4 516/5/4
f 499/8/4 500/8/4 517/8/4
f 500/6/4 501/6/4 518/6/4
f 517/8/4 500/8/4 518/8/4
f 518/6/4 501/6/4 519/6/4
f 520/6/4 521/6/4 522/6/4
f 522/6/4 521/6/4 523/6/4
f 520/6/4 522/6/4 524/6/4
f 520/6/4 524/6/4 526/6/4
f 524/6/4 525/6/4 526/6/4
f 526/6/4 525/6/4 527/6/4
f 532/9/5 529/9/5 528/9/5
f 533/9/5 529/9/5 532/9/5
f 534/9/5 531/9/5 530/9/5
f 535/9/5 531/9/5 534/9/5
f 536/1/5 533/1/5 532/1/5
f 537/1/5 533/1/5 536/1/5
f 538/1/5 535/1/5 534/1/5
f 539/1/5 535/1/5 538/1/5
f 542/7/5 541/7/5 540/7/5
f 543/7/5 541/7/5 542/7/5
f 548/6/5 545/6/5 544/6/5
f 549/1/5 546/1/5 545/1/5
f 549/6/5 545/6/5 548/6/5
f 550/6/5 547/6/5 546/6/5
f 550/1/5 546/1/5 549/1/5
f 551/6/5 547/6/5 550/6/5
f 554/6/5 553/6/5 552/6/5
f 555/6/5 553/6/5 554/6/5
f 560/2/5 557/2/5 556/2/5
f 561/2/5 557/2/5 560/2/5
f 562/2/5 559/2/5 558/2/5
f 563/2/5 559/2/5 562/2/5
f 567/4/5 565/4/5 564/4/5
f 567/4/5 566/4/5 565/4/5
f 568/4/5 566/4/5 567/4/5
f 569/4/5 566/4/5 568/4/5
f 570/4/5 566/4/5 569/4/5
f 571/4/5 569/4/5 568/4/5
f 572/4/5 569/4/5 571/4/5
f 573/4/5 569/4/5 572/4/5
f 576/5/5 575/5/5 574/5/5
f 577/5/5 575/5/5 576/5/5
f 578/5/5 575/5/5 577/5/5
f 579/5/5 575/5/5 578/5/5
f 580/2/5 577/2/5 576/2/5
f 581/2/5 577/2/5 580/2/5
f 582/2/5 579/2/5 578/2/5
f 583/2/5 579/2/5 582/2/5
f 584/2/5 582/2/5 581/2/5
f 585/2/5 582/2/5 584/2/5
f 588/11/5 587/11/5 586/11/5
f 589/11/5 587/11/5 588/11/5
f 590/3/5 589/3/5 588/3/5
f 591/3/5 589/3/5 590/3/5
f 596/2/5 593/2/5 592/2/5
f 597/2/5 593/2/5 596/2/5
f 598/2/5 595/2/5 594/2/5
f 599/2/5 595/2/5 598/2/5
f 602/2/5 601/2/5 600/2/5
f 603/2/5 601/2/5 602/2/5
f 606/5/5 605/5/5 604/5/5
f 607/5/5 605/5/5 606/5/5
f 610/6/5 609/6/5 608/6/5
f 611/6/5 609/6/5 610/6/5
f 612/6/5 610/6/5 608/6/5
f 613/6/5 609/6/5 611/6/5
f 614/6/5 612/6/5 608/6/5
f 615/6/5 609/6/5 613/6/5
f 616/6/5 614/6/5 608/6/5
f 616/6/5 615/6/5 614/6/5
f 617/6/5 609/6/5 615/6/5
f 617/6/5 615/6/5 616/6/5
f 620/8/5 619/8/5 618/8/5
f 621/8/5 619/8/5 620/8/5
f 622/8/5 620/8/5 618/8/5
f 623/8/5 619/8/5 621/8/5
f 624/8/5 622/8/5 618/8/5
f 624/8/5 623/8/5 622/8/5
f 625/8/5 619/8/5 623/8/5
f 625/8/5 623/8/5 624/8/5
f 628/6/5 627/6/5 626/6/5
f 629/6/5 627/6/5 628/6/5
f 630/9/6 631/9/6 634/9/6
f 634/9/6 631/9/6 635/9/6
f 632/9/6 633/9/6 636/9/6
f 636/9/6 633/9/6 637/9/6
f 638/7/6 639/7/6 640/7/6
f 640/7/6 639/7/6 641/7/6
f 642/6/6 643/6/6 646/6/6
f 646/6/6 643/6/6 647/6/6
f 644/6/6 645/6/6 648/6/6
f 648/6/6 645/6/6 649/6/6
f 650/4/6 651/4/6 653/4/6
f 653/4/6 651/4/6 654/4/6
f 654/4/6 651/4/6 655/4/6
f 655/4/6 651/4/6 656/4/6
f 652/4/6 653/4/6 658/4/6
f 653/4/6 654/4/6 658/4/6
f 658/4/6 654/4/6 659/4/6
f 656/4/6 657/4/6 660/4/6
f 655/4/6 656/4/6 660/4/6
f 660/4/6 657/4/6 661/4/6
f 659/4/6 654/4/6 662/4/6
f 655/4/6 660/4/6 663/4/6
f 659/4/6 662/4/6 664/4/6
f 662/4/6 663/4/6 664/4/6
f 663/4/6 660/4/6 665/4/6
f 664/4/6 663/4/6 665/4/6
f 666/5/6 667/5/6 668/5/6
f 668/5/6 667/5/6 669/5/6
f 669/2/6 670/2/6 672/2/6
f 671/2/6 672/2/6 673/2/6
f 672/2/6 670/2/6 674/2/6
f 673/2/6 672/2/6 674/2/6
f 675/11/6 676/11/6 677/11/6
f 677/11/6 676/11/6 678/11/6
f 677/3/6 678/3/6 679/3/6
f 679/3/6 678/3/6 680/3/6
f 681/5/6 682/5/6 683/5/6
f 683/5/6 682/5/6 684/5/6
f 685/2/6 686/2/6 687/2/6
f 687/2/6 686/2/6 688/2/6
f 688/2/6 686/2/6 689/2/6
f 689/2/6 686/2/6 690/2/6
f 687/5/6 688/5/6 691/5/6
f 689/5/6 690/5/6 692/5/6
f 687/5/6 691/5/6 693/5/6
f 691/5/6 692/5/6 693/5/6
f 692/5/6 690/5/6 694/5/6
f 693/5/6 692/5/6 694/5/6
f 695/6/6 696/6/6 697/6/6
f 697/6/6 696/6/6 698/6/6
f 695/6/6 697/6/6 699/6/6
f 698/6/6 696/6/6 700/6/6
f 695/6/6 699/6/6 701/6/6
f 699/6/6 700/6/6 701/6/6
f 700/6/6 696/6/6 702/6/6
f 701/6/6 700/6/6 702/6/6
f 703/6/6 704/6/6 707/6/6
f 707/6/6 704/6/6 708/6/6
f 705/6/6 706/6/6 709/6/6
f 709/6/6 706/6/6 710/6/6
f 711/6/6 712/6/6 713/6/6
f 713/6/6 712/6/6 714/6/6
f 711/6/6 713/6/6 715/6/6
f 714/6/6 712/6/6 716/6/6
f 711/6/6 715/6/6 717/6/6
f 715/6/6 716/6/6 717/6/6
f 716/6/6 712/6/6 718/6/6
f 717/6/6 716/6/6 718/6/6
f 719/6/6 720/6/6 721/6/6
f 721/6/6 720/6/6 722/6/6
