# MagicaVoxel @ Ephtracy

# group
g d

# material
mtllib d.mtl
usemtl palette

# normals
vn -1 0 0
vn 1 0 0
vn 0 0 1
vn 0 0 -1
vn 0 -1 0
vn 0 1 0

# texcoords
vt 0.927734 0.5
vt 0.994141 0.5

# verts
v -3 0 -2
v -3 0 -3
v -3 8 -2
v -3 8 -3
v -2 1 -1
v -2 1 -2
v -2 2 -3
v -2 2 -4
v -2 6 -3
v -2 6 -4
v -2 7 -1
v -2 7 -2
v -1 1 -3
v -1 1 -4
v -1 2 -3
v -1 2 -4
v -1 6 -3
v -1 6 -4
v -1 7 -3
v -1 7 -4
v 1 2 -1
v 1 2 -2
v 1 2 -3
v 1 2 -4
v 1 6 -1
v 1 6 -2
v 1 6 -3
v 1 6 -4
v -1 2 -1
v -1 2 -2
v -1 2 -3
v -1 2 -4
v -1 6 -1
v -1 6 -2
v -1 6 -3
v -1 6 -4
v 1 1 -1
v 1 1 -2
v 1 2 -1
v 1 2 -2
v 1 6 -1
v 1 6 -2
v 1 7 -1
v 1 7 -2
v 2 1 -3
v 2 1 -4
v 2 2 -1
v 2 2 -2
v 2 6 -1
v 2 6 -2
v 2 7 -3
v 2 7 -4
v 3 0 -2
v 3 0 -3
v 3 8 -2
v 3 8 -3
v -2 1 -1
v -2 7 -1
v -1 2 -1
v -1 6 -1
v 1 1 -1
v 1 2 -1
v 1 6 -1
v 1 7 -1
v 2 2 -1
v 2 6 -1
v -3 0 -2
v -3 8 -2
v -2 1 -2
v -2 7 -2
v -1 2 -2
v -1 6 -2
v 1 1 -2
v 1 2 -2
v 1 6 -2
v 1 7 -2
v 2 2 -2
v 2 6 -2
v 3 0 -2
v 3 8 -2
v -3 0 -3
v -3 8 -3
v -2 2 -3
v -2 6 -3
v -1 1 -3
v -1 2 -3
v -1 6 -3
v -1 7 -3
v 1 2 -3
v 1 6 -3
v 2 1 -3
v 2 7 -3
v 3 0 -3
v 3 8 -3
v -2 2 -4
v -2 6 -4
v -1 1 -4
v -1 2 -4
v -1 6 -4
v -1 7 -4
v 1 2 -4
v 1 6 -4
v 2 1 -4
v 2 7 -4
v -3 0 -2
v 3 0 -2
v -3 0 -3
v 3 0 -3
v -2 1 -1
v 1 1 -1
v -2 1 -2
v 1 1 -2
v -1 1 -3
v 2 1 -3
v -1 1 -4
v 2 1 -4
v 1 2 -1
v 2 2 -1
v 1 2 -2
v 2 2 -2
v -2 2 -3
v -1 2 -3
v -2 2 -4
v -1 2 -4
v -1 6 -1
v 1 6 -1
v -1 6 -2
v 1 6 -2
v -1 6 -3
v 1 6 -3
v -1 6 -4
v 1 6 -4
v -1 2 -1
v 1 2 -1
v -1 2 -2
v 1 2 -2
v -1 2 -3
v 1 2 -3
v -1 2 -4
v 1 2 -4
v 1 6 -1
v 2 6 -1
v 1 6 -2
v 2 6 -2
v -2 6 -3
v -1 6 -3
v -2 6 -4
v -1 6 -4
v -2 7 -1
v 1 7 -1
v -2 7 -2
v 1 7 -2
v -1 7 -3
v 2 7 -3
v -1 7 -4
v 2 7 -4
v -3 8 -2
v 3 8 -2
v -3 8 -3
v 3 8 -3

# faces
f 3/2/1 2/2/1 1/2/1
f 4/2/1 2/2/1 3/2/1
f 9/1/1 8/1/1 7/1/1
f 10/1/1 8/1/1 9/1/1
f 11/1/1 6/1/1 5/1/1
f 12/1/1 6/1/1 11/1/1
f 15/1/1 14/1/1 13/1/1
f 16/1/1 14/1/1 15/1/1
f 19/1/1 18/1/1 17/1/1
f 20/1/1 18/1/1 19/1/1
f 25/1/1 22/1/1 21/1/1
f 26/1/1 22/1/1 25/1/1
f 27/1/1 24/1/1 23/1/1
f 28/1/1 24/1/1 27/1/1
f 29/1/2 30/1/2 33/1/2
f 33/1/2 30/1/2 34/1/2
f 31/1/2 32/1/2 35/1/2
f 35/1/2 32/1/2 36/1/2
f 37/1/2 38/1/2 39/1/2
f 39/1/2 38/1/2 40/1/2
f 41/1/2 42/1/2 43/1/2
f 43/1/2 42/1/2 44/1/2
f 47/1/2 48/1/2 49/1/2
f 49/1/2 48/1/2 50/1/2
f 45/1/2 46/1/2 51/1/2
f 51/1/2 46/1/2 52/1/2
f 53/2/2 54/2/2 55/2/2
f 55/2/2 54/2/2 56/2/2
f 59/1/3 58/1/3 57/1/3
f 60/1/3 58/1/3 59/1/3
f 61/1/3 59/1/3 57/1/3
f 62/1/3 59/1/3 61/1/3
f 63/1/3 58/1/3 60/1/3
f 64/1/3 58/1/3 63/1/3
f 65/1/3 63/1/3 62/1/3
f 66/1/3 63/1/3 65/1/3
f 69/2/3 68/2/3 67/2/3
f 70/2/3 68/2/3 69/2/3
f 73/2/3 69/2/3 67/2/3
f 74/2/3 72/2/3 71/2/3
f 75/2/3 72/2/3 74/2/3
f 76/2/3 68/2/3 70/2/3
f 77/2/3 74/2/3 73/2/3
f 78/2/3 76/2/3 75/2/3
f 79/2/3 73/2/3 67/2/3
f 79/2/3 78/2/3 77/2/3
f 79/2/3 77/2/3 73/2/3
f 80/2/3 76/2/3 78/2/3
f 80/2/3 78/2/3 79/2/3
f 80/2/3 68/2/3 76/2/3
f 81/2/4 82/2/4 83/2/4
f 83/2/4 82/2/4 84/2/4
f 81/2/4 83/2/4 85/2/4
f 85/2/4 83/2/4 86/2/4
f 84/2/4 82/2/4 87/2/4
f 87/2/4 82/2/4 88/2/4
f 86/2/4 87/2/4 89/2/4
f 89/2/4 87/2/4 90/2/4
f 81/2/4 85/2/4 91/2/4
f 88/2/4 82/2/4 92/2/4
f 81/2/4 91/2/4 93/2/4
f 91/2/4 92/2/4 93/2/4
f 92/2/4 82/2/4 94/2/4
f 93/2/4 92/2/4 94/2/4
f 95/1/4 96/1/4 98/1/4
f 98/1/4 96/1/4 99/1/4
f 97/1/4 98/1/4 101/1/4
f 99/1/4 100/1/4 102/1/4
f 97/1/4 101/1/4 103/1/4
f 101/1/4 102/1/4 103/1/4
f 102/1/4 100/1/4 104/1/4
f 103/1/4 102/1/4 104/1/4
f 107/2/5 106/2/5 105/2/5
f 108/2/5 106/2/5 107/2/5
f 111/1/5 110/1/5 109/1/5
f 112/1/5 110/1/5 111/1/5
f 115/1/5 114/1/5 113/1/5
f 116/1/5 114/1/5 115/1/5
f 119/1/5 118/1/5 117/1/5
f 120/1/5 118/1/5 119/1/5
f 123/1/5 122/1/5 121/1/5
f 124/1/5 122/1/5 123/1/5
f 127/1/5 126/1/5 125/1/5
f 128/1/5 126/1/5 127/1/5
f 131/1/5 130/1/5 129/1/5
f 132/1/5 130/1/5 131/1/5
f 133/1/6 134/1/6 135/1/6
f 135/1/6 134/1/6 136/1/6
f 137/1/6 138/1/6 139/1/6
f 139/1/6 138/1/6 140/1/6
f 141/1/6 142/1/6 143/1/6
f 143/1/6 142/1/6 144/1/6
f 145/1/6 146/1/6 147/1/6
f 147/1/6 146/1/6 148/1/6
f 149/1/6 150/1/6 151/1/6
f 151/1/6 150/1/6 152/1/6
f 153/1/6 154/1/6 155/1/6
f 155/1/6 154/1/6 156/1/6
f 157/2/6 158/2/6 159/2/6
f 159/2/6 158/2/6 160/2/6
