# MagicaVoxel @ Ephtracy

# group
g drowningcowboy2

# material
mtllib drowningcowboy2.mtl
usemtl palette

# normals
vn -1 0 0
vn 1 0 0
vn 0 0 1
vn 0 0 -1
vn 0 -1 0
vn 0 1 0

# texcoords
vt 0.634766 0.5
vt 0.658203 0.5
vt 0.662109 0.5
vt 0.666016 0.5
vt 0.669922 0.5
vt 0.673828 0.5
vt 0.677734 0.5
vt 0.681641 0.5
vt 0.994141 0.5

# verts
v -5 3 1
v -5 3 -0
v -5 4 1
v -5 4 -0
v -5 6 1
v -5 6 -0
v -4 10 3
v -4 10 -3
v -4 12 3
v -4 12 -3
v -2 0 2
v -2 0 -2
v -2 3 2
v -2 3 1
v -2 3 -0
v -2 3 -2
v -2 4 2
v -2 4 1
v -2 4 -0
v -2 4 -2
v -2 5 2
v -2 5 1
v -2 5 -1
v -2 6 -1
v -2 6 -2
v -2 7 2
v -2 7 1
v -2 8 2
v -2 8 1
v -2 8 -2
v -2 9 2
v -2 9 1
v -2 10 2
v -2 10 1
v -2 10 -2
v -2 11 2
v -2 11 -2
v -2 12 2
v -2 12 -2
v -2 13 2
v -2 13 -2
v -1 4 1
v -1 4 -1
v -1 5 1
v -1 5 -1
v -1 5 -2
v -1 6 -1
v -1 6 -2
v -1 13 1
v -1 13 -1
v -1 14 1
v -1 14 -1
v 0 4 4
v 0 4 3
v 0 5 4
v 0 5 3
v 0 6 3
v 0 6 2
v 0 6 1
v 0 7 3
v 0 7 2
v 0 7 1
v 1 0 1
v 1 0 -1
v 1 1 1
v 1 1 -1
v 1 2 1
v 1 2 -1
v 1 3 1
v 1 3 -1
v 1 6 1
v 1 6 -1
v 1 7 1
v 1 8 1
v 1 8 -1
v 1 9 -0
v 1 9 -1
v 1 10 1
v 1 10 -0
v 1 11 1
v 1 11 -1
v 1 12 1
v 1 12 -1
v 1 13 1
v 1 13 -1
v 2 10 2
v 2 10 1
v 2 10 -2
v 2 11 2
v 2 11 -2
v 3 4 1
v 3 4 -0
v 3 5 1
v 3 5 -0
v 3 7 1
v 3 7 -0
v 3 11 3
v 3 11 -3
v 3 12 3
v 3 12 -3
v -4 4 1
v -4 4 -0
v -4 6 1
v -4 6 -0
v -3 11 3
v -3 11 -3
v -3 12 3
v -3 12 -3
v -2 10 2
v -2 10 1
v -2 10 -2
v -2 11 2
v -2 11 -2
v -1 0 1
v -1 0 -1
v -1 3 1
v -1 3 -1
v -1 6 2
v -1 6 1
v -1 6 -0
v -1 6 -1
v -1 7 2
v -1 7 1
v -1 7 -0
v -1 8 1
v -1 8 -1
v -1 9 -0
v -1 9 -1
v -1 10 1
v -1 10 -0
v -1 11 1
v -1 11 -1
v -1 12 1
v -1 12 -1
v -1 13 1
v -1 13 -1
v 0 6 1
v 0 6 -0
v 0 7 1
v 0 7 -0
v 1 4 4
v 1 4 3
v 1 4 1
v 1 4 -1
v 1 5 4
v 1 5 3
v 1 5 1
v 1 5 -1
v 1 5 -2
v 1 6 3
v 1 6 2
v 1 6 -1
v 1 6 -2
v 1 7 3
v 1 7 2
v 1 13 1
v 1 13 -1
v 1 14 1
v 1 14 -1
v 2 0 2
v 2 0 -2
v 2 1 2
v 2 1 -2
v 2 3 1
v 2 3 -0
v 2 4 2
v 2 4 1
v 2 4 -0
v 2 4 -2
v 2 5 2
v 2 5 1
v 2 5 -1
v 2 6 -1
v 2 6 -2
v 2 7 2
v 2 7 1
v 2 8 2
v 2 8 1
v 2 8 -2
v 2 9 2
v 2 9 1
v 2 10 2
v 2 10 1
v 2 10 -2
v 2 11 2
v 2 11 -2
v 2 12 2
v 2 12 -2
v 2 13 2
v 2 13 -2
v 4 3 1
v 4 3 -0
v 4 5 1
v 4 5 -0
v 4 7 1
v 4 7 -0
v 4 10 3
v 4 10 -3
v 4 12 3
v 4 12 -3
v 0 4 4
v 0 5 4
v 1 4 4
v 1 5 4
v -4 10 3
v -4 12 3
v -3 11 3
v -3 12 3
v 0 6 3
v 0 7 3
v 1 6 3
v 1 7 3
v 3 11 3
v 3 12 3
v 4 10 3
v 4 12 3
v -2 0 2
v -2 3 2
v -2 4 2
v -2 5 2
v -2 7 2
v -2 8 2
v -2 9 2
v -2 10 2
v -2 11 2
v -2 12 2
v -2 13 2
v -1 6 2
v -1 7 2
v -1 8 2
v -1 9 2
v 0 2 2
v 0 3 2
v 0 6 2
v 0 7 2
v 1 1 2
v 1 2 2
v 1 6 2
v 1 7 2
v 1 8 2
v 1 9 2
v 2 0 2
v 2 1 2
v 2 4 2
v 2 5 2
v 2 7 2
v 2 8 2
v 2 9 2
v 2 10 2
v 2 11 2
v 2 12 2
v 2 13 2
v -5 3 1
v -5 4 1
v -5 6 1
v -4 4 1
v -4 6 1
v -2 3 1
v -2 4 1
v -1 4 1
v -1 5 1
v -1 6 1
v -1 7 1
v -1 13 1
v -1 14 1
v 0 6 1
v 0 7 1
v 1 4 1
v 1 5 1
v 1 13 1
v 1 14 1
v 2 3 1
v 2 4 1
v 3 4 1
v 3 5 1
v 3 7 1
v 4 3 1
v 4 5 1
v 4 7 1
v -1 9 -0
v -1 10 -0
v 1 9 -0
v 1 10 -0
v -1 0 -1
v -1 3 -1
v -1 6 -1
v -1 8 -1
v -1 9 -1
v -1 11 -1
v -1 12 -1
v -1 13 -1
v 0 2 -1
v 0 3 -1
v 1 0 -1
v 1 1 -1
v 1 2 -1
v 1 3 -1
v 1 6 -1
v 1 8 -1
v 1 9 -1
v 1 11 -1
v 1 12 -1
v 1 13 -1
v -2 10 -2
v -2 11 -2
v 2 10 -2
v 2 11 -2
v 0 4 3
v 0 5 3
v 1 4 3
v 1 5 3
v -2 10 2
v -2 11 2
v 2 10 2
v 2 11 2
v -1 0 1
v -1 3 1
v -1 7 1
v -1 8 1
v -1 10 1
v -1 11 1
v -1 12 1
v -1 13 1
v 0 2 1
v 0 3 1
v 0 6 1
v 0 7 1
v 1 0 1
v 1 1 1
v 1 2 1
v 1 3 1
v 1 6 1
v 1 7 1
v 1 8 1
v 1 10 1
v 1 11 1
v 1 12 1
v 1 13 1
v -5 3 -0
v -5 4 -0
v -5 6 -0
v -4 4 -0
v -4 6 -0
v -2 3 -0
v -2 4 -0
v -1 6 -0
v -1 7 -0
v 0 6 -0
v 0 7 -0
v 2 3 -0
v 2 4 -0
v 3 4 -0
v 3 5 -0
v 3 7 -0
v 4 3 -0
v 4 5 -0
v 4 7 -0
v -2 5 -1
v -2 6 -1
v -1 4 -1
v -1 5 -1
v -1 6 -1
v -1 13 -1
v -1 14 -1
v 1 4 -1
v 1 5 -1
v 1 6 -1
v 1 13 -1
v 1 14 -1
v 2 5 -1
v 2 6 -1
v -2 0 -2
v -2 3 -2
v -2 4 -2
v -2 6 -2
v -2 8 -2
v -2 10 -2
v -2 11 -2
v -2 12 -2
v -2 13 -2
v -1 5 -2
v -1 6 -2
v 0 2 -2
v 0 3 -2
v 1 1 -2
v 1 2 -2
v 1 5 -2
v 1 6 -2
v 2 0 -2
v 2 1 -2
v 2 4 -2
v 2 6 -2
v 2 8 -2
v 2 10 -2
v 2 11 -2
v 2 12 -2
v 2 13 -2
v -4 10 -3
v -4 12 -3
v -3 11 -3
v -3 12 -3
v 3 11 -3
v 3 12 -3
v 4 10 -3
v 4 12 -3
v -2 0 2
v 2 0 2
v -1 0 1
v 1 0 1
v -1 0 -1
v 1 0 -1
v -2 0 -2
v 2 0 -2
v -5 3 1
v -2 3 1
v -1 3 1
v 0 3 1
v 1 3 1
v 2 3 1
v 4 3 1
v -5 3 -0
v -2 3 -0
v 2 3 -0
v 4 3 -0
v -1 3 -1
v 0 3 -1
v 1 3 -1
v 0 4 4
v 1 4 4
v 0 4 3
v 1 4 3
v -2 5 2
v 2 5 2
v -2 5 1
v -1 5 1
v 1 5 1
v 2 5 1
v -2 5 -1
v -1 5 -1
v 1 5 -1
v 2 5 -1
v -1 5 -2
v 1 5 -2
v 0 6 3
v 1 6 3
v 0 6 2
v 1 6 2
v -2 6 -1
v -1 6 -1
v 1 6 -1
v 2 6 -1
v -2 6 -2
v -1 6 -2
v 1 6 -2
v 2 6 -2
v -1 7 2
v 0 7 2
v -1 7 1
v 0 7 1
v -1 9 -0
v 1 9 -0
v -1 9 -1
v 1 9 -1
v -4 10 3
v 4 10 3
v -2 10 2
v 2 10 2
v -2 10 1
v 2 10 1
v -2 10 -2
v 2 10 -2
v -4 10 -3
v 4 10 -3
v -2 11 2
v 2 11 2
v -1 11 1
v 1 11 1
v -1 11 -1
v 1 11 -1
v -2 11 -2
v 2 11 -2
v -1 13 1
v 1 13 1
v -1 13 -1
v 1 13 -1
v -2 4 2
v 2 4 2
v -4 4 1
v -2 4 1
v -1 4 1
v 1 4 1
v 2 4 1
v 3 4 1
v -4 4 -0
v -2 4 -0
v 2 4 -0
v 3 4 -0
v -1 4 -1
v 1 4 -1
v -2 4 -2
v 2 4 -2
v 0 5 4
v 1 5 4
v 0 5 3
v 1 5 3
v -1 6 2
v 0 6 2
v -5 6 1
v -4 6 1
v -1 6 1
v 0 6 1
v 1 6 1
v -5 6 -0
v -4 6 -0
v -1 6 -0
v 0 6 -0
v -1 6 -1
v 1 6 -1
v 0 7 3
v 1 7 3
v 0 7 2
v 1 7 2
v -1 7 1
v 0 7 1
v 3 7 1
v 4 7 1
v -1 7 -0
v 0 7 -0
v 3 7 -0
v 4 7 -0
v -2 10 2
v 2 10 2
v -2 10 1
v -1 10 1
v 1 10 1
v 2 10 1
v -1 10 -0
v 1 10 -0
v -2 10 -2
v 2 10 -2
v -3 11 3
v 3 11 3
v -2 11 2
v 2 11 2
v -2 11 -2
v 2 11 -2
v -3 11 -3
v 3 11 -3
v -4 12 3
v -3 12 3
v 3 12 3
v 4 12 3
v -4 12 -3
v -3 12 -3
v 3 12 -3
v 4 12 -3
v -2 13 2
v 2 13 2
v -1 13 1
v 1 13 1
v -1 13 -1
v 1 13 -1
v -2 13 -2
v 2 13 -2
v -1 14 1
v 1 14 1
v -1 14 -1
v 1 14 -1

# faces
f 3/8/1 2/8/1 1/8/1
f 4/8/1 2/8/1 3/8/1
f 5/4/1 4/4/1 3/4/1
f 6/4/1 4/4/1 5/4/1
f 9/2/1 8/2/1 7/2/1
f 10/2/1 8/2/1 9/2/1
f 13/8/1 12/8/1 11/8/1
f 14/8/1 12/8/1 13/8/1
f 15/8/1 12/8/1 14/8/1
f 16/8/1 12/8/1 15/8/1
f 17/7/1 14/7/1 13/7/1
f 18/7/1 14/7/1 17/7/1
f 19/7/1 16/7/1 15/7/1
f 20/7/1 16/7/1 19/7/1
f 24/4/1 23/4/1 22/4/1
f 26/5/1 22/5/1 21/5/1
f 27/4/1 25/4/1 24/4/1
f 27/5/1 22/5/1 26/5/1
f 27/4/1 24/4/1 22/4/1
f 28/4/1 27/4/1 26/4/1
f 29/4/1 25/4/1 27/4/1
f 29/4/1 27/4/1 28/4/1
f 30/4/1 25/4/1 29/4/1
f 31/9/1 29/9/1 28/9/1
f 32/5/1 30/5/1 29/5/1
f 32/9/1 29/9/1 31/9/1
f 33/4/1 32/4/1 31/4/1
f 34/5/1 30/5/1 32/5/1
f 34/4/1 32/4/1 33/4/1
f 35/5/1 30/5/1 34/5/1
f 38/3/1 37/3/1 36/3/1
f 39/3/1 37/3/1 38/3/1
f 40/2/1 39/2/1 38/2/1
f 41/2/1 39/2/1 40/2/1
f 44/4/1 43/4/1 42/4/1
f 45/4/1 43/4/1 44/4/1
f 47/4/1 46/4/1 45/4/1
f 48/4/1 46/4/1 47/4/1
f 51/2/1 50/2/1 49/2/1
f 52/2/1 50/2/1 51/2/1
f 55/1/1 54/1/1 53/1/1
f 56/1/1 54/1/1 55/1/1
f 60/6/1 58/6/1 57/6/1
f 60/6/1 59/6/1 58/6/1
f 61/6/1 59/6/1 60/6/1
f 62/6/1 59/6/1 61/6/1
f 65/8/1 64/8/1 63/8/1
f 66/8/1 64/8/1 65/8/1
f 67/7/1 66/7/1 65/7/1
f 68/7/1 66/7/1 67/7/1
f 69/7/1 68/7/1 67/7/1
f 70/7/1 68/7/1 69/7/1
f 73/4/1 72/4/1 71/4/1
f 74/4/1 72/4/1 73/4/1
f 75/4/1 72/4/1 74/4/1
f 76/5/1 75/5/1 74/5/1
f 77/5/1 75/5/1 76/5/1
f 78/5/1 76/5/1 74/5/1
f 79/5/1 76/5/1 78/5/1
f 82/3/1 81/3/1 80/3/1
f 83/3/1 81/3/1 82/3/1
f 84/2/1 83/2/1 82/2/1
f 85/2/1 83/2/1 84/2/1
f 89/2/1 87/2/1 86/2/1
f 89/2/1 88/2/1 87/2/1
f 90/2/1 88/2/1 89/2/1
f 93/8/1 92/8/1 91/8/1
f 94/8/1 92/8/1 93/8/1
f 95/4/1 94/4/1 93/4/1
f 96/4/1 94/4/1 95/4/1
f 99/2/1 98/2/1 97/2/1
f 100/2/1 98/2/1 99/2/1
f 101/4/2 102/4/2 103/4/2
f 103/4/2 102/4/2 104/4/2
f 105/2/2 106/2/2 107/2/2
f 107/2/2 106/2/2 108/2/2
f 109/2/2 110/2/2 112/2/2
f 110/2/2 111/2/2 112/2/2
f 112/2/2 111/2/2 113/2/2
f 114/8/2 115/8/2 116/8/2
f 116/8/2 115/8/2 117/8/2
f 118/5/2 119/5/2 122/5/2
f 122/5/2 119/5/2 123/5/2
f 120/4/2 121/4/2 124/4/2
f 123/4/2 124/4/2 125/4/2
f 124/4/2 121/4/2 126/4/2
f 125/4/2 124/4/2 126/4/2
f 125/5/2 126/5/2 127/5/2
f 127/5/2 126/5/2 128/5/2
f 125/5/2 127/5/2 129/5/2
f 129/5/2 127/5/2 130/5/2
f 131/3/2 132/3/2 133/3/2
f 133/3/2 132/3/2 134/3/2
f 133/2/2 134/2/2 135/2/2
f 135/2/2 134/2/2 136/2/2
f 137/5/2 138/5/2 139/5/2
f 139/5/2 138/5/2 140/5/2
f 141/1/2 142/1/2 145/1/2
f 145/1/2 142/1/2 146/1/2
f 143/4/2 144/4/2 147/4/2
f 147/4/2 144/4/2 148/4/2
f 148/4/2 149/4/2 152/4/2
f 152/4/2 149/4/2 153/4/2
f 150/6/2 151/6/2 154/6/2
f 154/6/2 151/6/2 155/6/2
f 156/2/2 157/2/2 158/2/2
f 158/2/2 157/2/2 159/2/2
f 160/8/2 161/8/2 162/8/2
f 162/8/2 161/8/2 163/8/2
f 162/7/2 163/7/2 164/7/2
f 164/7/2 163/7/2 165/7/2
f 162/7/2 164/7/2 166/7/2
f 166/7/2 164/7/2 167/7/2
f 165/7/2 163/7/2 168/7/2
f 168/7/2 163/7/2 169/7/2
f 171/4/2 172/4/2 173/4/2
f 170/5/2 171/5/2 175/5/2
f 173/4/2 174/4/2 176/4/2
f 175/5/2 171/5/2 176/5/2
f 171/4/2 173/4/2 176/4/2
f 175/4/2 176/4/2 177/4/2
f 176/4/2 174/4/2 178/4/2
f 177/4/2 176/4/2 178/4/2
f 178/4/2 174/4/2 179/4/2
f 177/9/2 178/9/2 180/9/2
f 178/5/2 179/5/2 181/5/2
f 180/9/2 178/9/2 181/9/2
f 180/4/2 181/4/2 182/4/2
f 181/5/2 179/5/2 183/5/2
f 182/4/2 181/4/2 183/4/2
f 183/5/2 179/5/2 184/5/2
f 185/3/2 186/3/2 187/3/2
f 187/3/2 186/3/2 188/3/2
f 187/2/2 188/2/2 189/2/2
f 189/2/2 188/2/2 190/2/2
f 191/8/2 192/8/2 193/8/2
f 193/8/2 192/8/2 194/8/2
f 193/4/2 194/4/2 195/4/2
f 195/4/2 194/4/2 196/4/2
f 197/2/2 198/2/2 199/2/2
f 199/2/2 198/2/2 200/2/2
f 203/1/3 202/1/3 201/1/3
f 204/1/3 202/1/3 203/1/3
f 207/2/3 206/2/3 205/2/3
f 208/2/3 206/2/3 207/2/3
f 211/6/3 210/6/3 209/6/3
f 212/6/3 210/6/3 211/6/3
f 213/2/3 207/2/3 205/2/3
f 215/2/3 213/2/3 205/2/3
f 215/2/3 214/2/3 213/2/3
f 216/2/3 214/2/3 215/2/3
f 228/5/3 221/5/3 220/5/3
f 229/4/3 222/4/3 221/4/3
f 229/5/3 221/5/3 228/5/3
f 230/9/3 223/9/3 222/9/3
f 230/4/3 222/4/3 229/4/3
f 231/4/3 224/4/3 223/4/3
f 231/9/3 223/9/3 230/9/3
f 232/8/3 218/8/3 217/8/3
f 233/7/3 219/7/3 218/7/3
f 233/8/3 218/8/3 232/8/3
f 234/5/3 228/5/3 220/5/3
f 235/4/3 231/4/3 230/4/3
f 235/4/3 230/4/3 229/4/3
f 236/8/3 232/8/3 217/8/3
f 237/7/3 233/7/3 232/7/3
f 237/8/3 232/8/3 236/8/3
f 238/5/3 234/5/3 220/5/3
f 239/4/3 231/4/3 235/4/3
f 240/4/3 231/4/3 239/4/3
f 241/4/3 224/4/3 231/4/3
f 241/4/3 231/4/3 240/4/3
f 242/8/3 236/8/3 217/8/3
f 243/7/3 237/7/3 236/7/3
f 243/8/3 236/8/3 242/8/3
f 244/7/3 219/7/3 233/7/3
f 244/7/3 237/7/3 243/7/3
f 244/7/3 233/7/3 237/7/3
f 245/5/3 238/5/3 220/5/3
f 245/5/3 239/5/3 238/5/3
f 246/4/3 240/4/3 239/4/3
f 246/5/3 239/5/3 245/5/3
f 247/9/3 241/9/3 240/9/3
f 247/4/3 240/4/3 246/4/3
f 248/4/3 224/4/3 241/4/3
f 248/9/3 241/9/3 247/9/3
f 249/4/3 224/4/3 248/4/3
f 250/3/3 226/3/3 225/3/3
f 251/2/3 227/2/3 226/2/3
f 251/3/3 226/3/3 250/3/3
f 252/2/3 227/2/3 251/2/3
f 256/8/3 254/8/3 253/8/3
f 256/4/3 255/4/3 254/4/3
f 257/4/3 255/4/3 256/4/3
f 258/8/3 256/8/3 253/8/3
f 259/8/3 256/8/3 258/8/3
f 266/5/3 263/5/3 262/5/3
f 267/5/3 263/5/3 266/5/3
f 268/4/3 261/4/3 260/4/3
f 269/4/3 261/4/3 268/4/3
f 270/2/3 265/2/3 264/2/3
f 271/2/3 265/2/3 270/2/3
f 274/8/3 273/8/3 272/8/3
f 277/8/3 274/8/3 272/8/3
f 277/8/3 275/8/3 274/8/3
f 278/4/3 276/4/3 275/4/3
f 278/8/3 275/8/3 277/8/3
f 279/4/3 276/4/3 278/4/3
f 282/5/3 281/5/3 280/5/3
f 283/5/3 281/5/3 282/5/3
f 292/8/3 285/8/3 284/8/3
f 293/8/3 285/8/3 292/8/3
f 294/8/3 292/8/3 284/8/3
f 295/8/3 292/8/3 294/8/3
f 296/7/3 293/7/3 292/7/3
f 296/8/3 292/8/3 295/8/3
f 297/7/3 293/7/3 296/7/3
f 298/4/3 287/4/3 286/4/3
f 299/5/3 288/5/3 287/5/3
f 299/4/3 287/4/3 298/4/3
f 300/5/3 288/5/3 299/5/3
f 301/3/3 290/3/3 289/3/3
f 302/2/3 291/2/3 290/2/3
f 302/3/3 290/3/3 301/3/3
f 303/2/3 291/2/3 302/2/3
f 306/2/3 305/2/3 304/2/3
f 307/2/3 305/2/3 306/2/3
f 308/1/4 309/1/4 310/1/4
f 310/1/4 309/1/4 311/1/4
f 312/2/4 313/2/4 314/2/4
f 314/2/4 313/2/4 315/2/4
f 316/8/4 317/8/4 324/8/4
f 324/8/4 317/8/4 325/8/4
f 318/4/4 319/4/4 327/4/4
f 319/4/4 320/4/4 327/4/4
f 316/8/4 324/8/4 328/8/4
f 328/8/4 324/8/4 329/8/4
f 324/7/4 325/7/4 330/7/4
f 329/8/4 324/8/4 330/8/4
f 330/7/4 325/7/4 331/7/4
f 326/6/4 327/6/4 332/6/4
f 327/4/4 320/4/4 333/4/4
f 332/6/4 327/6/4 333/6/4
f 333/4/4 320/4/4 334/4/4
f 334/4/4 320/4/4 335/4/4
f 321/3/4 322/3/4 336/3/4
f 322/2/4 323/2/4 337/2/4
f 336/3/4 322/3/4 337/3/4
f 337/2/4 323/2/4 338/2/4
f 339/8/4 340/8/4 342/8/4
f 340/4/4 341/4/4 342/4/4
f 342/4/4 341/4/4 343/4/4
f 339/8/4 342/8/4 344/8/4
f 344/8/4 342/8/4 345/8/4
f 346/5/4 347/5/4 348/5/4
f 348/5/4 347/5/4 349/5/4
f 350/8/4 351/8/4 352/8/4
f 350/8/4 352/8/4 355/8/4
f 352/8/4 353/8/4 355/8/4
f 353/4/4 354/4/4 356/4/4
f 355/8/4 353/8/4 356/8/4
f 356/4/4 354/4/4 357/4/4
f 358/4/4 359/4/4 361/4/4
f 361/4/4 359/4/4 362/4/4
f 360/4/4 361/4/4 365/4/4
f 365/4/4 361/4/4 366/4/4
f 363/2/4 364/2/4 368/2/4
f 368/2/4 364/2/4 369/2/4
f 366/4/4 367/4/4 370/4/4
f 370/4/4 367/4/4 371/4/4
f 375/4/4 376/4/4 382/4/4
f 372/8/4 373/8/4 383/8/4
f 373/7/4 374/7/4 384/7/4
f 383/8/4 373/8/4 384/8/4
f 372/8/4 383/8/4 385/8/4
f 383/7/4 384/7/4 386/7/4
f 385/8/4 383/8/4 386/8/4
f 381/4/4 382/4/4 387/4/4
f 382/4/4 376/4/4 388/4/4
f 387/4/4 382/4/4 388/4/4
f 372/8/4 385/8/4 389/8/4
f 385/7/4 386/7/4 390/7/4
f 389/8/4 385/8/4 390/8/4
f 386/7/4 384/7/4 391/7/4
f 390/7/4 386/7/4 391/7/4
f 384/7/4 374/7/4 391/7/4
f 388/4/4 376/4/4 392/4/4
f 376/5/4 377/5/4 393/5/4
f 392/4/4 376/4/4 393/4/4
f 393/5/4 377/5/4 394/5/4
f 378/3/4 379/3/4 395/3/4
f 379/2/4 380/2/4 396/2/4
f 395/3/4 379/3/4 396/3/4
f 396/2/4 380/2/4 397/2/4
f 398/2/4 399/2/4 400/2/4
f 400/2/4 399/2/4 401/2/4
f 398/2/4 400/2/4 402/2/4
f 398/2/4 402/2/4 404/2/4
f 402/2/4 403/2/4 404/2/4
f 404/2/4 403/2/4 405/2/4
f 408/8/5 407/8/5 406/8/5
f 409/8/5 407/8/5 408/8/5
f 410/8/5 408/8/5 406/8/5
f 411/8/5 407/8/5 409/8/5
f 412/8/5 410/8/5 406/8/5
f 412/8/5 411/8/5 410/8/5
f 413/8/5 407/8/5 411/8/5
f 413/8/5 411/8/5 412/8/5
f 421/8/5 415/8/5 414/8/5
f 422/8/5 415/8/5 421/8/5
f 423/8/5 420/8/5 419/8/5
f 424/8/5 420/8/5 423/8/5
f 425/7/5 417/7/5 416/7/5
f 425/7/5 418/7/5 417/7/5
f 426/7/5 418/7/5 425/7/5
f 427/7/5 418/7/5 426/7/5
f 430/1/5 429/1/5 428/1/5
f 431/1/5 429/1/5 430/1/5
f 434/5/5 433/5/5 432/5/5
f 435/5/5 433/5/5 434/5/5
f 436/5/5 433/5/5 435/5/5
f 437/5/5 433/5/5 436/5/5
f 438/4/5 435/4/5 434/4/5
f 439/4/5 435/4/5 438/4/5
f 440/4/5 437/4/5 436/4/5
f 441/4/5 437/4/5 440/4/5
f 442/4/5 440/4/5 439/4/5
f 443/4/5 440/4/5 442/4/5
f 446/6/5 445/6/5 444/6/5
f 447/6/5 445/6/5 446/6/5
f 452/4/5 449/4/5 448/4/5
f 453/4/5 449/4/5 452/4/5
f 454/4/5 451/4/5 450/4/5
f 455/4/5 451/4/5 454/4/5
f 458/4/5 457/4/5 456/4/5
f 459/4/5 457/4/5 458/4/5
f 462/5/5 461/5/5 460/5/5
f 463/5/5 461/5/5 462/5/5
f 466/2/5 465/2/5 464/2/5
f 467/2/5 465/2/5 466/2/5
f 468/2/5 466/2/5 464/2/5
f 469/2/5 465/2/5 467/2/5
f 470/2/5 468/2/5 464/2/5
f 471/2/5 465/2/5 469/2/5
f 472/2/5 470/2/5 464/2/5
f 472/2/5 471/2/5 470/2/5
f 473/2/5 465/2/5 471/2/5
f 473/2/5 471/2/5 472/2/5
f 476/3/5 475/3/5 474/3/5
f 477/3/5 475/3/5 476/3/5
f 478/3/5 476/3/5 474/3/5
f 479/3/5 475/3/5 477/3/5
f 480/3/5 478/3/5 474/3/5
f 480/3/5 479/3/5 478/3/5
f 481/3/5 475/3/5 479/3/5
f 481/3/5 479/3/5 480/3/5
f 484/2/5 483/2/5 482/2/5
f 485/2/5 483/2/5 484/2/5
f 486/7/6 487/7/6 489/7/6
f 489/7/6 487/7/6 490/7/6
f 490/7/6 487/7/6 491/7/6
f 491/7/6 487/7/6 492/7/6
f 488/8/6 489/8/6 494/8/6
f 489/7/6 490/7/6 495/7/6
f 494/8/6 489/8/6 495/8/6
f 492/8/6 493/8/6 496/8/6
f 491/7/6 492/7/6 496/7/6
f 496/8/6 493/8/6 497/8/6
f 495/7/6 490/7/6 498/7/6
f 491/7/6 496/7/6 499/7/6
f 495/7/6 498/7/6 500/7/6
f 498/7/6 499/7/6 500/7/6
f 499/7/6 496/7/6 501/7/6
f 500/7/6 499/7/6 501/7/6
f 502/1/6 503/1/6 504/1/6
f 504/1/6 503/1/6 505/1/6
f 506/5/6 507/5/6 510/5/6
f 510/5/6 507/5/6 511/5/6
f 508/4/6 509/4/6 513/4/6
f 513/4/6 509/4/6 514/4/6
f 511/4/6 512/4/6 516/4/6
f 515/4/6 516/4/6 517/4/6
f 516/4/6 512/4/6 518/4/6
f 517/4/6 516/4/6 518/4/6
f 519/6/6 520/6/6 521/6/6
f 521/6/6 520/6/6 522/6/6
f 523/5/6 524/5/6 527/5/6
f 527/5/6 524/5/6 528/5/6
f 525/4/6 526/4/6 529/4/6
f 529/4/6 526/4/6 530/4/6
f 531/4/6 532/4/6 533/4/6
f 533/4/6 532/4/6 534/4/6
f 534/4/6 532/4/6 535/4/6
f 535/4/6 532/4/6 536/4/6
f 533/5/6 534/5/6 537/5/6
f 535/5/6 536/5/6 538/5/6
f 533/5/6 537/5/6 539/5/6
f 537/5/6 538/5/6 539/5/6
f 538/5/6 536/5/6 540/5/6
f 539/5/6 538/5/6 540/5/6
f 541/2/6 542/2/6 543/2/6
f 543/2/6 542/2/6 544/2/6
f 541/2/6 543/2/6 545/2/6
f 544/2/6 542/2/6 546/2/6
f 541/2/6 545/2/6 547/2/6
f 545/2/6 546/2/6 547/2/6
f 546/2/6 542/2/6 548/2/6
f 547/2/6 546/2/6 548/2/6
f 549/2/6 550/2/6 553/2/6
f 553/2/6 550/2/6 554/2/6
f 551/2/6 552/2/6 555/2/6
f 555/2/6 552/2/6 556/2/6
f 557/2/6 558/2/6 559/2/6
f 559/2/6 558/2/6 560/2/6
f 557/2/6 559/2/6 561/2/6
f 560/2/6 558/2/6 562/2/6
f 557/2/6 561/2/6 563/2/6
f 561/2/6 562/2/6 563/2/6
f 562/2/6 558/2/6 564/2/6
f 563/2/6 562/2/6 564/2/6
f 565/2/6 566/2/6 567/2/6
f 567/2/6 566/2/6 568/2/6
