# MagicaVoxel @ Ephtracy

# group
g exit

# material
mtllib exit.mtl
usemtl palette

# normals
vn -1 0 0
vn 1 0 0
vn 0 0 1
vn 0 0 -1
vn 0 -1 0
vn 0 1 0

# texcoords
vt 0.931641 0.5
vt 0.994141 0.5

# verts
v -10 4 -6
v -10 4 -7
v -10 11 -6
v -10 11 -7
v -9 5 -5
v -9 5 -6
v -9 9 -7
v -9 9 -8
v -9 10 -5
v -9 10 -6
v -9 10 -7
v -9 10 -8
v -8 5 -7
v -8 5 -8
v -8 9 -7
v -8 9 -8
v -5 5 -7
v -5 5 -8
v -5 6 -7
v -5 6 -8
v -5 9 -7
v -5 9 -8
v -5 10 -7
v -5 10 -8
v -4 5 -5
v -4 5 -6
v -4 6 -5
v -4 6 -6
v -4 6 -7
v -4 6 -8
v -4 9 -5
v -4 9 -6
v -4 9 -7
v -4 9 -8
v -4 10 -5
v -4 10 -6
v -3 6 -5
v -3 6 -6
v -3 7 -5
v -3 7 -6
v -3 8 -5
v -3 8 -6
v -3 9 -5
v -3 9 -6
v -2 7 -5
v -2 7 -6
v -2 8 -5
v -2 8 -6
v -1 5 -7
v -1 5 -8
v -1 6 -5
v -1 6 -6
v -1 6 -7
v -1 6 -8
v -1 7 -5
v -1 7 -6
v -1 8 -5
v -1 8 -6
v -1 9 -5
v -1 9 -6
v -1 9 -7
v -1 9 -8
v -1 10 -7
v -1 10 -8
v 0 5 -5
v 0 5 -6
v 0 6 -5
v 0 6 -6
v 0 6 -7
v 0 6 -8
v 0 7 -7
v 0 7 -8
v 0 8 -7
v 0 8 -8
v 0 9 -5
v 0 9 -6
v 0 9 -7
v 0 9 -8
v 0 10 -5
v 0 10 -6
v 1 7 -7
v 1 7 -8
v 1 8 -7
v 1 8 -8
v 2 5 -5
v 2 5 -6
v 2 6 -5
v 2 6 -6
v 2 6 -7
v 2 6 -8
v 2 7 -7
v 2 7 -8
v 2 8 -7
v 2 8 -8
v 2 9 -5
v 2 9 -6
v 2 9 -7
v 2 9 -8
v 2 10 -5
v 2 10 -6
v 3 5 -7
v 3 5 -8
v 3 6 -5
v 3 6 -6
v 3 6 -7
v 3 6 -8
v 3 9 -5
v 3 9 -6
v 3 9 -7
v 3 9 -8
v 3 10 -7
v 3 10 -8
v 5 5 -7
v 5 5 -8
v 5 6 -7
v 5 6 -8
v 5 7 -7
v 5 7 -8
v 5 8 -7
v 5 8 -8
v 5 9 -7
v 5 9 -8
v 5 10 -7
v 5 10 -8
v 6 9 -5
v 6 9 -6
v 6 10 -5
v 6 10 -6
v 7 5 -5
v 7 5 -6
v 7 9 -5
v 7 9 -6
v 8 6 -7
v 8 6 -8
v 8 7 -7
v 8 7 -8
v 8 8 -7
v 8 8 -8
v 8 9 -7
v 8 9 -8
v -8 6 -5
v -8 6 -6
v -8 7 -5
v -8 7 -6
v -8 8 -5
v -8 8 -6
v -8 9 -5
v -8 9 -6
v -7 5 -7
v -7 5 -8
v -7 9 -7
v -7 9 -8
v -6 9 -7
v -6 9 -8
v -6 10 -7
v -6 10 -8
v -5 5 -5
v -5 5 -6
v -5 6 -5
v -5 6 -6
v -5 7 -5
v -5 7 -6
v -5 8 -5
v -5 8 -6
v -5 9 -5
v -5 9 -6
v -5 10 -5
v -5 10 -6
v -3 5 -5
v -3 5 -6
v -3 6 -5
v -3 6 -6
v -3 6 -7
v -3 6 -8
v -3 9 -5
v -3 9 -6
v -3 9 -7
v -3 9 -8
v -3 10 -5
v -3 10 -6
v -2 5 -7
v -2 5 -8
v -2 6 -5
v -2 6 -6
v -2 6 -7
v -2 6 -8
v -2 7 -5
v -2 7 -6
v -2 8 -5
v -2 8 -6
v -2 9 -5
v -2 9 -6
v -2 9 -7
v -2 9 -8
v -2 10 -7
v -2 10 -8
v -1 7 -5
v -1 7 -6
v -1 8 -5
v -1 8 -6
v 0 5 -7
v 0 5 -8
v 0 6 -5
v 0 6 -6
v 0 6 -7
v 0 6 -8
v 0 7 -5
v 0 7 -6
v 0 8 -5
v 0 8 -6
v 0 9 -5
v 0 9 -6
v 0 9 -7
v 0 9 -8
v 0 10 -7
v 0 10 -8
v 1 5 -5
v 1 5 -6
v 1 6 -5
v 1 6 -6
v 1 6 -7
v 1 6 -8
v 1 7 -7
v 1 7 -8
v 1 8 -7
v 1 8 -8
v 1 9 -5
v 1 9 -6
v 1 9 -7
v 1 9 -8
v 1 10 -5
v 1 10 -6
v 2 7 -7
v 2 7 -8
v 2 8 -7
v 2 8 -8
v 3 6 -7
v 3 6 -8
v 3 7 -7
v 3 7 -8
v 3 8 -7
v 3 8 -8
v 3 9 -7
v 3 9 -8
v 4 5 -7
v 4 5 -8
v 4 6 -5
v 4 6 -6
v 4 6 -7
v 4 6 -8
v 4 9 -5
v 4 9 -6
v 4 9 -7
v 4 9 -8
v 4 10 -7
v 4 10 -8
v 5 5 -5
v 5 5 -6
v 5 6 -5
v 5 6 -6
v 5 9 -5
v 5 9 -6
v 5 10 -5
v 5 10 -6
v 8 5 -5
v 8 5 -6
v 8 9 -5
v 8 9 -6
v 9 5 -7
v 9 5 -8
v 9 9 -5
v 9 9 -6
v 9 10 -5
v 9 10 -6
v 9 10 -7
v 9 10 -8
v 10 4 -6
v 10 4 -7
v 10 11 -6
v 10 11 -7
v -9 5 -5
v -9 10 -5
v -8 6 -5
v -8 7 -5
v -8 8 -5
v -8 9 -5
v -5 5 -5
v -5 6 -5
v -5 7 -5
v -5 8 -5
v -5 9 -5
v -5 10 -5
v -4 5 -5
v -4 6 -5
v -4 9 -5
v -4 10 -5
v -3 5 -5
v -3 6 -5
v -3 7 -5
v -3 8 -5
v -3 9 -5
v -3 10 -5
v -2 6 -5
v -2 7 -5
v -2 8 -5
v -2 9 -5
v -1 6 -5
v -1 7 -5
v -1 8 -5
v -1 9 -5
v 0 5 -5
v 0 6 -5
v 0 7 -5
v 0 8 -5
v 0 9 -5
v 0 10 -5
v 1 5 -5
v 1 6 -5
v 1 9 -5
v 1 10 -5
v 2 5 -5
v 2 6 -5
v 2 9 -5
v 2 10 -5
v 3 6 -5
v 3 9 -5
v 4 6 -5
v 4 9 -5
v 5 5 -5
v 5 6 -5
v 5 9 -5
v 5 10 -5
v 6 9 -5
v 6 10 -5
v 7 5 -5
v 7 9 -5
v 8 5 -5
v 8 9 -5
v 9 9 -5
v 9 10 -5
v -10 4 -6
v -10 11 -6
v -9 5 -6
v -9 10 -6
v -8 6 -6
v -8 7 -6
v -8 8 -6
v -8 9 -6
v -5 5 -6
v -5 6 -6
v -5 7 -6
v -5 8 -6
v -5 9 -6
v -5 10 -6
v -4 5 -6
v -4 6 -6
v -4 9 -6
v -4 10 -6
v -3 5 -6
v -3 6 -6
v -3 7 -6
v -3 8 -6
v -3 9 -6
v -3 10 -6
v -2 6 -6
v -2 7 -6
v -2 8 -6
v -2 9 -6
v -1 6 -6
v -1 7 -6
v -1 8 -6
v -1 9 -6
v 0 5 -6
v 0 6 -6
v 0 7 -6
v 0 8 -6
v 0 9 -6
v 0 10 -6
v 1 5 -6
v 1 6 -6
v 1 9 -6
v 1 10 -6
v 2 5 -6
v 2 6 -6
v 2 9 -6
v 2 10 -6
v 3 6 -6
v 3 9 -6
v 4 6 -6
v 4 9 -6
v 5 5 -6
v 5 6 -6
v 5 9 -6
v 5 10 -6
v 6 9 -6
v 6 10 -6
v 7 5 -6
v 7 9 -6
v 8 5 -6
v 8 9 -6
v 9 9 -6
v 9 10 -6
v 10 4 -6
v 10 11 -6
v -10 4 -7
v -10 11 -7
v -9 9 -7
v -9 10 -7
v -8 5 -7
v -8 9 -7
v -7 5 -7
v -7 9 -7
v -6 9 -7
v -6 10 -7
v -5 5 -7
v -5 6 -7
v -5 9 -7
v -5 10 -7
v -4 6 -7
v -4 9 -7
v -3 6 -7
v -3 9 -7
v -2 5 -7
v -2 6 -7
v -2 9 -7
v -2 10 -7
v -1 5 -7
v -1 6 -7
v -1 9 -7
v -1 10 -7
v 0 5 -7
v 0 6 -7
v 0 7 -7
v 0 8 -7
v 0 9 -7
v 0 10 -7
v 1 6 -7
v 1 7 -7
v 1 8 -7
v 1 9 -7
v 2 6 -7
v 2 7 -7
v 2 8 -7
v 2 9 -7
v 3 5 -7
v 3 6 -7
v 3 7 -7
v 3 8 -7
v 3 9 -7
v 3 10 -7
v 4 5 -7
v 4 6 -7
v 4 9 -7
v 4 10 -7
v 5 5 -7
v 5 6 -7
v 5 7 -7
v 5 8 -7
v 5 9 -7
v 5 10 -7
v 8 6 -7
v 8 7 -7
v 8 8 -7
v 8 9 -7
v 9 5 -7
v 9 10 -7
v 10 4 -7
v 10 11 -7
v -9 9 -8
v -9 10 -8
v -8 5 -8
v -8 9 -8
v -7 5 -8
v -7 9 -8
v -6 9 -8
v -6 10 -8
v -5 5 -8
v -5 6 -8
v -5 9 -8
v -5 10 -8
v -4 6 -8
v -4 9 -8
v -3 6 -8
v -3 9 -8
v -2 5 -8
v -2 6 -8
v -2 9 -8
v -2 10 -8
v -1 5 -8
v -1 6 -8
v -1 9 -8
v -1 10 -8
v 0 5 -8
v 0 6 -8
v 0 7 -8
v 0 8 -8
v 0 9 -8
v 0 10 -8
v 1 6 -8
v 1 7 -8
v 1 8 -8
v 1 9 -8
v 2 6 -8
v 2 7 -8
v 2 8 -8
v 2 9 -8
v 3 5 -8
v 3 6 -8
v 3 7 -8
v 3 8 -8
v 3 9 -8
v 3 10 -8
v 4 5 -8
v 4 6 -8
v 4 9 -8
v 4 10 -8
v 5 5 -8
v 5 6 -8
v 5 7 -8
v 5 8 -8
v 5 9 -8
v 5 10 -8
v 8 6 -8
v 8 7 -8
v 8 8 -8
v 8 9 -8
v 9 5 -8
v 9 10 -8
v -10 4 -6
v 10 4 -6
v -10 4 -7
v 10 4 -7
v -9 5 -5
v -5 5 -5
v -4 5 -5
v -3 5 -5
v 0 5 -5
v 1 5 -5
v 2 5 -5
v 5 5 -5
v 7 5 -5
v 8 5 -5
v -9 5 -6
v -5 5 -6
v -4 5 -6
v -3 5 -6
v 0 5 -6
v 1 5 -6
v 2 5 -6
v 5 5 -6
v 7 5 -6
v 8 5 -6
v -8 5 -7
v -7 5 -7
v -5 5 -7
v -2 5 -7
v -1 5 -7
v 0 5 -7
v 3 5 -7
v 4 5 -7
v 5 5 -7
v 9 5 -7
v -8 5 -8
v -7 5 -8
v -5 5 -8
v -2 5 -8
v -1 5 -8
v 0 5 -8
v 3 5 -8
v 4 5 -8
v 5 5 -8
v 9 5 -8
v -3 6 -5
v -2 6 -5
v -1 6 -5
v 0 6 -5
v -3 6 -6
v -2 6 -6
v -1 6 -6
v 0 6 -6
v 0 6 -7
v 1 6 -7
v 2 6 -7
v 3 6 -7
v 0 6 -8
v 1 6 -8
v 2 6 -8
v 3 6 -8
v -8 7 -5
v -5 7 -5
v -2 7 -5
v -1 7 -5
v -8 7 -6
v -5 7 -6
v -2 7 -6
v -1 7 -6
v 1 7 -7
v 2 7 -7
v 5 7 -7
v 8 7 -7
v 1 7 -8
v 2 7 -8
v 5 7 -8
v 8 7 -8
v -3 8 -5
v -2 8 -5
v -1 8 -5
v 0 8 -5
v -3 8 -6
v -2 8 -6
v -1 8 -6
v 0 8 -6
v 0 8 -7
v 1 8 -7
v 2 8 -7
v 3 8 -7
v 0 8 -8
v 1 8 -8
v 2 8 -8
v 3 8 -8
v -8 9 -5
v -5 9 -5
v -4 9 -5
v -3 9 -5
v 0 9 -5
v 1 9 -5
v 2 9 -5
v 3 9 -5
v 4 9 -5
v 5 9 -5
v 6 9 -5
v 7 9 -5
v 8 9 -5
v 9 9 -5
v -8 9 -6
v -5 9 -6
v -4 9 -6
v -3 9 -6
v 0 9 -6
v 1 9 -6
v 2 9 -6
v 3 9 -6
v 4 9 -6
v 5 9 -6
v 6 9 -6
v 7 9 -6
v 8 9 -6
v 9 9 -6
v -9 9 -7
v -8 9 -7
v -7 9 -7
v -6 9 -7
v -5 9 -7
v -4 9 -7
v -3 9 -7
v -2 9 -7
v -1 9 -7
v 0 9 -7
v 3 9 -7
v 4 9 -7
v 5 9 -7
v 8 9 -7
v -9 9 -8
v -8 9 -8
v -7 9 -8
v -6 9 -8
v -5 9 -8
v -4 9 -8
v -3 9 -8
v -2 9 -8
v -1 9 -8
v 0 9 -8
v 3 9 -8
v 4 9 -8
v 5 9 -8
v 8 9 -8
v -8 6 -5
v -5 6 -5
v -4 6 -5
v -3 6 -5
v 0 6 -5
v 1 6 -5
v 2 6 -5
v 3 6 -5
v 4 6 -5
v 5 6 -5
v -8 6 -6
v -5 6 -6
v -4 6 -6
v -3 6 -6
v 0 6 -6
v 1 6 -6
v 2 6 -6
v 3 6 -6
v 4 6 -6
v 5 6 -6
v -5 6 -7
v -4 6 -7
v -3 6 -7
v -2 6 -7
v -1 6 -7
v 0 6 -7
v 3 6 -7
v 4 6 -7
v 5 6 -7
v 8 6 -7
v -5 6 -8
v -4 6 -8
v -3 6 -8
v -2 6 -8
v -1 6 -8
v 0 6 -8
v 3 6 -8
v 4 6 -8
v 5 6 -8
v 8 6 -8
v -3 7 -5
v -2 7 -5
v -1 7 -5
v 0 7 -5
v -3 7 -6
v -2 7 -6
v -1 7 -6
v 0 7 -6
v 0 7 -7
v 1 7 -7
v 2 7 -7
v 3 7 -7
v 0 7 -8
v 1 7 -8
v 2 7 -8
v 3 7 -8
v -8 8 -5
v -5 8 -5
v -2 8 -5
v -1 8 -5
v -8 8 -6
v -5 8 -6
v -2 8 -6
v -1 8 -6
v 1 8 -7
v 2 8 -7
v 5 8 -7
v 8 8 -7
v 1 8 -8
v 2 8 -8
v 5 8 -8
v 8 8 -8
v -3 9 -5
v -2 9 -5
v -1 9 -5
v 0 9 -5
v -3 9 -6
v -2 9 -6
v -1 9 -6
v 0 9 -6
v 0 9 -7
v 1 9 -7
v 2 9 -7
v 3 9 -7
v 0 9 -8
v 1 9 -8
v 2 9 -8
v 3 9 -8
v -9 10 -5
v -5 10 -5
v -4 10 -5
v -3 10 -5
v 0 10 -5
v 1 10 -5
v 2 10 -5
v 5 10 -5
v 6 10 -5
v 9 10 -5
v -9 10 -6
v -5 10 -6
v -4 10 -6
v -3 10 -6
v 0 10 -6
v 1 10 -6
v 2 10 -6
v 5 10 -6
v 6 10 -6
v 9 10 -6
v -9 10 -7
v -6 10 -7
v -5 10 -7
v -2 10 -7
v -1 10 -7
v 0 10 -7
v 3 10 -7
v 4 10 -7
v 5 10 -7
v 9 10 -7
v -9 10 -8
v -6 10 -8
v -5 10 -8
v -2 10 -8
v -1 10 -8
v 0 10 -8
v 3 10 -8
v 4 10 -8
v 5 10 -8
v 9 10 -8
v -10 11 -6
v 10 11 -6
v -10 11 -7
v 10 11 -7

# faces
f 3/2/1 2/2/1 1/2/1
f 4/2/1 2/2/1 3/2/1
f 9/1/1 6/1/1 5/1/1
f 10/1/1 6/1/1 9/1/1
f 11/1/1 8/1/1 7/1/1
f 12/1/1 8/1/1 11/1/1
f 15/1/1 14/1/1 13/1/1
f 16/1/1 14/1/1 15/1/1
f 19/1/1 18/1/1 17/1/1
f 20/1/1 18/1/1 19/1/1
f 23/1/1 22/1/1 21/1/1
f 24/1/1 22/1/1 23/1/1
f 27/1/1 26/1/1 25/1/1
f 28/1/1 26/1/1 27/1/1
f 33/1/1 30/1/1 29/1/1
f 34/1/1 30/1/1 33/1/1
f 35/1/1 32/1/1 31/1/1
f 36/1/1 32/1/1 35/1/1
f 39/1/1 38/1/1 37/1/1
f 40/1/1 38/1/1 39/1/1
f 43/1/1 42/1/1 41/1/1
f 44/1/1 42/1/1 43/1/1
f 47/1/1 46/1/1 45/1/1
f 48/1/1 46/1/1 47/1/1
f 53/1/1 50/1/1 49/1/1
f 54/1/1 50/1/1 53/1/1
f 55/1/1 52/1/1 51/1/1
f 56/1/1 52/1/1 55/1/1
f 59/1/1 58/1/1 57/1/1
f 60/1/1 58/1/1 59/1/1
f 63/1/1 62/1/1 61/1/1
f 64/1/1 62/1/1 63/1/1
f 67/1/1 66/1/1 65/1/1
f 68/1/1 66/1/1 67/1/1
f 71/1/1 70/1/1 69/1/1
f 72/1/1 70/1/1 71/1/1
f 77/1/1 74/1/1 73/1/1
f 78/1/1 74/1/1 77/1/1
f 79/1/1 76/1/1 75/1/1
f 80/1/1 76/1/1 79/1/1
f 83/1/1 82/1/1 81/1/1
f 84/1/1 82/1/1 83/1/1
f 87/1/1 86/1/1 85/1/1
f 88/1/1 86/1/1 87/1/1
f 91/1/1 90/1/1 89/1/1
f 92/1/1 90/1/1 91/1/1
f 97/1/1 94/1/1 93/1/1
f 98/1/1 94/1/1 97/1/1
f 99/1/1 96/1/1 95/1/1
f 100/1/1 96/1/1 99/1/1
f 105/1/1 102/1/1 101/1/1
f 106/1/1 102/1/1 105/1/1
f 107/1/1 104/1/1 103/1/1
f 108/1/1 104/1/1 107/1/1
f 111/1/1 110/1/1 109/1/1
f 112/1/1 110/1/1 111/1/1
f 115/1/1 114/1/1 113/1/1
f 116/1/1 114/1/1 115/1/1
f 119/1/1 118/1/1 117/1/1
f 120/1/1 118/1/1 119/1/1
f 123/1/1 122/1/1 121/1/1
f 124/1/1 122/1/1 123/1/1
f 127/1/1 126/1/1 125/1/1
f 128/1/1 126/1/1 127/1/1
f 131/1/1 130/1/1 129/1/1
f 132/1/1 130/1/1 131/1/1
f 135/1/1 134/1/1 133/1/1
f 136/1/1 134/1/1 135/1/1
f 139/1/1 138/1/1 137/1/1
f 140/1/1 138/1/1 139/1/1
f 141/1/2 142/1/2 143/1/2
f 143/1/2 142/1/2 144/1/2
f 145/1/2 146/1/2 147/1/2
f 147/1/2 146/1/2 148/1/2
f 149/1/2 150/1/2 151/1/2
f 151/1/2 150/1/2 152/1/2
f 153/1/2 154/1/2 155/1/2
f 155/1/2 154/1/2 156/1/2
f 157/1/2 158/1/2 159/1/2
f 159/1/2 158/1/2 160/1/2
f 161/1/2 162/1/2 163/1/2
f 163/1/2 162/1/2 164/1/2
f 165/1/2 166/1/2 167/1/2
f 167/1/2 166/1/2 168/1/2
f 169/1/2 170/1/2 171/1/2
f 171/1/2 170/1/2 172/1/2
f 173/1/2 174/1/2 177/1/2
f 177/1/2 174/1/2 178/1/2
f 175/1/2 176/1/2 179/1/2
f 179/1/2 176/1/2 180/1/2
f 181/1/2 182/1/2 185/1/2
f 185/1/2 182/1/2 186/1/2
f 183/1/2 184/1/2 187/1/2
f 187/1/2 184/1/2 188/1/2
f 189/1/2 190/1/2 191/1/2
f 191/1/2 190/1/2 192/1/2
f 193/1/2 194/1/2 195/1/2
f 195/1/2 194/1/2 196/1/2
f 197/1/2 198/1/2 199/1/2
f 199/1/2 198/1/2 200/1/2
f 201/1/2 202/1/2 205/1/2
f 205/1/2 202/1/2 206/1/2
f 203/1/2 204/1/2 207/1/2
f 207/1/2 204/1/2 208/1/2
f 209/1/2 210/1/2 211/1/2
f 211/1/2 210/1/2 212/1/2
f 213/1/2 214/1/2 215/1/2
f 215/1/2 214/1/2 216/1/2
f 217/1/2 218/1/2 219/1/2
f 219/1/2 218/1/2 220/1/2
f 221/1/2 222/1/2 223/1/2
f 223/1/2 222/1/2 224/1/2
f 225/1/2 226/1/2 229/1/2
f 229/1/2 226/1/2 230/1/2
f 227/1/2 228/1/2 231/1/2
f 231/1/2 228/1/2 232/1/2
f 233/1/2 234/1/2 235/1/2
f 235/1/2 234/1/2 236/1/2
f 237/1/2 238/1/2 239/1/2
f 239/1/2 238/1/2 240/1/2
f 241/1/2 242/1/2 243/1/2
f 243/1/2 242/1/2 244/1/2
f 245/1/2 246/1/2 249/1/2
f 249/1/2 246/1/2 250/1/2
f 247/1/2 248/1/2 251/1/2
f 251/1/2 248/1/2 252/1/2
f 253/1/2 254/1/2 255/1/2
f 255/1/2 254/1/2 256/1/2
f 257/1/2 258/1/2 259/1/2
f 259/1/2 258/1/2 260/1/2
f 261/1/2 262/1/2 263/1/2
f 263/1/2 262/1/2 264/1/2
f 265/1/2 266/1/2 267/1/2
f 267/1/2 266/1/2 268/1/2
f 271/1/2 272/1/2 273/1/2
f 273/1/2 272/1/2 274/1/2
f 269/1/2 270/1/2 275/1/2
f 275/1/2 270/1/2 276/1/2
f 277/2/2 278/2/2 279/2/2
f 279/2/2 278/2/2 280/2/2
f 283/1/3 282/1/3 281/1/3
f 284/1/3 282/1/3 283/1/3
f 285/1/3 282/1/3 284/1/3
f 286/1/3 282/1/3 285/1/3
f 287/1/3 283/1/3 281/1/3
f 288/1/3 283/1/3 287/1/3
f 289/1/3 285/1/3 284/1/3
f 290/1/3 285/1/3 289/1/3
f 291/1/3 282/1/3 286/1/3
f 292/1/3 282/1/3 291/1/3
f 297/1/3 294/1/3 293/1/3
f 298/1/3 294/1/3 297/1/3
f 301/1/3 296/1/3 295/1/3
f 302/1/3 296/1/3 301/1/3
f 303/1/3 299/1/3 298/1/3
f 304/1/3 299/1/3 303/1/3
f 305/1/3 301/1/3 300/1/3
f 306/1/3 301/1/3 305/1/3
f 308/1/3 305/1/3 304/1/3
f 309/1/3 305/1/3 308/1/3
f 312/1/3 308/1/3 307/1/3
f 313/1/3 308/1/3 312/1/3
f 314/1/3 310/1/3 309/1/3
f 315/1/3 310/1/3 314/1/3
f 317/1/3 312/1/3 311/1/3
f 318/1/3 312/1/3 317/1/3
f 319/1/3 316/1/3 315/1/3
f 320/1/3 316/1/3 319/1/3
f 325/1/3 322/1/3 321/1/3
f 326/1/3 324/1/3 323/1/3
f 327/1/3 325/1/3 321/1/3
f 327/1/3 326/1/3 325/1/3
f 328/1/3 324/1/3 326/1/3
f 328/1/3 326/1/3 327/1/3
f 329/1/3 327/1/3 321/1/3
f 330/1/3 327/1/3 329/1/3
f 331/1/3 324/1/3 328/1/3
f 332/1/3 324/1/3 331/1/3
f 336/1/3 334/1/3 333/1/3
f 337/1/3 336/1/3 335/1/3
f 338/1/3 334/1/3 336/1/3
f 338/1/3 336/1/3 337/1/3
f 339/1/3 334/1/3 338/1/3
f 340/1/3 334/1/3 339/1/3
f 343/2/3 342/2/3 341/2/3
f 344/2/3 342/2/3 343/2/3
f 349/2/3 343/2/3 341/2/3
f 350/2/3 346/2/3 345/2/3
f 351/2/3 346/2/3 350/2/3
f 352/2/3 348/2/3 347/2/3
f 353/2/3 348/2/3 352/2/3
f 354/2/3 342/2/3 344/2/3
f 355/2/3 351/2/3 350/2/3
f 355/2/3 354/2/3 353/2/3
f 355/2/3 353/2/3 352/2/3
f 355/2/3 349/2/3 341/2/3
f 355/2/3 352/2/3 351/2/3
f 355/2/3 350/2/3 349/2/3
f 356/2/3 354/2/3 355/2/3
f 357/2/3 354/2/3 356/2/3
f 358/2/3 342/2/3 354/2/3
f 358/2/3 354/2/3 357/2/3
f 359/2/3 355/2/3 341/2/3
f 360/2/3 357/2/3 356/2/3
f 361/2/3 357/2/3 360/2/3
f 362/2/3 357/2/3 361/2/3
f 363/2/3 357/2/3 362/2/3
f 364/2/3 342/2/3 358/2/3
f 365/2/3 360/2/3 359/2/3
f 366/2/3 362/2/3 361/2/3
f 367/2/3 362/2/3 366/2/3
f 368/2/3 364/2/3 363/2/3
f 369/2/3 365/2/3 359/2/3
f 369/2/3 366/2/3 365/2/3
f 370/2/3 366/2/3 369/2/3
f 371/2/3 368/2/3 367/2/3
f 372/2/3 364/2/3 368/2/3
f 372/2/3 368/2/3 371/2/3
f 373/2/3 359/2/3 341/2/3
f 373/2/3 369/2/3 359/2/3
f 374/2/3 369/2/3 373/2/3
f 375/2/3 371/2/3 370/2/3
f 376/2/3 371/2/3 375/2/3
f 377/2/3 364/2/3 372/2/3
f 378/2/3 342/2/3 364/2/3
f 378/2/3 364/2/3 377/2/3
f 379/2/3 373/2/3 341/2/3
f 380/2/3 376/2/3 375/2/3
f 380/2/3 377/2/3 376/2/3
f 380/2/3 375/2/3 374/2/3
f 381/2/3 377/2/3 380/2/3
f 382/2/3 342/2/3 378/2/3
f 383/2/3 379/2/3 341/2/3
f 383/2/3 382/2/3 381/2/3
f 383/2/3 381/2/3 380/2/3
f 383/2/3 380/2/3 379/2/3
f 384/2/3 382/2/3 383/2/3
f 385/2/3 382/2/3 384/2/3
f 386/2/3 342/2/3 382/2/3
f 386/2/3 382/2/3 385/2/3
f 387/2/3 385/2/3 384/2/3
f 388/2/3 385/2/3 387/2/3
f 391/2/3 383/2/3 341/2/3
f 392/2/3 390/2/3 389/2/3
f 393/2/3 390/2/3 392/2/3
f 394/2/3 342/2/3 386/2/3
f 395/2/3 393/2/3 392/2/3
f 395/2/3 394/2/3 393/2/3
f 395/2/3 392/2/3 391/2/3
f 396/2/3 342/2/3 394/2/3
f 396/2/3 394/2/3 395/2/3
f 397/2/3 395/2/3 391/2/3
f 397/2/3 391/2/3 341/2/3
f 398/2/3 395/2/3 397/2/3
f 399/2/3 397/2/3 341/2/3
f 401/2/3 400/2/3 399/2/3
f 402/2/3 342/2/3 396/2/3
f 403/2/3 401/2/3 399/2/3
f 403/2/3 402/2/3 401/2/3
f 403/2/3 399/2/3 341/2/3
f 404/2/3 342/2/3 402/2/3
f 404/2/3 402/2/3 403/2/3
f 405/2/4 406/2/4 407/2/4
f 407/2/4 406/2/4 408/2/4
f 405/2/4 407/2/4 409/2/4
f 409/2/4 407/2/4 410/2/4
f 405/2/4 409/2/4 411/2/4
f 411/2/4 412/2/4 413/2/4
f 408/2/4 406/2/4 414/2/4
f 411/2/4 413/2/4 415/2/4
f 413/2/4 414/2/4 415/2/4
f 405/2/4 411/2/4 415/2/4
f 415/2/4 414/2/4 416/2/4
f 416/2/4 414/2/4 417/2/4
f 414/2/4 406/2/4 418/2/4
f 417/2/4 414/2/4 418/2/4
f 416/2/4 417/2/4 419/2/4
f 419/2/4 417/2/4 420/2/4
f 405/2/4 415/2/4 423/2/4
f 421/2/4 422/2/4 424/2/4
f 424/2/4 422/2/4 425/2/4
f 418/2/4 406/2/4 426/2/4
f 424/2/4 425/2/4 427/2/4
f 425/2/4 426/2/4 427/2/4
f 405/2/4 423/2/4 427/2/4
f 423/2/4 424/2/4 427/2/4
f 427/2/4 426/2/4 428/2/4
f 428/2/4 426/2/4 429/2/4
f 426/2/4 406/2/4 430/2/4
f 429/2/4 426/2/4 430/2/4
f 405/2/4 427/2/4 431/2/4
f 428/2/4 429/2/4 432/2/4
f 432/2/4 429/2/4 433/2/4
f 433/2/4 429/2/4 434/2/4
f 434/2/4 429/2/4 435/2/4
f 430/2/4 406/2/4 436/2/4
f 431/2/4 432/2/4 437/2/4
f 433/2/4 434/2/4 438/2/4
f 438/2/4 434/2/4 439/2/4
f 435/2/4 436/2/4 440/2/4
f 431/2/4 437/2/4 441/2/4
f 437/2/4 438/2/4 441/2/4
f 441/2/4 438/2/4 442/2/4
f 439/2/4 440/2/4 443/2/4
f 440/2/4 436/2/4 444/2/4
f 443/2/4 440/2/4 444/2/4
f 405/2/4 431/2/4 445/2/4
f 431/2/4 441/2/4 445/2/4
f 445/2/4 441/2/4 446/2/4
f 442/2/4 443/2/4 447/2/4
f 447/2/4 443/2/4 448/2/4
f 444/2/4 436/2/4 449/2/4
f 436/2/4 406/2/4 450/2/4
f 449/2/4 436/2/4 450/2/4
f 405/2/4 445/2/4 451/2/4
f 447/2/4 448/2/4 452/2/4
f 448/2/4 449/2/4 452/2/4
f 446/2/4 447/2/4 452/2/4
f 452/2/4 449/2/4 453/2/4
f 450/2/4 406/2/4 454/2/4
f 405/2/4 451/2/4 455/2/4
f 453/2/4 454/2/4 455/2/4
f 452/2/4 453/2/4 455/2/4
f 451/2/4 452/2/4 455/2/4
f 455/2/4 454/2/4 456/2/4
f 456/2/4 454/2/4 457/2/4
f 457/2/4 454/2/4 458/2/4
f 458/2/4 454/2/4 459/2/4
f 454/2/4 406/2/4 460/2/4
f 459/2/4 454/2/4 460/2/4
f 456/2/4 457/2/4 461/2/4
f 461/2/4 457/2/4 462/2/4
f 458/2/4 459/2/4 463/2/4
f 463/2/4 459/2/4 464/2/4
f 405/2/4 455/2/4 465/2/4
f 460/2/4 406/2/4 466/2/4
f 405/2/4 465/2/4 467/2/4
f 465/2/4 466/2/4 467/2/4
f 466/2/4 406/2/4 468/2/4
f 467/2/4 466/2/4 468/2/4
f 469/1/4 470/1/4 472/1/4
f 471/1/4 472/1/4 473/1/4
f 472/1/4 470/1/4 474/1/4
f 473/1/4 472/1/4 474/1/4
f 474/1/4 470/1/4 475/1/4
f 475/1/4 470/1/4 476/1/4
f 477/1/4 478/1/4 481/1/4
f 479/1/4 480/1/4 482/1/4
f 477/1/4 481/1/4 483/1/4
f 481/1/4 482/1/4 483/1/4
f 482/1/4 480/1/4 484/1/4
f 483/1/4 482/1/4 484/1/4
f 477/1/4 483/1/4 485/1/4
f 485/1/4 483/1/4 486/1/4
f 484/1/4 480/1/4 487/1/4
f 487/1/4 480/1/4 488/1/4
f 489/1/4 490/1/4 493/1/4
f 493/1/4 490/1/4 494/1/4
f 491/1/4 492/1/4 497/1/4
f 497/1/4 492/1/4 498/1/4
f 494/1/4 495/1/4 499/1/4
f 499/1/4 495/1/4 500/1/4
f 496/1/4 497/1/4 501/1/4
f 501/1/4 497/1/4 502/1/4
f 500/1/4 501/1/4 504/1/4
f 504/1/4 501/1/4 505/1/4
f 503/1/4 504/1/4 508/1/4
f 508/1/4 504/1/4 509/1/4
f 505/1/4 506/1/4 510/1/4
f 510/1/4 506/1/4 511/1/4
f 507/1/4 508/1/4 513/1/4
f 513/1/4 508/1/4 514/1/4
f 511/1/4 512/1/4 515/1/4
f 515/1/4 512/1/4 516/1/4
f 517/1/4 518/1/4 523/1/4
f 519/1/4 520/1/4 524/1/4
f 524/1/4 520/1/4 525/1/4
f 521/1/4 522/1/4 526/1/4
f 524/1/4 525/1/4 527/1/4
f 525/1/4 526/1/4 527/1/4
f 517/1/4 523/1/4 527/1/4
f 523/1/4 524/1/4 527/1/4
f 526/1/4 522/1/4 528/1/4
f 527/1/4 526/1/4 528/1/4
f 531/2/5 530/2/5 529/2/5
f 532/2/5 530/2/5 531/2/5
f 543/1/5 534/1/5 533/1/5
f 544/1/5 534/1/5 543/1/5
f 545/1/5 536/1/5 535/1/5
f 546/1/5 536/1/5 545/1/5
f 547/1/5 538/1/5 537/1/5
f 548/1/5 538/1/5 547/1/5
f 549/1/5 540/1/5 539/1/5
f 550/1/5 540/1/5 549/1/5
f 551/1/5 542/1/5 541/1/5
f 552/1/5 542/1/5 551/1/5
f 563/1/5 554/1/5 553/1/5
f 564/1/5 554/1/5 563/1/5
f 565/1/5 556/1/5 555/1/5
f 566/1/5 556/1/5 565/1/5
f 567/1/5 558/1/5 557/1/5
f 568/1/5 558/1/5 567/1/5
f 569/1/5 560/1/5 559/1/5
f 570/1/5 560/1/5 569/1/5
f 571/1/5 562/1/5 561/1/5
f 572/1/5 562/1/5 571/1/5
f 577/1/5 574/1/5 573/1/5
f 578/1/5 574/1/5 577/1/5
f 579/1/5 576/1/5 575/1/5
f 580/1/5 576/1/5 579/1/5
f 585/1/5 582/1/5 581/1/5
f 586/1/5 582/1/5 585/1/5
f 587/1/5 584/1/5 583/1/5
f 588/1/5 584/1/5 587/1/5
f 593/1/5 590/1/5 589/1/5
f 594/1/5 590/1/5 593/1/5
f 595/1/5 592/1/5 591/1/5
f 596/1/5 592/1/5 595/1/5
f 601/1/5 598/1/5 597/1/5
f 602/1/5 598/1/5 601/1/5
f 603/1/5 600/1/5 599/1/5
f 604/1/5 600/1/5 603/1/5
f 609/1/5 606/1/5 605/1/5
f 610/1/5 606/1/5 609/1/5
f 611/1/5 608/1/5 607/1/5
f 612/1/5 608/1/5 611/1/5
f 617/1/5 614/1/5 613/1/5
f 618/1/5 614/1/5 617/1/5
f 619/1/5 616/1/5 615/1/5
f 620/1/5 616/1/5 619/1/5
f 635/1/5 622/1/5 621/1/5
f 636/1/5 622/1/5 635/1/5
f 637/1/5 624/1/5 623/1/5
f 638/1/5 624/1/5 637/1/5
f 639/1/5 626/1/5 625/1/5
f 640/1/5 626/1/5 639/1/5
f 641/1/5 628/1/5 627/1/5
f 642/1/5 628/1/5 641/1/5
f 643/1/5 630/1/5 629/1/5
f 644/1/5 630/1/5 643/1/5
f 645/1/5 632/1/5 631/1/5
f 646/1/5 632/1/5 645/1/5
f 647/1/5 634/1/5 633/1/5
f 648/1/5 634/1/5 647/1/5
f 663/1/5 650/1/5 649/1/5
f 664/1/5 650/1/5 663/1/5
f 665/1/5 652/1/5 651/1/5
f 666/1/5 652/1/5 665/1/5
f 667/1/5 654/1/5 653/1/5
f 668/1/5 654/1/5 667/1/5
f 669/1/5 656/1/5 655/1/5
f 670/1/5 656/1/5 669/1/5
f 671/1/5 658/1/5 657/1/5
f 672/1/5 658/1/5 671/1/5
f 673/1/5 660/1/5 659/1/5
f 674/1/5 660/1/5 673/1/5
f 675/1/5 662/1/5 661/1/5
f 676/1/5 662/1/5 675/1/5
f 677/1/6 678/1/6 687/1/6
f 687/1/6 678/1/6 688/1/6
f 679/1/6 680/1/6 689/1/6
f 689/1/6 680/1/6 690/1/6
f 681/1/6 682/1/6 691/1/6
f 691/1/6 682/1/6 692/1/6
f 683/1/6 684/1/6 693/1/6
f 693/1/6 684/1/6 694/1/6
f 685/1/6 686/1/6 695/1/6
f 695/1/6 686/1/6 696/1/6
f 697/1/6 698/1/6 707/1/6
f 707/1/6 698/1/6 708/1/6
f 699/1/6 700/1/6 709/1/6
f 709/1/6 700/1/6 710/1/6
f 701/1/6 702/1/6 711/1/6
f 711/1/6 702/1/6 712/1/6
f 703/1/6 704/1/6 713/1/6
f 713/1/6 704/1/6 714/1/6
f 705/1/6 706/1/6 715/1/6
f 715/1/6 706/1/6 716/1/6
f 717/1/6 718/1/6 721/1/6
f 721/1/6 718/1/6 722/1/6
f 719/1/6 720/1/6 723/1/6
f 723/1/6 720/1/6 724/1/6
f 725/1/6 726/1/6 729/1/6
f 729/1/6 726/1/6 730/1/6
f 727/1/6 728/1/6 731/1/6
f 731/1/6 728/1/6 732/1/6
f 733/1/6 734/1/6 737/1/6
f 737/1/6 734/1/6 738/1/6
f 735/1/6 736/1/6 739/1/6
f 739/1/6 736/1/6 740/1/6
f 741/1/6 742/1/6 745/1/6
f 745/1/6 742/1/6 746/1/6
f 743/1/6 744/1/6 747/1/6
f 747/1/6 744/1/6 748/1/6
f 749/1/6 750/1/6 753/1/6
f 753/1/6 750/1/6 754/1/6
f 751/1/6 752/1/6 755/1/6
f 755/1/6 752/1/6 756/1/6
f 757/1/6 758/1/6 761/1/6
f 761/1/6 758/1/6 762/1/6
f 759/1/6 760/1/6 763/1/6
f 763/1/6 760/1/6 764/1/6
f 765/1/6 766/1/6 775/1/6
f 775/1/6 766/1/6 776/1/6
f 767/1/6 768/1/6 777/1/6
f 777/1/6 768/1/6 778/1/6
f 769/1/6 770/1/6 779/1/6
f 779/1/6 770/1/6 780/1/6
f 771/1/6 772/1/6 781/1/6
f 781/1/6 772/1/6 782/1/6
f 773/1/6 774/1/6 783/1/6
f 783/1/6 774/1/6 784/1/6
f 785/1/6 786/1/6 795/1/6
f 795/1/6 786/1/6 796/1/6
f 787/1/6 788/1/6 797/1/6
f 797/1/6 788/1/6 798/1/6
f 789/1/6 790/1/6 799/1/6
f 799/1/6 790/1/6 800/1/6
f 791/1/6 792/1/6 801/1/6
f 801/1/6 792/1/6 802/1/6
f 793/1/6 794/1/6 803/1/6
f 803/1/6 794/1/6 804/1/6
f 805/2/6 806/2/6 807/2/6
f 807/2/6 806/2/6 808/2/6
