# MagicaVoxel @ Ephtracy

# group
g exit

# material
mtllib exit.mtl
usemtl palette

# normals
vn -1 0 0
vn 1 0 0
vn 0 0 1
vn 0 0 -1
vn 0 -1 0
vn 0 1 0

# texcoords
vt 0.955078 0.5
vt 0.958984 0.5

# verts
v -10 4 -6
v -10 4 -7
v -10 11 -6
v -10 11 -7
v -9 5 -5
v -9 5 -6
v -9 9 -7
v -9 9 -8
v -9 10 -5
v -9 10 -6
v -9 10 -7
v -9 10 -8
v -8 5 -7
v -8 5 -8
v -8 9 -7
v -8 9 -8
v -5 5 -7
v -5 5 -8
v -5 6 -7
v -5 6 -8
v -5 9 -7
v -5 9 -8
v -5 10 -7
v -5 10 -8
v -4 5 -5
v -4 5 -6
v -4 6 -5
v -4 6 -6
v -4 6 -7
v -4 6 -8
v -4 9 -5
v -4 9 -6
v -4 9 -7
v -4 9 -8
v -4 10 -5
v -4 10 -6
v -3 6 -5
v -3 6 -6
v -3 7 -5
v -3 7 -6
v -3 8 -5
v -3 8 -6
v -3 9 -5
v -3 9 -6
v -2 7 -5
v -2 7 -6
v -2 8 -5
v -2 8 -6
v -1 5 -7
v -1 5 -8
v -1 6 -5
v -1 6 -6
v -1 6 -7
v -1 6 -8
v -1 7 -5
v -1 7 -6
v -1 8 -5
v -1 8 -6
v -1 9 -5
v -1 9 -6
v -1 9 -7
v -1 9 -8
v -1 10 -7
v -1 10 -8
v 0 5 -5
v 0 5 -6
v 0 6 -5
v 0 6 -6
v 0 6 -7
v 0 6 -8
v 0 7 -7
v 0 7 -8
v 0 8 -7
v 0 8 -8
v 0 9 -5
v 0 9 -6
v 0 9 -7
v 0 9 -8
v 0 10 -5
v 0 10 -6
v 1 7 -7
v 1 7 -8
v 1 8 -7
v 1 8 -8
v 2 5 -5
v 2 5 -6
v 2 6 -5
v 2 6 -6
v 2 6 -7
v 2 6 -8
v 2 7 -7
v 2 7 -8
v 2 8 -7
v 2 8 -8
v 2 9 -5
v 2 9 -6
v 2 9 -7
v 2 9 -8
v 2 10 -5
v 2 10 -6
v 3 5 -7
v 3 5 -8
v 3 6 -5
v 3 6 -6
v 3 6 -7
v 3 6 -8
v 3 9 -5
v 3 9 -6
v 3 9 -7
v 3 9 -8
v 3 10 -7
v 3 10 -8
v 5 5 -7
v 5 5 -8
v 5 6 -7
v 5 6 -8
v 5 7 -7
v 5 7 -8
v 5 8 -7
v 5 8 -8
v 5 9 -7
v 5 9 -8
v 5 10 -7
v 5 10 -8
v 6 9 -5
v 6 9 -6
v 6 10 -5
v 6 10 -6
v 7 5 -5
v 7 5 -6
v 7 9 -5
v 7 9 -6
v 8 6 -7
v 8 6 -8
v 8 7 -7
v 8 7 -8
v 8 8 -7
v 8 8 -8
v 8 9 -7
v 8 9 -8
v -8 6 -5
v -8 6 -6
v -8 7 -5
v -8 7 -6
v -8 8 -5
v -8 8 -6
v -8 9 -5
v -8 9 -6
v -7 5 -7
v -7 5 -8
v -7 9 -7
v -7 9 -8
v -6 9 -7
v -6 9 -8
v -6 10 -7
v -6 10 -8
v -5 5 -5
v -5 5 -6
v -5 6 -5
v -5 6 -6
v -5 7 -5
v -5 7 -6
v -5 8 -5
v -5 8 -6
v -5 9 -5
v -5 9 -6
v -5 10 -5
v -5 10 -6
v -3 5 -5
v -3 5 -6
v -3 6 -5
v -3 6 -6
v -3 6 -7
v -3 6 -8
v -3 9 -5
v -3 9 -6
v -3 9 -7
v -3 9 -8
v -3 10 -5
v -3 10 -6
v -2 5 -7
v -2 5 -8
v -2 6 -5
v -2 6 -6
v -2 6 -7
v -2 6 -8
v -2 7 -5
v -2 7 -6
v -2 8 -5
v -2 8 -6
v -2 9 -5
v -2 9 -6
v -2 9 -7
v -2 9 -8
v -2 10 -7
v -2 10 -8
v -1 7 -5
v -1 7 -6
v -1 8 -5
v -1 8 -6
v 0 5 -7
v 0 5 -8
v 0 6 -5
v 0 6 -6
v 0 6 -7
v 0 6 -8
v 0 7 -5
v 0 7 -6
v 0 8 -5
v 0 8 -6
v 0 9 -5
v 0 9 -6
v 0 9 -7
v 0 9 -8
v 0 10 -7
v 0 10 -8
v 1 5 -5
v 1 5 -6
v 1 6 -5
v 1 6 -6
v 1 6 -7
v 1 6 -8
v 1 7 -7
v 1 7 -8
v 1 8 -7
v 1 8 -8
v 1 9 -5
v 1 9 -6
v 1 9 -7
v 1 9 -8
v 1 10 -5
v 1 10 -6
v 2 7 -7
v 2 7 -8
v 2 8 -7
v 2 8 -8
v 3 6 -7
v 3 6 -8
v 3 7 -7
v 3 7 -8
v 3 8 -7
v 3 8 -8
v 3 9 -7
v 3 9 -8
v 4 5 -7
v 4 5 -8
v 4 6 -5
v 4 6 -6
v 4 6 -7
v 4 6 -8
v 4 9 -5
v 4 9 -6
v 4 9 -7
v 4 9 -8
v 4 10 -7
v 4 10 -8
v 5 5 -5
v 5 5 -6
v 5 6 -5
v 5 6 -6
v 5 9 -5
v 5 9 -6
v 5 10 -5
v 5 10 -6
v 8 5 -5
v 8 5 -6
v 8 9 -5
v 8 9 -6
v 9 5 -7
v 9 5 -8
v 9 9 -5
v 9 9 -6
v 9 10 -5
v 9 10 -6
v 9 10 -7
v 9 10 -8
v 10 4 -6
v 10 4 -7
v 10 11 -6
v 10 11 -7
v -9 5 -5
v -9 10 -5
v -8 6 -5
v -8 7 -5
v -8 8 -5
v -8 9 -5
v -5 5 -5
v -5 6 -5
v -5 7 -5
v -5 8 -5
v -5 9 -5
v -5 10 -5
v -4 5 -5
v -4 6 -5
v -4 9 -5
v -4 10 -5
v -3 5 -5
v -3 6 -5
v -3 7 -5
v -3 8 -5
v -3 9 -5
v -3 10 -5
v -2 6 -5
v -2 7 -5
v -2 8 -5
v -2 9 -5
v -1 6 -5
v -1 7 -5
v -1 8 -5
v -1 9 -5
v 0 5 -5
v 0 6 -5
v 0 7 -5
v 0 8 -5
v 0 9 -5
v 0 10 -5
v 1 5 -5
v 1 6 -5
v 1 9 -5
v 1 10 -5
v 2 5 -5
v 2 6 -5
v 2 9 -5
v 2 10 -5
v 3 6 -5
v 3 9 -5
v 4 6 -5
v 4 9 -5
v 5 5 -5
v 5 6 -5
v 5 9 -5
v 5 10 -5
v 6 9 -5
v 6 10 -5
v 7 5 -5
v 7 9 -5
v 8 5 -5
v 8 9 -5
v 9 9 -5
v 9 10 -5
v -10 4 -6
v -10 11 -6
v -9 5 -6
v -9 10 -6
v -8 6 -6
v -8 7 -6
v -8 8 -6
v -8 9 -6
v -5 5 -6
v -5 6 -6
v -5 7 -6
v -5 8 -6
v -5 9 -6
v -5 10 -6
v -4 5 -6
v -4 6 -6
v -4 9 -6
v -4 10 -6
v -3 5 -6
v -3 6 -6
v -3 7 -6
v -3 8 -6
v -3 9 -6
v -3 10 -6
v -2 6 -6
v -2 7 -6
v -2 8 -6
v -2 9 -6
v -1 6 -6
v -1 7 -6
v -1 8 -6
v -1 9 -6
v 0 5 -6
v 0 6 -6
v 0 7 -6
v 0 8 -6
v 0 9 -6
v 0 10 -6
v 1 5 -6
v 1 6 -6
v 1 9 -6
v 1 10 -6
v 2 5 -6
v 2 6 -6
v 2 9 -6
v 2 10 -6
v 3 6 -6
v 3 9 -6
v 4 6 -6
v 4 9 -6
v 5 5 -6
v 5 6 -6
v 5 9 -6
v 5 10 -6
v 6 9 -6
v 6 10 -6
v 7 5 -6
v 7 9 -6
v 8 5 -6
v 8 9 -6
v 9 9 -6
v 9 10 -6
v 10 4 -6
v 10 11 -6
v -10 4 -7
v -10 11 -7
v -9 9 -7
v -9 10 -7
v -8 5 -7
v -8 9 -7
v -7 5 -7
v -7 9 -7
v -6 9 -7
v -6 10 -7
v -5 5 -7
v -5 6 -7
v -5 9 -7
v -5 10 -7
v -4 6 -7
v -4 9 -7
v -3 6 -7
v -3 9 -7
v -2 5 -7
v -2 6 -7
v -2 9 -7
v -2 10 -7
v -1 5 -7
v -1 6 -7
v -1 9 -7
v -1 10 -7
v 0 5 -7
v 0 6 -7
v 0 7 -7
v 0 8 -7
v 0 9 -7
v 0 10 -7
v 1 6 -7
v 1 7 -7
v 1 8 -7
v 1 9 -7
v 2 6 -7
v 2 7 -7
v 2 8 -7
v 2 9 -7
v 3 5 -7
v 3 6 -7
v 3 7 -7
v 3 8 -7
v 3 9 -7
v 3 10 -7
v 4 5 -7
v 4 6 -7
v 4 9 -7
v 4 10 -7
v 5 5 -7
v 5 6 -7
v 5 7 -7
v 5 8 -7
v 5 9 -7
v 5 10 -7
v 8 6 -7
v 8 7 -7
v 8 8 -7
v 8 9 -7
v 9 5 -7
v 9 10 -7
v 10 4 -7
v 10 11 -7
v -9 9 -8
v -9 10 -8
v -8 5 -8
v -8 9 -8
v -7 5 -8
v -7 9 -8
v -6 9 -8
v -6 10 -8
v -5 5 -8
v -5 6 -8
v -5 9 -8
v -5 10 -8
v -4 6 -8
v -4 9 -8
v -3 6 -8
v -3 9 -8
v -2 5 -8
v -2 6 -8
v -2 9 -8
v -2 10 -8
v -1 5 -8
v -1 6 -8
v -1 9 -8
v -1 10 -8
v 0 5 -8
v 0 6 -8
v 0 7 -8
v 0 8 -8
v 0 9 -8
v 0 10 -8
v 1 6 -8
v 1 7 -8
v 1 8 -8
v 1 9 -8
v 2 6 -8
v 2 7 -8
v 2 8 -8
v 2 9 -8
v 3 5 -8
v 3 6 -8
v 3 7 -8
v 3 8 -8
v 3 9 -8
v 3 10 -8
v 4 5 -8
v 4 6 -8
v 4 9 -8
v 4 10 -8
v 5 5 -8
v 5 6 -8
v 5 7 -8
v 5 8 -8
v 5 9 -8
v 5 10 -8
v 8 6 -8
v 8 7 -8
v 8 8 -8
v 8 9 -8
v 9 5 -8
v 9 10 -8
v -10 4 -6
v 10 4 -6
v -10 4 -7
v 10 4 -7
v -9 5 -5
v -5 5 -5
v -4 5 -5
v -3 5 -5
v 0 5 -5
v 1 5 -5
v 2 5 -5
v 5 5 -5
v 7 5 -5
v 8 5 -5
v -9 5 -6
v -5 5 -6
v -4 5 -6
v -3 5 -6
v 0 5 -6
v 1 5 -6
v 2 5 -6
v 5 5 -6
v 7 5 -6
v 8 5 -6
v -8 5 -7
v -7 5 -7
v -5 5 -7
v -2 5 -7
v -1 5 -7
v 0 5 -7
v 3 5 -7
v 4 5 -7
v 5 5 -7
v 9 5 -7
v -8 5 -8
v -7 5 -8
v -5 5 -8
v -2 5 -8
v -1 5 -8
v 0 5 -8
v 3 5 -8
v 4 5 -8
v 5 5 -8
v 9 5 -8
v -3 6 -5
v -2 6 -5
v -1 6 -5
v 0 6 -5
v -3 6 -6
v -2 6 -6
v -1 6 -6
v 0 6 -6
v 0 6 -7
v 1 6 -7
v 2 6 -7
v 3 6 -7
v 0 6 -8
v 1 6 -8
v 2 6 -8
v 3 6 -8
v -8 7 -5
v -5 7 -5
v -2 7 -5
v -1 7 -5
v -8 7 -6
v -5 7 -6
v -2 7 -6
v -1 7 -6
v 1 7 -7
v 2 7 -7
v 5 7 -7
v 8 7 -7
v 1 7 -8
v 2 7 -8
v 5 7 -8
v 8 7 -8
v -3 8 -5
v -2 8 -5
v -1 8 -5
v 0 8 -5
v -3 8 -6
v -2 8 -6
v -1 8 -6
v 0 8 -6
v 0 8 -7
v 1 8 -7
v 2 8 -7
v 3 8 -7
v 0 8 -8
v 1 8 -8
v 2 8 -8
v 3 8 -8
v -8 9 -5
v -5 9 -5
v -4 9 -5
v -3 9 -5
v 0 9 -5
v 1 9 -5
v 2 9 -5
v 3 9 -5
v 4 9 -5
v 5 9 -5
v 6 9 -5
v 7 9 -5
v 8 9 -5
v 9 9 -5
v -8 9 -6
v -5 9 -6
v -4 9 -6
v -3 9 -6
v 0 9 -6
v 1 9 -6
v 2 9 -6
v 3 9 -6
v 4 9 -6
v 5 9 -6
v 6 9 -6
v 7 9 -6
v 8 9 -6
v 9 9 -6
v -9 9 -7
v -8 9 -7
v -7 9 -7
v -6 9 -7
v -5 9 -7
v -4 9 -7
v -3 9 -7
v -2 9 -7
v -1 9 -7
v 0 9 -7
v 3 9 -7
v 4 9 -7
v 5 9 -7
v 8 9 -7
v -9 9 -8
v -8 9 -8
v -7 9 -8
v -6 9 -8
v -5 9 -8
v -4 9 -8
v -3 9 -8
v -2 9 -8
v -1 9 -8
v 0 9 -8
v 3 9 -8
v 4 9 -8
v 5 9 -8
v 8 9 -8
v -8 6 -5
v -5 6 -5
v -4 6 -5
v -3 6 -5
v 0 6 -5
v 1 6 -5
v 2 6 -5
v 3 6 -5
v 4 6 -5
v 5 6 -5
v -8 6 -6
v -5 6 -6
v -4 6 -6
v -3 6 -6
v 0 6 -6
v 1 6 -6
v 2 6 -6
v 3 6 -6
v 4 6 -6
v 5 6 -6
v -5 6 -7
v -4 6 -7
v -3 6 -7
v -2 6 -7
v -1 6 -7
v 0 6 -7
v 3 6 -7
v 4 6 -7
v 5 6 -7
v 8 6 -7
v -5 6 -8
v -4 6 -8
v -3 6 -8
v -2 6 -8
v -1 6 -8
v 0 6 -8
v 3 6 -8
v 4 6 -8
v 5 6 -8
v 8 6 -8
v -3 7 -5
v -2 7 -5
v -1 7 -5
v 0 7 -5
v -3 7 -6
v -2 7 -6
v -1 7 -6
v 0 7 -6
v 0 7 -7
v 1 7 -7
v 2 7 -7
v 3 7 -7
v 0 7 -8
v 1 7 -8
v 2 7 -8
v 3 7 -8
v -8 8 -5
v -5 8 -5
v -2 8 -5
v -1 8 -5
v -8 8 -6
v -5 8 -6
v -2 8 -6
v -1 8 -6
v 1 8 -7
v 2 8 -7
v 5 8 -7
v 8 8 -7
v 1 8 -8
v 2 8 -8
v 5 8 -8
v 8 8 -8
v -3 9 -5
v -2 9 -5
v -1 9 -5
v 0 9 -5
v -3 9 -6
v -2 9 -6
v -1 9 -6
v 0 9 -6
v 0 9 -7
v 1 9 -7
v 2 9 -7
v 3 9 -7
v 0 9 -8
v 1 9 -8
v 2 9 -8
v 3 9 -8
v -9 10 -5
v -5 10 -5
v -4 10 -5
v -3 10 -5
v 0 10 -5
v 1 10 -5
v 2 10 -5
v 5 10 -5
v 6 10 -5
v 9 10 -5
v -9 10 -6
v -5 10 -6
v -4 10 -6
v -3 10 -6
v 0 10 -6
v 1 10 -6
v 2 10 -6
v 5 10 -6
v 6 10 -6
v 9 10 -6
v -9 10 -7
v -6 10 -7
v -5 10 -7
v -2 10 -7
v -1 10 -7
v 0 10 -7
v 3 10 -7
v 4 10 -7
v 5 10 -7
v 9 10 -7
v -9 10 -8
v -6 10 -8
v -5 10 -8
v -2 10 -8
v -1 10 -8
v 0 10 -8
v 3 10 -8
v 4 10 -8
v 5 10 -8
v 9 10 -8
v -10 11 -6
v 10 11 -6
v -10 11 -7
v 10 11 -7

# faces
f 3/1/1 2/1/1 1/1/1
f 4/1/1 2/1/1 3/1/1
f 9/2/1 6/2/1 5/2/1
f 10/2/1 6/2/1 9/2/1
f 11/2/1 8/2/1 7/2/1
f 12/2/1 8/2/1 11/2/1
f 15/2/1 14/2/1 13/2/1
f 16/2/1 14/2/1 15/2/1
f 19/2/1 18/2/1 17/2/1
f 20/2/1 18/2/1 19/2/1
f 23/2/1 22/2/1 21/2/1
f 24/2/1 22/2/1 23/2/1
f 27/2/1 26/2/1 25/2/1
f 28/2/1 26/2/1 27/2/1
f 33/2/1 30/2/1 29/2/1
f 34/2/1 30/2/1 33/2/1
f 35/2/1 32/2/1 31/2/1
f 36/2/1 32/2/1 35/2/1
f 39/2/1 38/2/1 37/2/1
f 40/2/1 38/2/1 39/2/1
f 43/2/1 42/2/1 41/2/1
f 44/2/1 42/2/1 43/2/1
f 47/2/1 46/2/1 45/2/1
f 48/2/1 46/2/1 47/2/1
f 53/2/1 50/2/1 49/2/1
f 54/2/1 50/2/1 53/2/1
f 55/2/1 52/2/1 51/2/1
f 56/2/1 52/2/1 55/2/1
f 59/2/1 58/2/1 57/2/1
f 60/2/1 58/2/1 59/2/1
f 63/2/1 62/2/1 61/2/1
f 64/2/1 62/2/1 63/2/1
f 67/2/1 66/2/1 65/2/1
f 68/2/1 66/2/1 67/2/1
f 71/2/1 70/2/1 69/2/1
f 72/2/1 70/2/1 71/2/1
f 77/2/1 74/2/1 73/2/1
f 78/2/1 74/2/1 77/2/1
f 79/2/1 76/2/1 75/2/1
f 80/2/1 76/2/1 79/2/1
f 83/2/1 82/2/1 81/2/1
f 84/2/1 82/2/1 83/2/1
f 87/2/1 86/2/1 85/2/1
f 88/2/1 86/2/1 87/2/1
f 91/2/1 90/2/1 89/2/1
f 92/2/1 90/2/1 91/2/1
f 97/2/1 94/2/1 93/2/1
f 98/2/1 94/2/1 97/2/1
f 99/2/1 96/2/1 95/2/1
f 100/2/1 96/2/1 99/2/1
f 105/2/1 102/2/1 101/2/1
f 106/2/1 102/2/1 105/2/1
f 107/2/1 104/2/1 103/2/1
f 108/2/1 104/2/1 107/2/1
f 111/2/1 110/2/1 109/2/1
f 112/2/1 110/2/1 111/2/1
f 115/2/1 114/2/1 113/2/1
f 116/2/1 114/2/1 115/2/1
f 119/2/1 118/2/1 117/2/1
f 120/2/1 118/2/1 119/2/1
f 123/2/1 122/2/1 121/2/1
f 124/2/1 122/2/1 123/2/1
f 127/2/1 126/2/1 125/2/1
f 128/2/1 126/2/1 127/2/1
f 131/2/1 130/2/1 129/2/1
f 132/2/1 130/2/1 131/2/1
f 135/2/1 134/2/1 133/2/1
f 136/2/1 134/2/1 135/2/1
f 139/2/1 138/2/1 137/2/1
f 140/2/1 138/2/1 139/2/1
f 141/2/2 142/2/2 143/2/2
f 143/2/2 142/2/2 144/2/2
f 145/2/2 146/2/2 147/2/2
f 147/2/2 146/2/2 148/2/2
f 149/2/2 150/2/2 151/2/2
f 151/2/2 150/2/2 152/2/2
f 153/2/2 154/2/2 155/2/2
f 155/2/2 154/2/2 156/2/2
f 157/2/2 158/2/2 159/2/2
f 159/2/2 158/2/2 160/2/2
f 161/2/2 162/2/2 163/2/2
f 163/2/2 162/2/2 164/2/2
f 165/2/2 166/2/2 167/2/2
f 167/2/2 166/2/2 168/2/2
f 169/2/2 170/2/2 171/2/2
f 171/2/2 170/2/2 172/2/2
f 173/2/2 174/2/2 177/2/2
f 177/2/2 174/2/2 178/2/2
f 175/2/2 176/2/2 179/2/2
f 179/2/2 176/2/2 180/2/2
f 181/2/2 182/2/2 185/2/2
f 185/2/2 182/2/2 186/2/2
f 183/2/2 184/2/2 187/2/2
f 187/2/2 184/2/2 188/2/2
f 189/2/2 190/2/2 191/2/2
f 191/2/2 190/2/2 192/2/2
f 193/2/2 194/2/2 195/2/2
f 195/2/2 194/2/2 196/2/2
f 197/2/2 198/2/2 199/2/2
f 199/2/2 198/2/2 200/2/2
f 201/2/2 202/2/2 205/2/2
f 205/2/2 202/2/2 206/2/2
f 203/2/2 204/2/2 207/2/2
f 207/2/2 204/2/2 208/2/2
f 209/2/2 210/2/2 211/2/2
f 211/2/2 210/2/2 212/2/2
f 213/2/2 214/2/2 215/2/2
f 215/2/2 214/2/2 216/2/2
f 217/2/2 218/2/2 219/2/2
f 219/2/2 218/2/2 220/2/2
f 221/2/2 222/2/2 223/2/2
f 223/2/2 222/2/2 224/2/2
f 225/2/2 226/2/2 229/2/2
f 229/2/2 226/2/2 230/2/2
f 227/2/2 228/2/2 231/2/2
f 231/2/2 228/2/2 232/2/2
f 233/2/2 234/2/2 235/2/2
f 235/2/2 234/2/2 236/2/2
f 237/2/2 238/2/2 239/2/2
f 239/2/2 238/2/2 240/2/2
f 241/2/2 242/2/2 243/2/2
f 243/2/2 242/2/2 244/2/2
f 245/2/2 246/2/2 249/2/2
f 249/2/2 246/2/2 250/2/2
f 247/2/2 248/2/2 251/2/2
f 251/2/2 248/2/2 252/2/2
f 253/2/2 254/2/2 255/2/2
f 255/2/2 254/2/2 256/2/2
f 257/2/2 258/2/2 259/2/2
f 259/2/2 258/2/2 260/2/2
f 261/2/2 262/2/2 263/2/2
f 263/2/2 262/2/2 264/2/2
f 265/2/2 266/2/2 267/2/2
f 267/2/2 266/2/2 268/2/2
f 271/2/2 272/2/2 273/2/2
f 273/2/2 272/2/2 274/2/2
f 269/2/2 270/2/2 275/2/2
f 275/2/2 270/2/2 276/2/2
f 277/1/2 278/1/2 279/1/2
f 279/1/2 278/1/2 280/1/2
f 283/2/3 282/2/3 281/2/3
f 284/2/3 282/2/3 283/2/3
f 285/2/3 282/2/3 284/2/3
f 286/2/3 282/2/3 285/2/3
f 287/2/3 283/2/3 281/2/3
f 288/2/3 283/2/3 287/2/3
f 289/2/3 285/2/3 284/2/3
f 290/2/3 285/2/3 289/2/3
f 291/2/3 282/2/3 286/2/3
f 292/2/3 282/2/3 291/2/3
f 297/2/3 294/2/3 293/2/3
f 298/2/3 294/2/3 297/2/3
f 301/2/3 296/2/3 295/2/3
f 302/2/3 296/2/3 301/2/3
f 303/2/3 299/2/3 298/2/3
f 304/2/3 299/2/3 303/2/3
f 305/2/3 301/2/3 300/2/3
f 306/2/3 301/2/3 305/2/3
f 308/2/3 305/2/3 304/2/3
f 309/2/3 305/2/3 308/2/3
f 312/2/3 308/2/3 307/2/3
f 313/2/3 308/2/3 312/2/3
f 314/2/3 310/2/3 309/2/3
f 315/2/3 310/2/3 314/2/3
f 317/2/3 312/2/3 311/2/3
f 318/2/3 312/2/3 317/2/3
f 319/2/3 316/2/3 315/2/3
f 320/2/3 316/2/3 319/2/3
f 325/2/3 322/2/3 321/2/3
f 326/2/3 324/2/3 323/2/3
f 327/2/3 325/2/3 321/2/3
f 327/2/3 326/2/3 325/2/3
f 328/2/3 324/2/3 326/2/3
f 328/2/3 326/2/3 327/2/3
f 329/2/3 327/2/3 321/2/3
f 330/2/3 327/2/3 329/2/3
f 331/2/3 324/2/3 328/2/3
f 332/2/3 324/2/3 331/2/3
f 336/2/3 334/2/3 333/2/3
f 337/2/3 336/2/3 335/2/3
f 338/2/3 334/2/3 336/2/3
f 338/2/3 336/2/3 337/2/3
f 339/2/3 334/2/3 338/2/3
f 340/2/3 334/2/3 339/2/3
f 343/1/3 342/1/3 341/1/3
f 344/1/3 342/1/3 343/1/3
f 349/1/3 343/1/3 341/1/3
f 350/1/3 346/1/3 345/1/3
f 351/1/3 346/1/3 350/1/3
f 352/1/3 348/1/3 347/1/3
f 353/1/3 348/1/3 352/1/3
f 354/1/3 342/1/3 344/1/3
f 355/1/3 351/1/3 350/1/3
f 355/1/3 354/1/3 353/1/3
f 355/1/3 353/1/3 352/1/3
f 355/1/3 349/1/3 341/1/3
f 355/1/3 352/1/3 351/1/3
f 355/1/3 350/1/3 349/1/3
f 356/1/3 354/1/3 355/1/3
f 357/1/3 354/1/3 356/1/3
f 358/1/3 342/1/3 354/1/3
f 358/1/3 354/1/3 357/1/3
f 359/1/3 355/1/3 341/1/3
f 360/1/3 357/1/3 356/1/3
f 361/1/3 357/1/3 360/1/3
f 362/1/3 357/1/3 361/1/3
f 363/1/3 357/1/3 362/1/3
f 364/1/3 342/1/3 358/1/3
f 365/1/3 360/1/3 359/1/3
f 366/1/3 362/1/3 361/1/3
f 367/1/3 362/1/3 366/1/3
f 368/1/3 364/1/3 363/1/3
f 369/1/3 365/1/3 359/1/3
f 369/1/3 366/1/3 365/1/3
f 370/1/3 366/1/3 369/1/3
f 371/1/3 368/1/3 367/1/3
f 372/1/3 364/1/3 368/1/3
f 372/1/3 368/1/3 371/1/3
f 373/1/3 359/1/3 341/1/3
f 373/1/3 369/1/3 359/1/3
f 374/1/3 369/1/3 373/1/3
f 375/1/3 371/1/3 370/1/3
f 376/1/3 371/1/3 375/1/3
f 377/1/3 364/1/3 372/1/3
f 378/1/3 342/1/3 364/1/3
f 378/1/3 364/1/3 377/1/3
f 379/1/3 373/1/3 341/1/3
f 380/1/3 376/1/3 375/1/3
f 380/1/3 377/1/3 376/1/3
f 380/1/3 375/1/3 374/1/3
f 381/1/3 377/1/3 380/1/3
f 382/1/3 342/1/3 378/1/3
f 383/1/3 379/1/3 341/1/3
f 383/1/3 382/1/3 381/1/3
f 383/1/3 381/1/3 380/1/3
f 383/1/3 380/1/3 379/1/3
f 384/1/3 382/1/3 383/1/3
f 385/1/3 382/1/3 384/1/3
f 386/1/3 342/1/3 382/1/3
f 386/1/3 382/1/3 385/1/3
f 387/1/3 385/1/3 384/1/3
f 388/1/3 385/1/3 387/1/3
f 391/1/3 383/1/3 341/1/3
f 392/1/3 390/1/3 389/1/3
f 393/1/3 390/1/3 392/1/3
f 394/1/3 342/1/3 386/1/3
f 395/1/3 393/1/3 392/1/3
f 395/1/3 394/1/3 393/1/3
f 395/1/3 392/1/3 391/1/3
f 396/1/3 342/1/3 394/1/3
f 396/1/3 394/1/3 395/1/3
f 397/1/3 395/1/3 391/1/3
f 397/1/3 391/1/3 341/1/3
f 398/1/3 395/1/3 397/1/3
f 399/1/3 397/1/3 341/1/3
f 401/1/3 400/1/3 399/1/3
f 402/1/3 342/1/3 396/1/3
f 403/1/3 401/1/3 399/1/3
f 403/1/3 402/1/3 401/1/3
f 403/1/3 399/1/3 341/1/3
f 404/1/3 342/1/3 402/1/3
f 404/1/3 402/1/3 403/1/3
f 405/1/4 406/1/4 407/1/4
f 407/1/4 406/1/4 408/1/4
f 405/1/4 407/1/4 409/1/4
f 409/1/4 407/1/4 410/1/4
f 405/1/4 409/1/4 411/1/4
f 411/1/4 412/1/4 413/1/4
f 408/1/4 406/1/4 414/1/4
f 411/1/4 413/1/4 415/1/4
f 413/1/4 414/1/4 415/1/4
f 405/1/4 411/1/4 415/1/4
f 415/1/4 414/1/4 416/1/4
f 416/1/4 414/1/4 417/1/4
f 414/1/4 406/1/4 418/1/4
f 417/1/4 414/1/4 418/1/4
f 416/1/4 417/1/4 419/1/4
f 419/1/4 417/1/4 420/1/4
f 405/1/4 415/1/4 423/1/4
f 421/1/4 422/1/4 424/1/4
f 424/1/4 422/1/4 425/1/4
f 418/1/4 406/1/4 426/1/4
f 424/1/4 425/1/4 427/1/4
f 425/1/4 426/1/4 427/1/4
f 405/1/4 423/1/4 427/1/4
f 423/1/4 424/1/4 427/1/4
f 427/1/4 426/1/4 428/1/4
f 428/1/4 426/1/4 429/1/4
f 426/1/4 406/1/4 430/1/4
f 429/1/4 426/1/4 430/1/4
f 405/1/4 427/1/4 431/1/4
f 428/1/4 429/1/4 432/1/4
f 432/1/4 429/1/4 433/1/4
f 433/1/4 429/1/4 434/1/4
f 434/1/4 429/1/4 435/1/4
f 430/1/4 406/1/4 436/1/4
f 431/1/4 432/1/4 437/1/4
f 433/1/4 434/1/4 438/1/4
f 438/1/4 434/1/4 439/1/4
f 435/1/4 436/1/4 440/1/4
f 431/1/4 437/1/4 441/1/4
f 437/1/4 438/1/4 441/1/4
f 441/1/4 438/1/4 442/1/4
f 439/1/4 440/1/4 443/1/4
f 440/1/4 436/1/4 444/1/4
f 443/1/4 440/1/4 444/1/4
f 405/1/4 431/1/4 445/1/4
f 431/1/4 441/1/4 445/1/4
f 445/1/4 441/1/4 446/1/4
f 442/1/4 443/1/4 447/1/4
f 447/1/4 443/1/4 448/1/4
f 444/1/4 436/1/4 449/1/4
f 436/1/4 406/1/4 450/1/4
f 449/1/4 436/1/4 450/1/4
f 405/1/4 445/1/4 451/1/4
f 447/1/4 448/1/4 452/1/4
f 448/1/4 449/1/4 452/1/4
f 446/1/4 447/1/4 452/1/4
f 452/1/4 449/1/4 453/1/4
f 450/1/4 406/1/4 454/1/4
f 405/1/4 451/1/4 455/1/4
f 453/1/4 454/1/4 455/1/4
f 452/1/4 453/1/4 455/1/4
f 451/1/4 452/1/4 455/1/4
f 455/1/4 454/1/4 456/1/4
f 456/1/4 454/1/4 457/1/4
f 457/1/4 454/1/4 458/1/4
f 458/1/4 454/1/4 459/1/4
f 454/1/4 406/1/4 460/1/4
f 459/1/4 454/1/4 460/1/4
f 456/1/4 457/1/4 461/1/4
f 461/1/4 457/1/4 462/1/4
f 458/1/4 459/1/4 463/1/4
f 463/1/4 459/1/4 464/1/4
f 405/1/4 455/1/4 465/1/4
f 460/1/4 406/1/4 466/1/4
f 405/1/4 465/1/4 467/1/4
f 465/1/4 466/1/4 467/1/4
f 466/1/4 406/1/4 468/1/4
f 467/1/4 466/1/4 468/1/4
f 469/2/4 470/2/4 472/2/4
f 471/2/4 472/2/4 473/2/4
f 472/2/4 470/2/4 474/2/4
f 473/2/4 472/2/4 474/2/4
f 474/2/4 470/2/4 475/2/4
f 475/2/4 470/2/4 476/2/4
f 477/2/4 478/2/4 481/2/4
f 479/2/4 480/2/4 482/2/4
f 477/2/4 481/2/4 483/2/4
f 481/2/4 482/2/4 483/2/4
f 482/2/4 480/2/4 484/2/4
f 483/2/4 482/2/4 484/2/4
f 477/2/4 483/2/4 485/2/4
f 485/2/4 483/2/4 486/2/4
f 484/2/4 480/2/4 487/2/4
f 487/2/4 480/2/4 488/2/4
f 489/2/4 490/2/4 493/2/4
f 493/2/4 490/2/4 494/2/4
f 491/2/4 492/2/4 497/2/4
f 497/2/4 492/2/4 498/2/4
f 494/2/4 495/2/4 499/2/4
f 499/2/4 495/2/4 500/2/4
f 496/2/4 497/2/4 501/2/4
f 501/2/4 497/2/4 502/2/4
f 500/2/4 501/2/4 504/2/4
f 504/2/4 501/2/4 505/2/4
f 503/2/4 504/2/4 508/2/4
f 508/2/4 504/2/4 509/2/4
f 505/2/4 506/2/4 510/2/4
f 510/2/4 506/2/4 511/2/4
f 507/2/4 508/2/4 513/2/4
f 513/2/4 508/2/4 514/2/4
f 511/2/4 512/2/4 515/2/4
f 515/2/4 512/2/4 516/2/4
f 517/2/4 518/2/4 523/2/4
f 519/2/4 520/2/4 524/2/4
f 524/2/4 520/2/4 525/2/4
f 521/2/4 522/2/4 526/2/4
f 524/2/4 525/2/4 527/2/4
f 525/2/4 526/2/4 527/2/4
f 517/2/4 523/2/4 527/2/4
f 523/2/4 524/2/4 527/2/4
f 526/2/4 522/2/4 528/2/4
f 527/2/4 526/2/4 528/2/4
f 531/1/5 530/1/5 529/1/5
f 532/1/5 530/1/5 531/1/5
f 543/2/5 534/2/5 533/2/5
f 544/2/5 534/2/5 543/2/5
f 545/2/5 536/2/5 535/2/5
f 546/2/5 536/2/5 545/2/5
f 547/2/5 538/2/5 537/2/5
f 548/2/5 538/2/5 547/2/5
f 549/2/5 540/2/5 539/2/5
f 550/2/5 540/2/5 549/2/5
f 551/2/5 542/2/5 541/2/5
f 552/2/5 542/2/5 551/2/5
f 563/2/5 554/2/5 553/2/5
f 564/2/5 554/2/5 563/2/5
f 565/2/5 556/2/5 555/2/5
f 566/2/5 556/2/5 565/2/5
f 567/2/5 558/2/5 557/2/5
f 568/2/5 558/2/5 567/2/5
f 569/2/5 560/2/5 559/2/5
f 570/2/5 560/2/5 569/2/5
f 571/2/5 562/2/5 561/2/5
f 572/2/5 562/2/5 571/2/5
f 577/2/5 574/2/5 573/2/5
f 578/2/5 574/2/5 577/2/5
f 579/2/5 576/2/5 575/2/5
f 580/2/5 576/2/5 579/2/5
f 585/2/5 582/2/5 581/2/5
f 586/2/5 582/2/5 585/2/5
f 587/2/5 584/2/5 583/2/5
f 588/2/5 584/2/5 587/2/5
f 593/2/5 590/2/5 589/2/5
f 594/2/5 590/2/5 593/2/5
f 595/2/5 592/2/5 591/2/5
f 596/2/5 592/2/5 595/2/5
f 601/2/5 598/2/5 597/2/5
f 602/2/5 598/2/5 601/2/5
f 603/2/5 600/2/5 599/2/5
f 604/2/5 600/2/5 603/2/5
f 609/2/5 606/2/5 605/2/5
f 610/2/5 606/2/5 609/2/5
f 611/2/5 608/2/5 607/2/5
f 612/2/5 608/2/5 611/2/5
f 617/2/5 614/2/5 613/2/5
f 618/2/5 614/2/5 617/2/5
f 619/2/5 616/2/5 615/2/5
f 620/2/5 616/2/5 619/2/5
f 635/2/5 622/2/5 621/2/5
f 636/2/5 622/2/5 635/2/5
f 637/2/5 624/2/5 623/2/5
f 638/2/5 624/2/5 637/2/5
f 639/2/5 626/2/5 625/2/5
f 640/2/5 626/2/5 639/2/5
f 641/2/5 628/2/5 627/2/5
f 642/2/5 628/2/5 641/2/5
f 643/2/5 630/2/5 629/2/5
f 644/2/5 630/2/5 643/2/5
f 645/2/5 632/2/5 631/2/5
f 646/2/5 632/2/5 645/2/5
f 647/2/5 634/2/5 633/2/5
f 648/2/5 634/2/5 647/2/5
f 663/2/5 650/2/5 649/2/5
f 664/2/5 650/2/5 663/2/5
f 665/2/5 652/2/5 651/2/5
f 666/2/5 652/2/5 665/2/5
f 667/2/5 654/2/5 653/2/5
f 668/2/5 654/2/5 667/2/5
f 669/2/5 656/2/5 655/2/5
f 670/2/5 656/2/5 669/2/5
f 671/2/5 658/2/5 657/2/5
f 672/2/5 658/2/5 671/2/5
f 673/2/5 660/2/5 659/2/5
f 674/2/5 660/2/5 673/2/5
f 675/2/5 662/2/5 661/2/5
f 676/2/5 662/2/5 675/2/5
f 677/2/6 678/2/6 687/2/6
f 687/2/6 678/2/6 688/2/6
f 679/2/6 680/2/6 689/2/6
f 689/2/6 680/2/6 690/2/6
f 681/2/6 682/2/6 691/2/6
f 691/2/6 682/2/6 692/2/6
f 683/2/6 684/2/6 693/2/6
f 693/2/6 684/2/6 694/2/6
f 685/2/6 686/2/6 695/2/6
f 695/2/6 686/2/6 696/2/6
f 697/2/6 698/2/6 707/2/6
f 707/2/6 698/2/6 708/2/6
f 699/2/6 700/2/6 709/2/6
f 709/2/6 700/2/6 710/2/6
f 701/2/6 702/2/6 711/2/6
f 711/2/6 702/2/6 712/2/6
f 703/2/6 704/2/6 713/2/6
f 713/2/6 704/2/6 714/2/6
f 705/2/6 706/2/6 715/2/6
f 715/2/6 706/2/6 716/2/6
f 717/2/6 718/2/6 721/2/6
f 721/2/6 718/2/6 722/2/6
f 719/2/6 720/2/6 723/2/6
f 723/2/6 720/2/6 724/2/6
f 725/2/6 726/2/6 729/2/6
f 729/2/6 726/2/6 730/2/6
f 727/2/6 728/2/6 731/2/6
f 731/2/6 728/2/6 732/2/6
f 733/2/6 734/2/6 737/2/6
f 737/2/6 734/2/6 738/2/6
f 735/2/6 736/2/6 739/2/6
f 739/2/6 736/2/6 740/2/6
f 741/2/6 742/2/6 745/2/6
f 745/2/6 742/2/6 746/2/6
f 743/2/6 744/2/6 747/2/6
f 747/2/6 744/2/6 748/2/6
f 749/2/6 750/2/6 753/2/6
f 753/2/6 750/2/6 754/2/6
f 751/2/6 752/2/6 755/2/6
f 755/2/6 752/2/6 756/2/6
f 757/2/6 758/2/6 761/2/6
f 761/2/6 758/2/6 762/2/6
f 759/2/6 760/2/6 763/2/6
f 763/2/6 760/2/6 764/2/6
f 765/2/6 766/2/6 775/2/6
f 775/2/6 766/2/6 776/2/6
f 767/2/6 768/2/6 777/2/6
f 777/2/6 768/2/6 778/2/6
f 769/2/6 770/2/6 779/2/6
f 779/2/6 770/2/6 780/2/6
f 771/2/6 772/2/6 781/2/6
f 781/2/6 772/2/6 782/2/6
f 773/2/6 774/2/6 783/2/6
f 783/2/6 774/2/6 784/2/6
f 785/2/6 786/2/6 795/2/6
f 795/2/6 786/2/6 796/2/6
f 787/2/6 788/2/6 797/2/6
f 797/2/6 788/2/6 798/2/6
f 789/2/6 790/2/6 799/2/6
f 799/2/6 790/2/6 800/2/6
f 791/2/6 792/2/6 801/2/6
f 801/2/6 792/2/6 802/2/6
f 793/2/6 794/2/6 803/2/6
f 803/2/6 794/2/6 804/2/6
f 805/1/6 806/1/6 807/1/6
f 807/1/6 806/1/6 808/1/6
