# MagicaVoxel @ Ephtracy

# group
g f

# material
mtllib f.mtl
usemtl palette

# normals
vn -1 0 0
vn 1 0 0
vn 0 0 1
vn 0 0 -1
vn 0 -1 0
vn 0 1 0

# texcoords
vt 0.931641 0.5
vt 0.994141 0.5

# verts
v -3 0 -2
v -3 0 -3
v -3 8 -2
v -3 8 -3
v -2 1 -1
v -2 1 -2
v -2 6 -3
v -2 6 -4
v -2 7 -1
v -2 7 -2
v -2 7 -3
v -2 7 -4
v -1 4 -3
v -1 4 -4
v -1 5 -3
v -1 5 -4
v 1 1 -3
v 1 1 -4
v 1 4 -2
v 1 4 -3
v 1 4 -4
v 1 5 -2
v 1 5 -3
v 1 5 -4
v 1 6 -3
v 1 6 -4
v 2 6 -2
v 2 6 -3
v 2 7 -2
v 2 7 -3
v -1 1 -1
v -1 1 -2
v -1 4 -1
v -1 4 -2
v -1 4 -3
v -1 5 -1
v -1 5 -2
v -1 5 -3
v -1 6 -1
v -1 6 -2
v -1 6 -3
v -1 7 -2
v -1 7 -3
v 1 4 -1
v 1 4 -2
v 1 5 -1
v 1 5 -2
v 2 1 -3
v 2 1 -4
v 2 6 -1
v 2 6 -2
v 2 7 -1
v 2 7 -2
v 2 7 -3
v 2 7 -4
v 3 0 -2
v 3 0 -3
v 3 8 -2
v 3 8 -3
v -2 1 -1
v -2 7 -1
v -1 1 -1
v -1 4 -1
v -1 5 -1
v -1 6 -1
v 1 4 -1
v 1 5 -1
v 2 6 -1
v 2 7 -1
v -3 0 -2
v -3 8 -2
v -2 1 -2
v -2 7 -2
v -1 1 -2
v -1 4 -2
v -1 5 -2
v -1 6 -2
v 1 4 -2
v 1 5 -2
v 2 6 -2
v 2 7 -2
v 3 0 -2
v 3 8 -2
v -1 4 -3
v -1 5 -3
v -1 6 -3
v -1 7 -3
v 1 4 -3
v 1 5 -3
v 2 6 -3
v 2 7 -3
v -1 4 -2
v -1 5 -2
v -1 6 -2
v -1 7 -2
v 1 4 -2
v 1 5 -2
v 2 6 -2
v 2 7 -2
v -3 0 -3
v -3 8 -3
v -2 6 -3
v -2 7 -3
v -1 4 -3
v -1 5 -3
v 1 1 -3
v 1 4 -3
v 1 5 -3
v 1 6 -3
v 2 1 -3
v 2 7 -3
v 3 0 -3
v 3 8 -3
v -2 6 -4
v -2 7 -4
v -1 4 -4
v -1 5 -4
v 1 1 -4
v 1 4 -4
v 1 5 -4
v 1 6 -4
v 2 1 -4
v 2 7 -4
v -3 0 -2
v 3 0 -2
v -3 0 -3
v 3 0 -3
v -2 1 -1
v -1 1 -1
v -2 1 -2
v -1 1 -2
v 1 1 -3
v 2 1 -3
v 1 1 -4
v 2 1 -4
v -1 4 -1
v 1 4 -1
v -1 4 -2
v 1 4 -2
v -1 4 -3
v 1 4 -3
v -1 4 -4
v 1 4 -4
v -1 5 -2
v 1 5 -2
v -1 5 -3
v 1 5 -3
v -1 6 -1
v 2 6 -1
v -1 6 -2
v 2 6 -2
v -2 6 -3
v 1 6 -3
v -2 6 -4
v 1 6 -4
v -1 7 -2
v 2 7 -2
v -1 7 -3
v 2 7 -3
v -1 4 -2
v 1 4 -2
v -1 4 -3
v 1 4 -3
v -1 5 -1
v 1 5 -1
v -1 5 -2
v 1 5 -2
v -1 5 -3
v 1 5 -3
v -1 5 -4
v 1 5 -4
v -1 6 -2
v 2 6 -2
v -1 6 -3
v 2 6 -3
v -2 7 -1
v 2 7 -1
v -2 7 -2
v 2 7 -2
v -2 7 -3
v 2 7 -3
v -2 7 -4
v 2 7 -4
v -3 8 -2
v 3 8 -2
v -3 8 -3
v 3 8 -3

# faces
f 3/2/1 2/2/1 1/2/1
f 4/2/1 2/2/1 3/2/1
f 9/1/1 6/1/1 5/1/1
f 10/1/1 6/1/1 9/1/1
f 11/1/1 8/1/1 7/1/1
f 12/1/1 8/1/1 11/1/1
f 15/1/1 14/1/1 13/1/1
f 16/1/1 14/1/1 15/1/1
f 20/1/1 18/1/1 17/1/1
f 21/1/1 18/1/1 20/1/1
f 22/2/1 20/2/1 19/2/1
f 23/2/1 20/2/1 22/2/1
f 25/1/1 24/1/1 23/1/1
f 26/1/1 24/1/1 25/1/1
f 29/2/1 28/2/1 27/2/1
f 30/2/1 28/2/1 29/2/1
f 31/1/2 32/1/2 33/1/2
f 33/1/2 32/1/2 34/1/2
f 34/2/2 35/2/2 37/2/2
f 37/2/2 35/2/2 38/2/2
f 36/1/2 37/1/2 39/1/2
f 39/1/2 37/1/2 40/1/2
f 40/2/2 41/2/2 42/2/2
f 42/2/2 41/2/2 43/2/2
f 44/1/2 45/1/2 46/1/2
f 46/1/2 45/1/2 47/1/2
f 50/1/2 51/1/2 52/1/2
f 52/1/2 51/1/2 53/1/2
f 48/1/2 49/1/2 54/1/2
f 54/1/2 49/1/2 55/1/2
f 56/2/2 57/2/2 58/2/2
f 58/2/2 57/2/2 59/2/2
f 62/1/3 61/1/3 60/1/3
f 63/1/3 61/1/3 62/1/3
f 64/1/3 61/1/3 63/1/3
f 65/1/3 61/1/3 64/1/3
f 66/1/3 64/1/3 63/1/3
f 67/1/3 64/1/3 66/1/3
f 68/1/3 61/1/3 65/1/3
f 69/1/3 61/1/3 68/1/3
f 72/2/3 71/2/3 70/2/3
f 73/2/3 71/2/3 72/2/3
f 74/2/3 72/2/3 70/2/3
f 78/2/3 75/2/3 74/2/3
f 79/2/3 77/2/3 76/2/3
f 80/2/3 77/2/3 79/2/3
f 80/2/3 79/2/3 78/2/3
f 81/2/3 71/2/3 73/2/3
f 82/2/3 80/2/3 78/2/3
f 82/2/3 81/2/3 80/2/3
f 82/2/3 74/2/3 70/2/3
f 82/2/3 78/2/3 74/2/3
f 83/2/3 71/2/3 81/2/3
f 83/2/3 81/2/3 82/2/3
f 88/1/3 85/1/3 84/1/3
f 89/1/3 85/1/3 88/1/3
f 90/1/3 87/1/3 86/1/3
f 91/1/3 87/1/3 90/1/3
f 92/1/4 93/1/4 96/1/4
f 96/1/4 93/1/4 97/1/4
f 94/1/4 95/1/4 98/1/4
f 98/1/4 95/1/4 99/1/4
f 100/2/4 101/2/4 102/2/4
f 102/2/4 101/2/4 103/2/4
f 100/2/4 102/2/4 104/2/4
f 104/2/4 102/2/4 105/2/4
f 100/2/4 104/2/4 106/2/4
f 106/2/4 104/2/4 107/2/4
f 105/2/4 102/2/4 108/2/4
f 108/2/4 102/2/4 109/2/4
f 100/2/4 106/2/4 110/2/4
f 103/2/4 101/2/4 111/2/4
f 100/2/4 110/2/4 112/2/4
f 110/2/4 111/2/4 112/2/4
f 111/2/4 101/2/4 113/2/4
f 112/2/4 111/2/4 113/2/4
f 116/1/4 117/1/4 119/1/4
f 119/1/4 117/1/4 120/1/4
f 114/1/4 115/1/4 121/1/4
f 119/1/4 120/1/4 122/1/4
f 120/1/4 121/1/4 122/1/4
f 118/1/4 119/1/4 122/1/4
f 121/1/4 115/1/4 123/1/4
f 122/1/4 121/1/4 123/1/4
f 126/2/5 125/2/5 124/2/5
f 127/2/5 125/2/5 126/2/5
f 130/1/5 129/1/5 128/1/5
f 131/1/5 129/1/5 130/1/5
f 134/1/5 133/1/5 132/1/5
f 135/1/5 133/1/5 134/1/5
f 138/1/5 137/1/5 136/1/5
f 139/1/5 137/1/5 138/1/5
f 142/1/5 141/1/5 140/1/5
f 143/1/5 141/1/5 142/1/5
f 146/2/5 145/2/5 144/2/5
f 147/2/5 145/2/5 146/2/5
f 150/1/5 149/1/5 148/1/5
f 151/1/5 149/1/5 150/1/5
f 154/1/5 153/1/5 152/1/5
f 155/1/5 153/1/5 154/1/5
f 158/2/5 157/2/5 156/2/5
f 159/2/5 157/2/5 158/2/5
f 160/2/6 161/2/6 162/2/6
f 162/2/6 161/2/6 163/2/6
f 164/1/6 165/1/6 166/1/6
f 166/1/6 165/1/6 167/1/6
f 168/1/6 169/1/6 170/1/6
f 170/1/6 169/1/6 171/1/6
f 172/2/6 173/2/6 174/2/6
f 174/2/6 173/2/6 175/2/6
f 176/1/6 177/1/6 178/1/6
f 178/1/6 177/1/6 179/1/6
f 180/1/6 181/1/6 182/1/6
f 182/1/6 181/1/6 183/1/6
f 184/2/6 185/2/6 186/2/6
f 186/2/6 185/2/6 187/2/6
