# MagicaVoxel @ Ephtracy

# group
g fabio

# material
mtllib fabio.mtl
usemtl palette

# normals
vn -1 0 0
vn 1 0 0
vn 0 0 1
vn 0 0 -1
vn 0 -1 0
vn 0 1 0

# texcoords
vt 0.376953 0.5
vt 0.380859 0.5
vt 0.384766 0.5
vt 0.431641 0.5
vt 0.435547 0.5
vt 0.666016 0.5
vt 0.916016 0.5
vt 0.927734 0.5
vt 0.978516 0.5
vt 0.994141 0.5

# verts
v -3 9 1
v -3 9 -0
v -3 13 1
v -3 13 -0
v -3 16 1
v -3 16 -0
v -2 0 2
v -2 0 1
v -2 0 -1
v -2 1 2
v -2 1 1
v -2 1 -1
v -2 2 1
v -2 2 -1
v -2 9 2
v -2 9 1
v -2 9 -0
v -2 9 -1
v -2 9 -2
v -2 13 1
v -2 13 -0
v -2 13 -2
v -2 13 -3
v -2 16 2
v -2 16 1
v -2 16 -0
v -2 16 -3
v -2 17 2
v -2 17 1
v -2 17 -1
v -2 18 2
v -2 18 1
v -2 18 -1
v -2 18 -2
v -2 20 2
v -2 20 1
v -2 20 -1
v -2 20 -2
v -2 21 2
v -2 21 1
v -2 21 -0
v -2 21 -1
v -2 22 2
v -2 22 -0
v -2 23 2
v -2 23 1
v -2 24 1
v -2 24 -2
v -1 12 -2
v -1 12 -3
v -1 13 -2
v -1 13 -3
v -1 16 1
v -1 16 -1
v -1 17 1
v -1 17 -1
v -1 17 -2
v -1 18 -1
v -1 18 -2
v -1 23 2
v -1 23 1
v -1 24 2
v -1 24 1
v 1 0 2
v 1 0 1
v 1 0 -1
v 1 1 2
v 1 1 1
v 1 1 -1
v 1 2 1
v 1 2 -1
v 1 8 1
v 1 8 -1
v 1 9 1
v 1 9 -1
v 1 11 1
v 1 11 -0
v 1 15 -0
v 1 15 -1
v 1 18 2
v 1 18 1
v 1 18 -0
v 1 18 -1
v 1 19 2
v 1 19 1
v 1 19 -0
v 1 20 -1
v 1 21 -0
v 1 21 -1
v 1 22 1
v 1 22 -0
v 1 22 -1
v 2 11 1
v 2 11 -0
v 2 13 1
v 2 13 -0
v 2 14 1
v 2 15 1
v 2 15 -0
v -2 11 1
v -2 11 -0
v -2 13 1
v -2 13 -0
v -2 15 1
v -2 15 -0
v -1 0 2
v -1 0 1
v -1 0 -1
v -1 1 2
v -1 1 1
v -1 1 -1
v -1 2 1
v -1 2 -1
v -1 8 1
v -1 8 -1
v -1 9 1
v -1 9 -1
v -1 11 1
v -1 11 -0
v -1 15 -0
v -1 15 -1
v -1 18 2
v -1 18 1
v -1 18 -0
v -1 18 -1
v -1 19 2
v -1 19 1
v -1 19 -0
v -1 20 -1
v -1 21 -0
v -1 21 -1
v -1 22 1
v -1 22 -0
v -1 22 -1
v 1 12 -2
v 1 12 -3
v 1 13 -2
v 1 13 -3
v 1 16 1
v 1 16 -1
v 1 17 1
v 1 17 -1
v 1 17 -2
v 1 18 -1
v 1 18 -2
v 1 23 2
v 1 23 1
v 1 24 2
v 1 24 1
v 2 0 2
v 2 0 1
v 2 0 -1
v 2 1 2
v 2 1 1
v 2 1 -1
v 2 2 1
v 2 2 -1
v 2 9 2
v 2 9 1
v 2 9 -0
v 2 9 -1
v 2 9 -2
v 2 13 1
v 2 13 -0
v 2 13 -2
v 2 13 -3
v 2 14 2
v 2 14 1
v 2 15 2
v 2 15 1
v 2 16 2
v 2 16 1
v 2 16 -0
v 2 16 -3
v 2 17 2
v 2 17 1
v 2 17 -1
v 2 18 2
v 2 18 1
v 2 18 -1
v 2 18 -2
v 2 20 2
v 2 20 1
v 2 20 -1
v 2 20 -2
v 2 21 2
v 2 21 1
v 2 21 -0
v 2 21 -1
v 2 22 2
v 2 22 -0
v 2 23 2
v 2 23 1
v 2 24 1
v 2 24 -2
v 3 9 1
v 3 9 -0
v 3 13 1
v 3 13 -0
v 3 16 1
v 3 16 -0
v -2 0 2
v -2 1 2
v -2 9 2
v -2 16 2
v -2 17 2
v -2 18 2
v -2 20 2
v -2 21 2
v -2 22 2
v -2 23 2
v -1 0 2
v -1 1 2
v -1 18 2
v -1 19 2
v -1 20 2
v -1 21 2
v -1 23 2
v -1 24 2
v 0 14 2
v 0 15 2
v 1 0 2
v 1 1 2
v 1 18 2
v 1 19 2
v 1 20 2
v 1 21 2
v 1 23 2
v 1 24 2
v 2 0 2
v 2 1 2
v 2 9 2
v 2 14 2
v 2 15 2
v 2 16 2
v 2 17 2
v 2 18 2
v 2 20 2
v 2 21 2
v 2 22 2
v 2 23 2
v -3 9 1
v -3 13 1
v -3 16 1
v -2 1 1
v -2 2 1
v -2 9 1
v -2 13 1
v -2 16 1
v -2 23 1
v -2 24 1
v -1 1 1
v -1 2 1
v -1 8 1
v -1 16 1
v -1 17 1
v -1 18 1
v -1 19 1
v -1 23 1
v -1 24 1
v 1 1 1
v 1 2 1
v 1 8 1
v 1 16 1
v 1 17 1
v 1 18 1
v 1 19 1
v 1 23 1
v 1 24 1
v 2 1 1
v 2 2 1
v 2 9 1
v 2 13 1
v 2 14 1
v 2 15 1
v 2 16 1
v 2 23 1
v 2 24 1
v 3 9 1
v 3 13 1
v 3 16 1
v -2 11 -0
v -2 13 -0
v -2 15 -0
v -1 11 -0
v -1 15 -0
v 1 11 -0
v 1 15 -0
v 2 11 -0
v 2 13 -0
v 2 15 -0
v -1 9 -1
v -1 15 -1
v -1 18 -1
v -1 20 -1
v -1 21 -1
v -1 22 -1
v 1 9 -1
v 1 15 -1
v 1 18 -1
v 1 20 -1
v 1 21 -1
v 1 22 -1
v -2 11 1
v -2 13 1
v -2 15 1
v -1 9 1
v -1 11 1
v -1 19 1
v -1 22 1
v 0 14 1
v 0 15 1
v 1 9 1
v 1 11 1
v 1 19 1
v 1 22 1
v 2 11 1
v 2 13 1
v 2 14 1
v 2 15 1
v -3 9 -0
v -3 13 -0
v -3 16 -0
v -2 9 -0
v -2 13 -0
v -2 16 -0
v -1 18 -0
v -1 19 -0
v 1 18 -0
v 1 19 -0
v 2 9 -0
v 2 13 -0
v 2 16 -0
v 3 9 -0
v 3 13 -0
v 3 16 -0
v -2 0 -1
v -2 1 -1
v -2 2 -1
v -2 9 -1
v -2 17 -1
v -2 18 -1
v -1 0 -1
v -1 1 -1
v -1 2 -1
v -1 8 -1
v -1 16 -1
v -1 17 -1
v -1 18 -1
v 1 0 -1
v 1 1 -1
v 1 2 -1
v 1 8 -1
v 1 16 -1
v 1 17 -1
v 1 18 -1
v 2 0 -1
v 2 1 -1
v 2 2 -1
v 2 9 -1
v 2 17 -1
v 2 18 -1
v -2 9 -2
v -2 13 -2
v -2 18 -2
v -2 20 -2
v -2 24 -2
v -1 12 -2
v -1 13 -2
v -1 17 -2
v -1 18 -2
v 1 12 -2
v 1 13 -2
v 1 17 -2
v 1 18 -2
v 2 9 -2
v 2 13 -2
v 2 18 -2
v 2 20 -2
v 2 24 -2
v -2 13 -3
v -2 16 -3
v -1 12 -3
v -1 13 -3
v -1 16 -3
v 1 12 -3
v 1 13 -3
v 1 16 -3
v 2 13 -3
v 2 16 -3
v -2 0 2
v -1 0 2
v 1 0 2
v 2 0 2
v -2 0 1
v -1 0 1
v 1 0 1
v 2 0 1
v -2 0 -1
v -1 0 -1
v 1 0 -1
v 2 0 -1
v -1 8 1
v 1 8 1
v -1 8 -1
v 1 8 -1
v -2 9 2
v 2 9 2
v -3 9 1
v -2 9 1
v 2 9 1
v 3 9 1
v -3 9 -0
v -2 9 -0
v 2 9 -0
v 3 9 -0
v -2 9 -1
v 2 9 -1
v -2 9 -2
v 2 9 -2
v -1 12 -2
v 1 12 -2
v -1 12 -3
v 1 12 -3
v -2 13 -2
v -1 13 -2
v 1 13 -2
v 2 13 -2
v -2 13 -3
v -1 13 -3
v 1 13 -3
v 2 13 -3
v -2 15 1
v 0 15 1
v 2 15 1
v -2 15 -0
v -1 15 -0
v 1 15 -0
v 2 15 -0
v -1 15 -1
v 1 15 -1
v -2 17 2
v 2 17 2
v -2 17 1
v -1 17 1
v 1 17 1
v 2 17 1
v -2 17 -1
v -1 17 -1
v 1 17 -1
v 2 17 -1
v -1 17 -2
v 1 17 -2
v -2 18 -1
v -1 18 -1
v 1 18 -1
v 2 18 -1
v -2 18 -2
v -1 18 -2
v 1 18 -2
v 2 18 -2
v -1 19 2
v 1 19 2
v -1 19 1
v 1 19 1
v -1 22 1
v 1 22 1
v -1 22 -0
v 1 22 -0
v -1 22 -1
v 1 22 -1
v -2 1 2
v -1 1 2
v 1 1 2
v 2 1 2
v -2 1 1
v -1 1 1
v 1 1 1
v 2 1 1
v -1 9 1
v 1 9 1
v -1 9 -1
v 1 9 -1
v -2 11 1
v -1 11 1
v 1 11 1
v 2 11 1
v -2 11 -0
v -1 11 -0
v 1 11 -0
v 2 11 -0
v -2 16 2
v 2 16 2
v -3 16 1
v -2 16 1
v -1 16 1
v 1 16 1
v 2 16 1
v 3 16 1
v -3 16 -0
v -2 16 -0
v 2 16 -0
v 3 16 -0
v -1 16 -1
v 1 16 -1
v -1 16 -2
v 1 16 -2
v -2 16 -3
v -1 16 -3
v 1 16 -3
v 2 16 -3
v -1 18 2
v 1 18 2
v -1 18 1
v 1 18 1
v -1 18 -0
v 1 18 -0
v -1 18 -1
v 1 18 -1
v -1 19 1
v 1 19 1
v -1 19 -0
v 1 19 -0
v -2 23 2
v -1 23 2
v 1 23 2
v 2 23 2
v -2 23 1
v -1 23 1
v 1 23 1
v 2 23 1
v -1 24 2
v 1 24 2
v -2 24 1
v -1 24 1
v 1 24 1
v 2 24 1
v -2 24 -2
v 2 24 -2

# faces
f 3/6/1 2/6/1 1/6/1
f 4/6/1 2/6/1 3/6/1
f 5/1/1 4/1/1 3/1/1
f 6/1/1 4/1/1 5/1/1
f 10/9/1 8/9/1 7/9/1
f 11/8/1 9/8/1 8/8/1
f 11/9/1 8/9/1 10/9/1
f 12/8/1 9/8/1 11/8/1
f 13/9/1 12/9/1 11/9/1
f 14/9/1 12/9/1 13/9/1
f 16/3/1 14/3/1 13/3/1
f 17/3/1 14/3/1 16/3/1
f 18/3/1 14/3/1 17/3/1
f 20/1/1 16/1/1 15/1/1
f 21/1/1 18/1/1 17/1/1
f 21/1/1 19/1/1 18/1/1
f 22/1/1 19/1/1 21/1/1
f 24/1/1 20/1/1 15/1/1
f 25/1/1 20/1/1 24/1/1
f 26/1/1 23/1/1 22/1/1
f 26/1/1 22/1/1 21/1/1
f 27/1/1 23/1/1 26/1/1
f 31/4/1 29/4/1 28/4/1
f 32/6/1 30/6/1 29/6/1
f 32/4/1 29/4/1 31/4/1
f 33/6/1 30/6/1 32/6/1
f 35/6/1 32/6/1 31/6/1
f 35/6/1 34/6/1 33/6/1
f 35/6/1 33/6/1 32/6/1
f 36/6/1 34/6/1 35/6/1
f 37/6/1 34/6/1 36/6/1
f 38/6/1 34/6/1 37/6/1
f 39/5/1 36/5/1 35/5/1
f 40/6/1 37/6/1 36/6/1
f 40/5/1 36/5/1 39/5/1
f 41/6/1 37/6/1 40/6/1
f 42/5/1 38/5/1 37/5/1
f 42/6/1 37/6/1 41/6/1
f 43/6/1 41/6/1 40/6/1
f 43/6/1 40/6/1 39/6/1
f 44/5/1 42/5/1 41/5/1
f 44/6/1 41/6/1 43/6/1
f 45/5/1 44/5/1 43/5/1
f 46/5/1 44/5/1 45/5/1
f 47/5/1 44/5/1 46/5/1
f 48/5/1 38/5/1 42/5/1
f 48/5/1 44/5/1 47/5/1
f 48/5/1 42/5/1 44/5/1
f 51/1/1 50/1/1 49/1/1
f 52/1/1 50/1/1 51/1/1
f 55/6/1 54/6/1 53/6/1
f 56/6/1 54/6/1 55/6/1
f 58/6/1 57/6/1 56/6/1
f 59/6/1 57/6/1 58/6/1
f 62/5/1 61/5/1 60/5/1
f 63/5/1 61/5/1 62/5/1
f 67/9/1 65/9/1 64/9/1
f 68/8/1 66/8/1 65/8/1
f 68/9/1 65/9/1 67/9/1
f 69/8/1 66/8/1 68/8/1
f 70/9/1 69/9/1 68/9/1
f 71/9/1 69/9/1 70/9/1
f 72/3/1 71/3/1 70/3/1
f 73/3/1 71/3/1 72/3/1
f 76/1/1 75/1/1 74/1/1
f 77/1/1 75/1/1 76/1/1
f 78/1/1 75/1/1 77/1/1
f 79/1/1 75/1/1 78/1/1
f 84/6/1 81/6/1 80/6/1
f 85/6/1 81/6/1 84/6/1
f 86/6/1 83/6/1 82/6/1
f 87/6/1 86/6/1 85/6/1
f 87/6/1 83/6/1 86/6/1
f 88/6/1 87/6/1 85/6/1
f 89/6/1 87/6/1 88/6/1
f 90/6/1 88/6/1 85/6/1
f 91/5/1 89/5/1 88/5/1
f 91/6/1 88/6/1 90/6/1
f 92/5/1 89/5/1 91/5/1
f 95/6/1 94/6/1 93/6/1
f 96/6/1 94/6/1 95/6/1
f 97/1/1 96/1/1 95/1/1
f 98/1/1 96/1/1 97/1/1
f 99/1/1 96/1/1 98/1/1
f 100/6/2 101/6/2 102/6/2
f 102/6/2 101/6/2 103/6/2
f 102/1/2 103/1/2 104/1/2
f 104/1/2 103/1/2 105/1/2
f 106/9/2 107/9/2 109/9/2
f 107/8/2 108/8/2 110/8/2
f 109/9/2 107/9/2 110/9/2
f 110/8/2 108/8/2 111/8/2
f 110/9/2 111/9/2 112/9/2
f 112/9/2 111/9/2 113/9/2
f 112/3/2 113/3/2 114/3/2
f 114/3/2 113/3/2 115/3/2
f 116/1/2 117/1/2 118/1/2
f 118/1/2 117/1/2 119/1/2
f 119/1/2 117/1/2 120/1/2
f 120/1/2 117/1/2 121/1/2
f 122/6/2 123/6/2 126/6/2
f 126/6/2 123/6/2 127/6/2
f 124/6/2 125/6/2 128/6/2
f 127/6/2 128/6/2 129/6/2
f 128/6/2 125/6/2 129/6/2
f 127/6/2 129/6/2 130/6/2
f 130/6/2 129/6/2 131/6/2
f 127/6/2 130/6/2 132/6/2
f 130/5/2 131/5/2 133/5/2
f 132/6/2 130/6/2 133/6/2
f 133/5/2 131/5/2 134/5/2
f 135/1/2 136/1/2 137/1/2
f 137/1/2 136/1/2 138/1/2
f 139/6/2 140/6/2 141/6/2
f 141/6/2 140/6/2 142/6/2
f 142/6/2 143/6/2 144/6/2
f 144/6/2 143/6/2 145/6/2
f 146/5/2 147/5/2 148/5/2
f 148/5/2 147/5/2 149/5/2
f 150/9/2 151/9/2 153/9/2
f 151/8/2 152/8/2 154/8/2
f 153/9/2 151/9/2 154/9/2
f 154/8/2 152/8/2 155/8/2
f 154/9/2 155/9/2 156/9/2
f 156/9/2 155/9/2 157/9/2
f 156/3/2 157/3/2 159/3/2
f 159/3/2 157/3/2 160/3/2
f 160/3/2 157/3/2 161/3/2
f 158/1/2 159/1/2 163/1/2
f 160/1/2 161/1/2 164/1/2
f 161/1/2 162/1/2 164/1/2
f 164/1/2 162/1/2 165/1/2
f 158/1/2 163/1/2 167/1/2
f 167/1/2 163/1/2 168/1/2
f 167/2/2 168/2/2 169/2/2
f 169/2/2 168/2/2 170/2/2
f 169/1/2 170/1/2 171/1/2
f 171/1/2 170/1/2 172/1/2
f 165/1/2 166/1/2 173/1/2
f 164/1/2 165/1/2 173/1/2
f 173/1/2 166/1/2 174/1/2
f 175/4/2 176/4/2 178/4/2
f 176/6/2 177/6/2 179/6/2
f 178/4/2 176/4/2 179/4/2
f 179/6/2 177/6/2 180/6/2
f 178/6/2 179/6/2 182/6/2
f 180/6/2 181/6/2 182/6/2
f 179/6/2 180/6/2 182/6/2
f 182/6/2 181/6/2 183/6/2
f 183/6/2 181/6/2 184/6/2
f 184/6/2 181/6/2 185/6/2
f 182/5/2 183/5/2 186/5/2
f 183/6/2 184/6/2 187/6/2
f 186/5/2 183/5/2 187/5/2
f 187/6/2 184/6/2 188/6/2
f 184/5/2 185/5/2 189/5/2
f 188/6/2 184/6/2 189/6/2
f 187/6/2 188/6/2 190/6/2
f 186/6/2 187/6/2 190/6/2
f 188/5/2 189/5/2 191/5/2
f 190/6/2 188/6/2 191/6/2
f 190/5/2 191/5/2 192/5/2
f 192/5/2 191/5/2 193/5/2
f 193/5/2 191/5/2 194/5/2
f 189/5/2 185/5/2 195/5/2
f 194/5/2 191/5/2 195/5/2
f 191/5/2 189/5/2 195/5/2
f 196/6/2 197/6/2 198/6/2
f 198/6/2 197/6/2 199/6/2
f 198/1/2 199/1/2 200/1/2
f 200/1/2 199/1/2 201/1/2
f 212/9/3 203/9/3 202/9/3
f 213/9/3 203/9/3 212/9/3
f 214/4/3 207/4/3 206/4/3
f 214/6/3 208/6/3 207/6/3
f 215/6/3 208/6/3 214/6/3
f 216/5/3 209/5/3 208/5/3
f 216/6/3 208/6/3 215/6/3
f 217/6/3 210/6/3 209/6/3
f 217/5/3 209/5/3 216/5/3
f 218/5/3 211/5/3 210/5/3
f 220/1/3 205/1/3 204/1/3
f 221/1/3 205/1/3 220/1/3
f 224/4/3 214/4/3 206/4/3
f 225/6/3 217/6/3 216/6/3
f 225/6/3 216/6/3 215/6/3
f 226/6/3 217/6/3 225/6/3
f 227/6/3 210/6/3 217/6/3
f 227/6/3 217/6/3 226/6/3
f 228/5/3 219/5/3 218/5/3
f 228/5/3 218/5/3 210/5/3
f 229/5/3 219/5/3 228/5/3
f 230/9/3 223/9/3 222/9/3
f 231/9/3 223/9/3 230/9/3
f 232/1/3 220/1/3 204/1/3
f 233/2/3 221/2/3 220/2/3
f 233/1/3 220/1/3 232/1/3
f 234/1/3 205/1/3 221/1/3
f 234/2/3 221/2/3 233/2/3
f 235/1/3 205/1/3 234/1/3
f 236/4/3 224/4/3 206/4/3
f 237/6/3 226/6/3 225/6/3
f 237/4/3 224/4/3 236/4/3
f 237/6/3 225/6/3 224/6/3
f 238/5/3 227/5/3 226/5/3
f 238/6/3 226/6/3 237/6/3
f 239/6/3 210/6/3 227/6/3
f 239/5/3 227/5/3 238/5/3
f 240/5/3 228/5/3 210/5/3
f 240/6/3 210/6/3 239/6/3
f 241/5/3 228/5/3 240/5/3
f 247/6/3 243/6/3 242/6/3
f 248/1/3 244/1/3 243/1/3
f 248/6/3 243/6/3 247/6/3
f 249/1/3 244/1/3 248/1/3
f 252/9/3 246/9/3 245/9/3
f 253/3/3 247/3/3 246/3/3
f 253/9/3 246/9/3 252/9/3
f 254/3/3 247/3/3 253/3/3
f 259/5/3 251/5/3 250/5/3
f 260/5/3 251/5/3 259/5/3
f 263/3/3 247/3/3 254/3/3
f 264/6/3 256/6/3 255/6/3
f 265/6/3 256/6/3 264/6/3
f 266/7/3 258/7/3 257/7/3
f 267/7/3 258/7/3 266/7/3
f 270/9/3 262/9/3 261/9/3
f 271/3/3 263/3/3 262/3/3
f 271/9/3 262/9/3 270/9/3
f 272/3/3 247/3/3 263/3/3
f 272/3/3 263/3/3 271/3/3
f 277/5/3 269/5/3 268/5/3
f 278/5/3 269/5/3 277/5/3
f 279/6/3 273/6/3 272/6/3
f 280/1/3 276/1/3 275/1/3
f 280/6/3 273/6/3 279/6/3
f 280/1/3 275/1/3 274/1/3
f 280/1/3 274/1/3 273/1/3
f 281/1/3 276/1/3 280/1/3
f 285/1/3 283/1/3 282/1/3
f 285/1/3 284/1/3 283/1/3
f 286/1/3 284/1/3 285/1/3
f 289/1/3 288/1/3 287/1/3
f 290/1/3 288/1/3 289/1/3
f 291/1/3 288/1/3 290/1/3
f 298/1/3 293/1/3 292/1/3
f 299/1/3 293/1/3 298/1/3
f 300/6/3 295/6/3 294/6/3
f 301/5/3 297/5/3 296/5/3
f 301/6/3 295/6/3 300/6/3
f 301/5/3 296/5/3 295/5/3
f 302/5/3 297/5/3 301/5/3
f 303/5/3 297/5/3 302/5/3
f 304/1/4 305/1/4 308/1/4
f 305/1/4 306/1/4 308/1/4
f 308/1/4 306/1/4 311/1/4
f 307/1/4 308/1/4 311/1/4
f 311/1/4 306/1/4 312/1/4
f 307/1/4 311/1/4 313/1/4
f 313/1/4 311/1/4 314/1/4
f 309/6/4 310/6/4 315/6/4
f 315/6/4 310/6/4 316/6/4
f 314/1/4 311/1/4 317/1/4
f 317/1/4 311/1/4 318/1/4
f 311/2/4 312/2/4 319/2/4
f 318/1/4 311/1/4 319/1/4
f 319/2/4 312/2/4 320/2/4
f 321/6/4 322/6/4 324/6/4
f 322/1/4 323/1/4 325/1/4
f 324/6/4 322/6/4 325/6/4
f 325/1/4 323/1/4 326/1/4
f 327/7/4 328/7/4 329/7/4
f 329/7/4 328/7/4 330/7/4
f 331/6/4 332/6/4 334/6/4
f 332/1/4 333/1/4 335/1/4
f 334/6/4 332/6/4 335/6/4
f 335/1/4 333/1/4 336/1/4
f 337/8/4 338/8/4 343/8/4
f 338/9/4 339/9/4 344/9/4
f 343/8/4 338/8/4 344/8/4
f 339/3/4 340/3/4 345/3/4
f 344/9/4 339/9/4 345/9/4
f 345/3/4 340/3/4 346/3/4
f 341/6/4 342/6/4 348/6/4
f 348/6/4 342/6/4 349/6/4
f 346/3/4 340/3/4 353/3/4
f 347/6/4 348/6/4 354/6/4
f 354/6/4 348/6/4 355/6/4
f 350/8/4 351/8/4 357/8/4
f 351/9/4 352/9/4 358/9/4
f 357/8/4 351/8/4 358/8/4
f 352/3/4 353/3/4 359/3/4
f 358/9/4 352/9/4 359/9/4
f 353/3/4 340/3/4 360/3/4
f 359/3/4 353/3/4 360/3/4
f 355/6/4 356/6/4 361/6/4
f 361/6/4 356/6/4 362/6/4
f 363/1/4 364/1/4 368/1/4
f 368/1/4 364/1/4 369/1/4
f 365/6/4 366/6/4 371/6/4
f 363/1/4 368/1/4 372/1/4
f 370/6/4 371/6/4 374/6/4
f 371/6/4 366/6/4 375/6/4
f 374/6/4 371/6/4 375/6/4
f 372/1/4 373/1/4 376/1/4
f 363/1/4 372/1/4 376/1/4
f 376/1/4 373/1/4 377/1/4
f 375/6/4 366/6/4 378/6/4
f 366/5/4 367/5/4 379/5/4
f 378/6/4 366/6/4 379/6/4
f 379/5/4 367/5/4 380/5/4
f 381/1/4 382/1/4 384/1/4
f 384/1/4 382/1/4 385/1/4
f 383/1/4 384/1/4 386/1/4
f 384/10/4 385/10/4 387/10/4
f 386/1/4 384/1/4 387/1/4
f 387/10/4 385/10/4 388/10/4
f 387/1/4 388/1/4 389/1/4
f 389/1/4 388/1/4 390/1/4
f 395/9/5 392/9/5 391/9/5
f 396/9/5 392/9/5 395/9/5
f 397/9/5 394/9/5 393/9/5
f 398/9/5 394/9/5 397/9/5
f 399/8/5 396/8/5 395/8/5
f 400/8/5 396/8/5 399/8/5
f 401/8/5 398/8/5 397/8/5
f 402/8/5 398/8/5 401/8/5
f 405/3/5 404/3/5 403/3/5
f 406/3/5 404/3/5 405/3/5
f 410/1/5 408/1/5 407/1/5
f 411/1/5 408/1/5 410/1/5
f 413/6/5 410/6/5 409/6/5
f 414/6/5 410/6/5 413/6/5
f 415/6/5 412/6/5 411/6/5
f 416/6/5 412/6/5 415/6/5
f 419/1/5 418/1/5 417/1/5
f 420/1/5 418/1/5 419/1/5
f 423/1/5 422/1/5 421/1/5
f 424/1/5 422/1/5 423/1/5
f 429/1/5 426/1/5 425/1/5
f 430/1/5 426/1/5 429/1/5
f 431/1/5 428/1/5 427/1/5
f 432/1/5 428/1/5 431/1/5
f 436/1/5 434/1/5 433/1/5
f 436/1/5 435/1/5 434/1/5
f 437/1/5 435/1/5 436/1/5
f 438/1/5 435/1/5 437/1/5
f 439/1/5 435/1/5 438/1/5
f 440/1/5 438/1/5 437/1/5
f 441/1/5 438/1/5 440/1/5
f 444/4/5 443/4/5 442/4/5
f 445/4/5 443/4/5 444/4/5
f 446/4/5 443/4/5 445/4/5
f 447/4/5 443/4/5 446/4/5
f 448/6/5 445/6/5 444/6/5
f 449/6/5 445/6/5 448/6/5
f 450/6/5 447/6/5 446/6/5
f 451/6/5 447/6/5 450/6/5
f 452/6/5 450/6/5 449/6/5
f 453/6/5 450/6/5 452/6/5
f 458/6/5 455/6/5 454/6/5
f 459/6/5 455/6/5 458/6/5
f 460/6/5 457/6/5 456/6/5
f 461/6/5 457/6/5 460/6/5
f 464/6/5 463/6/5 462/6/5
f 465/6/5 463/6/5 464/6/5
f 468/5/5 467/5/5 466/5/5
f 469/5/5 467/5/5 468/5/5
f 470/5/5 469/5/5 468/5/5
f 471/5/5 469/5/5 470/5/5
f 472/9/6 473/9/6 476/9/6
f 476/9/6 473/9/6 477/9/6
f 474/9/6 475/9/6 478/9/6
f 478/9/6 475/9/6 479/9/6
f 480/3/6 481/3/6 482/3/6
f 482/3/6 481/3/6 483/3/6
f 484/1/6 485/1/6 488/1/6
f 488/1/6 485/1/6 489/1/6
f 486/1/6 487/1/6 490/1/6
f 490/1/6 487/1/6 491/1/6
f 492/1/6 493/1/6 495/1/6
f 495/1/6 493/1/6 496/1/6
f 496/1/6 493/1/6 497/1/6
f 497/1/6 493/1/6 498/1/6
f 494/1/6 495/1/6 500/1/6
f 495/1/6 496/1/6 500/1/6
f 500/1/6 496/1/6 501/1/6
f 498/1/6 499/1/6 502/1/6
f 497/1/6 498/1/6 502/1/6
f 502/1/6 499/1/6 503/1/6
f 501/1/6 496/1/6 504/1/6
f 497/1/6 502/1/6 505/1/6
f 501/1/6 504/1/6 506/1/6
f 504/1/6 505/1/6 506/1/6
f 505/1/6 502/1/6 507/1/6
f 506/1/6 505/1/6 507/1/6
f 501/1/6 506/1/6 508/1/6
f 506/10/6 507/10/6 509/10/6
f 508/1/6 506/1/6 509/1/6
f 507/1/6 502/1/6 510/1/6
f 509/10/6 507/10/6 510/10/6
f 510/1/6 502/1/6 511/1/6
f 512/4/6 513/4/6 514/4/6
f 514/4/6 513/4/6 515/4/6
f 516/6/6 517/6/6 518/6/6
f 518/6/6 517/6/6 519/6/6
f 520/7/6 521/7/6 522/7/6
f 522/7/6 521/7/6 523/7/6
f 524/5/6 525/5/6 528/5/6
f 528/5/6 525/5/6 529/5/6
f 526/5/6 527/5/6 530/5/6
f 530/5/6 527/5/6 531/5/6
f 532/5/6 533/5/6 535/5/6
f 535/5/6 533/5/6 536/5/6
f 534/5/6 535/5/6 538/5/6
f 536/5/6 537/5/6 538/5/6
f 535/5/6 536/5/6 538/5/6
f 538/5/6 537/5/6 539/5/6
