# MagicaVoxel @ Ephtracy

# group
g fabio

# material
mtllib fabio.mtl
usemtl palette

# normals
vn -1 0 0
vn 1 0 0
vn 0 0 1
vn 0 0 -1
vn 0 -1 0
vn 0 1 0

# texcoords
vt 0.626953 0.5
vt 0.638672 0.5
vt 0.666016 0.5
vt 0.794922 0.5
vt 0.845703 0.5
vt 0.916016 0.5
vt 0.927734 0.5
vt 0.978516 0.5
vt 0.994141 0.5

# verts
v -3 9 1
v -3 9 -0
v -3 13 1
v -3 13 -0
v -3 16 1
v -3 16 -0
v -2 0 2
v -2 0 1
v -2 0 -1
v -2 1 2
v -2 1 1
v -2 1 -1
v -2 2 1
v -2 2 -1
v -2 9 2
v -2 9 1
v -2 9 -0
v -2 9 -1
v -2 9 -2
v -2 13 1
v -2 13 -0
v -2 13 -2
v -2 13 -3
v -2 16 2
v -2 16 1
v -2 16 -0
v -2 16 -3
v -2 17 2
v -2 17 1
v -2 17 -1
v -2 18 2
v -2 18 1
v -2 18 -1
v -2 18 -2
v -2 20 2
v -2 20 1
v -2 20 -1
v -2 20 -2
v -2 21 2
v -2 21 1
v -2 21 -0
v -2 21 -1
v -2 22 2
v -2 22 -0
v -2 23 2
v -2 23 1
v -2 24 1
v -2 24 -2
v -1 12 -2
v -1 12 -3
v -1 13 -2
v -1 13 -3
v -1 16 1
v -1 16 -1
v -1 17 1
v -1 17 -1
v -1 17 -2
v -1 18 -1
v -1 18 -2
v -1 23 2
v -1 23 1
v -1 24 2
v -1 24 1
v 1 0 2
v 1 0 1
v 1 0 -1
v 1 1 2
v 1 1 1
v 1 1 -1
v 1 2 1
v 1 2 -1
v 1 8 1
v 1 8 -1
v 1 9 1
v 1 9 -1
v 1 11 1
v 1 11 -0
v 1 15 -0
v 1 15 -1
v 1 18 2
v 1 18 1
v 1 18 -0
v 1 18 -1
v 1 19 2
v 1 19 1
v 1 19 -0
v 1 20 -1
v 1 21 -0
v 1 21 -1
v 1 22 1
v 1 22 -0
v 1 22 -1
v 2 11 1
v 2 11 -0
v 2 13 1
v 2 13 -0
v 2 14 1
v 2 15 1
v 2 15 -0
v -2 11 1
v -2 11 -0
v -2 13 1
v -2 13 -0
v -2 15 1
v -2 15 -0
v -1 0 2
v -1 0 1
v -1 0 -1
v -1 1 2
v -1 1 1
v -1 1 -1
v -1 2 1
v -1 2 -1
v -1 8 1
v -1 8 -1
v -1 9 1
v -1 9 -1
v -1 11 1
v -1 11 -0
v -1 15 -0
v -1 15 -1
v -1 18 2
v -1 18 1
v -1 18 -0
v -1 18 -1
v -1 19 2
v -1 19 1
v -1 19 -0
v -1 20 -1
v -1 21 -0
v -1 21 -1
v -1 22 1
v -1 22 -0
v -1 22 -1
v 1 12 -2
v 1 12 -3
v 1 13 -2
v 1 13 -3
v 1 16 1
v 1 16 -1
v 1 17 1
v 1 17 -1
v 1 17 -2
v 1 18 -1
v 1 18 -2
v 1 23 2
v 1 23 1
v 1 24 2
v 1 24 1
v 2 0 2
v 2 0 1
v 2 0 -1
v 2 1 2
v 2 1 1
v 2 1 -1
v 2 2 1
v 2 2 -1
v 2 9 2
v 2 9 1
v 2 9 -0
v 2 9 -1
v 2 9 -2
v 2 13 1
v 2 13 -0
v 2 13 -2
v 2 13 -3
v 2 14 2
v 2 14 1
v 2 15 2
v 2 15 1
v 2 16 2
v 2 16 1
v 2 16 -0
v 2 16 -3
v 2 17 2
v 2 17 1
v 2 17 -1
v 2 18 2
v 2 18 1
v 2 18 -1
v 2 18 -2
v 2 20 2
v 2 20 1
v 2 20 -1
v 2 20 -2
v 2 21 2
v 2 21 1
v 2 21 -0
v 2 21 -1
v 2 22 2
v 2 22 -0
v 2 23 2
v 2 23 1
v 2 24 1
v 2 24 -2
v 3 9 1
v 3 9 -0
v 3 13 1
v 3 13 -0
v 3 16 1
v 3 16 -0
v -2 0 2
v -2 1 2
v -2 9 2
v -2 16 2
v -2 17 2
v -2 18 2
v -2 20 2
v -2 21 2
v -2 22 2
v -2 23 2
v -1 0 2
v -1 1 2
v -1 18 2
v -1 19 2
v -1 20 2
v -1 21 2
v -1 23 2
v -1 24 2
v 0 14 2
v 0 15 2
v 1 0 2
v 1 1 2
v 1 18 2
v 1 19 2
v 1 20 2
v 1 21 2
v 1 23 2
v 1 24 2
v 2 0 2
v 2 1 2
v 2 9 2
v 2 14 2
v 2 15 2
v 2 16 2
v 2 17 2
v 2 18 2
v 2 20 2
v 2 21 2
v 2 22 2
v 2 23 2
v -3 9 1
v -3 13 1
v -3 16 1
v -2 1 1
v -2 2 1
v -2 9 1
v -2 13 1
v -2 16 1
v -2 23 1
v -2 24 1
v -1 1 1
v -1 2 1
v -1 8 1
v -1 16 1
v -1 17 1
v -1 18 1
v -1 19 1
v -1 23 1
v -1 24 1
v 1 1 1
v 1 2 1
v 1 8 1
v 1 16 1
v 1 17 1
v 1 18 1
v 1 19 1
v 1 23 1
v 1 24 1
v 2 1 1
v 2 2 1
v 2 9 1
v 2 13 1
v 2 14 1
v 2 15 1
v 2 16 1
v 2 23 1
v 2 24 1
v 3 9 1
v 3 13 1
v 3 16 1
v -2 11 -0
v -2 13 -0
v -2 15 -0
v -1 11 -0
v -1 15 -0
v 1 11 -0
v 1 15 -0
v 2 11 -0
v 2 13 -0
v 2 15 -0
v -1 9 -1
v -1 15 -1
v -1 18 -1
v -1 20 -1
v -1 21 -1
v -1 22 -1
v 1 9 -1
v 1 15 -1
v 1 18 -1
v 1 20 -1
v 1 21 -1
v 1 22 -1
v -2 11 1
v -2 13 1
v -2 15 1
v -1 9 1
v -1 11 1
v -1 19 1
v -1 22 1
v 0 14 1
v 0 15 1
v 1 9 1
v 1 11 1
v 1 19 1
v 1 22 1
v 2 11 1
v 2 13 1
v 2 14 1
v 2 15 1
v -3 9 -0
v -3 13 -0
v -3 16 -0
v -2 9 -0
v -2 13 -0
v -2 16 -0
v -1 18 -0
v -1 19 -0
v 1 18 -0
v 1 19 -0
v 2 9 -0
v 2 13 -0
v 2 16 -0
v 3 9 -0
v 3 13 -0
v 3 16 -0
v -2 0 -1
v -2 1 -1
v -2 2 -1
v -2 9 -1
v -2 17 -1
v -2 18 -1
v -1 0 -1
v -1 1 -1
v -1 2 -1
v -1 8 -1
v -1 16 -1
v -1 17 -1
v -1 18 -1
v 1 0 -1
v 1 1 -1
v 1 2 -1
v 1 8 -1
v 1 16 -1
v 1 17 -1
v 1 18 -1
v 2 0 -1
v 2 1 -1
v 2 2 -1
v 2 9 -1
v 2 17 -1
v 2 18 -1
v -2 9 -2
v -2 13 -2
v -2 18 -2
v -2 20 -2
v -2 24 -2
v -1 12 -2
v -1 13 -2
v -1 17 -2
v -1 18 -2
v 1 12 -2
v 1 13 -2
v 1 17 -2
v 1 18 -2
v 2 9 -2
v 2 13 -2
v 2 18 -2
v 2 20 -2
v 2 24 -2
v -2 13 -3
v -2 16 -3
v -1 12 -3
v -1 13 -3
v -1 16 -3
v 1 12 -3
v 1 13 -3
v 1 16 -3
v 2 13 -3
v 2 16 -3
v -2 0 2
v -1 0 2
v 1 0 2
v 2 0 2
v -2 0 1
v -1 0 1
v 1 0 1
v 2 0 1
v -2 0 -1
v -1 0 -1
v 1 0 -1
v 2 0 -1
v -1 8 1
v 1 8 1
v -1 8 -1
v 1 8 -1
v -2 9 2
v 2 9 2
v -3 9 1
v -2 9 1
v 2 9 1
v 3 9 1
v -3 9 -0
v -2 9 -0
v 2 9 -0
v 3 9 -0
v -2 9 -1
v 2 9 -1
v -2 9 -2
v 2 9 -2
v -1 12 -2
v 1 12 -2
v -1 12 -3
v 1 12 -3
v -2 13 -2
v -1 13 -2
v 1 13 -2
v 2 13 -2
v -2 13 -3
v -1 13 -3
v 1 13 -3
v 2 13 -3
v -2 15 1
v 0 15 1
v 2 15 1
v -2 15 -0
v -1 15 -0
v 1 15 -0
v 2 15 -0
v -1 15 -1
v 1 15 -1
v -2 17 2
v 2 17 2
v -2 17 1
v -1 17 1
v 1 17 1
v 2 17 1
v -2 17 -1
v -1 17 -1
v 1 17 -1
v 2 17 -1
v -1 17 -2
v 1 17 -2
v -2 18 -1
v -1 18 -1
v 1 18 -1
v 2 18 -1
v -2 18 -2
v -1 18 -2
v 1 18 -2
v 2 18 -2
v -1 19 2
v 1 19 2
v -1 19 1
v 1 19 1
v -1 22 1
v 1 22 1
v -1 22 -0
v 1 22 -0
v -1 22 -1
v 1 22 -1
v -2 1 2
v -1 1 2
v 1 1 2
v 2 1 2
v -2 1 1
v -1 1 1
v 1 1 1
v 2 1 1
v -1 9 1
v 1 9 1
v -1 9 -1
v 1 9 -1
v -2 11 1
v -1 11 1
v 1 11 1
v 2 11 1
v -2 11 -0
v -1 11 -0
v 1 11 -0
v 2 11 -0
v -2 16 2
v 2 16 2
v -3 16 1
v -2 16 1
v -1 16 1
v 1 16 1
v 2 16 1
v 3 16 1
v -3 16 -0
v -2 16 -0
v 2 16 -0
v 3 16 -0
v -1 16 -1
v 1 16 -1
v -1 16 -2
v 1 16 -2
v -2 16 -3
v -1 16 -3
v 1 16 -3
v 2 16 -3
v -1 18 2
v 1 18 2
v -1 18 1
v 1 18 1
v -1 18 -0
v 1 18 -0
v -1 18 -1
v 1 18 -1
v -1 19 1
v 1 19 1
v -1 19 -0
v 1 19 -0
v -2 23 2
v -1 23 2
v 1 23 2
v 2 23 2
v -2 23 1
v -1 23 1
v 1 23 1
v 2 23 1
v -1 24 2
v 1 24 2
v -2 24 1
v -1 24 1
v 1 24 1
v 2 24 1
v -2 24 -2
v 2 24 -2

# faces
f 3/3/1 2/3/1 1/3/1
f 4/3/1 2/3/1 3/3/1
f 5/2/1 4/2/1 3/2/1
f 6/2/1 4/2/1 5/2/1
f 10/8/1 8/8/1 7/8/1
f 11/7/1 9/7/1 8/7/1
f 11/8/1 8/8/1 10/8/1
f 12/7/1 9/7/1 11/7/1
f 13/8/1 12/8/1 11/8/1
f 14/8/1 12/8/1 13/8/1
f 16/9/1 14/9/1 13/9/1
f 17/9/1 14/9/1 16/9/1
f 18/9/1 14/9/1 17/9/1
f 20/2/1 16/2/1 15/2/1
f 21/2/1 18/2/1 17/2/1
f 21/2/1 19/2/1 18/2/1
f 22/2/1 19/2/1 21/2/1
f 24/2/1 20/2/1 15/2/1
f 25/2/1 20/2/1 24/2/1
f 26/2/1 23/2/1 22/2/1
f 26/2/1 22/2/1 21/2/1
f 27/2/1 23/2/1 26/2/1
f 31/5/1 29/5/1 28/5/1
f 32/3/1 30/3/1 29/3/1
f 32/5/1 29/5/1 31/5/1
f 33/3/1 30/3/1 32/3/1
f 35/3/1 32/3/1 31/3/1
f 35/3/1 34/3/1 33/3/1
f 35/3/1 33/3/1 32/3/1
f 36/3/1 34/3/1 35/3/1
f 37/3/1 34/3/1 36/3/1
f 38/3/1 34/3/1 37/3/1
f 39/4/1 36/4/1 35/4/1
f 40/3/1 37/3/1 36/3/1
f 40/4/1 36/4/1 39/4/1
f 41/3/1 37/3/1 40/3/1
f 42/4/1 38/4/1 37/4/1
f 42/3/1 37/3/1 41/3/1
f 43/3/1 41/3/1 40/3/1
f 43/3/1 40/3/1 39/3/1
f 44/4/1 42/4/1 41/4/1
f 44/3/1 41/3/1 43/3/1
f 45/4/1 44/4/1 43/4/1
f 46/4/1 44/4/1 45/4/1
f 47/4/1 44/4/1 46/4/1
f 48/4/1 38/4/1 42/4/1
f 48/4/1 44/4/1 47/4/1
f 48/4/1 42/4/1 44/4/1
f 51/2/1 50/2/1 49/2/1
f 52/2/1 50/2/1 51/2/1
f 55/3/1 54/3/1 53/3/1
f 56/3/1 54/3/1 55/3/1
f 58/3/1 57/3/1 56/3/1
f 59/3/1 57/3/1 58/3/1
f 62/4/1 61/4/1 60/4/1
f 63/4/1 61/4/1 62/4/1
f 67/8/1 65/8/1 64/8/1
f 68/7/1 66/7/1 65/7/1
f 68/8/1 65/8/1 67/8/1
f 69/7/1 66/7/1 68/7/1
f 70/8/1 69/8/1 68/8/1
f 71/8/1 69/8/1 70/8/1
f 72/9/1 71/9/1 70/9/1
f 73/9/1 71/9/1 72/9/1
f 76/2/1 75/2/1 74/2/1
f 77/2/1 75/2/1 76/2/1
f 78/2/1 75/2/1 77/2/1
f 79/2/1 75/2/1 78/2/1
f 84/3/1 81/3/1 80/3/1
f 85/3/1 81/3/1 84/3/1
f 86/3/1 83/3/1 82/3/1
f 87/3/1 86/3/1 85/3/1
f 87/3/1 83/3/1 86/3/1
f 88/3/1 87/3/1 85/3/1
f 89/3/1 87/3/1 88/3/1
f 90/3/1 88/3/1 85/3/1
f 91/4/1 89/4/1 88/4/1
f 91/3/1 88/3/1 90/3/1
f 92/4/1 89/4/1 91/4/1
f 95/3/1 94/3/1 93/3/1
f 96/3/1 94/3/1 95/3/1
f 97/2/1 96/2/1 95/2/1
f 98/2/1 96/2/1 97/2/1
f 99/2/1 96/2/1 98/2/1
f 100/3/2 101/3/2 102/3/2
f 102/3/2 101/3/2 103/3/2
f 102/2/2 103/2/2 104/2/2
f 104/2/2 103/2/2 105/2/2
f 106/8/2 107/8/2 109/8/2
f 107/7/2 108/7/2 110/7/2
f 109/8/2 107/8/2 110/8/2
f 110/7/2 108/7/2 111/7/2
f 110/8/2 111/8/2 112/8/2
f 112/8/2 111/8/2 113/8/2
f 112/9/2 113/9/2 114/9/2
f 114/9/2 113/9/2 115/9/2
f 116/2/2 117/2/2 118/2/2
f 118/2/2 117/2/2 119/2/2
f 119/2/2 117/2/2 120/2/2
f 120/2/2 117/2/2 121/2/2
f 122/3/2 123/3/2 126/3/2
f 126/3/2 123/3/2 127/3/2
f 124/3/2 125/3/2 128/3/2
f 127/3/2 128/3/2 129/3/2
f 128/3/2 125/3/2 129/3/2
f 127/3/2 129/3/2 130/3/2
f 130/3/2 129/3/2 131/3/2
f 127/3/2 130/3/2 132/3/2
f 130/4/2 131/4/2 133/4/2
f 132/3/2 130/3/2 133/3/2
f 133/4/2 131/4/2 134/4/2
f 135/2/2 136/2/2 137/2/2
f 137/2/2 136/2/2 138/2/2
f 139/3/2 140/3/2 141/3/2
f 141/3/2 140/3/2 142/3/2
f 142/3/2 143/3/2 144/3/2
f 144/3/2 143/3/2 145/3/2
f 146/4/2 147/4/2 148/4/2
f 148/4/2 147/4/2 149/4/2
f 150/8/2 151/8/2 153/8/2
f 151/7/2 152/7/2 154/7/2
f 153/8/2 151/8/2 154/8/2
f 154/7/2 152/7/2 155/7/2
f 154/8/2 155/8/2 156/8/2
f 156/8/2 155/8/2 157/8/2
f 156/9/2 157/9/2 159/9/2
f 159/9/2 157/9/2 160/9/2
f 160/9/2 157/9/2 161/9/2
f 158/2/2 159/2/2 163/2/2
f 160/2/2 161/2/2 164/2/2
f 161/2/2 162/2/2 164/2/2
f 164/2/2 162/2/2 165/2/2
f 158/2/2 163/2/2 167/2/2
f 167/2/2 163/2/2 168/2/2
f 167/1/2 168/1/2 169/1/2
f 169/1/2 168/1/2 170/1/2
f 169/2/2 170/2/2 171/2/2
f 171/2/2 170/2/2 172/2/2
f 165/2/2 166/2/2 173/2/2
f 164/2/2 165/2/2 173/2/2
f 173/2/2 166/2/2 174/2/2
f 175/5/2 176/5/2 178/5/2
f 176/3/2 177/3/2 179/3/2
f 178/5/2 176/5/2 179/5/2
f 179/3/2 177/3/2 180/3/2
f 178/3/2 179/3/2 182/3/2
f 180/3/2 181/3/2 182/3/2
f 179/3/2 180/3/2 182/3/2
f 182/3/2 181/3/2 183/3/2
f 183/3/2 181/3/2 184/3/2
f 184/3/2 181/3/2 185/3/2
f 182/4/2 183/4/2 186/4/2
f 183/3/2 184/3/2 187/3/2
f 186/4/2 183/4/2 187/4/2
f 187/3/2 184/3/2 188/3/2
f 184/4/2 185/4/2 189/4/2
f 188/3/2 184/3/2 189/3/2
f 187/3/2 188/3/2 190/3/2
f 186/3/2 187/3/2 190/3/2
f 188/4/2 189/4/2 191/4/2
f 190/3/2 188/3/2 191/3/2
f 190/4/2 191/4/2 192/4/2
f 192/4/2 191/4/2 193/4/2
f 193/4/2 191/4/2 194/4/2
f 189/4/2 185/4/2 195/4/2
f 194/4/2 191/4/2 195/4/2
f 191/4/2 189/4/2 195/4/2
f 196/3/2 197/3/2 198/3/2
f 198/3/2 197/3/2 199/3/2
f 198/2/2 199/2/2 200/2/2
f 200/2/2 199/2/2 201/2/2
f 212/8/3 203/8/3 202/8/3
f 213/8/3 203/8/3 212/8/3
f 214/5/3 207/5/3 206/5/3
f 214/3/3 208/3/3 207/3/3
f 215/3/3 208/3/3 214/3/3
f 216/4/3 209/4/3 208/4/3
f 216/3/3 208/3/3 215/3/3
f 217/3/3 210/3/3 209/3/3
f 217/4/3 209/4/3 216/4/3
f 218/4/3 211/4/3 210/4/3
f 220/2/3 205/2/3 204/2/3
f 221/2/3 205/2/3 220/2/3
f 224/5/3 214/5/3 206/5/3
f 225/3/3 217/3/3 216/3/3
f 225/3/3 216/3/3 215/3/3
f 226/3/3 217/3/3 225/3/3
f 227/3/3 210/3/3 217/3/3
f 227/3/3 217/3/3 226/3/3
f 228/4/3 219/4/3 218/4/3
f 228/4/3 218/4/3 210/4/3
f 229/4/3 219/4/3 228/4/3
f 230/8/3 223/8/3 222/8/3
f 231/8/3 223/8/3 230/8/3
f 232/2/3 220/2/3 204/2/3
f 233/1/3 221/1/3 220/1/3
f 233/2/3 220/2/3 232/2/3
f 234/2/3 205/2/3 221/2/3
f 234/1/3 221/1/3 233/1/3
f 235/2/3 205/2/3 234/2/3
f 236/5/3 224/5/3 206/5/3
f 237/3/3 226/3/3 225/3/3
f 237/5/3 224/5/3 236/5/3
f 237/3/3 225/3/3 224/3/3
f 238/4/3 227/4/3 226/4/3
f 238/3/3 226/3/3 237/3/3
f 239/3/3 210/3/3 227/3/3
f 239/4/3 227/4/3 238/4/3
f 240/4/3 228/4/3 210/4/3
f 240/3/3 210/3/3 239/3/3
f 241/4/3 228/4/3 240/4/3
f 247/3/3 243/3/3 242/3/3
f 248/2/3 244/2/3 243/2/3
f 248/3/3 243/3/3 247/3/3
f 249/2/3 244/2/3 248/2/3
f 252/8/3 246/8/3 245/8/3
f 253/9/3 247/9/3 246/9/3
f 253/8/3 246/8/3 252/8/3
f 254/9/3 247/9/3 253/9/3
f 259/4/3 251/4/3 250/4/3
f 260/4/3 251/4/3 259/4/3
f 263/9/3 247/9/3 254/9/3
f 264/3/3 256/3/3 255/3/3
f 265/3/3 256/3/3 264/3/3
f 266/6/3 258/6/3 257/6/3
f 267/6/3 258/6/3 266/6/3
f 270/8/3 262/8/3 261/8/3
f 271/9/3 263/9/3 262/9/3
f 271/8/3 262/8/3 270/8/3
f 272/9/3 247/9/3 263/9/3
f 272/9/3 263/9/3 271/9/3
f 277/4/3 269/4/3 268/4/3
f 278/4/3 269/4/3 277/4/3
f 279/3/3 273/3/3 272/3/3
f 280/2/3 276/2/3 275/2/3
f 280/3/3 273/3/3 279/3/3
f 280/2/3 275/2/3 274/2/3
f 280/2/3 274/2/3 273/2/3
f 281/2/3 276/2/3 280/2/3
f 285/2/3 283/2/3 282/2/3
f 285/2/3 284/2/3 283/2/3
f 286/2/3 284/2/3 285/2/3
f 289/2/3 288/2/3 287/2/3
f 290/2/3 288/2/3 289/2/3
f 291/2/3 288/2/3 290/2/3
f 298/2/3 293/2/3 292/2/3
f 299/2/3 293/2/3 298/2/3
f 300/3/3 295/3/3 294/3/3
f 301/4/3 297/4/3 296/4/3
f 301/3/3 295/3/3 300/3/3
f 301/4/3 296/4/3 295/4/3
f 302/4/3 297/4/3 301/4/3
f 303/4/3 297/4/3 302/4/3
f 304/2/4 305/2/4 308/2/4
f 305/2/4 306/2/4 308/2/4
f 308/2/4 306/2/4 311/2/4
f 307/2/4 308/2/4 311/2/4
f 311/2/4 306/2/4 312/2/4
f 307/2/4 311/2/4 313/2/4
f 313/2/4 311/2/4 314/2/4
f 309/3/4 310/3/4 315/3/4
f 315/3/4 310/3/4 316/3/4
f 314/2/4 311/2/4 317/2/4
f 317/2/4 311/2/4 318/2/4
f 311/1/4 312/1/4 319/1/4
f 318/2/4 311/2/4 319/2/4
f 319/1/4 312/1/4 320/1/4
f 321/3/4 322/3/4 324/3/4
f 322/2/4 323/2/4 325/2/4
f 324/3/4 322/3/4 325/3/4
f 325/2/4 323/2/4 326/2/4
f 327/6/4 328/6/4 329/6/4
f 329/6/4 328/6/4 330/6/4
f 331/3/4 332/3/4 334/3/4
f 332/2/4 333/2/4 335/2/4
f 334/3/4 332/3/4 335/3/4
f 335/2/4 333/2/4 336/2/4
f 337/7/4 338/7/4 343/7/4
f 338/8/4 339/8/4 344/8/4
f 343/7/4 338/7/4 344/7/4
f 339/9/4 340/9/4 345/9/4
f 344/8/4 339/8/4 345/8/4
f 345/9/4 340/9/4 346/9/4
f 341/3/4 342/3/4 348/3/4
f 348/3/4 342/3/4 349/3/4
f 346/9/4 340/9/4 353/9/4
f 347/3/4 348/3/4 354/3/4
f 354/3/4 348/3/4 355/3/4
f 350/7/4 351/7/4 357/7/4
f 351/8/4 352/8/4 358/8/4
f 357/7/4 351/7/4 358/7/4
f 352/9/4 353/9/4 359/9/4
f 358/8/4 352/8/4 359/8/4
f 353/9/4 340/9/4 360/9/4
f 359/9/4 353/9/4 360/9/4
f 355/3/4 356/3/4 361/3/4
f 361/3/4 356/3/4 362/3/4
f 363/2/4 364/2/4 368/2/4
f 368/2/4 364/2/4 369/2/4
f 365/3/4 366/3/4 371/3/4
f 363/2/4 368/2/4 372/2/4
f 370/3/4 371/3/4 374/3/4
f 371/3/4 366/3/4 375/3/4
f 374/3/4 371/3/4 375/3/4
f 372/2/4 373/2/4 376/2/4
f 363/2/4 372/2/4 376/2/4
f 376/2/4 373/2/4 377/2/4
f 375/3/4 366/3/4 378/3/4
f 366/4/4 367/4/4 379/4/4
f 378/3/4 366/3/4 379/3/4
f 379/4/4 367/4/4 380/4/4
f 381/2/4 382/2/4 384/2/4
f 384/2/4 382/2/4 385/2/4
f 383/2/4 384/2/4 386/2/4
f 384/9/4 385/9/4 387/9/4
f 386/2/4 384/2/4 387/2/4
f 387/9/4 385/9/4 388/9/4
f 387/2/4 388/2/4 389/2/4
f 389/2/4 388/2/4 390/2/4
f 395/8/5 392/8/5 391/8/5
f 396/8/5 392/8/5 395/8/5
f 397/8/5 394/8/5 393/8/5
f 398/8/5 394/8/5 397/8/5
f 399/7/5 396/7/5 395/7/5
f 400/7/5 396/7/5 399/7/5
f 401/7/5 398/7/5 397/7/5
f 402/7/5 398/7/5 401/7/5
f 405/9/5 404/9/5 403/9/5
f 406/9/5 404/9/5 405/9/5
f 410/2/5 408/2/5 407/2/5
f 411/2/5 408/2/5 410/2/5
f 413/3/5 410/3/5 409/3/5
f 414/3/5 410/3/5 413/3/5
f 415/3/5 412/3/5 411/3/5
f 416/3/5 412/3/5 415/3/5
f 419/2/5 418/2/5 417/2/5
f 420/2/5 418/2/5 419/2/5
f 423/2/5 422/2/5 421/2/5
f 424/2/5 422/2/5 423/2/5
f 429/2/5 426/2/5 425/2/5
f 430/2/5 426/2/5 429/2/5
f 431/2/5 428/2/5 427/2/5
f 432/2/5 428/2/5 431/2/5
f 436/2/5 434/2/5 433/2/5
f 436/2/5 435/2/5 434/2/5
f 437/2/5 435/2/5 436/2/5
f 438/2/5 435/2/5 437/2/5
f 439/2/5 435/2/5 438/2/5
f 440/2/5 438/2/5 437/2/5
f 441/2/5 438/2/5 440/2/5
f 444/5/5 443/5/5 442/5/5
f 445/5/5 443/5/5 444/5/5
f 446/5/5 443/5/5 445/5/5
f 447/5/5 443/5/5 446/5/5
f 448/3/5 445/3/5 444/3/5
f 449/3/5 445/3/5 448/3/5
f 450/3/5 447/3/5 446/3/5
f 451/3/5 447/3/5 450/3/5
f 452/3/5 450/3/5 449/3/5
f 453/3/5 450/3/5 452/3/5
f 458/3/5 455/3/5 454/3/5
f 459/3/5 455/3/5 458/3/5
f 460/3/5 457/3/5 456/3/5
f 461/3/5 457/3/5 460/3/5
f 464/3/5 463/3/5 462/3/5
f 465/3/5 463/3/5 464/3/5
f 468/4/5 467/4/5 466/4/5
f 469/4/5 467/4/5 468/4/5
f 470/4/5 469/4/5 468/4/5
f 471/4/5 469/4/5 470/4/5
f 472/8/6 473/8/6 476/8/6
f 476/8/6 473/8/6 477/8/6
f 474/8/6 475/8/6 478/8/6
f 478/8/6 475/8/6 479/8/6
f 480/9/6 481/9/6 482/9/6
f 482/9/6 481/9/6 483/9/6
f 484/2/6 485/2/6 488/2/6
f 488/2/6 485/2/6 489/2/6
f 486/2/6 487/2/6 490/2/6
f 490/2/6 487/2/6 491/2/6
f 492/2/6 493/2/6 495/2/6
f 495/2/6 493/2/6 496/2/6
f 496/2/6 493/2/6 497/2/6
f 497/2/6 493/2/6 498/2/6
f 494/2/6 495/2/6 500/2/6
f 495/2/6 496/2/6 500/2/6
f 500/2/6 496/2/6 501/2/6
f 498/2/6 499/2/6 502/2/6
f 497/2/6 498/2/6 502/2/6
f 502/2/6 499/2/6 503/2/6
f 501/2/6 496/2/6 504/2/6
f 497/2/6 502/2/6 505/2/6
f 501/2/6 504/2/6 506/2/6
f 504/2/6 505/2/6 506/2/6
f 505/2/6 502/2/6 507/2/6
f 506/2/6 505/2/6 507/2/6
f 501/2/6 506/2/6 508/2/6
f 506/9/6 507/9/6 509/9/6
f 508/2/6 506/2/6 509/2/6
f 507/2/6 502/2/6 510/2/6
f 509/9/6 507/9/6 510/9/6
f 510/2/6 502/2/6 511/2/6
f 512/5/6 513/5/6 514/5/6
f 514/5/6 513/5/6 515/5/6
f 516/3/6 517/3/6 518/3/6
f 518/3/6 517/3/6 519/3/6
f 520/6/6 521/6/6 522/6/6
f 522/6/6 521/6/6 523/6/6
f 524/4/6 525/4/6 528/4/6
f 528/4/6 525/4/6 529/4/6
f 526/4/6 527/4/6 530/4/6
f 530/4/6 527/4/6 531/4/6
f 532/4/6 533/4/6 535/4/6
f 535/4/6 533/4/6 536/4/6
f 534/4/6 535/4/6 538/4/6
f 536/4/6 537/4/6 538/4/6
f 535/4/6 536/4/6 538/4/6
f 538/4/6 537/4/6 539/4/6
