# MagicaVoxel @ Ephtracy

# group
g g

# material
mtllib g.mtl
usemtl palette

# normals
vn -1 0 0
vn 1 0 0
vn 0 0 1
vn 0 0 -1
vn 0 -1 0
vn 0 1 0

# texcoords
vt 0.935547 0.5
vt 0.994141 0.5

# verts
v -3 1 -2
v -3 1 -3
v -3 7 -2
v -3 7 -3
v -2 0 -2
v -2 0 -3
v -2 1 -2
v -2 1 -3
v -2 2 -1
v -2 2 -2
v -2 2 -3
v -2 2 -4
v -2 3 -3
v -2 3 -4
v -2 5 -3
v -2 5 -4
v -2 6 -1
v -2 6 -2
v -2 6 -3
v -2 6 -4
v -2 7 -2
v -2 7 -3
v -2 8 -2
v -2 8 -3
v -1 1 -1
v -1 1 -2
v -1 1 -3
v -1 1 -4
v -1 2 -1
v -1 2 -2
v -1 2 -3
v -1 2 -4
v -1 6 -1
v -1 6 -2
v -1 6 -3
v -1 6 -4
v -1 7 -1
v -1 7 -2
v -1 7 -3
v -1 7 -4
v 0 2 -1
v 0 2 -2
v 0 3 -1
v 0 3 -2
v 1 2 -3
v 1 2 -4
v 1 5 -1
v 1 5 -2
v 1 6 -1
v 1 6 -2
v 1 6 -3
v 1 6 -4
v -1 2 -1
v -1 2 -2
v -1 5 -3
v -1 5 -4
v -1 6 -1
v -1 6 -2
v -1 6 -3
v -1 6 -4
v 0 2 -3
v 0 2 -4
v 0 3 -3
v 0 3 -4
v 1 1 -1
v 1 1 -2
v 1 1 -3
v 1 1 -4
v 1 2 -1
v 1 2 -2
v 1 2 -3
v 1 2 -4
v 1 6 -1
v 1 6 -2
v 1 6 -3
v 1 6 -4
v 1 7 -1
v 1 7 -2
v 1 7 -3
v 1 7 -4
v 2 0 -2
v 2 0 -3
v 2 1 -2
v 2 1 -3
v 2 2 -1
v 2 2 -2
v 2 2 -3
v 2 2 -4
v 2 3 -1
v 2 3 -2
v 2 5 -1
v 2 5 -2
v 2 6 -1
v 2 6 -2
v 2 6 -3
v 2 6 -4
v 2 7 -2
v 2 7 -3
v 2 8 -2
v 2 8 -3
v 3 1 -2
v 3 1 -3
v 3 7 -2
v 3 7 -3
v -2 2 -1
v -2 6 -1
v -1 1 -1
v -1 2 -1
v -1 6 -1
v -1 7 -1
v 0 2 -1
v 0 3 -1
v 1 1 -1
v 1 2 -1
v 1 5 -1
v 1 6 -1
v 1 7 -1
v 2 2 -1
v 2 3 -1
v 2 5 -1
v 2 6 -1
v -3 1 -2
v -3 7 -2
v -2 0 -2
v -2 1 -2
v -2 2 -2
v -2 6 -2
v -2 7 -2
v -2 8 -2
v -1 1 -2
v -1 2 -2
v -1 6 -2
v -1 7 -2
v 0 2 -2
v 0 3 -2
v 1 1 -2
v 1 2 -2
v 1 5 -2
v 1 6 -2
v 1 7 -2
v 2 0 -2
v 2 1 -2
v 2 2 -2
v 2 3 -2
v 2 5 -2
v 2 6 -2
v 2 7 -2
v 2 8 -2
v 3 1 -2
v 3 7 -2
v -3 1 -3
v -3 7 -3
v -2 0 -3
v -2 1 -3
v -2 2 -3
v -2 3 -3
v -2 5 -3
v -2 6 -3
v -2 7 -3
v -2 8 -3
v -1 1 -3
v -1 2 -3
v -1 5 -3
v -1 6 -3
v -1 7 -3
v 0 2 -3
v 0 3 -3
v 1 1 -3
v 1 2 -3
v 1 6 -3
v 1 7 -3
v 2 0 -3
v 2 1 -3
v 2 2 -3
v 2 6 -3
v 2 7 -3
v 2 8 -3
v 3 1 -3
v 3 7 -3
v -2 2 -4
v -2 3 -4
v -2 5 -4
v -2 6 -4
v -1 1 -4
v -1 2 -4
v -1 5 -4
v -1 6 -4
v -1 7 -4
v 0 2 -4
v 0 3 -4
v 1 1 -4
v 1 2 -4
v 1 6 -4
v 1 7 -4
v 2 2 -4
v 2 6 -4
v -2 0 -2
v 2 0 -2
v -2 0 -3
v 2 0 -3
v -1 1 -1
v 1 1 -1
v -3 1 -2
v -2 1 -2
v -1 1 -2
v 1 1 -2
v 2 1 -2
v 3 1 -2
v -3 1 -3
v -2 1 -3
v -1 1 -3
v 1 1 -3
v 2 1 -3
v 3 1 -3
v -1 1 -4
v 1 1 -4
v -2 2 -1
v -1 2 -1
v 1 2 -1
v 2 2 -1
v -2 2 -2
v -1 2 -2
v 1 2 -2
v 2 2 -2
v -2 2 -3
v -1 2 -3
v 1 2 -3
v 2 2 -3
v -2 2 -4
v -1 2 -4
v 1 2 -4
v 2 2 -4
v 1 5 -1
v 2 5 -1
v 1 5 -2
v 2 5 -2
v -2 5 -3
v -1 5 -3
v -2 5 -4
v -1 5 -4
v -1 6 -1
v 1 6 -1
v -1 6 -2
v 1 6 -2
v -1 6 -3
v 1 6 -3
v -1 6 -4
v 1 6 -4
v -1 2 -1
v 0 2 -1
v -1 2 -2
v 0 2 -2
v 0 2 -3
v 1 2 -3
v 0 2 -4
v 1 2 -4
v 0 3 -1
v 2 3 -1
v 0 3 -2
v 2 3 -2
v -2 3 -3
v 0 3 -3
v -2 3 -4
v 0 3 -4
v -2 6 -1
v -1 6 -1
v 1 6 -1
v 2 6 -1
v -2 6 -2
v -1 6 -2
v 1 6 -2
v 2 6 -2
v -2 6 -3
v -1 6 -3
v 1 6 -3
v 2 6 -3
v -2 6 -4
v -1 6 -4
v 1 6 -4
v 2 6 -4
v -1 7 -1
v 1 7 -1
v -3 7 -2
v -2 7 -2
v -1 7 -2
v 1 7 -2
v 2 7 -2
v 3 7 -2
v -3 7 -3
v -2 7 -3
v -1 7 -3
v 1 7 -3
v 2 7 -3
v 3 7 -3
v -1 7 -4
v 1 7 -4
v -2 8 -2
v 2 8 -2
v -2 8 -3
v 2 8 -3

# faces
f 3/2/1 2/2/1 1/2/1
f 4/2/1 2/2/1 3/2/1
f 7/2/1 6/2/1 5/2/1
f 8/2/1 6/2/1 7/2/1
f 13/1/1 12/1/1 11/1/1
f 14/1/1 12/1/1 13/1/1
f 17/1/1 10/1/1 9/1/1
f 18/1/1 10/1/1 17/1/1
f 19/1/1 16/1/1 15/1/1
f 20/1/1 16/1/1 19/1/1
f 23/2/1 22/2/1 21/2/1
f 24/2/1 22/2/1 23/2/1
f 29/1/1 26/1/1 25/1/1
f 30/1/1 26/1/1 29/1/1
f 31/1/1 28/1/1 27/1/1
f 32/1/1 28/1/1 31/1/1
f 37/1/1 34/1/1 33/1/1
f 38/1/1 34/1/1 37/1/1
f 39/1/1 36/1/1 35/1/1
f 40/1/1 36/1/1 39/1/1
f 43/1/1 42/1/1 41/1/1
f 44/1/1 42/1/1 43/1/1
f 49/1/1 48/1/1 47/1/1
f 50/1/1 48/1/1 49/1/1
f 51/1/1 46/1/1 45/1/1
f 52/1/1 46/1/1 51/1/1
f 53/1/2 54/1/2 57/1/2
f 57/1/2 54/1/2 58/1/2
f 55/1/2 56/1/2 59/1/2
f 59/1/2 56/1/2 60/1/2
f 61/1/2 62/1/2 63/1/2
f 63/1/2 62/1/2 64/1/2
f 65/1/2 66/1/2 69/1/2
f 69/1/2 66/1/2 70/1/2
f 67/1/2 68/1/2 71/1/2
f 71/1/2 68/1/2 72/1/2
f 73/1/2 74/1/2 77/1/2
f 77/1/2 74/1/2 78/1/2
f 75/1/2 76/1/2 79/1/2
f 79/1/2 76/1/2 80/1/2
f 81/2/2 82/2/2 83/2/2
f 83/2/2 82/2/2 84/2/2
f 85/1/2 86/1/2 89/1/2
f 89/1/2 86/1/2 90/1/2
f 91/1/2 92/1/2 93/1/2
f 93/1/2 92/1/2 94/1/2
f 87/1/2 88/1/2 95/1/2
f 95/1/2 88/1/2 96/1/2
f 97/2/2 98/2/2 99/2/2
f 99/2/2 98/2/2 100/2/2
f 101/2/2 102/2/2 103/2/2
f 103/2/2 102/2/2 104/2/2
f 108/1/3 106/1/3 105/1/3
f 109/1/3 106/1/3 108/1/3
f 111/1/3 108/1/3 107/1/3
f 113/1/3 111/1/3 107/1/3
f 113/1/3 112/1/3 111/1/3
f 114/1/3 112/1/3 113/1/3
f 116/1/3 110/1/3 109/1/3
f 117/1/3 110/1/3 116/1/3
f 118/1/3 112/1/3 114/1/3
f 119/1/3 112/1/3 118/1/3
f 120/1/3 116/1/3 115/1/3
f 121/1/3 116/1/3 120/1/3
f 125/2/3 123/2/3 122/2/3
f 126/2/3 123/2/3 125/2/3
f 127/2/3 123/2/3 126/2/3
f 128/2/3 123/2/3 127/2/3
f 130/2/3 125/2/3 124/2/3
f 130/2/3 126/2/3 125/2/3
f 131/2/3 126/2/3 130/2/3
f 132/2/3 129/2/3 128/2/3
f 132/2/3 128/2/3 127/2/3
f 133/2/3 129/2/3 132/2/3
f 134/2/3 132/2/3 131/2/3
f 135/2/3 132/2/3 134/2/3
f 136/2/3 130/2/3 124/2/3
f 138/2/3 132/2/3 135/2/3
f 139/2/3 132/2/3 138/2/3
f 140/2/3 129/2/3 133/2/3
f 141/2/3 137/2/3 136/2/3
f 141/2/3 136/2/3 124/2/3
f 142/2/3 137/2/3 141/2/3
f 143/2/3 137/2/3 142/2/3
f 144/2/3 138/2/3 135/2/3
f 145/2/3 138/2/3 144/2/3
f 146/2/3 140/2/3 139/2/3
f 147/2/3 129/2/3 140/2/3
f 147/2/3 140/2/3 146/2/3
f 148/2/3 129/2/3 147/2/3
f 149/2/3 145/2/3 144/2/3
f 149/2/3 146/2/3 145/2/3
f 149/2/3 147/2/3 146/2/3
f 149/2/3 143/2/3 142/2/3
f 149/2/3 144/2/3 143/2/3
f 150/2/3 147/2/3 149/2/3
f 151/2/4 152/2/4 154/2/4
f 154/2/4 152/2/4 155/2/4
f 155/2/4 152/2/4 156/2/4
f 156/2/4 152/2/4 157/2/4
f 157/2/4 152/2/4 158/2/4
f 158/2/4 152/2/4 159/2/4
f 153/2/4 154/2/4 161/2/4
f 154/2/4 155/2/4 161/2/4
f 161/2/4 155/2/4 162/2/4
f 156/2/4 157/2/4 163/2/4
f 159/2/4 160/2/4 164/2/4
f 158/2/4 159/2/4 164/2/4
f 164/2/4 160/2/4 165/2/4
f 156/2/4 163/2/4 167/2/4
f 163/2/4 164/2/4 167/2/4
f 153/2/4 161/2/4 168/2/4
f 166/2/4 167/2/4 169/2/4
f 167/2/4 164/2/4 170/2/4
f 169/2/4 167/2/4 170/2/4
f 165/2/4 160/2/4 171/2/4
f 153/2/4 168/2/4 172/2/4
f 168/2/4 169/2/4 172/2/4
f 172/2/4 169/2/4 173/2/4
f 173/2/4 169/2/4 174/2/4
f 170/2/4 171/2/4 175/2/4
f 171/2/4 160/2/4 176/2/4
f 175/2/4 171/2/4 176/2/4
f 176/2/4 160/2/4 177/2/4
f 173/2/4 174/2/4 178/2/4
f 174/2/4 175/2/4 178/2/4
f 175/2/4 176/2/4 178/2/4
f 178/2/4 176/2/4 179/2/4
f 180/1/4 181/1/4 185/1/4
f 182/1/4 183/1/4 186/1/4
f 186/1/4 183/1/4 187/1/4
f 184/1/4 185/1/4 189/1/4
f 185/1/4 181/1/4 189/1/4
f 189/1/4 181/1/4 190/1/4
f 184/1/4 189/1/4 191/1/4
f 191/1/4 189/1/4 192/1/4
f 187/1/4 188/1/4 193/1/4
f 193/1/4 188/1/4 194/1/4
f 192/1/4 193/1/4 195/1/4
f 195/1/4 193/1/4 196/1/4
f 199/2/5 198/2/5 197/2/5
f 200/2/5 198/2/5 199/2/5
f 205/1/5 202/1/5 201/1/5
f 206/1/5 202/1/5 205/1/5
f 209/2/5 204/2/5 203/2/5
f 210/2/5 204/2/5 209/2/5
f 213/2/5 208/2/5 207/2/5
f 214/2/5 208/2/5 213/2/5
f 215/1/5 212/1/5 211/1/5
f 216/1/5 212/1/5 215/1/5
f 221/1/5 218/1/5 217/1/5
f 222/1/5 218/1/5 221/1/5
f 223/1/5 220/1/5 219/1/5
f 224/1/5 220/1/5 223/1/5
f 229/1/5 226/1/5 225/1/5
f 230/1/5 226/1/5 229/1/5
f 231/1/5 228/1/5 227/1/5
f 232/1/5 228/1/5 231/1/5
f 235/1/5 234/1/5 233/1/5
f 236/1/5 234/1/5 235/1/5
f 239/1/5 238/1/5 237/1/5
f 240/1/5 238/1/5 239/1/5
f 243/1/5 242/1/5 241/1/5
f 244/1/5 242/1/5 243/1/5
f 247/1/5 246/1/5 245/1/5
f 248/1/5 246/1/5 247/1/5
f 249/1/6 250/1/6 251/1/6
f 251/1/6 250/1/6 252/1/6
f 253/1/6 254/1/6 255/1/6
f 255/1/6 254/1/6 256/1/6
f 257/1/6 258/1/6 259/1/6
f 259/1/6 258/1/6 260/1/6
f 261/1/6 262/1/6 263/1/6
f 263/1/6 262/1/6 264/1/6
f 265/1/6 266/1/6 269/1/6
f 269/1/6 266/1/6 270/1/6
f 267/1/6 268/1/6 271/1/6
f 271/1/6 268/1/6 272/1/6
f 273/1/6 274/1/6 277/1/6
f 277/1/6 274/1/6 278/1/6
f 275/1/6 276/1/6 279/1/6
f 279/1/6 276/1/6 280/1/6
f 281/1/6 282/1/6 285/1/6
f 285/1/6 282/1/6 286/1/6
f 283/2/6 284/2/6 289/2/6
f 289/2/6 284/2/6 290/2/6
f 287/2/6 288/2/6 293/2/6
f 293/2/6 288/2/6 294/2/6
f 291/1/6 292/1/6 295/1/6
f 295/1/6 292/1/6 296/1/6
f 297/2/6 298/2/6 299/2/6
f 299/2/6 298/2/6 300/2/6
