# MagicaVoxel @ Ephtracy

# group
g grass2

# material
mtllib grass2.mtl
usemtl palette

# normals
vn -1 0 0
vn 1 0 0
vn 0 0 1
vn 0 0 -1
vn 0 -1 0
vn 0 1 0

# texcoords
vt 0.376953 0.5
vt 0.380859 0.5
vt 0.384766 0.5
vt 0.388672 0.5
vt 0.392578 0.5
vt 0.396484 0.5

# verts
v -8 0 8
v -8 0 -2
v -8 0 -3
v -8 0 -8
v -8 1 8
v -8 1 -2
v -8 1 -3
v -8 1 -8
v 8 0 8
v 8 0 1
v 8 0 -0
v 8 0 -8
v 8 1 8
v 8 1 1
v 8 1 -0
v 8 1 -8
v -8 0 8
v -8 1 8
v -7 0 8
v -7 1 8
v -6 0 8
v -6 1 8
v -2 0 8
v -2 1 8
v 0 0 8
v 0 1 8
v 8 0 8
v 8 1 8
v -8 0 -8
v -8 1 -8
v -1 0 -8
v -1 1 -8
v 0 0 -8
v 0 1 -8
v 1 0 -8
v 1 1 -8
v 8 0 -8
v 8 1 -8
v -8 0 8
v -7 0 8
v -6 0 8
v -2 0 8
v 0 0 8
v 8 0 8
v -7 0 7
v -6 0 7
v -5 0 7
v -2 0 7
v -1 0 7
v 0 0 7
v 2 0 7
v 3 0 7
v 4 0 7
v 5 0 7
v 6 0 7
v -7 0 6
v -6 0 6
v -5 0 6
v -1 0 6
v 0 0 6
v 2 0 6
v 3 0 6
v 4 0 6
v 5 0 6
v 6 0 6
v -7 0 5
v -6 0 5
v -5 0 5
v -4 0 5
v -1 0 5
v 0 0 5
v 3 0 5
v 4 0 5
v 5 0 5
v 6 0 5
v -5 0 4
v -4 0 4
v -3 0 4
v -1 0 4
v 0 0 4
v 4 0 4
v 5 0 4
v 6 0 4
v -6 0 3
v -5 0 3
v -4 0 3
v -3 0 3
v 0 0 3
v 1 0 3
v 4 0 3
v 5 0 3
v -6 0 2
v -5 0 2
v -4 0 2
v -3 0 2
v -2 0 2
v 0 0 2
v 1 0 2
v -6 0 1
v -4 0 1
v -3 0 1
v -2 0 1
v 1 0 1
v 2 0 1
v 4 0 1
v 5 0 1
v 7 0 1
v 8 0 1
v -6 0 -0
v -5 0 -0
v -4 0 -0
v -3 0 -0
v -2 0 -0
v 1 0 -0
v 2 0 -0
v 7 0 -0
v 8 0 -0
v -6 0 -1
v -5 0 -1
v -4 0 -1
v -2 0 -1
v 1 0 -1
v 2 0 -1
v 4 0 -1
v 5 0 -1
v -8 0 -2
v -7 0 -2
v -6 0 -2
v -4 0 -2
v -3 0 -2
v 1 0 -2
v 2 0 -2
v 4 0 -2
v 5 0 -2
v -8 0 -3
v -7 0 -3
v -6 0 -3
v -5 0 -3
v -4 0 -3
v -3 0 -3
v -1 0 -3
v 0 0 -3
v 3 0 -3
v 4 0 -3
v 5 0 -3
v 6 0 -3
v -6 0 -4
v -5 0 -4
v -4 0 -4
v -3 0 -4
v -1 0 -4
v 0 0 -4
v 2 0 -4
v 3 0 -4
v 4 0 -4
v 5 0 -4
v 6 0 -4
v -4 0 -5
v -3 0 -5
v 2 0 -5
v 3 0 -5
v 4 0 -5
v 5 0 -5
v 6 0 -5
v -6 0 -6
v -5 0 -6
v -4 0 -6
v -3 0 -6
v -2 0 -6
v 0 0 -6
v 1 0 -6
v 2 0 -6
v 3 0 -6
v 4 0 -6
v -6 0 -7
v -5 0 -7
v -4 0 -7
v -3 0 -7
v -2 0 -7
v -1 0 -7
v 0 0 -7
v 1 0 -7
v 2 0 -7
v -8 0 -8
v -1 0 -8
v 0 0 -8
v 1 0 -8
v 8 0 -8
v -8 1 8
v -7 1 8
v -6 1 8
v -2 1 8
v 0 1 8
v 8 1 8
v -7 1 7
v -6 1 7
v -5 1 7
v -2 1 7
v -1 1 7
v 0 1 7
v 2 1 7
v 3 1 7
v 4 1 7
v 5 1 7
v 6 1 7
v -7 1 6
v -6 1 6
v -5 1 6
v -1 1 6
v 0 1 6
v 2 1 6
v 3 1 6
v 4 1 6
v 5 1 6
v 6 1 6
v -7 1 5
v -6 1 5
v -5 1 5
v -4 1 5
v -1 1 5
v 0 1 5
v 3 1 5
v 4 1 5
v 5 1 5
v 6 1 5
v -5 1 4
v -4 1 4
v -3 1 4
v -1 1 4
v 0 1 4
v 4 1 4
v 5 1 4
v 6 1 4
v -6 1 3
v -5 1 3
v -4 1 3
v -3 1 3
v 0 1 3
v 1 1 3
v 4 1 3
v 5 1 3
v -6 1 2
v -5 1 2
v -4 1 2
v -3 1 2
v -2 1 2
v 0 1 2
v 1 1 2
v -6 1 1
v -4 1 1
v -3 1 1
v -2 1 1
v 1 1 1
v 2 1 1
v 4 1 1
v 5 1 1
v 7 1 1
v 8 1 1
v -6 1 -0
v -5 1 -0
v -4 1 -0
v -3 1 -0
v -2 1 -0
v 1 1 -0
v 2 1 -0
v 7 1 -0
v 8 1 -0
v -6 1 -1
v -5 1 -1
v -4 1 -1
v -2 1 -1
v 1 1 -1
v 2 1 -1
v 4 1 -1
v 5 1 -1
v -8 1 -2
v -7 1 -2
v -6 1 -2
v -4 1 -2
v -3 1 -2
v 1 1 -2
v 2 1 -2
v 4 1 -2
v 5 1 -2
v -8 1 -3
v -7 1 -3
v -6 1 -3
v -5 1 -3
v -4 1 -3
v -3 1 -3
v -1 1 -3
v 0 1 -3
v 3 1 -3
v 4 1 -3
v 5 1 -3
v 6 1 -3
v -6 1 -4
v -5 1 -4
v -4 1 -4
v -3 1 -4
v -1 1 -4
v 0 1 -4
v 2 1 -4
v 3 1 -4
v 4 1 -4
v 5 1 -4
v 6 1 -4
v -4 1 -5
v -3 1 -5
v 2 1 -5
v 3 1 -5
v 4 1 -5
v 5 1 -5
v 6 1 -5
v -6 1 -6
v -5 1 -6
v -4 1 -6
v -3 1 -6
v -2 1 -6
v 0 1 -6
v 1 1 -6
v 2 1 -6
v 3 1 -6
v 4 1 -6
v -6 1 -7
v -5 1 -7
v -4 1 -7
v -3 1 -7
v -2 1 -7
v -1 1 -7
v 0 1 -7
v 1 1 -7
v 2 1 -7
v -8 1 -8
v -1 1 -8
v 0 1 -8
v 1 1 -8
v 8 1 -8

# faces
f 5/2/1 2/2/1 1/2/1
f 6/5/1 3/5/1 2/5/1
f 6/2/1 2/2/1 5/2/1
f 7/2/1 4/2/1 3/2/1
f 7/5/1 3/5/1 6/5/1
f 8/2/1 4/2/1 7/2/1
f 9/2/2 10/2/2 13/2/2
f 10/5/2 11/5/2 14/5/2
f 13/2/2 10/2/2 14/2/2
f 11/2/2 12/2/2 15/2/2
f 14/5/2 11/5/2 15/5/2
f 15/2/2 12/2/2 16/2/2
f 19/2/3 18/2/3 17/2/3
f 20/2/3 18/2/3 19/2/3
f 21/4/3 20/4/3 19/4/3
f 22/4/3 20/4/3 21/4/3
f 23/2/3 22/2/3 21/2/3
f 24/2/3 22/2/3 23/2/3
f 25/1/3 24/1/3 23/1/3
f 26/1/3 24/1/3 25/1/3
f 27/2/3 26/2/3 25/2/3
f 28/2/3 26/2/3 27/2/3
f 29/2/4 30/2/4 31/2/4
f 31/2/4 30/2/4 32/2/4
f 31/4/4 32/4/4 33/4/4
f 33/4/4 32/4/4 34/4/4
f 33/3/4 34/3/4 35/3/4
f 35/3/4 34/3/4 36/3/4
f 35/2/4 36/2/4 37/2/4
f 37/2/4 36/2/4 38/2/4
f 45/2/5 40/2/5 39/2/5
f 45/4/5 41/4/5 40/4/5
f 46/2/5 42/2/5 41/2/5
f 46/4/5 41/4/5 45/4/5
f 47/2/5 42/2/5 46/2/5
f 48/1/5 43/1/5 42/1/5
f 48/2/5 42/2/5 47/2/5
f 49/1/5 43/1/5 48/1/5
f 50/2/5 44/2/5 43/2/5
f 50/1/5 43/1/5 49/1/5
f 51/2/5 44/2/5 50/2/5
f 52/2/5 44/2/5 51/2/5
f 53/2/5 44/2/5 52/2/5
f 54/2/5 44/2/5 53/2/5
f 55/2/5 44/2/5 54/2/5
f 56/2/5 45/2/5 39/2/5
f 56/2/5 46/2/5 45/2/5
f 57/1/5 47/1/5 46/1/5
f 57/2/5 46/2/5 56/2/5
f 58/2/5 49/2/5 48/2/5
f 58/1/5 47/1/5 57/1/5
f 58/2/5 48/2/5 47/2/5
f 59/5/5 50/5/5 49/5/5
f 59/2/5 49/2/5 58/2/5
f 60/2/5 51/2/5 50/2/5
f 60/5/5 50/5/5 59/5/5
f 61/3/5 52/3/5 51/3/5
f 61/2/5 51/2/5 60/2/5
f 62/2/5 53/2/5 52/2/5
f 62/3/5 52/3/5 61/3/5
f 63/4/5 54/4/5 53/4/5
f 63/2/5 53/2/5 62/2/5
f 64/6/5 55/6/5 54/6/5
f 64/4/5 54/4/5 63/4/5
f 65/2/5 44/2/5 55/2/5
f 65/6/5 55/6/5 64/6/5
f 66/3/5 57/3/5 56/3/5
f 66/2/5 56/2/5 39/2/5
f 67/2/5 62/2/5 61/2/5
f 67/3/5 57/3/5 66/3/5
f 67/2/5 58/2/5 57/2/5
f 67/2/5 61/2/5 60/2/5
f 67/2/5 60/2/5 59/2/5
f 67/2/5 59/2/5 58/2/5
f 68/2/5 62/2/5 67/2/5
f 69/2/5 62/2/5 68/2/5
f 70/2/5 62/2/5 69/2/5
f 71/2/5 62/2/5 70/2/5
f 72/1/5 63/1/5 62/1/5
f 72/2/5 62/2/5 71/2/5
f 73/2/5 65/2/5 64/2/5
f 73/1/5 63/1/5 72/1/5
f 73/2/5 64/2/5 63/2/5
f 74/2/5 65/2/5 73/2/5
f 75/2/5 44/2/5 65/2/5
f 75/2/5 65/2/5 74/2/5
f 76/2/5 67/2/5 66/2/5
f 76/2/5 68/2/5 67/2/5
f 76/6/5 69/6/5 68/6/5
f 77/2/5 70/2/5 69/2/5
f 77/6/5 69/6/5 76/6/5
f 78/2/5 70/2/5 77/2/5
f 79/4/5 71/4/5 70/4/5
f 79/2/5 70/2/5 78/2/5
f 80/2/5 74/2/5 73/2/5
f 80/4/5 71/4/5 79/4/5
f 80/2/5 72/2/5 71/2/5
f 80/2/5 73/2/5 72/2/5
f 81/2/5 74/2/5 80/2/5
f 82/1/5 75/1/5 74/1/5
f 82/2/5 74/2/5 81/2/5
f 83/2/5 44/2/5 75/2/5
f 83/1/5 75/1/5 82/1/5
f 84/2/5 77/2/5 76/2/5
f 84/2/5 76/2/5 66/2/5
f 85/2/5 77/2/5 84/2/5
f 86/3/5 78/3/5 77/3/5
f 86/2/5 77/2/5 85/2/5
f 87/2/5 79/2/5 78/2/5
f 87/3/5 78/3/5 86/3/5
f 87/2/5 81/2/5 80/2/5
f 87/2/5 80/2/5 79/2/5
f 88/2/5 81/2/5 87/2/5
f 89/2/5 81/2/5 88/2/5
f 90/4/5 82/4/5 81/4/5
f 90/2/5 81/2/5 89/2/5
f 91/2/5 83/2/5 82/2/5
f 91/4/5 82/4/5 90/4/5
f 92/4/5 85/4/5 84/4/5
f 92/2/5 84/2/5 66/2/5
f 93/2/5 86/2/5 85/2/5
f 93/4/5 85/4/5 92/4/5
f 93/2/5 87/2/5 86/2/5
f 93/2/5 88/2/5 87/2/5
f 94/2/5 88/2/5 93/2/5
f 95/2/5 88/2/5 94/2/5
f 96/2/5 88/2/5 95/2/5
f 97/5/5 89/5/5 88/5/5
f 97/2/5 88/2/5 96/2/5
f 98/2/5 90/2/5 89/2/5
f 98/5/5 89/5/5 97/5/5
f 98/2/5 91/2/5 90/2/5
f 99/2/5 92/2/5 66/2/5
f 99/1/5 93/1/5 92/1/5
f 99/1/5 94/1/5 93/1/5
f 100/6/5 95/6/5 94/6/5
f 100/1/5 94/1/5 99/1/5
f 101/5/5 96/5/5 95/5/5
f 101/6/5 95/6/5 100/6/5
f 102/2/5 97/2/5 96/2/5
f 102/5/5 96/5/5 101/5/5
f 102/2/5 98/2/5 97/2/5
f 103/2/5 91/2/5 98/2/5
f 103/2/5 98/2/5 102/2/5
f 104/2/5 91/2/5 103/2/5
f 105/2/5 91/2/5 104/2/5
f 106/2/5 83/2/5 91/2/5
f 106/2/5 91/2/5 105/2/5
f 107/2/5 44/2/5 83/2/5
f 107/2/5 83/2/5 106/2/5
f 108/2/5 44/2/5 107/2/5
f 109/2/5 100/2/5 99/2/5
f 109/2/5 99/2/5 66/2/5
f 110/2/5 100/2/5 109/2/5
f 111/5/5 101/5/5 100/5/5
f 111/2/5 100/2/5 110/2/5
f 112/6/5 102/6/5 101/6/5
f 112/5/5 101/5/5 111/5/5
f 113/2/5 103/2/5 102/2/5
f 113/6/5 102/6/5 112/6/5
f 114/1/5 104/1/5 103/1/5
f 114/2/5 103/2/5 113/2/5
f 115/2/5 105/2/5 104/2/5
f 115/1/5 104/1/5 114/1/5
f 116/5/5 108/5/5 107/5/5
f 116/2/5 107/2/5 106/2/5
f 117/5/5 108/5/5 116/5/5
f 118/3/5 110/3/5 109/3/5
f 118/2/5 109/2/5 66/2/5
f 119/2/5 111/2/5 110/2/5
f 119/3/5 110/3/5 118/3/5
f 120/1/5 112/1/5 111/1/5
f 120/2/5 111/2/5 119/2/5
f 120/1/5 113/1/5 112/1/5
f 121/2/5 114/2/5 113/2/5
f 121/1/5 113/1/5 120/1/5
f 122/3/5 115/3/5 114/3/5
f 122/2/5 114/2/5 121/2/5
f 123/2/5 105/2/5 115/2/5
f 123/3/5 115/3/5 122/3/5
f 124/6/5 106/6/5 105/6/5
f 124/2/5 105/2/5 123/2/5
f 125/2/5 116/2/5 106/2/5
f 125/6/5 106/6/5 124/6/5
f 125/2/5 117/2/5 116/2/5
f 126/2/5 118/2/5 66/2/5
f 126/2/5 120/2/5 119/2/5
f 126/2/5 66/2/5 39/2/5
f 126/2/5 121/2/5 120/2/5
f 126/2/5 122/2/5 121/2/5
f 126/2/5 119/2/5 118/2/5
f 127/2/5 122/2/5 126/2/5
f 128/2/5 122/2/5 127/2/5
f 129/2/5 122/2/5 128/2/5
f 130/2/5 122/2/5 129/2/5
f 131/6/5 123/6/5 122/6/5
f 131/2/5 122/2/5 130/2/5
f 132/2/5 125/2/5 124/2/5
f 132/6/5 123/6/5 131/6/5
f 132/2/5 124/2/5 123/2/5
f 133/2/5 125/2/5 132/2/5
f 134/2/5 117/2/5 125/2/5
f 134/2/5 125/2/5 133/2/5
f 135/5/5 127/5/5 126/5/5
f 136/2/5 128/2/5 127/2/5
f 136/5/5 127/5/5 135/5/5
f 137/4/5 129/4/5 128/4/5
f 137/2/5 128/2/5 136/2/5
f 138/4/5 129/4/5 137/4/5
f 139/5/5 130/5/5 129/5/5
f 139/4/5 129/4/5 138/4/5
f 140/2/5 133/2/5 132/2/5
f 140/5/5 130/5/5 139/5/5
f 140/2/5 131/2/5 130/2/5
f 140/2/5 132/2/5 131/2/5
f 141/2/5 133/2/5 140/2/5
f 142/2/5 133/2/5 141/2/5
f 143/2/5 133/2/5 142/2/5
f 144/6/5 134/6/5 133/6/5
f 144/2/5 133/2/5 143/2/5
f 145/2/5 117/2/5 134/2/5
f 145/6/5 134/6/5 144/6/5
f 146/2/5 117/2/5 145/2/5
f 147/6/5 138/6/5 137/6/5
f 147/2/5 137/2/5 136/2/5
f 147/2/5 136/2/5 135/2/5
f 148/4/5 139/4/5 138/4/5
f 148/6/5 138/6/5 147/6/5
f 149/2/5 140/2/5 139/2/5
f 149/4/5 139/4/5 148/4/5
f 149/2/5 141/2/5 140/2/5
f 150/2/5 141/2/5 149/2/5
f 151/1/5 142/1/5 141/1/5
f 151/2/5 141/2/5 150/2/5
f 152/2/5 143/2/5 142/2/5
f 152/1/5 142/1/5 151/1/5
f 153/2/5 143/2/5 152/2/5
f 154/3/5 144/3/5 143/3/5
f 154/2/5 143/2/5 153/2/5
f 155/1/5 146/1/5 145/1/5
f 155/3/5 144/3/5 154/3/5
f 155/1/5 145/1/5 144/1/5
f 156/1/5 146/1/5 155/1/5
f 157/2/5 117/2/5 146/2/5
f 157/1/5 146/1/5 156/1/5
f 158/2/5 148/2/5 147/2/5
f 158/3/5 150/3/5 149/3/5
f 158/2/5 149/2/5 148/2/5
f 159/2/5 152/2/5 151/2/5
f 159/3/5 150/3/5 158/3/5
f 159/2/5 153/2/5 152/2/5
f 159/2/5 151/2/5 150/2/5
f 160/4/5 154/4/5 153/4/5
f 160/2/5 153/2/5 159/2/5
f 161/2/5 156/2/5 155/2/5
f 161/4/5 154/4/5 160/4/5
f 161/2/5 155/2/5 154/2/5
f 162/2/5 156/2/5 161/2/5
f 163/3/5 157/3/5 156/3/5
f 163/2/5 156/2/5 162/2/5
f 164/2/5 117/2/5 157/2/5
f 164/3/5 157/3/5 163/3/5
f 165/2/5 147/2/5 135/2/5
f 165/2/5 160/2/5 159/2/5
f 165/2/5 159/2/5 158/2/5
f 165/2/5 161/2/5 160/2/5
f 165/2/5 158/2/5 147/2/5
f 166/2/5 161/2/5 165/2/5
f 167/2/5 161/2/5 166/2/5
f 168/2/5 161/2/5 167/2/5
f 169/2/5 161/2/5 168/2/5
f 170/2/5 161/2/5 169/2/5
f 171/2/5 161/2/5 170/2/5
f 172/2/5 161/2/5 171/2/5
f 173/6/5 162/6/5 161/6/5
f 173/2/5 161/2/5 172/2/5
f 174/2/5 164/2/5 163/2/5
f 174/6/5 162/6/5 173/6/5
f 174/2/5 163/2/5 162/2/5
f 175/2/5 165/2/5 135/2/5
f 175/5/5 166/5/5 165/5/5
f 176/2/5 167/2/5 166/2/5
f 176/5/5 166/5/5 175/5/5
f 177/1/5 168/1/5 167/1/5
f 177/2/5 167/2/5 176/2/5
f 178/2/5 169/2/5 168/2/5
f 178/1/5 168/1/5 177/1/5
f 179/1/5 170/1/5 169/1/5
f 179/2/5 169/2/5 178/2/5
f 180/1/5 170/1/5 179/1/5
f 181/3/5 171/3/5 170/3/5
f 181/1/5 170/1/5 180/1/5
f 182/4/5 172/4/5 171/4/5
f 182/3/5 171/3/5 181/3/5
f 183/2/5 173/2/5 172/2/5
f 183/4/5 172/4/5 182/4/5
f 183/2/5 174/2/5 173/2/5
f 184/2/5 180/2/5 179/2/5
f 184/2/5 179/2/5 178/2/5
f 184/2/5 175/2/5 135/2/5
f 184/2/5 178/2/5 177/2/5
f 184/2/5 177/2/5 176/2/5
f 184/2/5 176/2/5 175/2/5
f 185/4/5 181/4/5 180/4/5
f 185/2/5 180/2/5 184/2/5
f 186/3/5 182/3/5 181/3/5
f 186/4/5 181/4/5 185/4/5
f 187/2/5 183/2/5 182/2/5
f 187/3/5 182/3/5 186/3/5
f 188/2/5 117/2/5 164/2/5
f 188/2/5 183/2/5 187/2/5
f 188/2/5 174/2/5 183/2/5
f 188/2/5 164/2/5 174/2/5
f 189/2/6 190/2/6 195/2/6
f 190/4/6 191/4/6 195/4/6
f 191/2/6 192/2/6 196/2/6
f 195/4/6 191/4/6 196/4/6
f 196/2/6 192/2/6 197/2/6
f 192/1/6 193/1/6 198/1/6
f 197/2/6 192/2/6 198/2/6
f 198/1/6 193/1/6 199/1/6
f 193/2/6 194/2/6 200/2/6
f 199/1/6 193/1/6 200/1/6
f 200/2/6 194/2/6 201/2/6
f 201/2/6 194/2/6 202/2/6
f 202/2/6 194/2/6 203/2/6
f 203/2/6 194/2/6 204/2/6
f 204/2/6 194/2/6 205/2/6
f 189/2/6 195/2/6 206/2/6
f 195/2/6 196/2/6 206/2/6
f 196/1/6 197/1/6 207/1/6
f 206/2/6 196/2/6 207/2/6
f 198/2/6 199/2/6 208/2/6
f 207/1/6 197/1/6 208/1/6
f 197/2/6 198/2/6 208/2/6
f 199/5/6 200/5/6 209/5/6
f 208/2/6 199/2/6 209/2/6
f 200/2/6 201/2/6 210/2/6
f 209/5/6 200/5/6 210/5/6
f 201/3/6 202/3/6 211/3/6
f 210/2/6 201/2/6 211/2/6
f 202/2/6 203/2/6 212/2/6
f 211/3/6 202/3/6 212/3/6
f 203/4/6 204/4/6 213/4/6
f 212/2/6 203/2/6 213/2/6
f 204/6/6 205/6/6 214/6/6
f 213/4/6 204/4/6 214/4/6
f 205/2/6 194/2/6 215/2/6
f 214/6/6 205/6/6 215/6/6
f 206/3/6 207/3/6 216/3/6
f 189/2/6 206/2/6 216/2/6
f 211/2/6 212/2/6 217/2/6
f 216/3/6 207/3/6 217/3/6
f 207/2/6 208/2/6 217/2/6
f 210/2/6 211/2/6 217/2/6
f 209/2/6 210/2/6 217/2/6
f 208/2/6 209/2/6 217/2/6
f 217/2/6 212/2/6 218/2/6
f 218/2/6 212/2/6 219/2/6
f 219/2/6 212/2/6 220/2/6
f 220/2/6 212/2/6 221/2/6
f 212/1/6 213/1/6 222/1/6
f 221/2/6 212/2/6 222/2/6
f 214/2/6 215/2/6 223/2/6
f 222/1/6 213/1/6 223/1/6
f 213/2/6 214/2/6 223/2/6
f 223/2/6 215/2/6 224/2/6
f 215/2/6 194/2/6 225/2/6
f 224/2/6 215/2/6 225/2/6
f 216/2/6 217/2/6 226/2/6
f 217/2/6 218/2/6 226/2/6
f 218/6/6 219/6/6 226/6/6
f 219/2/6 220/2/6 227/2/6
f 226/6/6 219/6/6 227/6/6
f 227/2/6 220/2/6 228/2/6
f 220/4/6 221/4/6 229/4/6
f 228/2/6 220/2/6 229/2/6
f 223/2/6 224/2/6 230/2/6
f 229/4/6 221/4/6 230/4/6
f 221/2/6 222/2/6 230/2/6
f 222/2/6 223/2/6 230/2/6
f 230/2/6 224/2/6 231/2/6
f 224/1/6 225/1/6 232/1/6
f 231/2/6 224/2/6 232/2/6
f 225/2/6 194/2/6 233/2/6
f 232/1/6 225/1/6 233/1/6
f 226/2/6 227/2/6 234/2/6
f 216/2/6 226/2/6 234/2/6
f 234/2/6 227/2/6 235/2/6
f 227/3/6 228/3/6 236/3/6
f 235/2/6 227/2/6 236/2/6
f 228/2/6 229/2/6 237/2/6
f 236/3/6 228/3/6 237/3/6
f 230/2/6 231/2/6 237/2/6
f 229/2/6 230/2/6 237/2/6
f 237/2/6 231/2/6 238/2/6
f 238/2/6 231/2/6 239/2/6
f 231/4/6 232/4/6 240/4/6
f 239/2/6 231/2/6 240/2/6
f 232/2/6 233/2/6 241/2/6
f 240/4/6 232/4/6 241/4/6
f 234/4/6 235/4/6 242/4/6
f 216/2/6 234/2/6 242/2/6
f 235/2/6 236/2/6 243/2/6
f 242/4/6 235/4/6 243/4/6
f 236/2/6 237/2/6 243/2/6
f 237/2/6 238/2/6 243/2/6
f 243/2/6 238/2/6 244/2/6
f 244/2/6 238/2/6 245/2/6
f 245/2/6 238/2/6 246/2/6
f 238/5/6 239/5/6 247/5/6
f 246/2/6 238/2/6 247/2/6
f 239/2/6 240/2/6 248/2/6
f 247/5/6 239/5/6 248/5/6
f 240/2/6 241/2/6 248/2/6
f 216/2/6 242/2/6 249/2/6
f 242/1/6 243/1/6 249/1/6
f 243/1/6 244/1/6 249/1/6
f 244/6/6 245/6/6 250/6/6
f 249/1/6 244/1/6 250/1/6
f 245/5/6 246/5/6 251/5/6
f 250/6/6 245/6/6 251/6/6
f 246/2/6 247/2/6 252/2/6
f 251/5/6 246/5/6 252/5/6
f 247/2/6 248/2/6 252/2/6
f 248/2/6 241/2/6 253/2/6
f 252/2/6 248/2/6 253/2/6
f 253/2/6 241/2/6 254/2/6
f 254/2/6 241/2/6 255/2/6
f 241/2/6 233/2/6 256/2/6
f 255/2/6 241/2/6 256/2/6
f 233/2/6 194/2/6 257/2/6
f 256/2/6 233/2/6 257/2/6
f 257/2/6 194/2/6 258/2/6
f 249/2/6 250/2/6 259/2/6
f 216/2/6 249/2/6 259/2/6
f 259/2/6 250/2/6 260/2/6
f 250/5/6 251/5/6 261/5/6
f 260/2/6 250/2/6 261/2/6
f 251/6/6 252/6/6 262/6/6
f 261/5/6 251/5/6 262/5/6
f 252/2/6 253/2/6 263/2/6
f 262/6/6 252/6/6 263/6/6
f 253/1/6 254/1/6 264/1/6
f 263/2/6 253/2/6 264/2/6
f 254/2/6 255/2/6 265/2/6
f 264/1/6 254/1/6 265/1/6
f 257/5/6 258/5/6 266/5/6
f 256/2/6 257/2/6 266/2/6
f 266/5/6 258/5/6 267/5/6
f 259/3/6 260/3/6 268/3/6
f 216/2/6 259/2/6 268/2/6
f 260/2/6 261/2/6 269/2/6
f 268/3/6 260/3/6 269/3/6
f 261/1/6 262/1/6 270/1/6
f 269/2/6 261/2/6 270/2/6
f 262/1/6 263/1/6 270/1/6
f 263/2/6 264/2/6 271/2/6
f 270/1/6 263/1/6 271/1/6
f 264/3/6 265/3/6 272/3/6
f 271/2/6 264/2/6 272/2/6
f 265/2/6 255/2/6 273/2/6
f 272/3/6 265/3/6 273/3/6
f 255/6/6 256/6/6 274/6/6
f 273/2/6 255/2/6 274/2/6
f 256/2/6 266/2/6 275/2/6
f 274/6/6 256/6/6 275/6/6
f 266/2/6 267/2/6 275/2/6
f 216/2/6 268/2/6 276/2/6
f 269/2/6 270/2/6 276/2/6
f 189/2/6 216/2/6 276/2/6
f 270/2/6 271/2/6 276/2/6
f 271/2/6 272/2/6 276/2/6
f 268/2/6 269/2/6 276/2/6
f 276/2/6 272/2/6 277/2/6
f 277/2/6 272/2/6 278/2/6
f 278/2/6 272/2/6 279/2/6
f 279/2/6 272/2/6 280/2/6
f 272/6/6 273/6/6 281/6/6
f 280/2/6 272/2/6 281/2/6
f 274/2/6 275/2/6 282/2/6
f 281/6/6 273/6/6 282/6/6
f 273/2/6 274/2/6 282/2/6
f 282/2/6 275/2/6 283/2/6
f 275/2/6 267/2/6 284/2/6
f 283/2/6 275/2/6 284/2/6
f 276/5/6 277/5/6 285/5/6
f 277/2/6 278/2/6 286/2/6
f 285/5/6 277/5/6 286/5/6
f 278/4/6 279/4/6 287/4/6
f 286/2/6 278/2/6 287/2/6
f 287/4/6 279/4/6 288/4/6
f 279/5/6 280/5/6 289/5/6
f 288/4/6 279/4/6 289/4/6
f 282/2/6 283/2/6 290/2/6
f 289/5/6 280/5/6 290/5/6
f 280/2/6 281/2/6 290/2/6
f 281/2/6 282/2/6 290/2/6
f 290/2/6 283/2/6 291/2/6
f 291/2/6 283/2/6 292/2/6
f 292/2/6 283/2/6 293/2/6
f 283/6/6 284/6/6 294/6/6
f 293/2/6 283/2/6 294/2/6
f 284/2/6 267/2/6 295/2/6
f 294/6/6 284/6/6 295/6/6
f 295/2/6 267/2/6 296/2/6
f 287/6/6 288/6/6 297/6/6
f 286/2/6 287/2/6 297/2/6
f 285/2/6 286/2/6 297/2/6
f 288/4/6 289/4/6 298/4/6
f 297/6/6 288/6/6 298/6/6
f 289/2/6 290/2/6 299/2/6
f 298/4/6 289/4/6 299/4/6
f 290/2/6 291/2/6 299/2/6
f 299/2/6 291/2/6 300/2/6
f 291/1/6 292/1/6 301/1/6
f 300/2/6 291/2/6 301/2/6
f 292/2/6 293/2/6 302/2/6
f 301/1/6 292/1/6 302/1/6
f 302/2/6 293/2/6 303/2/6
f 293/3/6 294/3/6 304/3/6
f 303/2/6 293/2/6 304/2/6
f 295/1/6 296/1/6 305/1/6
f 304/3/6 294/3/6 305/3/6
f 294/1/6 295/1/6 305/1/6
f 305/1/6 296/1/6 306/1/6
f 296/2/6 267/2/6 307/2/6
f 306/1/6 296/1/6 307/1/6
f 297/2/6 298/2/6 308/2/6
f 299/3/6 300/3/6 308/3/6
f 298/2/6 299/2/6 308/2/6
f 301/2/6 302/2/6 309/2/6
f 308/3/6 300/3/6 309/3/6
f 302/2/6 303/2/6 309/2/6
f 300/2/6 301/2/6 309/2/6
f 303/4/6 304/4/6 310/4/6
f 309/2/6 303/2/6 310/2/6
f 305/2/6 306/2/6 311/2/6
f 310/4/6 304/4/6 311/4/6
f 304/2/6 305/2/6 311/2/6
f 311/2/6 306/2/6 312/2/6
f 306/3/6 307/3/6 313/3/6
f 312/2/6 306/2/6 313/2/6
f 307/2/6 267/2/6 314/2/6
f 313/3/6 307/3/6 314/3/6
f 285/2/6 297/2/6 315/2/6
f 309/2/6 310/2/6 315/2/6
f 308/2/6 309/2/6 315/2/6
f 310/2/6 311/2/6 315/2/6
f 297/2/6 308/2/6 315/2/6
f 315/2/6 311/2/6 316/2/6
f 316/2/6 311/2/6 317/2/6
f 317/2/6 311/2/6 318/2/6
f 318/2/6 311/2/6 319/2/6
f 319/2/6 311/2/6 320/2/6
f 320/2/6 311/2/6 321/2/6
f 321/2/6 311/2/6 322/2/6
f 311/6/6 312/6/6 323/6/6
f 322/2/6 311/2/6 323/2/6
f 313/2/6 314/2/6 324/2/6
f 323/6/6 312/6/6 324/6/6
f 312/2/6 313/2/6 324/2/6
f 285/2/6 315/2/6 325/2/6
f 315/5/6 316/5/6 325/5/6
f 316/2/6 317/2/6 326/2/6
f 325/5/6 316/5/6 326/5/6
f 317/1/6 318/1/6 327/1/6
f 326/2/6 317/2/6 327/2/6
f 318/2/6 319/2/6 328/2/6
f 327/1/6 318/1/6 328/1/6
f 319/1/6 320/1/6 329/1/6
f 328/2/6 319/2/6 329/2/6
f 329/1/6 320/1/6 330/1/6
f 320/3/6 321/3/6 331/3/6
f 330/1/6 320/1/6 331/1/6
f 321/4/6 322/4/6 332/4/6
f 331/3/6 321/3/6 332/3/6
f 322/2/6 323/2/6 333/2/6
f 332/4/6 322/4/6 333/4/6
f 323/2/6 324/2/6 333/2/6
f 329/2/6 330/2/6 334/2/6
f 328/2/6 329/2/6 334/2/6
f 285/2/6 325/2/6 334/2/6
f 327/2/6 328/2/6 334/2/6
f 326/2/6 327/2/6 334/2/6
f 325/2/6 326/2/6 334/2/6
f 330/4/6 331/4/6 335/4/6
f 334/2/6 330/2/6 335/2/6
f 331/3/6 332/3/6 336/3/6
f 335/4/6 331/4/6 336/4/6
f 332/2/6 333/2/6 337/2/6
f 336/3/6 332/3/6 337/3/6
f 314/2/6 267/2/6 338/2/6
f 337/2/6 333/2/6 338/2/6
f 333/2/6 324/2/6 338/2/6
f 324/2/6 314/2/6 338/2/6
