# MagicaVoxel @ Ephtracy

# group
g h

# material
mtllib h.mtl
usemtl palette

# normals
vn -1 0 0
vn 1 0 0
vn 0 0 1
vn 0 0 -1
vn 0 -1 0
vn 0 1 0

# texcoords
vt 0.931641 0.5
vt 0.994141 0.5

# verts
v -3 0 -2
v -3 0 -3
v -3 8 -2
v -3 8 -3
v -2 1 -1
v -2 1 -2
v -2 1 -3
v -2 1 -4
v -2 7 -1
v -2 7 -2
v -2 7 -3
v -2 7 -4
v -1 1 -2
v -1 1 -3
v -1 3 -2
v -1 3 -3
v -1 5 -2
v -1 5 -3
v -1 7 -2
v -1 7 -3
v 1 1 -1
v 1 1 -2
v 1 1 -3
v 1 1 -4
v 1 3 -1
v 1 3 -2
v 1 3 -3
v 1 3 -4
v 1 5 -1
v 1 5 -2
v 1 5 -3
v 1 5 -4
v 1 7 -1
v 1 7 -2
v 1 7 -3
v 1 7 -4
v 2 1 -2
v 2 1 -3
v 2 7 -2
v 2 7 -3
v -2 1 -2
v -2 1 -3
v -2 7 -2
v -2 7 -3
v -1 1 -1
v -1 1 -2
v -1 1 -3
v -1 1 -4
v -1 3 -1
v -1 3 -2
v -1 3 -3
v -1 3 -4
v -1 5 -1
v -1 5 -2
v -1 5 -3
v -1 5 -4
v -1 7 -1
v -1 7 -2
v -1 7 -3
v -1 7 -4
v 1 1 -2
v 1 1 -3
v 1 3 -2
v 1 3 -3
v 1 5 -2
v 1 5 -3
v 1 7 -2
v 1 7 -3
v 2 1 -1
v 2 1 -2
v 2 1 -3
v 2 1 -4
v 2 7 -1
v 2 7 -2
v 2 7 -3
v 2 7 -4
v 3 0 -2
v 3 0 -3
v 3 8 -2
v 3 8 -3
v -2 1 -1
v -2 7 -1
v -1 1 -1
v -1 3 -1
v -1 5 -1
v -1 7 -1
v 1 1 -1
v 1 3 -1
v 1 5 -1
v 1 7 -1
v 2 1 -1
v 2 7 -1
v -3 0 -2
v -3 8 -2
v -2 1 -2
v -2 7 -2
v -1 1 -2
v -1 3 -2
v -1 5 -2
v -1 7 -2
v 1 1 -2
v 1 3 -2
v 1 5 -2
v 1 7 -2
v 2 1 -2
v 2 7 -2
v 3 0 -2
v 3 8 -2
v -2 1 -3
v -2 7 -3
v -1 1 -3
v -1 3 -3
v -1 5 -3
v -1 7 -3
v 1 1 -3
v 1 3 -3
v 1 5 -3
v 1 7 -3
v 2 1 -3
v 2 7 -3
v -2 1 -2
v -2 7 -2
v -1 1 -2
v -1 3 -2
v -1 5 -2
v -1 7 -2
v 1 1 -2
v 1 3 -2
v 1 5 -2
v 1 7 -2
v 2 1 -2
v 2 7 -2
v -3 0 -3
v -3 8 -3
v -2 1 -3
v -2 7 -3
v -1 1 -3
v -1 3 -3
v -1 5 -3
v -1 7 -3
v 1 1 -3
v 1 3 -3
v 1 5 -3
v 1 7 -3
v 2 1 -3
v 2 7 -3
v 3 0 -3
v 3 8 -3
v -2 1 -4
v -2 7 -4
v -1 1 -4
v -1 3 -4
v -1 5 -4
v -1 7 -4
v 1 1 -4
v 1 3 -4
v 1 5 -4
v 1 7 -4
v 2 1 -4
v 2 7 -4
v -3 0 -2
v 3 0 -2
v -3 0 -3
v 3 0 -3
v -2 1 -1
v -1 1 -1
v 1 1 -1
v 2 1 -1
v -2 1 -2
v -1 1 -2
v 1 1 -2
v 2 1 -2
v -2 1 -3
v -1 1 -3
v 1 1 -3
v 2 1 -3
v -2 1 -4
v -1 1 -4
v 1 1 -4
v 2 1 -4
v -1 3 -1
v 1 3 -1
v -1 3 -2
v 1 3 -2
v -1 3 -3
v 1 3 -3
v -1 3 -4
v 1 3 -4
v -1 5 -2
v 1 5 -2
v -1 5 -3
v 1 5 -3
v -2 7 -2
v -1 7 -2
v 1 7 -2
v 2 7 -2
v -2 7 -3
v -1 7 -3
v 1 7 -3
v 2 7 -3
v -2 1 -2
v -1 1 -2
v 1 1 -2
v 2 1 -2
v -2 1 -3
v -1 1 -3
v 1 1 -3
v 2 1 -3
v -1 3 -2
v 1 3 -2
v -1 3 -3
v 1 3 -3
v -1 5 -1
v 1 5 -1
v -1 5 -2
v 1 5 -2
v -1 5 -3
v 1 5 -3
v -1 5 -4
v 1 5 -4
v -2 7 -1
v -1 7 -1
v 1 7 -1
v 2 7 -1
v -2 7 -2
v -1 7 -2
v 1 7 -2
v 2 7 -2
v -2 7 -3
v -1 7 -3
v 1 7 -3
v 2 7 -3
v -2 7 -4
v -1 7 -4
v 1 7 -4
v 2 7 -4
v -3 8 -2
v 3 8 -2
v -3 8 -3
v 3 8 -3

# faces
f 3/2/1 2/2/1 1/2/1
f 4/2/1 2/2/1 3/2/1
f 9/1/1 6/1/1 5/1/1
f 10/1/1 6/1/1 9/1/1
f 11/1/1 8/1/1 7/1/1
f 12/1/1 8/1/1 11/1/1
f 15/2/1 14/2/1 13/2/1
f 16/2/1 14/2/1 15/2/1
f 19/2/1 18/2/1 17/2/1
f 20/2/1 18/2/1 19/2/1
f 25/1/1 22/1/1 21/1/1
f 26/1/1 22/1/1 25/1/1
f 27/1/1 24/1/1 23/1/1
f 28/1/1 24/1/1 27/1/1
f 33/1/1 30/1/1 29/1/1
f 34/1/1 30/1/1 33/1/1
f 35/1/1 32/1/1 31/1/1
f 36/1/1 32/1/1 35/1/1
f 39/2/1 38/2/1 37/2/1
f 40/2/1 38/2/1 39/2/1
f 41/2/2 42/2/2 43/2/2
f 43/2/2 42/2/2 44/2/2
f 45/1/2 46/1/2 49/1/2
f 49/1/2 46/1/2 50/1/2
f 47/1/2 48/1/2 51/1/2
f 51/1/2 48/1/2 52/1/2
f 53/1/2 54/1/2 57/1/2
f 57/1/2 54/1/2 58/1/2
f 55/1/2 56/1/2 59/1/2
f 59/1/2 56/1/2 60/1/2
f 61/2/2 62/2/2 63/2/2
f 63/2/2 62/2/2 64/2/2
f 65/2/2 66/2/2 67/2/2
f 67/2/2 66/2/2 68/2/2
f 69/1/2 70/1/2 73/1/2
f 73/1/2 70/1/2 74/1/2
f 71/1/2 72/1/2 75/1/2
f 75/1/2 72/1/2 76/1/2
f 77/2/2 78/2/2 79/2/2
f 79/2/2 78/2/2 80/2/2
f 83/1/3 82/1/3 81/1/3
f 84/1/3 82/1/3 83/1/3
f 85/1/3 82/1/3 84/1/3
f 86/1/3 82/1/3 85/1/3
f 88/1/3 85/1/3 84/1/3
f 89/1/3 85/1/3 88/1/3
f 91/1/3 88/1/3 87/1/3
f 91/1/3 90/1/3 89/1/3
f 91/1/3 89/1/3 88/1/3
f 92/1/3 90/1/3 91/1/3
f 95/2/3 94/2/3 93/2/3
f 96/2/3 94/2/3 95/2/3
f 97/2/3 95/2/3 93/2/3
f 100/2/3 94/2/3 96/2/3
f 101/2/3 98/2/3 97/2/3
f 101/2/3 97/2/3 93/2/3
f 102/2/3 98/2/3 101/2/3
f 103/2/3 100/2/3 99/2/3
f 104/2/3 94/2/3 100/2/3
f 104/2/3 100/2/3 103/2/3
f 105/2/3 101/2/3 93/2/3
f 106/2/3 94/2/3 104/2/3
f 107/2/3 105/2/3 93/2/3
f 107/2/3 106/2/3 105/2/3
f 108/2/3 94/2/3 106/2/3
f 108/2/3 106/2/3 107/2/3
f 111/1/3 110/1/3 109/1/3
f 112/1/3 110/1/3 111/1/3
f 113/1/3 110/1/3 112/1/3
f 114/1/3 110/1/3 113/1/3
f 116/1/3 113/1/3 112/1/3
f 117/1/3 113/1/3 116/1/3
f 119/1/3 116/1/3 115/1/3
f 119/1/3 118/1/3 117/1/3
f 119/1/3 117/1/3 116/1/3
f 120/1/3 118/1/3 119/1/3
f 121/1/4 122/1/4 123/1/4
f 123/1/4 122/1/4 124/1/4
f 124/1/4 122/1/4 125/1/4
f 125/1/4 122/1/4 126/1/4
f 124/1/4 125/1/4 128/1/4
f 128/1/4 125/1/4 129/1/4
f 127/1/4 128/1/4 131/1/4
f 129/1/4 130/1/4 131/1/4
f 128/1/4 129/1/4 131/1/4
f 131/1/4 130/1/4 132/1/4
f 133/2/4 134/2/4 135/2/4
f 135/2/4 134/2/4 136/2/4
f 133/2/4 135/2/4 137/2/4
f 136/2/4 134/2/4 140/2/4
f 137/2/4 138/2/4 141/2/4
f 133/2/4 137/2/4 141/2/4
f 141/2/4 138/2/4 142/2/4
f 139/2/4 140/2/4 143/2/4
f 140/2/4 134/2/4 144/2/4
f 143/2/4 140/2/4 144/2/4
f 133/2/4 141/2/4 145/2/4
f 144/2/4 134/2/4 146/2/4
f 133/2/4 145/2/4 147/2/4
f 145/2/4 146/2/4 147/2/4
f 146/2/4 134/2/4 148/2/4
f 147/2/4 146/2/4 148/2/4
f 149/1/4 150/1/4 151/1/4
f 151/1/4 150/1/4 152/1/4
f 152/1/4 150/1/4 153/1/4
f 153/1/4 150/1/4 154/1/4
f 152/1/4 153/1/4 156/1/4
f 156/1/4 153/1/4 157/1/4
f 155/1/4 156/1/4 159/1/4
f 157/1/4 158/1/4 159/1/4
f 156/1/4 157/1/4 159/1/4
f 159/1/4 158/1/4 160/1/4
f 163/2/5 162/2/5 161/2/5
f 164/2/5 162/2/5 163/2/5
f 169/1/5 166/1/5 165/1/5
f 170/1/5 166/1/5 169/1/5
f 171/1/5 168/1/5 167/1/5
f 172/1/5 168/1/5 171/1/5
f 177/1/5 174/1/5 173/1/5
f 178/1/5 174/1/5 177/1/5
f 179/1/5 176/1/5 175/1/5
f 180/1/5 176/1/5 179/1/5
f 183/1/5 182/1/5 181/1/5
f 184/1/5 182/1/5 183/1/5
f 187/1/5 186/1/5 185/1/5
f 188/1/5 186/1/5 187/1/5
f 191/2/5 190/2/5 189/2/5
f 192/2/5 190/2/5 191/2/5
f 197/2/5 194/2/5 193/2/5
f 198/2/5 194/2/5 197/2/5
f 199/2/5 196/2/5 195/2/5
f 200/2/5 196/2/5 199/2/5
f 201/2/6 202/2/6 205/2/6
f 205/2/6 202/2/6 206/2/6
f 203/2/6 204/2/6 207/2/6
f 207/2/6 204/2/6 208/2/6
f 209/2/6 210/2/6 211/2/6
f 211/2/6 210/2/6 212/2/6
f 213/1/6 214/1/6 215/1/6
f 215/1/6 214/1/6 216/1/6
f 217/1/6 218/1/6 219/1/6
f 219/1/6 218/1/6 220/1/6
f 221/1/6 222/1/6 225/1/6
f 225/1/6 222/1/6 226/1/6
f 223/1/6 224/1/6 227/1/6
f 227/1/6 224/1/6 228/1/6
f 229/1/6 230/1/6 233/1/6
f 233/1/6 230/1/6 234/1/6
f 231/1/6 232/1/6 235/1/6
f 235/1/6 232/1/6 236/1/6
f 237/2/6 238/2/6 239/2/6
f 239/2/6 238/2/6 240/2/6
