# MagicaVoxel @ Ephtracy

# group
g i

# material
mtllib i.mtl
usemtl palette

# normals
vn -1 0 0
vn 1 0 0
vn 0 0 1
vn 0 0 -1
vn 0 -1 0
vn 0 1 0

# texcoords
vt 0.931641 0.5
vt 0.994141 0.5

# verts
v -3 0 -2
v -3 0 -3
v -3 3 -2
v -3 3 -3
v -3 5 -2
v -3 5 -3
v -3 8 -2
v -3 8 -3
v -2 1 -1
v -2 1 -2
v -2 1 -3
v -2 1 -4
v -2 2 -1
v -2 2 -2
v -2 2 -3
v -2 2 -4
v -2 3 -2
v -2 3 -3
v -2 5 -2
v -2 5 -3
v -2 6 -1
v -2 6 -2
v -2 6 -3
v -2 6 -4
v -2 7 -1
v -2 7 -2
v -2 7 -3
v -2 7 -4
v -1 2 -1
v -1 2 -2
v -1 2 -3
v -1 2 -4
v -1 6 -1
v -1 6 -2
v -1 6 -3
v -1 6 -4
v 1 2 -2
v 1 2 -3
v 1 6 -2
v 1 6 -3
v 2 1 -2
v 2 1 -3
v 2 2 -2
v 2 2 -3
v 2 6 -2
v 2 6 -3
v 2 7 -2
v 2 7 -3
v -2 1 -2
v -2 1 -3
v -2 2 -2
v -2 2 -3
v -2 6 -2
v -2 6 -3
v -2 7 -2
v -2 7 -3
v -1 2 -2
v -1 2 -3
v -1 6 -2
v -1 6 -3
v 1 2 -1
v 1 2 -2
v 1 2 -3
v 1 2 -4
v 1 6 -1
v 1 6 -2
v 1 6 -3
v 1 6 -4
v 2 1 -1
v 2 1 -2
v 2 1 -3
v 2 1 -4
v 2 2 -1
v 2 2 -2
v 2 2 -3
v 2 2 -4
v 2 3 -2
v 2 3 -3
v 2 5 -2
v 2 5 -3
v 2 6 -1
v 2 6 -2
v 2 6 -3
v 2 6 -4
v 2 7 -1
v 2 7 -2
v 2 7 -3
v 2 7 -4
v 3 0 -2
v 3 0 -3
v 3 3 -2
v 3 3 -3
v 3 5 -2
v 3 5 -3
v 3 8 -2
v 3 8 -3
v -2 1 -1
v -2 2 -1
v -2 6 -1
v -2 7 -1
v -1 2 -1
v -1 6 -1
v 1 2 -1
v 1 6 -1
v 2 1 -1
v 2 2 -1
v 2 6 -1
v 2 7 -1
v -3 0 -2
v -3 3 -2
v -3 5 -2
v -3 8 -2
v -2 1 -2
v -2 2 -2
v -2 3 -2
v -2 5 -2
v -2 6 -2
v -2 7 -2
v -1 2 -2
v -1 6 -2
v 1 2 -2
v 1 6 -2
v 2 1 -2
v 2 2 -2
v 2 3 -2
v 2 5 -2
v 2 6 -2
v 2 7 -2
v 3 0 -2
v 3 3 -2
v 3 5 -2
v 3 8 -2
v -2 1 -3
v -2 2 -3
v -2 6 -3
v -2 7 -3
v -1 2 -3
v -1 6 -3
v 1 2 -3
v 1 6 -3
v 2 1 -3
v 2 2 -3
v 2 6 -3
v 2 7 -3
v -2 1 -2
v -2 2 -2
v -2 6 -2
v -2 7 -2
v -1 2 -2
v -1 6 -2
v 1 2 -2
v 1 6 -2
v 2 1 -2
v 2 2 -2
v 2 6 -2
v 2 7 -2
v -3 0 -3
v -3 3 -3
v -3 5 -3
v -3 8 -3
v -2 1 -3
v -2 2 -3
v -2 3 -3
v -2 5 -3
v -2 6 -3
v -2 7 -3
v -1 2 -3
v -1 6 -3
v 1 2 -3
v 1 6 -3
v 2 1 -3
v 2 2 -3
v 2 3 -3
v 2 5 -3
v 2 6 -3
v 2 7 -3
v 3 0 -3
v 3 3 -3
v 3 5 -3
v 3 8 -3
v -2 1 -4
v -2 2 -4
v -2 6 -4
v -2 7 -4
v -1 2 -4
v -1 6 -4
v 1 2 -4
v 1 6 -4
v 2 1 -4
v 2 2 -4
v 2 6 -4
v 2 7 -4
v -3 0 -2
v 3 0 -2
v -3 0 -3
v 3 0 -3
v -2 1 -1
v 2 1 -1
v -2 1 -2
v 2 1 -2
v -2 1 -3
v 2 1 -3
v -2 1 -4
v 2 1 -4
v -2 2 -2
v -1 2 -2
v 1 2 -2
v 2 2 -2
v -2 2 -3
v -1 2 -3
v 1 2 -3
v 2 2 -3
v -3 5 -2
v -2 5 -2
v 2 5 -2
v 3 5 -2
v -3 5 -3
v -2 5 -3
v 2 5 -3
v 3 5 -3
v -2 6 -1
v -1 6 -1
v 1 6 -1
v 2 6 -1
v -2 6 -2
v -1 6 -2
v 1 6 -2
v 2 6 -2
v -2 6 -3
v -1 6 -3
v 1 6 -3
v 2 6 -3
v -2 6 -4
v -1 6 -4
v 1 6 -4
v 2 6 -4
v -2 7 -2
v 2 7 -2
v -2 7 -3
v 2 7 -3
v -2 1 -2
v 2 1 -2
v -2 1 -3
v 2 1 -3
v -2 2 -1
v -1 2 -1
v 1 2 -1
v 2 2 -1
v -2 2 -2
v -1 2 -2
v 1 2 -2
v 2 2 -2
v -2 2 -3
v -1 2 -3
v 1 2 -3
v 2 2 -3
v -2 2 -4
v -1 2 -4
v 1 2 -4
v 2 2 -4
v -3 3 -2
v -2 3 -2
v 2 3 -2
v 3 3 -2
v -3 3 -3
v -2 3 -3
v 2 3 -3
v 3 3 -3
v -2 6 -2
v -1 6 -2
v 1 6 -2
v 2 6 -2
v -2 6 -3
v -1 6 -3
v 1 6 -3
v 2 6 -3
v -2 7 -1
v 2 7 -1
v -2 7 -2
v 2 7 -2
v -2 7 -3
v 2 7 -3
v -2 7 -4
v 2 7 -4
v -3 8 -2
v 3 8 -2
v -3 8 -3
v 3 8 -3

# faces
f 3/2/1 2/2/1 1/2/1
f 4/2/1 2/2/1 3/2/1
f 7/2/1 6/2/1 5/2/1
f 8/2/1 6/2/1 7/2/1
f 13/1/1 10/1/1 9/1/1
f 14/1/1 10/1/1 13/1/1
f 15/1/1 12/1/1 11/1/1
f 16/1/1 12/1/1 15/1/1
f 19/2/1 18/2/1 17/2/1
f 20/2/1 18/2/1 19/2/1
f 25/1/1 22/1/1 21/1/1
f 26/1/1 22/1/1 25/1/1
f 27/1/1 24/1/1 23/1/1
f 28/1/1 24/1/1 27/1/1
f 33/1/1 30/1/1 29/1/1
f 34/1/1 30/1/1 33/1/1
f 35/1/1 32/1/1 31/1/1
f 36/1/1 32/1/1 35/1/1
f 39/2/1 38/2/1 37/2/1
f 40/2/1 38/2/1 39/2/1
f 43/2/1 42/2/1 41/2/1
f 44/2/1 42/2/1 43/2/1
f 47/2/1 46/2/1 45/2/1
f 48/2/1 46/2/1 47/2/1
f 49/2/2 50/2/2 51/2/2
f 51/2/2 50/2/2 52/2/2
f 53/2/2 54/2/2 55/2/2
f 55/2/2 54/2/2 56/2/2
f 57/2/2 58/2/2 59/2/2
f 59/2/2 58/2/2 60/2/2
f 61/1/2 62/1/2 65/1/2
f 65/1/2 62/1/2 66/1/2
f 63/1/2 64/1/2 67/1/2
f 67/1/2 64/1/2 68/1/2
f 69/1/2 70/1/2 73/1/2
f 73/1/2 70/1/2 74/1/2
f 71/1/2 72/1/2 75/1/2
f 75/1/2 72/1/2 76/1/2
f 77/2/2 78/2/2 79/2/2
f 79/2/2 78/2/2 80/2/2
f 81/1/2 82/1/2 85/1/2
f 85/1/2 82/1/2 86/1/2
f 83/1/2 84/1/2 87/1/2
f 87/1/2 84/1/2 88/1/2
f 89/2/2 90/2/2 91/2/2
f 91/2/2 90/2/2 92/2/2
f 93/2/2 94/2/2 95/2/2
f 95/2/2 94/2/2 96/2/2
f 101/1/3 98/1/3 97/1/3
f 102/1/3 100/1/3 99/1/3
f 103/1/3 101/1/3 97/1/3
f 103/1/3 102/1/3 101/1/3
f 104/1/3 100/1/3 102/1/3
f 104/1/3 102/1/3 103/1/3
f 105/1/3 103/1/3 97/1/3
f 106/1/3 103/1/3 105/1/3
f 107/1/3 100/1/3 104/1/3
f 108/1/3 100/1/3 107/1/3
f 113/2/3 110/2/3 109/2/3
f 114/2/3 110/2/3 113/2/3
f 115/2/3 110/2/3 114/2/3
f 116/2/3 112/2/3 111/2/3
f 117/2/3 112/2/3 116/2/3
f 118/2/3 112/2/3 117/2/3
f 119/2/3 115/2/3 114/2/3
f 119/2/3 117/2/3 116/2/3
f 119/2/3 116/2/3 115/2/3
f 120/2/3 117/2/3 119/2/3
f 123/2/3 113/2/3 109/2/3
f 124/2/3 122/2/3 121/2/3
f 125/2/3 122/2/3 124/2/3
f 126/2/3 122/2/3 125/2/3
f 127/2/3 122/2/3 126/2/3
f 128/2/3 112/2/3 118/2/3
f 129/2/3 123/2/3 109/2/3
f 129/2/3 124/2/3 123/2/3
f 129/2/3 125/2/3 124/2/3
f 130/2/3 125/2/3 129/2/3
f 131/2/3 127/2/3 126/2/3
f 131/2/3 128/2/3 127/2/3
f 132/2/3 112/2/3 128/2/3
f 132/2/3 128/2/3 131/2/3
f 137/1/3 134/1/3 133/1/3
f 138/1/3 136/1/3 135/1/3
f 139/1/3 137/1/3 133/1/3
f 139/1/3 138/1/3 137/1/3
f 140/1/3 136/1/3 138/1/3
f 140/1/3 138/1/3 139/1/3
f 141/1/3 139/1/3 133/1/3
f 142/1/3 139/1/3 141/1/3
f 143/1/3 136/1/3 140/1/3
f 144/1/3 136/1/3 143/1/3
f 145/1/4 146/1/4 149/1/4
f 147/1/4 148/1/4 150/1/4
f 145/1/4 149/1/4 151/1/4
f 149/1/4 150/1/4 151/1/4
f 150/1/4 148/1/4 152/1/4
f 151/1/4 150/1/4 152/1/4
f 145/1/4 151/1/4 153/1/4
f 153/1/4 151/1/4 154/1/4
f 152/1/4 148/1/4 155/1/4
f 155/1/4 148/1/4 156/1/4
f 157/2/4 158/2/4 161/2/4
f 161/2/4 158/2/4 162/2/4
f 162/2/4 158/2/4 163/2/4
f 159/2/4 160/2/4 164/2/4
f 164/2/4 160/2/4 165/2/4
f 165/2/4 160/2/4 166/2/4
f 162/2/4 163/2/4 167/2/4
f 164/2/4 165/2/4 167/2/4
f 163/2/4 164/2/4 167/2/4
f 167/2/4 165/2/4 168/2/4
f 157/2/4 161/2/4 171/2/4
f 169/2/4 170/2/4 172/2/4
f 172/2/4 170/2/4 173/2/4
f 173/2/4 170/2/4 174/2/4
f 174/2/4 170/2/4 175/2/4
f 166/2/4 160/2/4 176/2/4
f 157/2/4 171/2/4 177/2/4
f 171/2/4 172/2/4 177/2/4
f 172/2/4 173/2/4 177/2/4
f 177/2/4 173/2/4 178/2/4
f 174/2/4 175/2/4 179/2/4
f 175/2/4 176/2/4 179/2/4
f 176/2/4 160/2/4 180/2/4
f 179/2/4 176/2/4 180/2/4
f 181/1/4 182/1/4 185/1/4
f 183/1/4 184/1/4 186/1/4
f 181/1/4 185/1/4 187/1/4
f 185/1/4 186/1/4 187/1/4
f 186/1/4 184/1/4 188/1/4
f 187/1/4 186/1/4 188/1/4
f 181/1/4 187/1/4 189/1/4
f 189/1/4 187/1/4 190/1/4
f 188/1/4 184/1/4 191/1/4
f 191/1/4 184/1/4 192/1/4
f 195/2/5 194/2/5 193/2/5
f 196/2/5 194/2/5 195/2/5
f 199/1/5 198/1/5 197/1/5
f 200/1/5 198/1/5 199/1/5
f 203/1/5 202/1/5 201/1/5
f 204/1/5 202/1/5 203/1/5
f 209/2/5 206/2/5 205/2/5
f 210/2/5 206/2/5 209/2/5
f 211/2/5 208/2/5 207/2/5
f 212/2/5 208/2/5 211/2/5
f 217/2/5 214/2/5 213/2/5
f 218/2/5 214/2/5 217/2/5
f 219/2/5 216/2/5 215/2/5
f 220/2/5 216/2/5 219/2/5
f 225/1/5 222/1/5 221/1/5
f 226/1/5 222/1/5 225/1/5
f 227/1/5 224/1/5 223/1/5
f 228/1/5 224/1/5 227/1/5
f 233/1/5 230/1/5 229/1/5
f 234/1/5 230/1/5 233/1/5
f 235/1/5 232/1/5 231/1/5
f 236/1/5 232/1/5 235/1/5
f 239/2/5 238/2/5 237/2/5
f 240/2/5 238/2/5 239/2/5
f 241/2/6 242/2/6 243/2/6
f 243/2/6 242/2/6 244/2/6
f 245/1/6 246/1/6 249/1/6
f 249/1/6 246/1/6 250/1/6
f 247/1/6 248/1/6 251/1/6
f 251/1/6 248/1/6 252/1/6
f 253/1/6 254/1/6 257/1/6
f 257/1/6 254/1/6 258/1/6
f 255/1/6 256/1/6 259/1/6
f 259/1/6 256/1/6 260/1/6
f 261/2/6 262/2/6 265/2/6
f 265/2/6 262/2/6 266/2/6
f 263/2/6 264/2/6 267/2/6
f 267/2/6 264/2/6 268/2/6
f 269/2/6 270/2/6 273/2/6
f 273/2/6 270/2/6 274/2/6
f 271/2/6 272/2/6 275/2/6
f 275/2/6 272/2/6 276/2/6
f 277/1/6 278/1/6 279/1/6
f 279/1/6 278/1/6 280/1/6
f 281/1/6 282/1/6 283/1/6
f 283/1/6 282/1/6 284/1/6
f 285/2/6 286/2/6 287/2/6
f 287/2/6 286/2/6 288/2/6
