# MagicaVoxel @ Ephtracy

# group
g j

# material
mtllib j.mtl
usemtl palette

# normals
vn -1 0 0
vn 1 0 0
vn 0 0 1
vn 0 0 -1
vn 0 -1 0
vn 0 1 0

# texcoords
vt 0.927734 0.5
vt 0.931641 0.5
vt 0.994141 0.5

# verts
v -3 1 -2
v -3 1 -3
v -3 4 -2
v -3 4 -3
v -3 5 -2
v -3 5 -3
v -3 8 -2
v -3 8 -3
v -2 0 -2
v -2 0 -3
v -2 1 -2
v -2 1 -3
v -2 2 -1
v -2 2 -2
v -2 3 -1
v -2 3 -2
v -2 4 -2
v -2 4 -3
v -2 5 -2
v -2 5 -3
v -2 6 -1
v -2 6 -2
v -2 6 -3
v -2 6 -4
v -2 7 -1
v -2 7 -2
v -2 7 -3
v -2 7 -4
v -1 1 -1
v -1 1 -2
v -1 2 -1
v -1 2 -2
v -1 2 -3
v -1 2 -4
v -1 4 -3
v -1 4 -4
v -1 6 -3
v -1 6 -4
v 0 1 -3
v 0 1 -4
v 0 2 -1
v 0 2 -2
v 0 2 -3
v 0 2 -4
v 0 4 -1
v 0 4 -2
v 0 6 -1
v 0 6 -2
v 1 2 -3
v 1 2 -4
v 1 3 -3
v 1 3 -4
v 2 6 -2
v 2 6 -3
v 2 7 -2
v 2 7 -3
v -2 6 -2
v -2 6 -3
v -2 7 -2
v -2 7 -3
v -1 2 -1
v -1 2 -2
v -1 3 -1
v -1 3 -2
v 0 1 -1
v 0 1 -2
v 0 2 -1
v 0 2 -2
v 0 2 -3
v 0 2 -4
v 0 4 -3
v 0 4 -4
v 0 6 -3
v 0 6 -4
v 1 1 -3
v 1 1 -4
v 1 2 -1
v 1 2 -2
v 1 2 -3
v 1 2 -4
v 1 4 -1
v 1 4 -2
v 1 6 -1
v 1 6 -2
v 2 0 -2
v 2 0 -3
v 2 1 -2
v 2 1 -3
v 2 2 -3
v 2 2 -4
v 2 3 -3
v 2 3 -4
v 2 4 -2
v 2 4 -3
v 2 5 -2
v 2 5 -3
v 2 6 -1
v 2 6 -2
v 2 6 -3
v 2 6 -4
v 2 7 -1
v 2 7 -2
v 2 7 -3
v 2 7 -4
v 3 1 -2
v 3 1 -3
v 3 4 -2
v 3 4 -3
v 3 5 -2
v 3 5 -3
v 3 8 -2
v 3 8 -3
v -2 2 -1
v -2 3 -1
v -2 6 -1
v -2 7 -1
v -1 1 -1
v -1 2 -1
v -1 3 -1
v -1 6 -1
v -1 7 -1
v 0 1 -1
v 0 2 -1
v 0 4 -1
v 0 6 -1
v 1 2 -1
v 1 4 -1
v 1 6 -1
v 2 6 -1
v 2 7 -1
v -3 1 -2
v -3 4 -2
v -3 5 -2
v -3 8 -2
v -2 0 -2
v -2 1 -2
v -2 2 -2
v -2 3 -2
v -2 4 -2
v -2 5 -2
v -2 6 -2
v -2 7 -2
v -1 1 -2
v -1 2 -2
v -1 3 -2
v -1 6 -2
v -1 7 -2
v 0 1 -2
v 0 2 -2
v 0 4 -2
v 0 6 -2
v 1 2 -2
v 1 4 -2
v 1 6 -2
v 2 0 -2
v 2 1 -2
v 2 4 -2
v 2 5 -2
v 2 6 -2
v 2 7 -2
v 3 1 -2
v 3 4 -2
v 3 5 -2
v 3 8 -2
v -2 6 -3
v -2 7 -3
v 1 6 -3
v 1 7 -3
v 2 6 -3
v 2 7 -3
v -2 6 -2
v -2 7 -2
v -1 6 -2
v -1 7 -2
v 2 6 -2
v 2 7 -2
v -3 1 -3
v -3 4 -3
v -3 5 -3
v -3 8 -3
v -2 0 -3
v -2 1 -3
v -2 4 -3
v -2 5 -3
v -2 6 -3
v -2 7 -3
v -1 2 -3
v -1 4 -3
v -1 6 -3
v 0 1 -3
v 0 2 -3
v 0 4 -3
v 0 6 -3
v 1 1 -3
v 1 2 -3
v 1 3 -3
v 1 6 -3
v 1 7 -3
v 2 0 -3
v 2 1 -3
v 2 2 -3
v 2 3 -3
v 2 4 -3
v 2 5 -3
v 2 6 -3
v 2 7 -3
v 3 1 -3
v 3 4 -3
v 3 5 -3
v 3 8 -3
v -2 6 -4
v -2 7 -4
v -1 2 -4
v -1 4 -4
v -1 6 -4
v 0 1 -4
v 0 2 -4
v 0 4 -4
v 0 6 -4
v 1 1 -4
v 1 2 -4
v 1 3 -4
v 1 6 -4
v 1 7 -4
v 2 2 -4
v 2 3 -4
v 2 6 -4
v 2 7 -4
v -2 0 -2
v 2 0 -2
v -2 0 -3
v 2 0 -3
v -1 1 -1
v 0 1 -1
v -3 1 -2
v -2 1 -2
v -1 1 -2
v 0 1 -2
v 2 1 -2
v 3 1 -2
v -3 1 -3
v -2 1 -3
v 0 1 -3
v 1 1 -3
v 2 1 -3
v 3 1 -3
v 0 1 -4
v 1 1 -4
v -2 2 -1
v -1 2 -1
v 0 2 -1
v 1 2 -1
v -2 2 -2
v -1 2 -2
v 0 2 -2
v 1 2 -2
v -1 2 -3
v 0 2 -3
v 1 2 -3
v 2 2 -3
v -1 2 -4
v 0 2 -4
v 1 2 -4
v 2 2 -4
v -3 5 -2
v -2 5 -2
v 2 5 -2
v 3 5 -2
v -3 5 -3
v -2 5 -3
v 2 5 -3
v 3 5 -3
v -2 6 -1
v -1 6 -1
v 0 6 -1
v 1 6 -1
v 2 6 -1
v -2 6 -2
v -1 6 -2
v 0 6 -2
v 1 6 -2
v 2 6 -2
v -2 6 -3
v -1 6 -3
v 0 6 -3
v 1 6 -3
v 2 6 -3
v -2 6 -4
v -1 6 -4
v 0 6 -4
v 1 6 -4
v 2 6 -4
v -2 7 -2
v -1 7 -2
v 2 7 -2
v -2 7 -3
v 1 7 -3
v 2 7 -3
v -1 2 -1
v 0 2 -1
v -1 2 -2
v 0 2 -2
v 0 2 -3
v 1 2 -3
v 0 2 -4
v 1 2 -4
v -2 3 -1
v -1 3 -1
v -2 3 -2
v -1 3 -2
v 1 3 -3
v 2 3 -3
v 1 3 -4
v 2 3 -4
v -3 4 -2
v -2 4 -2
v 2 4 -2
v 3 4 -2
v -3 4 -3
v -2 4 -3
v 2 4 -3
v 3 4 -3
v -2 6 -2
v -1 6 -2
v 2 6 -2
v -2 6 -3
v 1 6 -3
v 2 6 -3
v -2 7 -1
v -1 7 -1
v 2 7 -1
v -2 7 -2
v -1 7 -2
v 2 7 -2
v -2 7 -3
v 1 7 -3
v 2 7 -3
v -2 7 -4
v 1 7 -4
v 2 7 -4
v -3 8 -2
v 3 8 -2
v -3 8 -3
v 3 8 -3

# faces
f 3/3/1 2/3/1 1/3/1
f 4/3/1 2/3/1 3/3/1
f 7/3/1 6/3/1 5/3/1
f 8/3/1 6/3/1 7/3/1
f 11/3/1 10/3/1 9/3/1
f 12/3/1 10/3/1 11/3/1
f 15/2/1 14/2/1 13/2/1
f 16/2/1 14/2/1 15/2/1
f 19/3/1 18/3/1 17/3/1
f 20/3/1 18/3/1 19/3/1
f 25/2/1 22/2/1 21/2/1
f 26/2/1 22/2/1 25/2/1
f 27/1/1 24/1/1 23/1/1
f 28/1/1 24/1/1 27/1/1
f 31/2/1 30/2/1 29/2/1
f 32/2/1 30/2/1 31/2/1
f 35/2/1 34/2/1 33/2/1
f 36/2/1 34/2/1 35/2/1
f 37/1/1 36/1/1 35/1/1
f 38/1/1 36/1/1 37/1/1
f 43/2/1 40/2/1 39/2/1
f 44/2/1 40/2/1 43/2/1
f 45/2/1 42/2/1 41/2/1
f 46/2/1 42/2/1 45/2/1
f 47/1/1 46/1/1 45/1/1
f 48/1/1 46/1/1 47/1/1
f 51/2/1 50/2/1 49/2/1
f 52/2/1 50/2/1 51/2/1
f 55/3/1 54/3/1 53/3/1
f 56/3/1 54/3/1 55/3/1
f 57/3/2 58/3/2 59/3/2
f 59/3/2 58/3/2 60/3/2
f 61/2/2 62/2/2 63/2/2
f 63/2/2 62/2/2 64/2/2
f 65/2/2 66/2/2 67/2/2
f 67/2/2 66/2/2 68/2/2
f 69/2/2 70/2/2 71/2/2
f 71/2/2 70/2/2 72/2/2
f 71/1/2 72/1/2 73/1/2
f 73/1/2 72/1/2 74/1/2
f 75/2/2 76/2/2 79/2/2
f 79/2/2 76/2/2 80/2/2
f 77/2/2 78/2/2 81/2/2
f 81/2/2 78/2/2 82/2/2
f 81/1/2 82/1/2 83/1/2
f 83/1/2 82/1/2 84/1/2
f 85/3/2 86/3/2 87/3/2
f 87/3/2 86/3/2 88/3/2
f 89/2/2 90/2/2 91/2/2
f 91/2/2 90/2/2 92/2/2
f 93/3/2 94/3/2 95/3/2
f 95/3/2 94/3/2 96/3/2
f 97/1/2 98/1/2 101/1/2
f 101/1/2 98/1/2 102/1/2
f 99/2/2 100/2/2 103/2/2
f 103/2/2 100/2/2 104/2/2
f 105/3/2 106/3/2 107/3/2
f 107/3/2 106/3/2 108/3/2
f 109/3/2 110/3/2 111/3/2
f 111/3/2 110/3/2 112/3/2
f 118/2/3 114/2/3 113/2/3
f 119/2/3 114/2/3 118/2/3
f 120/2/3 116/2/3 115/2/3
f 121/2/3 116/2/3 120/2/3
f 122/2/3 118/2/3 117/2/3
f 123/2/3 118/2/3 122/2/3
f 125/1/3 121/1/3 120/1/3
f 126/2/3 124/2/3 123/2/3
f 127/1/3 125/1/3 124/1/3
f 127/2/3 124/2/3 126/2/3
f 128/1/3 121/1/3 125/1/3
f 128/1/3 125/1/3 127/1/3
f 129/1/3 121/1/3 128/1/3
f 130/1/3 121/1/3 129/1/3
f 136/3/3 132/3/3 131/3/3
f 137/3/3 132/3/3 136/3/3
f 138/3/3 132/3/3 137/3/3
f 139/3/3 132/3/3 138/3/3
f 140/3/3 134/3/3 133/3/3
f 141/3/3 134/3/3 140/3/3
f 142/3/3 134/3/3 141/3/3
f 143/3/3 136/3/3 135/3/3
f 143/3/3 137/3/3 136/3/3
f 144/3/3 137/3/3 143/3/3
f 145/3/3 139/3/3 138/3/3
f 145/3/3 141/3/3 140/3/3
f 145/3/3 140/3/3 139/3/3
f 146/3/3 141/3/3 145/3/3
f 147/3/3 134/3/3 142/3/3
f 148/3/3 143/3/3 135/3/3
f 149/3/3 146/3/3 145/3/3
f 149/3/3 145/3/3 144/3/3
f 150/3/3 146/3/3 149/3/3
f 151/3/3 146/3/3 150/3/3
f 152/3/3 149/3/3 148/3/3
f 155/3/3 148/3/3 135/3/3
f 155/3/3 154/3/3 153/3/3
f 155/3/3 153/3/3 152/3/3
f 155/3/3 152/3/3 148/3/3
f 156/3/3 154/3/3 155/3/3
f 157/3/3 154/3/3 156/3/3
f 158/3/3 154/3/3 157/3/3
f 159/3/3 154/3/3 158/3/3
f 160/3/3 134/3/3 147/3/3
f 161/3/3 157/3/3 156/3/3
f 162/3/3 157/3/3 161/3/3
f 163/3/3 159/3/3 158/3/3
f 163/3/3 160/3/3 159/3/3
f 164/3/3 134/3/3 160/3/3
f 164/3/3 160/3/3 163/3/3
f 167/1/3 166/1/3 165/1/3
f 168/1/3 166/1/3 167/1/3
f 169/2/3 168/2/3 167/2/3
f 170/2/3 168/2/3 169/2/3
f 171/2/4 172/2/4 173/2/4
f 173/2/4 172/2/4 174/2/4
f 173/1/4 174/1/4 175/1/4
f 175/1/4 174/1/4 176/1/4
f 177/3/4 178/3/4 182/3/4
f 182/3/4 178/3/4 183/3/4
f 179/3/4 180/3/4 184/3/4
f 184/3/4 180/3/4 185/3/4
f 185/3/4 180/3/4 186/3/4
f 182/3/4 183/3/4 187/3/4
f 181/3/4 182/3/4 187/3/4
f 184/3/4 185/3/4 187/3/4
f 183/3/4 184/3/4 187/3/4
f 187/3/4 185/3/4 188/3/4
f 188/3/4 185/3/4 189/3/4
f 181/3/4 187/3/4 190/3/4
f 190/3/4 187/3/4 191/3/4
f 181/3/4 190/3/4 194/3/4
f 192/3/4 193/3/4 195/3/4
f 191/3/4 192/3/4 195/3/4
f 195/3/4 193/3/4 196/3/4
f 196/3/4 193/3/4 197/3/4
f 186/3/4 180/3/4 198/3/4
f 181/3/4 194/3/4 199/3/4
f 194/3/4 195/3/4 199/3/4
f 199/3/4 195/3/4 200/3/4
f 200/3/4 195/3/4 201/3/4
f 196/3/4 197/3/4 202/3/4
f 202/3/4 197/3/4 203/3/4
f 203/3/4 197/3/4 204/3/4
f 204/3/4 197/3/4 205/3/4
f 198/3/4 180/3/4 206/3/4
f 200/3/4 201/3/4 207/3/4
f 201/3/4 202/3/4 207/3/4
f 202/3/4 203/3/4 207/3/4
f 207/3/4 203/3/4 208/3/4
f 205/3/4 206/3/4 209/3/4
f 204/3/4 205/3/4 209/3/4
f 206/3/4 180/3/4 210/3/4
f 209/3/4 206/3/4 210/3/4
f 211/1/4 212/1/4 215/1/4
f 213/2/4 214/2/4 217/2/4
f 214/1/4 215/1/4 218/1/4
f 217/2/4 214/2/4 218/2/4
f 215/1/4 212/1/4 219/1/4
f 218/1/4 215/1/4 219/1/4
f 216/2/4 217/2/4 220/2/4
f 220/2/4 217/2/4 221/2/4
f 219/1/4 212/1/4 223/1/4
f 223/1/4 212/1/4 224/1/4
f 221/2/4 222/2/4 225/2/4
f 225/2/4 222/2/4 226/2/4
f 223/2/4 224/2/4 227/2/4
f 227/2/4 224/2/4 228/2/4
f 231/3/5 230/3/5 229/3/5
f 232/3/5 230/3/5 231/3/5
f 237/2/5 234/2/5 233/2/5
f 238/2/5 234/2/5 237/2/5
f 241/3/5 236/3/5 235/3/5
f 242/3/5 236/3/5 241/3/5
f 245/3/5 240/3/5 239/3/5
f 246/3/5 240/3/5 245/3/5
f 247/2/5 244/2/5 243/2/5
f 248/2/5 244/2/5 247/2/5
f 253/2/5 250/2/5 249/2/5
f 254/2/5 250/2/5 253/2/5
f 255/2/5 252/2/5 251/2/5
f 256/2/5 252/2/5 255/2/5
f 261/2/5 258/2/5 257/2/5
f 262/2/5 258/2/5 261/2/5
f 263/2/5 260/2/5 259/2/5
f 264/2/5 260/2/5 263/2/5
f 269/3/5 266/3/5 265/3/5
f 270/3/5 266/3/5 269/3/5
f 271/3/5 268/3/5 267/3/5
f 272/3/5 268/3/5 271/3/5
f 278/2/5 274/2/5 273/2/5
f 279/1/5 275/1/5 274/1/5
f 279/2/5 274/2/5 278/2/5
f 280/1/5 275/1/5 279/1/5
f 281/1/5 277/1/5 276/1/5
f 282/1/5 277/1/5 281/1/5
f 288/1/5 284/1/5 283/1/5
f 289/1/5 284/1/5 288/1/5
f 290/1/5 286/1/5 285/1/5
f 291/2/5 287/2/5 286/2/5
f 291/1/5 286/1/5 290/1/5
f 292/2/5 287/2/5 291/2/5
f 296/3/5 294/3/5 293/3/5
f 296/3/5 295/3/5 294/3/5
f 297/3/5 295/3/5 296/3/5
f 298/3/5 295/3/5 297/3/5
f 299/2/6 300/2/6 301/2/6
f 301/2/6 300/2/6 302/2/6
f 303/2/6 304/2/6 305/2/6
f 305/2/6 304/2/6 306/2/6
f 307/2/6 308/2/6 309/2/6
f 309/2/6 308/2/6 310/2/6
f 311/2/6 312/2/6 313/2/6
f 313/2/6 312/2/6 314/2/6
f 315/3/6 316/3/6 319/3/6
f 319/3/6 316/3/6 320/3/6
f 317/3/6 318/3/6 321/3/6
f 321/3/6 318/3/6 322/3/6
f 323/3/6 324/3/6 326/3/6
f 324/3/6 325/3/6 326/3/6
f 326/3/6 325/3/6 327/3/6
f 327/3/6 325/3/6 328/3/6
f 329/2/6 330/2/6 332/2/6
f 330/1/6 331/1/6 333/1/6
f 332/2/6 330/2/6 333/2/6
f 333/1/6 331/1/6 334/1/6
f 335/1/6 336/1/6 338/1/6
f 336/2/6 337/2/6 339/2/6
f 338/1/6 336/1/6 339/1/6
f 339/2/6 337/2/6 340/2/6
f 341/3/6 342/3/6 343/3/6
f 343/3/6 342/3/6 344/3/6
