# MagicaVoxel @ Ephtracy

# group
g kilian

# material
mtllib kilian.mtl
usemtl palette

# normals
vn -1 0 0
vn 1 0 0
vn 0 0 1
vn 0 0 -1
vn 0 -1 0
vn 0 1 0

# texcoords
vt 0.412109 0.5
vt 0.427734 0.5
vt 0.451172 0.5
vt 0.626953 0.5
vt 0.666016 0.5
vt 0.669922 0.5
vt 0.916016 0.5
vt 0.994141 0.5

# verts
v -3 7 1
v -3 7 -0
v -3 10 1
v -3 10 -0
v -3 13 1
v -3 13 -0
v -3 16 -2
v -3 16 -3
v -3 17 1
v -3 17 -2
v -3 17 -3
v -3 19 2
v -3 19 1
v -3 19 -2
v -3 19 -3
v -3 20 -2
v -3 20 -3
v -3 21 2
v -3 21 -2
v -2 0 2
v -2 0 -1
v -2 1 2
v -2 1 1
v -2 2 1
v -2 2 -1
v -2 7 2
v -2 7 1
v -2 7 -0
v -2 7 -1
v -2 7 -2
v -2 10 1
v -2 10 -0
v -2 13 2
v -2 13 1
v -2 13 -0
v -2 13 -2
v -2 13 -3
v -2 14 1
v -2 14 -1
v -2 15 2
v -2 15 1
v -2 15 -1
v -2 15 -2
v -2 15 -3
v -2 16 -2
v -2 16 -3
v -2 17 2
v -2 17 1
v -2 17 -2
v -2 18 2
v -2 18 1
v -2 19 2
v -2 19 1
v -2 20 -2
v -2 20 -3
v -2 21 1
v -2 21 -2
v -2 21 -3
v -2 22 1
v -2 22 -2
v -1 13 1
v -1 13 -1
v -1 14 2
v -1 14 1
v -1 14 -1
v -1 14 -2
v -1 15 2
v -1 15 1
v -1 15 -1
v -1 15 -2
v 1 0 2
v 1 0 -1
v 1 1 2
v 1 1 1
v 1 2 1
v 1 2 -1
v 1 6 1
v 1 6 -1
v 1 7 1
v 1 7 -1
v 1 8 1
v 1 8 -0
v 1 12 -0
v 1 12 -1
v 1 13 -2
v 1 13 -3
v 1 14 -2
v 1 15 2
v 1 15 1
v 1 15 -0
v 1 15 -1
v 1 15 -2
v 1 15 -3
v 1 16 2
v 1 16 1
v 1 16 -0
v 1 17 1
v 1 17 -1
v 1 18 -0
v 1 18 -1
v 1 19 1
v 1 19 -0
v 2 8 1
v 2 8 -0
v 2 10 1
v 2 10 -0
v 2 12 1
v 2 12 -0
v -2 8 1
v -2 8 -0
v -2 10 1
v -2 10 -0
v -2 12 1
v -2 12 -0
v -1 0 2
v -1 0 -1
v -1 1 2
v -1 1 1
v -1 2 1
v -1 2 -1
v -1 6 1
v -1 6 -1
v -1 7 1
v -1 7 -1
v -1 8 1
v -1 8 -0
v -1 12 -0
v -1 12 -1
v -1 15 2
v -1 15 1
v -1 15 -0
v -1 15 -1
v -1 16 2
v -1 16 1
v -1 16 -0
v -1 17 1
v -1 17 -1
v -1 18 -0
v -1 18 -1
v -1 19 1
v -1 19 -0
v 0 13 -2
v 0 13 -3
v 0 14 -2
v 0 15 -2
v 0 15 -3
v 1 13 1
v 1 13 -1
v 1 14 2
v 1 14 1
v 1 14 -1
v 1 14 -2
v 1 15 2
v 1 15 1
v 1 15 -1
v 1 15 -2
v 2 0 2
v 2 0 -1
v 2 1 2
v 2 1 1
v 2 2 1
v 2 2 -1
v 2 7 2
v 2 7 1
v 2 7 -0
v 2 7 -1
v 2 7 -2
v 2 10 1
v 2 10 -0
v 2 13 2
v 2 13 1
v 2 13 -0
v 2 13 -2
v 2 13 -3
v 2 14 1
v 2 14 -1
v 2 14 -2
v 2 14 -3
v 2 15 2
v 2 15 1
v 2 15 -1
v 2 15 -2
v 2 17 2
v 2 17 1
v 2 17 -2
v 2 18 2
v 2 18 1
v 2 19 2
v 2 19 1
v 2 20 -2
v 2 20 -3
v 2 21 1
v 2 21 -1
v 2 21 -2
v 2 21 -3
v 2 22 1
v 2 22 -2
v 3 7 1
v 3 7 -0
v 3 10 1
v 3 10 -0
v 3 13 1
v 3 13 -0
v 3 14 -2
v 3 14 -3
v 3 15 -2
v 3 15 -3
v 3 17 1
v 3 17 -2
v 3 18 -2
v 3 18 -3
v 3 19 2
v 3 19 1
v 3 20 -1
v 3 20 -2
v 3 20 -3
v 3 21 2
v 3 21 -1
v 3 21 -2
v -3 19 2
v -3 21 2
v -2 0 2
v -2 1 2
v -2 7 2
v -2 13 2
v -2 15 2
v -2 17 2
v -2 18 2
v -2 19 2
v -1 0 2
v -1 1 2
v -1 14 2
v -1 15 2
v -1 16 2
v -1 17 2
v -1 18 2
v 1 0 2
v 1 1 2
v 1 14 2
v 1 15 2
v 1 16 2
v 1 17 2
v 1 18 2
v 2 0 2
v 2 1 2
v 2 7 2
v 2 13 2
v 2 15 2
v 2 17 2
v 2 18 2
v 2 19 2
v 3 19 2
v 3 21 2
v -3 7 1
v -3 10 1
v -3 13 1
v -3 17 1
v -3 19 1
v -2 1 1
v -2 2 1
v -2 7 1
v -2 10 1
v -2 13 1
v -2 14 1
v -2 15 1
v -2 17 1
v -2 18 1
v -2 19 1
v -2 21 1
v -2 22 1
v -1 1 1
v -1 2 1
v -1 6 1
v -1 13 1
v -1 14 1
v -1 15 1
v -1 16 1
v 1 1 1
v 1 2 1
v 1 6 1
v 1 13 1
v 1 14 1
v 1 15 1
v 1 16 1
v 2 1 1
v 2 2 1
v 2 7 1
v 2 10 1
v 2 13 1
v 2 14 1
v 2 15 1
v 2 17 1
v 2 18 1
v 2 19 1
v 2 21 1
v 2 22 1
v 3 7 1
v 3 10 1
v 3 13 1
v 3 17 1
v 3 19 1
v -2 8 -0
v -2 10 -0
v -2 12 -0
v -1 8 -0
v -1 12 -0
v -1 18 -0
v -1 19 -0
v 1 8 -0
v 1 12 -0
v 1 18 -0
v 1 19 -0
v 2 8 -0
v 2 10 -0
v 2 12 -0
v -1 7 -1
v -1 12 -1
v -1 15 -1
v -1 17 -1
v -1 18 -1
v 1 7 -1
v 1 12 -1
v 1 15 -1
v 1 17 -1
v 1 18 -1
v -3 16 -2
v -3 17 -2
v -2 13 -2
v -2 15 -2
v -2 16 -2
v -2 17 -2
v -1 13 -2
v -1 14 -2
v -1 15 -2
v 0 13 -2
v 0 14 -2
v 1 13 -2
v 1 14 -2
v 1 15 -2
v 2 13 -2
v 2 14 -2
v 2 15 -2
v 2 17 -2
v 3 14 -2
v 3 15 -2
v 3 17 -2
v -2 8 1
v -2 10 1
v -2 12 1
v -1 7 1
v -1 8 1
v -1 16 1
v -1 17 1
v -1 19 1
v 1 7 1
v 1 8 1
v 1 16 1
v 1 17 1
v 1 19 1
v 2 8 1
v 2 10 1
v 2 12 1
v -3 7 -0
v -3 10 -0
v -3 13 -0
v -2 7 -0
v -2 10 -0
v -2 13 -0
v -1 15 -0
v -1 16 -0
v 1 15 -0
v 1 16 -0
v 2 7 -0
v 2 10 -0
v 2 13 -0
v 3 7 -0
v 3 10 -0
v 3 13 -0
v -2 0 -1
v -2 2 -1
v -2 7 -1
v -2 14 -1
v -2 15 -1
v -1 0 -1
v -1 2 -1
v -1 6 -1
v -1 13 -1
v -1 14 -1
v -1 15 -1
v 1 0 -1
v 1 2 -1
v 1 6 -1
v 1 13 -1
v 1 14 -1
v 1 15 -1
v 2 0 -1
v 2 2 -1
v 2 7 -1
v 2 14 -1
v 2 15 -1
v -3 20 -2
v -3 21 -2
v -2 7 -2
v -2 13 -2
v -2 20 -2
v -2 21 -2
v -2 22 -2
v -1 13 -2
v 0 13 -2
v 0 14 -2
v 0 15 -2
v 1 13 -2
v 1 14 -2
v 1 15 -2
v 2 7 -2
v 2 13 -2
v 2 20 -2
v 2 21 -2
v 2 22 -2
v 3 20 -2
v 3 21 -2
v -3 16 -3
v -3 17 -3
v -3 19 -3
v -3 20 -3
v -2 13 -3
v -2 15 -3
v -2 16 -3
v -2 17 -3
v -2 19 -3
v -2 20 -3
v -2 21 -3
v -1 13 -3
v -1 15 -3
v 0 13 -3
v 0 15 -3
v 1 13 -3
v 1 15 -3
v 2 13 -3
v 2 14 -3
v 2 15 -3
v 2 18 -3
v 2 20 -3
v 2 21 -3
v 3 14 -3
v 3 15 -3
v 3 18 -3
v 3 20 -3
v -2 0 2
v -1 0 2
v 1 0 2
v 2 0 2
v -2 0 -1
v -1 0 -1
v 1 0 -1
v 2 0 -1
v -1 6 1
v 1 6 1
v -1 6 -1
v 1 6 -1
v -2 7 2
v 2 7 2
v -3 7 1
v -2 7 1
v 2 7 1
v 3 7 1
v -3 7 -0
v -2 7 -0
v 2 7 -0
v 3 7 -0
v -2 7 -1
v 2 7 -1
v -2 7 -2
v 2 7 -2
v -2 12 1
v 2 12 1
v -2 12 -0
v -1 12 -0
v 1 12 -0
v 2 12 -0
v -1 12 -1
v 1 12 -1
v -2 13 -2
v -1 13 -2
v 0 13 -2
v 1 13 -2
v 2 13 -2
v -2 13 -3
v -1 13 -3
v 0 13 -3
v 1 13 -3
v 2 13 -3
v -1 14 2
v 1 14 2
v -2 14 1
v -1 14 1
v 1 14 1
v 2 14 1
v -2 14 -1
v -1 14 -1
v 1 14 -1
v 2 14 -1
v -1 14 -2
v 0 14 -2
v 1 14 -2
v 2 14 -2
v 3 14 -2
v 2 14 -3
v 3 14 -3
v -2 15 2
v -1 15 2
v 1 15 2
v 2 15 2
v -2 15 1
v -1 15 1
v 1 15 1
v 2 15 1
v -2 15 -1
v -1 15 -1
v 1 15 -1
v 2 15 -1
v -2 15 -2
v -1 15 -2
v 0 15 -2
v 1 15 -2
v 2 15 -2
v 0 15 -3
v 1 15 -3
v -1 16 2
v 1 16 2
v -1 16 1
v 1 16 1
v -3 16 -2
v -2 16 -2
v -3 16 -3
v -2 16 -3
v -3 17 1
v -2 17 1
v 2 17 1
v 3 17 1
v -3 17 -2
v -2 17 -2
v 2 17 -2
v 3 17 -2
v -1 18 -0
v 1 18 -0
v -1 18 -1
v 1 18 -1
v -3 19 2
v -2 19 2
v 2 19 2
v 3 19 2
v -3 19 1
v -2 19 1
v -1 19 1
v 1 19 1
v 2 19 1
v 3 19 1
v -1 19 -0
v 1 19 -0
v -2 1 2
v -1 1 2
v 1 1 2
v 2 1 2
v -2 1 1
v -1 1 1
v 1 1 1
v 2 1 1
v -1 7 1
v 1 7 1
v -1 7 -1
v 1 7 -1
v -2 8 1
v -1 8 1
v 1 8 1
v 2 8 1
v -2 8 -0
v -1 8 -0
v 1 8 -0
v 2 8 -0
v -2 13 2
v 2 13 2
v -3 13 1
v -2 13 1
v -1 13 1
v 1 13 1
v 2 13 1
v 3 13 1
v -3 13 -0
v -2 13 -0
v 2 13 -0
v 3 13 -0
v -1 13 -1
v 1 13 -1
v -2 13 -2
v -1 13 -2
v 0 13 -2
v 1 13 -2
v 2 13 -2
v -1 15 2
v 1 15 2
v -1 15 1
v 1 15 1
v -1 15 -0
v 1 15 -0
v -1 15 -1
v 1 15 -1
v -1 16 1
v 1 16 1
v -1 16 -0
v 1 16 -0
v -3 20 -2
v -2 20 -2
v 2 20 -2
v 3 20 -2
v -3 20 -3
v -2 20 -3
v 2 20 -3
v 3 20 -3
v -3 21 2
v 3 21 2
v -2 21 1
v 2 21 1
v 2 21 -1
v 3 21 -1
v -3 21 -2
v -2 21 -2
v 2 21 -2
v 3 21 -2
v -2 21 -3
v 2 21 -3
v -2 22 1
v 2 22 1
v -2 22 -2
v 2 22 -2

# faces
f 3/5/1 2/5/1 1/5/1
f 4/5/1 2/5/1 3/5/1
f 5/8/1 4/8/1 3/8/1
f 6/8/1 4/8/1 5/8/1
f 10/1/1 8/1/1 7/1/1
f 11/1/1 8/1/1 10/1/1
f 13/1/1 10/1/1 9/1/1
f 14/3/1 11/3/1 10/3/1
f 14/1/1 10/1/1 13/1/1
f 15/3/1 11/3/1 14/3/1
f 16/1/1 13/1/1 12/1/1
f 16/1/1 14/1/1 13/1/1
f 16/1/1 15/1/1 14/1/1
f 17/1/1 15/1/1 16/1/1
f 18/1/1 16/1/1 12/1/1
f 19/1/1 16/1/1 18/1/1
f 22/8/1 21/8/1 20/8/1
f 23/8/1 21/8/1 22/8/1
f 24/8/1 21/8/1 23/8/1
f 25/8/1 21/8/1 24/8/1
f 27/4/1 25/4/1 24/4/1
f 28/4/1 25/4/1 27/4/1
f 29/4/1 25/4/1 28/4/1
f 31/8/1 27/8/1 26/8/1
f 32/8/1 29/8/1 28/8/1
f 32/8/1 30/8/1 29/8/1
f 33/8/1 31/8/1 26/8/1
f 34/8/1 31/8/1 33/8/1
f 35/8/1 30/8/1 32/8/1
f 36/8/1 30/8/1 35/8/1
f 41/5/1 39/5/1 38/5/1
f 42/5/1 39/5/1 41/5/1
f 43/3/1 37/3/1 36/3/1
f 44/3/1 37/3/1 43/3/1
f 45/5/1 42/5/1 41/5/1
f 45/5/1 41/5/1 40/5/1
f 45/1/1 44/1/1 43/1/1
f 45/5/1 43/5/1 42/5/1
f 46/1/1 44/1/1 45/1/1
f 47/5/1 45/5/1 40/5/1
f 48/5/1 45/5/1 47/5/1
f 49/5/1 45/5/1 48/5/1
f 50/2/1 48/2/1 47/2/1
f 51/2/1 48/2/1 50/2/1
f 52/5/1 51/5/1 50/5/1
f 53/5/1 51/5/1 52/5/1
f 57/1/1 55/1/1 54/1/1
f 58/1/1 55/1/1 57/1/1
f 59/1/1 57/1/1 56/1/1
f 60/1/1 57/1/1 59/1/1
f 64/5/1 62/5/1 61/5/1
f 65/5/1 62/5/1 64/5/1
f 67/5/1 64/5/1 63/5/1
f 68/5/1 64/5/1 67/5/1
f 69/5/1 66/5/1 65/5/1
f 70/5/1 66/5/1 69/5/1
f 73/8/1 72/8/1 71/8/1
f 74/8/1 72/8/1 73/8/1
f 75/8/1 72/8/1 74/8/1
f 76/8/1 72/8/1 75/8/1
f 77/4/1 76/4/1 75/4/1
f 78/4/1 76/4/1 77/4/1
f 81/8/1 80/8/1 79/8/1
f 82/8/1 80/8/1 81/8/1
f 83/8/1 80/8/1 82/8/1
f 84/8/1 80/8/1 83/8/1
f 87/1/1 86/1/1 85/1/1
f 92/1/1 86/1/1 87/1/1
f 93/1/1 86/1/1 92/1/1
f 94/5/1 89/5/1 88/5/1
f 95/5/1 89/5/1 94/5/1
f 96/5/1 91/5/1 90/5/1
f 97/5/1 96/5/1 95/5/1
f 98/5/1 91/5/1 96/5/1
f 98/5/1 96/5/1 97/5/1
f 99/1/1 98/1/1 97/1/1
f 100/1/1 98/1/1 99/1/1
f 101/1/1 99/1/1 97/1/1
f 102/1/1 99/1/1 101/1/1
f 105/5/1 104/5/1 103/5/1
f 106/5/1 104/5/1 105/5/1
f 107/8/1 106/8/1 105/8/1
f 108/8/1 106/8/1 107/8/1
f 109/5/2 110/5/2 111/5/2
f 111/5/2 110/5/2 112/5/2
f 111/8/2 112/8/2 113/8/2
f 113/8/2 112/8/2 114/8/2
f 115/8/2 116/8/2 117/8/2
f 117/8/2 116/8/2 118/8/2
f 118/8/2 116/8/2 119/8/2
f 119/8/2 116/8/2 120/8/2
f 119/4/2 120/4/2 121/4/2
f 121/4/2 120/4/2 122/4/2
f 123/8/2 124/8/2 125/8/2
f 125/8/2 124/8/2 126/8/2
f 126/8/2 124/8/2 127/8/2
f 127/8/2 124/8/2 128/8/2
f 129/5/2 130/5/2 133/5/2
f 133/5/2 130/5/2 134/5/2
f 131/5/2 132/5/2 135/5/2
f 134/5/2 135/5/2 136/5/2
f 135/5/2 132/5/2 137/5/2
f 136/5/2 135/5/2 137/5/2
f 136/1/2 137/1/2 138/1/2
f 138/1/2 137/1/2 139/1/2
f 136/1/2 138/1/2 140/1/2
f 140/1/2 138/1/2 141/1/2
f 142/1/2 143/1/2 144/1/2
f 144/1/2 143/1/2 145/1/2
f 145/1/2 143/1/2 146/1/2
f 147/5/2 148/5/2 150/5/2
f 150/5/2 148/5/2 151/5/2
f 149/5/2 150/5/2 153/5/2
f 153/5/2 150/5/2 154/5/2
f 151/5/2 152/5/2 155/5/2
f 155/5/2 152/5/2 156/5/2
f 157/8/2 158/8/2 159/8/2
f 159/8/2 158/8/2 160/8/2
f 160/8/2 158/8/2 161/8/2
f 161/8/2 158/8/2 162/8/2
f 161/4/2 162/4/2 164/4/2
f 164/4/2 162/4/2 165/4/2
f 165/4/2 162/4/2 166/4/2
f 163/8/2 164/8/2 168/8/2
f 165/8/2 166/8/2 169/8/2
f 166/8/2 167/8/2 169/8/2
f 163/8/2 168/8/2 170/8/2
f 170/8/2 168/8/2 171/8/2
f 169/8/2 167/8/2 172/8/2
f 172/8/2 167/8/2 173/8/2
f 173/1/2 174/1/2 177/1/2
f 177/1/2 174/1/2 178/1/2
f 175/5/2 176/5/2 180/5/2
f 180/5/2 176/5/2 181/5/2
f 179/5/2 180/5/2 183/5/2
f 181/5/2 182/5/2 183/5/2
f 180/5/2 181/5/2 183/5/2
f 183/5/2 182/5/2 184/5/2
f 184/5/2 182/5/2 185/5/2
f 183/2/2 184/2/2 186/2/2
f 186/2/2 184/2/2 187/2/2
f 186/5/2 187/5/2 188/5/2
f 188/5/2 187/5/2 189/5/2
f 190/1/2 191/1/2 194/1/2
f 194/1/2 191/1/2 195/1/2
f 192/1/2 193/1/2 196/1/2
f 193/1/2 194/1/2 196/1/2
f 196/1/2 194/1/2 197/1/2
f 198/5/2 199/5/2 200/5/2
f 200/5/2 199/5/2 201/5/2
f 200/8/2 201/8/2 202/8/2
f 202/8/2 201/8/2 203/8/2
f 204/1/2 205/1/2 206/1/2
f 206/1/2 205/1/2 207/1/2
f 206/3/2 207/3/2 209/3/2
f 209/3/2 207/3/2 210/3/2
f 208/1/2 209/1/2 210/1/2
f 210/3/2 207/3/2 211/3/2
f 208/1/2 210/1/2 213/1/2
f 210/1/2 211/1/2 213/1/2
f 213/1/2 211/1/2 214/1/2
f 212/1/2 213/1/2 214/1/2
f 214/1/2 211/1/2 215/1/2
f 215/1/2 211/1/2 216/1/2
f 212/1/2 214/1/2 217/1/2
f 214/3/2 215/3/2 218/3/2
f 217/1/2 214/1/2 218/1/2
f 218/3/2 215/3/2 219/3/2
f 229/1/3 221/1/3 220/1/3
f 230/8/3 223/8/3 222/8/3
f 231/8/3 223/8/3 230/8/3
f 233/5/3 227/5/3 226/5/3
f 234/5/3 227/5/3 233/5/3
f 235/2/3 228/2/3 227/2/3
f 235/5/3 227/5/3 234/5/3
f 236/5/3 229/5/3 228/5/3
f 236/2/3 228/2/3 235/2/3
f 239/5/3 233/5/3 232/5/3
f 240/5/3 233/5/3 239/5/3
f 241/5/3 235/5/3 234/5/3
f 241/5/3 236/5/3 235/5/3
f 242/5/3 236/5/3 241/5/3
f 243/5/3 229/5/3 236/5/3
f 243/5/3 236/5/3 242/5/3
f 244/8/3 238/8/3 237/8/3
f 245/8/3 238/8/3 244/8/3
f 246/8/3 225/8/3 224/8/3
f 247/8/3 225/8/3 246/8/3
f 248/5/3 242/5/3 241/5/3
f 248/5/3 241/5/3 240/5/3
f 249/2/3 243/2/3 242/2/3
f 249/5/3 242/5/3 248/5/3
f 250/5/3 229/5/3 243/5/3
f 250/2/3 243/2/3 249/2/3
f 251/1/3 221/1/3 229/1/3
f 251/5/3 229/5/3 250/5/3
f 252/1/3 221/1/3 251/1/3
f 253/1/3 221/1/3 252/1/3
f 261/5/3 255/5/3 254/5/3
f 262/8/3 256/8/3 255/8/3
f 262/5/3 255/5/3 261/5/3
f 263/8/3 256/8/3 262/8/3
f 266/1/3 258/1/3 257/1/3
f 267/1/3 258/1/3 266/1/3
f 268/1/3 258/1/3 267/1/3
f 271/8/3 260/8/3 259/8/3
f 272/4/3 261/4/3 260/4/3
f 272/8/3 260/8/3 271/8/3
f 273/4/3 261/4/3 272/4/3
f 275/5/3 265/5/3 264/5/3
f 276/5/3 265/5/3 275/5/3
f 280/4/3 261/4/3 273/4/3
f 281/5/3 275/5/3 274/5/3
f 282/5/3 275/5/3 281/5/3
f 283/7/3 277/7/3 276/7/3
f 284/7/3 277/7/3 283/7/3
f 285/8/3 279/8/3 278/8/3
f 286/4/3 280/4/3 279/4/3
f 286/8/3 279/8/3 285/8/3
f 287/4/3 261/4/3 280/4/3
f 287/4/3 280/4/3 286/4/3
f 290/5/3 283/5/3 282/5/3
f 291/5/3 283/5/3 290/5/3
f 295/1/3 270/1/3 269/1/3
f 296/1/3 270/1/3 295/1/3
f 297/5/3 288/5/3 287/5/3
f 298/8/3 289/8/3 288/8/3
f 298/5/3 288/5/3 297/5/3
f 299/8/3 289/8/3 298/8/3
f 300/1/3 294/1/3 293/1/3
f 300/1/3 293/1/3 292/1/3
f 301/1/3 294/1/3 300/1/3
f 305/8/3 303/8/3 302/8/3
f 305/8/3 304/8/3 303/8/3
f 306/8/3 304/8/3 305/8/3
f 311/6/3 308/6/3 307/6/3
f 312/6/3 308/6/3 311/6/3
f 313/8/3 310/8/3 309/8/3
f 314/8/3 310/8/3 313/8/3
f 315/8/3 310/8/3 314/8/3
f 321/8/3 317/8/3 316/8/3
f 322/8/3 317/8/3 321/8/3
f 323/5/3 319/5/3 318/5/3
f 324/1/3 320/1/3 319/1/3
f 324/5/3 319/5/3 323/5/3
f 325/1/3 320/1/3 324/1/3
f 330/1/3 327/1/3 326/1/3
f 331/1/3 327/1/3 330/1/3
f 332/3/3 329/3/3 328/3/3
f 333/3/3 329/3/3 332/3/3
f 334/3/3 329/3/3 333/3/3
f 335/1/3 333/1/3 332/1/3
f 336/1/3 333/1/3 335/1/3
f 340/1/3 338/1/3 337/1/3
f 340/1/3 339/1/3 338/1/3
f 341/1/3 339/1/3 340/1/3
f 342/1/3 339/1/3 341/1/3
f 344/1/3 342/1/3 341/1/3
f 345/3/3 343/3/3 342/3/3
f 345/1/3 342/1/3 344/1/3
f 346/3/3 343/3/3 345/3/3
f 347/8/4 348/8/4 351/8/4
f 348/8/4 349/8/4 351/8/4
f 350/8/4 351/8/4 355/8/4
f 351/8/4 349/8/4 356/8/4
f 355/8/4 351/8/4 356/8/4
f 353/5/4 354/5/4 357/5/4
f 352/5/4 353/5/4 357/5/4
f 357/5/4 354/5/4 358/5/4
f 358/5/4 354/5/4 359/5/4
f 356/8/4 349/8/4 360/8/4
f 360/8/4 349/8/4 361/8/4
f 361/8/4 349/8/4 362/8/4
f 363/5/4 364/5/4 366/5/4
f 364/8/4 365/8/4 367/8/4
f 366/5/4 364/5/4 367/5/4
f 367/8/4 365/8/4 368/8/4
f 369/7/4 370/7/4 371/7/4
f 371/7/4 370/7/4 372/7/4
f 373/5/4 374/5/4 376/5/4
f 374/8/4 375/8/4 377/8/4
f 376/5/4 374/5/4 377/5/4
f 377/8/4 375/8/4 378/8/4
f 379/8/4 380/8/4 384/8/4
f 380/4/4 381/4/4 385/4/4
f 384/8/4 380/8/4 385/8/4
f 385/4/4 381/4/4 386/4/4
f 382/5/4 383/5/4 388/5/4
f 388/5/4 383/5/4 389/5/4
f 386/4/4 381/4/4 392/4/4
f 387/5/4 388/5/4 393/5/4
f 393/5/4 388/5/4 394/5/4
f 390/8/4 391/8/4 396/8/4
f 391/4/4 392/4/4 397/4/4
f 396/8/4 391/8/4 397/8/4
f 392/4/4 381/4/4 398/4/4
f 397/4/4 392/4/4 398/4/4
f 394/5/4 395/5/4 399/5/4
f 399/5/4 395/5/4 400/5/4
f 401/1/4 402/1/4 405/1/4
f 405/1/4 402/1/4 406/1/4
f 403/8/4 404/8/4 408/8/4
f 403/8/4 408/8/4 409/8/4
f 403/8/4 409/8/4 412/8/4
f 410/5/4 411/5/4 413/5/4
f 413/5/4 411/5/4 414/5/4
f 403/8/4 412/8/4 415/8/4
f 415/8/4 412/8/4 416/8/4
f 406/1/4 407/1/4 418/1/4
f 418/1/4 407/1/4 419/1/4
f 417/3/4 418/3/4 420/3/4
f 420/3/4 418/3/4 421/3/4
f 422/1/4 423/1/4 428/1/4
f 423/3/4 424/3/4 429/3/4
f 428/1/4 423/1/4 429/1/4
f 424/1/4 425/1/4 430/1/4
f 429/3/4 424/3/4 430/3/4
f 430/1/4 425/1/4 431/1/4
f 426/3/4 427/3/4 433/3/4
f 431/1/4 432/1/4 434/1/4
f 433/3/4 427/3/4 434/3/4
f 427/1/4 428/1/4 434/1/4
f 430/1/4 431/1/4 434/1/4
f 429/1/4 430/1/4 434/1/4
f 428/1/4 429/1/4 434/1/4
f 433/1/4 434/1/4 435/1/4
f 434/1/4 432/1/4 436/1/4
f 435/1/4 434/1/4 436/1/4
f 436/1/4 432/1/4 438/1/4
f 437/1/4 438/1/4 439/1/4
f 439/1/4 438/1/4 440/1/4
f 438/1/4 432/1/4 441/1/4
f 440/1/4 438/1/4 441/1/4
f 441/1/4 432/1/4 442/1/4
f 442/1/4 432/1/4 443/1/4
f 443/1/4 432/1/4 444/1/4
f 440/1/4 441/1/4 445/1/4
f 441/3/4 442/3/4 446/3/4
f 445/1/4 441/1/4 446/1/4
f 442/1/4 443/1/4 447/1/4
f 446/3/4 442/3/4 447/3/4
f 447/1/4 443/1/4 448/1/4
f 453/8/5 450/8/5 449/8/5
f 454/8/5 450/8/5 453/8/5
f 455/8/5 452/8/5 451/8/5
f 456/8/5 452/8/5 455/8/5
f 459/4/5 458/4/5 457/4/5
f 460/4/5 458/4/5 459/4/5
f 464/8/5 462/8/5 461/8/5
f 465/8/5 462/8/5 464/8/5
f 467/5/5 464/5/5 463/5/5
f 468/5/5 464/5/5 467/5/5
f 469/5/5 466/5/5 465/5/5
f 470/5/5 466/5/5 469/5/5
f 473/8/5 472/8/5 471/8/5
f 474/8/5 472/8/5 473/8/5
f 477/8/5 476/8/5 475/8/5
f 478/8/5 476/8/5 477/8/5
f 479/8/5 476/8/5 478/8/5
f 480/8/5 476/8/5 479/8/5
f 481/8/5 479/8/5 478/8/5
f 482/8/5 479/8/5 481/8/5
f 488/3/5 484/3/5 483/3/5
f 489/1/5 485/1/5 484/1/5
f 489/3/5 484/3/5 488/3/5
f 490/1/5 485/1/5 489/1/5
f 491/1/5 487/1/5 486/1/5
f 492/1/5 487/1/5 491/1/5
f 496/5/5 494/5/5 493/5/5
f 497/5/5 494/5/5 496/5/5
f 499/5/5 496/5/5 495/5/5
f 500/5/5 496/5/5 499/5/5
f 501/5/5 498/5/5 497/5/5
f 502/5/5 498/5/5 501/5/5
f 503/5/5 501/5/5 500/5/5
f 504/5/5 501/5/5 503/5/5
f 505/5/5 501/5/5 504/5/5
f 508/1/5 507/1/5 506/1/5
f 509/1/5 507/1/5 508/1/5
f 514/5/5 511/5/5 510/5/5
f 515/5/5 511/5/5 514/5/5
f 516/5/5 513/5/5 512/5/5
f 517/5/5 513/5/5 516/5/5
f 522/5/5 519/5/5 518/5/5
f 523/5/5 519/5/5 522/5/5
f 525/5/5 521/5/5 520/5/5
f 526/5/5 521/5/5 525/5/5
f 527/1/5 525/1/5 524/1/5
f 528/1/5 525/1/5 527/1/5
f 531/5/5 530/5/5 529/5/5
f 532/5/5 530/5/5 531/5/5
f 535/1/5 534/1/5 533/1/5
f 536/1/5 534/1/5 535/1/5
f 541/1/5 538/1/5 537/1/5
f 542/1/5 538/1/5 541/1/5
f 543/1/5 540/1/5 539/1/5
f 544/1/5 540/1/5 543/1/5
f 547/6/5 546/6/5 545/6/5
f 548/6/5 546/6/5 547/6/5
f 553/1/5 550/1/5 549/1/5
f 554/1/5 550/1/5 553/1/5
f 557/1/5 552/1/5 551/1/5
f 558/1/5 552/1/5 557/1/5
f 559/1/5 556/1/5 555/1/5
f 560/1/5 556/1/5 559/1/5
f 561/8/6 562/8/6 565/8/6
f 565/8/6 562/8/6 566/8/6
f 563/8/6 564/8/6 567/8/6
f 567/8/6 564/8/6 568/8/6
f 569/4/6 570/4/6 571/4/6
f 571/4/6 570/4/6 572/4/6
f 573/8/6 574/8/6 577/8/6
f 577/8/6 574/8/6 578/8/6
f 575/8/6 576/8/6 579/8/6
f 579/8/6 576/8/6 580/8/6
f 581/8/6 582/8/6 584/8/6
f 584/8/6 582/8/6 585/8/6
f 585/8/6 582/8/6 586/8/6
f 586/8/6 582/8/6 587/8/6
f 583/8/6 584/8/6 589/8/6
f 584/8/6 585/8/6 589/8/6
f 589/8/6 585/8/6 590/8/6
f 587/8/6 588/8/6 591/8/6
f 586/8/6 587/8/6 591/8/6
f 591/8/6 588/8/6 592/8/6
f 590/8/6 585/8/6 593/8/6
f 586/8/6 591/8/6 594/8/6
f 590/8/6 593/8/6 595/8/6
f 593/8/6 594/8/6 595/8/6
f 595/8/6 594/8/6 596/8/6
f 596/8/6 594/8/6 597/8/6
f 594/8/6 591/8/6 598/8/6
f 597/8/6 594/8/6 598/8/6
f 598/8/6 591/8/6 599/8/6
f 600/5/6 601/5/6 602/5/6
f 602/5/6 601/5/6 603/5/6
f 604/5/6 605/5/6 606/5/6
f 606/5/6 605/5/6 607/5/6
f 608/7/6 609/7/6 610/7/6
f 610/7/6 609/7/6 611/7/6
f 612/1/6 613/1/6 616/1/6
f 616/1/6 613/1/6 617/1/6
f 614/1/6 615/1/6 618/1/6
f 618/1/6 615/1/6 619/1/6
f 620/1/6 621/1/6 622/1/6
f 622/1/6 621/1/6 623/1/6
f 623/1/6 621/1/6 624/1/6
f 624/1/6 621/1/6 625/1/6
f 620/1/6 622/1/6 626/1/6
f 626/1/6 622/1/6 627/1/6
f 624/3/6 625/3/6 628/3/6
f 628/3/6 625/3/6 629/3/6
f 627/1/6 628/1/6 630/1/6
f 630/1/6 628/1/6 631/1/6
f 632/1/6 633/1/6 634/1/6
f 634/1/6 633/1/6 635/1/6
