# MagicaVoxel @ Ephtracy

# group
g l

# material
mtllib l.mtl
usemtl palette

# normals
vn -1 0 0
vn 1 0 0
vn 0 0 1
vn 0 0 -1
vn 0 -1 0
vn 0 1 0

# texcoords
vt 0.931641 0.5
vt 0.994141 0.5

# verts
v -3 0 -2
v -3 0 -3
v -3 8 -2
v -3 8 -3
v -2 1 -1
v -2 1 -2
v -2 1 -3
v -2 1 -4
v -2 2 -3
v -2 2 -4
v -2 7 -1
v -2 7 -2
v 1 2 -3
v 1 2 -4
v 1 7 -3
v 1 7 -4
v -1 2 -1
v -1 2 -2
v -1 7 -1
v -1 7 -2
v 2 1 -1
v 2 1 -2
v 2 1 -3
v 2 1 -4
v 2 2 -1
v 2 2 -2
v 2 7 -3
v 2 7 -4
v 3 0 -2
v 3 0 -3
v 3 8 -2
v 3 8 -3
v -2 1 -1
v -2 7 -1
v -1 2 -1
v -1 7 -1
v 2 1 -1
v 2 2 -1
v -3 0 -2
v -3 8 -2
v -2 1 -2
v -2 7 -2
v -1 2 -2
v -1 7 -2
v 2 1 -2
v 2 2 -2
v 3 0 -2
v 3 8 -2
v -3 0 -3
v -3 8 -3
v -2 1 -3
v -2 2 -3
v 1 2 -3
v 1 7 -3
v 2 1 -3
v 2 7 -3
v 3 0 -3
v 3 8 -3
v -2 1 -4
v -2 2 -4
v 1 2 -4
v 1 7 -4
v 2 1 -4
v 2 7 -4
v -3 0 -2
v 3 0 -2
v -3 0 -3
v 3 0 -3
v -2 1 -1
v 2 1 -1
v -2 1 -2
v 2 1 -2
v -2 1 -3
v 2 1 -3
v -2 1 -4
v 2 1 -4
v -1 2 -1
v 2 2 -1
v -1 2 -2
v 2 2 -2
v -2 2 -3
v 1 2 -3
v -2 2 -4
v 1 2 -4
v -2 7 -1
v -1 7 -1
v -2 7 -2
v -1 7 -2
v 1 7 -3
v 2 7 -3
v 1 7 -4
v 2 7 -4
v -3 8 -2
v 3 8 -2
v -3 8 -3
v 3 8 -3

# faces
f 3/2/1 2/2/1 1/2/1
f 4/2/1 2/2/1 3/2/1
f 9/1/1 8/1/1 7/1/1
f 10/1/1 8/1/1 9/1/1
f 11/1/1 6/1/1 5/1/1
f 12/1/1 6/1/1 11/1/1
f 15/1/1 14/1/1 13/1/1
f 16/1/1 14/1/1 15/1/1
f 17/1/2 18/1/2 19/1/2
f 19/1/2 18/1/2 20/1/2
f 21/1/2 22/1/2 25/1/2
f 25/1/2 22/1/2 26/1/2
f 23/1/2 24/1/2 27/1/2
f 27/1/2 24/1/2 28/1/2
f 29/2/2 30/2/2 31/2/2
f 31/2/2 30/2/2 32/2/2
f 35/1/3 34/1/3 33/1/3
f 36/1/3 34/1/3 35/1/3
f 37/1/3 35/1/3 33/1/3
f 38/1/3 35/1/3 37/1/3
f 41/2/3 40/2/3 39/2/3
f 42/2/3 40/2/3 41/2/3
f 44/2/3 40/2/3 42/2/3
f 45/2/3 41/2/3 39/2/3
f 46/2/3 44/2/3 43/2/3
f 47/2/3 45/2/3 39/2/3
f 47/2/3 46/2/3 45/2/3
f 48/2/3 44/2/3 46/2/3
f 48/2/3 46/2/3 47/2/3
f 48/2/3 40/2/3 44/2/3
f 49/2/4 50/2/4 51/2/4
f 51/2/4 50/2/4 52/2/4
f 52/2/4 50/2/4 53/2/4
f 53/2/4 50/2/4 54/2/4
f 49/2/4 51/2/4 55/2/4
f 54/2/4 50/2/4 56/2/4
f 49/2/4 55/2/4 57/2/4
f 55/2/4 56/2/4 57/2/4
f 56/2/4 50/2/4 58/2/4
f 57/2/4 56/2/4 58/2/4
f 59/1/4 60/1/4 61/1/4
f 59/1/4 61/1/4 63/1/4
f 61/1/4 62/1/4 63/1/4
f 63/1/4 62/1/4 64/1/4
f 67/2/5 66/2/5 65/2/5
f 68/2/5 66/2/5 67/2/5
f 71/1/5 70/1/5 69/1/5
f 72/1/5 70/1/5 71/1/5
f 75/1/5 74/1/5 73/1/5
f 76/1/5 74/1/5 75/1/5
f 77/1/6 78/1/6 79/1/6
f 79/1/6 78/1/6 80/1/6
f 81/1/6 82/1/6 83/1/6
f 83/1/6 82/1/6 84/1/6
f 85/1/6 86/1/6 87/1/6
f 87/1/6 86/1/6 88/1/6
f 89/1/6 90/1/6 91/1/6
f 91/1/6 90/1/6 92/1/6
f 93/2/6 94/2/6 95/2/6
f 95/2/6 94/2/6 96/2/6
