# MagicaVoxel @ Ephtracy

# group
g m

# material
mtllib m.mtl
usemtl palette

# normals
vn -1 0 0
vn 1 0 0
vn 0 0 1
vn 0 0 -1
vn 0 -1 0
vn 0 1 0

# texcoords
vt 0.931641 0.5
vt 0.994141 0.5

# verts
v -4 0 -2
v -4 0 -3
v -4 8 -2
v -4 8 -3
v -3 1 -1
v -3 1 -2
v -3 1 -3
v -3 1 -4
v -3 7 -1
v -3 7 -2
v -3 7 -3
v -3 7 -4
v -2 1 -2
v -2 1 -3
v -2 5 -2
v -2 5 -3
v -2 6 -2
v -2 6 -3
v -2 7 -2
v -2 7 -3
v -1 4 -1
v -1 4 -2
v -1 4 -3
v -1 4 -4
v -1 5 -1
v -1 5 -2
v -1 5 -3
v -1 5 -4
v -1 6 -2
v -1 6 -3
v 1 0 -2
v 1 0 -3
v 1 3 -2
v 1 3 -3
v 1 4 -2
v 1 4 -3
v 1 5 -1
v 1 5 -2
v 1 5 -3
v 1 5 -4
v 1 6 -1
v 1 6 -2
v 1 6 -3
v 1 6 -4
v 1 7 -2
v 1 7 -3
v 1 8 -2
v 1 8 -3
v 2 1 -1
v 2 1 -2
v 2 1 -3
v 2 1 -4
v 2 5 -1
v 2 5 -2
v 2 5 -3
v 2 5 -4
v 2 6 -1
v 2 6 -2
v 2 6 -3
v 2 6 -4
v 2 7 -1
v 2 7 -2
v 2 7 -3
v 2 7 -4
v 3 1 -2
v 3 1 -3
v 3 7 -2
v 3 7 -3
v -3 1 -2
v -3 1 -3
v -3 7 -2
v -3 7 -3
v -2 1 -1
v -2 1 -2
v -2 1 -3
v -2 1 -4
v -2 5 -1
v -2 5 -2
v -2 5 -3
v -2 5 -4
v -2 6 -1
v -2 6 -2
v -2 6 -3
v -2 6 -4
v -2 7 -1
v -2 7 -2
v -2 7 -3
v -2 7 -4
v -1 0 -2
v -1 0 -3
v -1 3 -2
v -1 3 -3
v -1 4 -2
v -1 4 -3
v -1 5 -1
v -1 5 -2
v -1 5 -3
v -1 5 -4
v -1 6 -1
v -1 6 -2
v -1 6 -3
v -1 6 -4
v -1 7 -2
v -1 7 -3
v -1 8 -2
v -1 8 -3
v 1 4 -1
v 1 4 -2
v 1 4 -3
v 1 4 -4
v 1 5 -1
v 1 5 -2
v 1 5 -3
v 1 5 -4
v 1 6 -2
v 1 6 -3
v 2 1 -2
v 2 1 -3
v 2 5 -2
v 2 5 -3
v 2 6 -2
v 2 6 -3
v 2 7 -2
v 2 7 -3
v 3 1 -1
v 3 1 -2
v 3 1 -3
v 3 1 -4
v 3 7 -1
v 3 7 -2
v 3 7 -3
v 3 7 -4
v 4 0 -2
v 4 0 -3
v 4 8 -2
v 4 8 -3
v -3 1 -1
v -3 7 -1
v -2 1 -1
v -2 5 -1
v -2 6 -1
v -2 7 -1
v -1 4 -1
v -1 5 -1
v -1 6 -1
v 1 4 -1
v 1 5 -1
v 1 6 -1
v 2 1 -1
v 2 5 -1
v 2 6 -1
v 2 7 -1
v 3 1 -1
v 3 7 -1
v -4 0 -2
v -4 8 -2
v -3 1 -2
v -3 7 -2
v -2 1 -2
v -2 5 -2
v -2 6 -2
v -2 7 -2
v -1 0 -2
v -1 3 -2
v -1 4 -2
v -1 5 -2
v -1 6 -2
v -1 7 -2
v -1 8 -2
v 1 0 -2
v 1 3 -2
v 1 4 -2
v 1 5 -2
v 1 6 -2
v 1 7 -2
v 1 8 -2
v 2 1 -2
v 2 5 -2
v 2 6 -2
v 2 7 -2
v 3 1 -2
v 3 7 -2
v 4 0 -2
v 4 8 -2
v -3 1 -3
v -3 7 -3
v -2 1 -3
v -2 5 -3
v -2 6 -3
v -2 7 -3
v -1 4 -3
v -1 5 -3
v -1 6 -3
v 1 4 -3
v 1 5 -3
v 1 6 -3
v 2 1 -3
v 2 5 -3
v 2 6 -3
v 2 7 -3
v 3 1 -3
v 3 7 -3
v -3 1 -2
v -3 7 -2
v -2 1 -2
v -2 5 -2
v -2 6 -2
v -2 7 -2
v -1 4 -2
v -1 5 -2
v -1 6 -2
v 1 4 -2
v 1 5 -2
v 1 6 -2
v 2 1 -2
v 2 5 -2
v 2 6 -2
v 2 7 -2
v 3 1 -2
v 3 7 -2
v -4 0 -3
v -4 8 -3
v -3 1 -3
v -3 7 -3
v -2 1 -3
v -2 5 -3
v -2 6 -3
v -2 7 -3
v -1 0 -3
v -1 3 -3
v -1 4 -3
v -1 5 -3
v -1 6 -3
v -1 7 -3
v -1 8 -3
v 1 0 -3
v 1 3 -3
v 1 4 -3
v 1 5 -3
v 1 6 -3
v 1 7 -3
v 1 8 -3
v 2 1 -3
v 2 5 -3
v 2 6 -3
v 2 7 -3
v 3 1 -3
v 3 7 -3
v 4 0 -3
v 4 8 -3
v -3 1 -4
v -3 7 -4
v -2 1 -4
v -2 5 -4
v -2 6 -4
v -2 7 -4
v -1 4 -4
v -1 5 -4
v -1 6 -4
v 1 4 -4
v 1 5 -4
v 1 6 -4
v 2 1 -4
v 2 5 -4
v 2 6 -4
v 2 7 -4
v 3 1 -4
v 3 7 -4
v -4 0 -2
v -1 0 -2
v 1 0 -2
v 4 0 -2
v -4 0 -3
v -1 0 -3
v 1 0 -3
v 4 0 -3
v -3 1 -1
v -2 1 -1
v 2 1 -1
v 3 1 -1
v -3 1 -2
v -2 1 -2
v 2 1 -2
v 3 1 -2
v -3 1 -3
v -2 1 -3
v 2 1 -3
v 3 1 -3
v -3 1 -4
v -2 1 -4
v 2 1 -4
v 3 1 -4
v -1 3 -2
v 1 3 -2
v -1 3 -3
v 1 3 -3
v -1 4 -1
v 1 4 -1
v -1 4 -2
v 1 4 -2
v -1 4 -3
v 1 4 -3
v -1 4 -4
v 1 4 -4
v -2 5 -1
v -1 5 -1
v 1 5 -1
v 2 5 -1
v -2 5 -2
v -1 5 -2
v 1 5 -2
v 2 5 -2
v -2 5 -3
v -1 5 -3
v 1 5 -3
v 2 5 -3
v -2 5 -4
v -1 5 -4
v 1 5 -4
v 2 5 -4
v -2 6 -2
v -1 6 -2
v 1 6 -2
v 2 6 -2
v -2 6 -3
v -1 6 -3
v 1 6 -3
v 2 6 -3
v -3 7 -2
v -2 7 -2
v 2 7 -2
v 3 7 -2
v -3 7 -3
v -2 7 -3
v 2 7 -3
v 3 7 -3
v -3 1 -2
v -2 1 -2
v 2 1 -2
v 3 1 -2
v -3 1 -3
v -2 1 -3
v 2 1 -3
v 3 1 -3
v -1 4 -2
v 1 4 -2
v -1 4 -3
v 1 4 -3
v -1 5 -1
v 1 5 -1
v -2 5 -2
v -1 5 -2
v 1 5 -2
v 2 5 -2
v -2 5 -3
v -1 5 -3
v 1 5 -3
v 2 5 -3
v -1 5 -4
v 1 5 -4
v -2 6 -1
v -1 6 -1
v 1 6 -1
v 2 6 -1
v -2 6 -2
v -1 6 -2
v 1 6 -2
v 2 6 -2
v -2 6 -3
v -1 6 -3
v 1 6 -3
v 2 6 -3
v -2 6 -4
v -1 6 -4
v 1 6 -4
v 2 6 -4
v -3 7 -1
v -2 7 -1
v 2 7 -1
v 3 7 -1
v -3 7 -2
v -2 7 -2
v -1 7 -2
v 1 7 -2
v 2 7 -2
v 3 7 -2
v -3 7 -3
v -2 7 -3
v -1 7 -3
v 1 7 -3
v 2 7 -3
v 3 7 -3
v -3 7 -4
v -2 7 -4
v 2 7 -4
v 3 7 -4
v -4 8 -2
v -1 8 -2
v 1 8 -2
v 4 8 -2
v -4 8 -3
v -1 8 -3
v 1 8 -3
v 4 8 -3

# faces
f 3/2/1 2/2/1 1/2/1
f 4/2/1 2/2/1 3/2/1
f 9/1/1 6/1/1 5/1/1
f 10/1/1 6/1/1 9/1/1
f 11/1/1 8/1/1 7/1/1
f 12/1/1 8/1/1 11/1/1
f 15/2/1 14/2/1 13/2/1
f 16/2/1 14/2/1 15/2/1
f 19/2/1 18/2/1 17/2/1
f 20/2/1 18/2/1 19/2/1
f 25/1/1 22/1/1 21/1/1
f 26/1/1 22/1/1 25/1/1
f 27/1/1 24/1/1 23/1/1
f 28/1/1 24/1/1 27/1/1
f 29/2/1 27/2/1 26/2/1
f 30/2/1 27/2/1 29/2/1
f 33/2/1 32/2/1 31/2/1
f 34/2/1 32/2/1 33/2/1
f 38/2/1 36/2/1 35/2/1
f 39/2/1 36/2/1 38/2/1
f 41/1/1 38/1/1 37/1/1
f 42/1/1 38/1/1 41/1/1
f 43/1/1 40/1/1 39/1/1
f 44/1/1 40/1/1 43/1/1
f 47/2/1 46/2/1 45/2/1
f 48/2/1 46/2/1 47/2/1
f 53/1/1 50/1/1 49/1/1
f 54/1/1 50/1/1 53/1/1
f 55/1/1 52/1/1 51/1/1
f 56/1/1 52/1/1 55/1/1
f 61/1/1 58/1/1 57/1/1
f 62/1/1 58/1/1 61/1/1
f 63/1/1 60/1/1 59/1/1
f 64/1/1 60/1/1 63/1/1
f 67/2/1 66/2/1 65/2/1
f 68/2/1 66/2/1 67/2/1
f 69/2/2 70/2/2 71/2/2
f 71/2/2 70/2/2 72/2/2
f 73/1/2 74/1/2 77/1/2
f 77/1/2 74/1/2 78/1/2
f 75/1/2 76/1/2 79/1/2
f 79/1/2 76/1/2 80/1/2
f 81/1/2 82/1/2 85/1/2
f 85/1/2 82/1/2 86/1/2
f 83/1/2 84/1/2 87/1/2
f 87/1/2 84/1/2 88/1/2
f 89/2/2 90/2/2 91/2/2
f 91/2/2 90/2/2 92/2/2
f 93/2/2 94/2/2 96/2/2
f 96/2/2 94/2/2 97/2/2
f 95/1/2 96/1/2 99/1/2
f 99/1/2 96/1/2 100/1/2
f 97/1/2 98/1/2 101/1/2
f 101/1/2 98/1/2 102/1/2
f 103/2/2 104/2/2 105/2/2
f 105/2/2 104/2/2 106/2/2
f 107/1/2 108/1/2 111/1/2
f 111/1/2 108/1/2 112/1/2
f 109/1/2 110/1/2 113/1/2
f 113/1/2 110/1/2 114/1/2
f 112/2/2 113/2/2 115/2/2
f 115/2/2 113/2/2 116/2/2
f 117/2/2 118/2/2 119/2/2
f 119/2/2 118/2/2 120/2/2
f 121/2/2 122/2/2 123/2/2
f 123/2/2 122/2/2 124/2/2
f 125/1/2 126/1/2 129/1/2
f 129/1/2 126/1/2 130/1/2
f 127/1/2 128/1/2 131/1/2
f 131/1/2 128/1/2 132/1/2
f 133/2/2 134/2/2 135/2/2
f 135/2/2 134/2/2 136/2/2
f 139/1/3 138/1/3 137/1/3
f 140/1/3 138/1/3 139/1/3
f 141/1/3 138/1/3 140/1/3
f 142/1/3 138/1/3 141/1/3
f 144/1/3 141/1/3 140/1/3
f 145/1/3 141/1/3 144/1/3
f 146/1/3 144/1/3 143/1/3
f 147/1/3 144/1/3 146/1/3
f 150/1/3 148/1/3 147/1/3
f 151/1/3 148/1/3 150/1/3
f 153/1/3 151/1/3 150/1/3
f 153/1/3 152/1/3 151/1/3
f 153/1/3 150/1/3 149/1/3
f 154/1/3 152/1/3 153/1/3
f 157/2/3 156/2/3 155/2/3
f 158/2/3 156/2/3 157/2/3
f 159/2/3 157/2/3 155/2/3
f 162/2/3 156/2/3 158/2/3
f 163/2/3 160/2/3 159/2/3
f 163/2/3 159/2/3 155/2/3
f 164/2/3 160/2/3 163/2/3
f 165/2/3 160/2/3 164/2/3
f 166/2/3 160/2/3 165/2/3
f 167/2/3 162/2/3 161/2/3
f 168/2/3 156/2/3 162/2/3
f 168/2/3 162/2/3 167/2/3
f 169/2/3 156/2/3 168/2/3
f 171/2/3 165/2/3 164/2/3
f 172/2/3 165/2/3 171/2/3
f 173/2/3 167/2/3 166/2/3
f 173/2/3 168/2/3 167/2/3
f 174/2/3 168/2/3 173/2/3
f 175/2/3 168/2/3 174/2/3
f 177/2/3 172/2/3 171/2/3
f 177/2/3 171/2/3 170/2/3
f 177/2/3 173/2/3 172/2/3
f 178/2/3 173/2/3 177/2/3
f 179/2/3 176/2/3 175/2/3
f 179/2/3 175/2/3 174/2/3
f 180/2/3 176/2/3 179/2/3
f 181/2/3 177/2/3 170/2/3
f 182/2/3 176/2/3 180/2/3
f 183/2/3 181/2/3 170/2/3
f 183/2/3 182/2/3 181/2/3
f 184/2/3 176/2/3 182/2/3
f 184/2/3 182/2/3 183/2/3
f 187/1/3 186/1/3 185/1/3
f 188/1/3 186/1/3 187/1/3
f 189/1/3 186/1/3 188/1/3
f 190/1/3 186/1/3 189/1/3
f 192/1/3 189/1/3 188/1/3
f 193/1/3 189/1/3 192/1/3
f 194/1/3 192/1/3 191/1/3
f 195/1/3 192/1/3 194/1/3
f 198/1/3 196/1/3 195/1/3
f 199/1/3 196/1/3 198/1/3
f 201/1/3 199/1/3 198/1/3
f 201/1/3 200/1/3 199/1/3
f 201/1/3 198/1/3 197/1/3
f 202/1/3 200/1/3 201/1/3
f 203/1/4 204/1/4 205/1/4
f 205/1/4 204/1/4 206/1/4
f 206/1/4 204/1/4 207/1/4
f 207/1/4 204/1/4 208/1/4
f 206/1/4 207/1/4 210/1/4
f 210/1/4 207/1/4 211/1/4
f 209/1/4 210/1/4 212/1/4
f 212/1/4 210/1/4 213/1/4
f 213/1/4 214/1/4 216/1/4
f 216/1/4 214/1/4 217/1/4
f 216/1/4 217/1/4 219/1/4
f 217/1/4 218/1/4 219/1/4
f 215/1/4 216/1/4 219/1/4
f 219/1/4 218/1/4 220/1/4
f 221/2/4 222/2/4 223/2/4
f 223/2/4 222/2/4 224/2/4
f 221/2/4 223/2/4 225/2/4
f 224/2/4 222/2/4 228/2/4
f 225/2/4 226/2/4 229/2/4
f 221/2/4 225/2/4 229/2/4
f 229/2/4 226/2/4 230/2/4
f 230/2/4 226/2/4 231/2/4
f 231/2/4 226/2/4 232/2/4
f 227/2/4 228/2/4 233/2/4
f 228/2/4 222/2/4 234/2/4
f 233/2/4 228/2/4 234/2/4
f 234/2/4 222/2/4 235/2/4
f 230/2/4 231/2/4 237/2/4
f 237/2/4 231/2/4 238/2/4
f 232/2/4 233/2/4 239/2/4
f 233/2/4 234/2/4 239/2/4
f 239/2/4 234/2/4 240/2/4
f 240/2/4 234/2/4 241/2/4
f 237/2/4 238/2/4 243/2/4
f 236/2/4 237/2/4 243/2/4
f 238/2/4 239/2/4 243/2/4
f 243/2/4 239/2/4 244/2/4
f 241/2/4 242/2/4 245/2/4
f 240/2/4 241/2/4 245/2/4
f 245/2/4 242/2/4 246/2/4
f 236/2/4 243/2/4 247/2/4
f 246/2/4 242/2/4 248/2/4
f 236/2/4 247/2/4 249/2/4
f 247/2/4 248/2/4 249/2/4
f 248/2/4 242/2/4 250/2/4
f 249/2/4 248/2/4 250/2/4
f 251/1/4 252/1/4 253/1/4
f 253/1/4 252/1/4 254/1/4
f 254/1/4 252/1/4 255/1/4
f 255/1/4 252/1/4 256/1/4
f 254/1/4 255/1/4 258/1/4
f 258/1/4 255/1/4 259/1/4
f 257/1/4 258/1/4 260/1/4
f 260/1/4 258/1/4 261/1/4
f 261/1/4 262/1/4 264/1/4
f 264/1/4 262/1/4 265/1/4
f 264/1/4 265/1/4 267/1/4
f 265/1/4 266/1/4 267/1/4
f 263/1/4 264/1/4 267/1/4
f 267/1/4 266/1/4 268/1/4
f 273/2/5 270/2/5 269/2/5
f 274/2/5 270/2/5 273/2/5
f 275/2/5 272/2/5 271/2/5
f 276/2/5 272/2/5 275/2/5
f 281/1/5 278/1/5 277/1/5
f 282/1/5 278/1/5 281/1/5
f 283/1/5 280/1/5 279/1/5
f 284/1/5 280/1/5 283/1/5
f 289/1/5 286/1/5 285/1/5
f 290/1/5 286/1/5 289/1/5
f 291/1/5 288/1/5 287/1/5
f 292/1/5 288/1/5 291/1/5
f 295/2/5 294/2/5 293/2/5
f 296/2/5 294/2/5 295/2/5
f 299/1/5 298/1/5 297/1/5
f 300/1/5 298/1/5 299/1/5
f 303/1/5 302/1/5 301/1/5
f 304/1/5 302/1/5 303/1/5
f 309/1/5 306/1/5 305/1/5
f 310/1/5 306/1/5 309/1/5
f 311/1/5 308/1/5 307/1/5
f 312/1/5 308/1/5 311/1/5
f 314/2/5 311/2/5 310/2/5
f 315/2/5 311/2/5 314/2/5
f 317/1/5 314/1/5 313/1/5
f 318/1/5 314/1/5 317/1/5
f 319/1/5 316/1/5 315/1/5
f 320/1/5 316/1/5 319/1/5
f 325/2/5 322/2/5 321/2/5
f 326/2/5 322/2/5 325/2/5
f 327/2/5 324/2/5 323/2/5
f 328/2/5 324/2/5 327/2/5
f 333/2/5 330/2/5 329/2/5
f 334/2/5 330/2/5 333/2/5
f 335/2/5 332/2/5 331/2/5
f 336/2/5 332/2/5 335/2/5
f 337/2/6 338/2/6 341/2/6
f 341/2/6 338/2/6 342/2/6
f 339/2/6 340/2/6 343/2/6
f 343/2/6 340/2/6 344/2/6
f 345/2/6 346/2/6 347/2/6
f 347/2/6 346/2/6 348/2/6
f 349/1/6 350/1/6 352/1/6
f 352/1/6 350/1/6 353/1/6
f 351/2/6 352/2/6 355/2/6
f 355/2/6 352/2/6 356/2/6
f 353/2/6 354/2/6 357/2/6
f 357/2/6 354/2/6 358/2/6
f 356/1/6 357/1/6 359/1/6
f 359/1/6 357/1/6 360/1/6
f 361/1/6 362/1/6 365/1/6
f 365/1/6 362/1/6 366/1/6
f 363/1/6 364/1/6 367/1/6
f 367/1/6 364/1/6 368/1/6
f 369/1/6 370/1/6 373/1/6
f 373/1/6 370/1/6 374/1/6
f 371/1/6 372/1/6 375/1/6
f 375/1/6 372/1/6 376/1/6
f 377/1/6 378/1/6 381/1/6
f 381/1/6 378/1/6 382/1/6
f 379/1/6 380/1/6 385/1/6
f 385/1/6 380/1/6 386/1/6
f 383/2/6 384/2/6 389/2/6
f 389/2/6 384/2/6 390/2/6
f 387/1/6 388/1/6 393/1/6
f 393/1/6 388/1/6 394/1/6
f 391/1/6 392/1/6 395/1/6
f 395/1/6 392/1/6 396/1/6
f 397/2/6 398/2/6 401/2/6
f 401/2/6 398/2/6 402/2/6
f 399/2/6 400/2/6 403/2/6
f 403/2/6 400/2/6 404/2/6
