# MagicaVoxel @ Ephtracy

# group
g o

# material
mtllib o.mtl
usemtl palette

# normals
vn -1 0 0
vn 1 0 0
vn 0 0 1
vn 0 0 -1
vn 0 -1 0
vn 0 1 0

# texcoords
vt 0.931641 0.5
vt 0.994141 0.5

# verts
v -3 1 -2
v -3 1 -3
v -3 7 -2
v -3 7 -3
v -2 0 -2
v -2 0 -3
v -2 1 -2
v -2 1 -3
v -2 2 -1
v -2 2 -2
v -2 2 -3
v -2 2 -4
v -2 6 -1
v -2 6 -2
v -2 6 -3
v -2 6 -4
v -2 7 -2
v -2 7 -3
v -2 8 -2
v -2 8 -3
v -1 1 -1
v -1 1 -2
v -1 1 -3
v -1 1 -4
v -1 2 -1
v -1 2 -2
v -1 2 -3
v -1 2 -4
v -1 6 -1
v -1 6 -2
v -1 6 -3
v -1 6 -4
v -1 7 -1
v -1 7 -2
v -1 7 -3
v -1 7 -4
v 1 1 -2
v 1 1 -3
v 1 2 -1
v 1 2 -2
v 1 2 -3
v 1 2 -4
v 1 6 -1
v 1 6 -2
v 1 6 -3
v 1 6 -4
v 1 7 -2
v 1 7 -3
v 2 2 -2
v 2 2 -3
v 2 6 -2
v 2 6 -3
v -2 2 -2
v -2 2 -3
v -2 6 -2
v -2 6 -3
v -1 1 -2
v -1 1 -3
v -1 2 -1
v -1 2 -2
v -1 2 -3
v -1 2 -4
v -1 6 -1
v -1 6 -2
v -1 6 -3
v -1 6 -4
v -1 7 -2
v -1 7 -3
v 1 1 -1
v 1 1 -2
v 1 1 -3
v 1 1 -4
v 1 2 -1
v 1 2 -2
v 1 2 -3
v 1 2 -4
v 1 6 -1
v 1 6 -2
v 1 6 -3
v 1 6 -4
v 1 7 -1
v 1 7 -2
v 1 7 -3
v 1 7 -4
v 2 0 -2
v 2 0 -3
v 2 1 -2
v 2 1 -3
v 2 2 -1
v 2 2 -2
v 2 2 -3
v 2 2 -4
v 2 6 -1
v 2 6 -2
v 2 6 -3
v 2 6 -4
v 2 7 -2
v 2 7 -3
v 2 8 -2
v 2 8 -3
v 3 1 -2
v 3 1 -3
v 3 7 -2
v 3 7 -3
v -2 2 -1
v -2 6 -1
v -1 1 -1
v -1 2 -1
v -1 6 -1
v -1 7 -1
v 1 1 -1
v 1 2 -1
v 1 6 -1
v 1 7 -1
v 2 2 -1
v 2 6 -1
v -3 1 -2
v -3 7 -2
v -2 0 -2
v -2 1 -2
v -2 2 -2
v -2 6 -2
v -2 7 -2
v -2 8 -2
v -1 1 -2
v -1 2 -2
v -1 6 -2
v -1 7 -2
v 1 1 -2
v 1 2 -2
v 1 6 -2
v 1 7 -2
v 2 0 -2
v 2 1 -2
v 2 2 -2
v 2 6 -2
v 2 7 -2
v 2 8 -2
v 3 1 -2
v 3 7 -2
v -2 2 -3
v -2 6 -3
v -1 1 -3
v -1 2 -3
v -1 6 -3
v -1 7 -3
v 1 1 -3
v 1 2 -3
v 1 6 -3
v 1 7 -3
v 2 2 -3
v 2 6 -3
v -2 2 -2
v -2 6 -2
v -1 1 -2
v -1 2 -2
v -1 6 -2
v -1 7 -2
v 1 1 -2
v 1 2 -2
v 1 6 -2
v 1 7 -2
v 2 2 -2
v 2 6 -2
v -3 1 -3
v -3 7 -3
v -2 0 -3
v -2 1 -3
v -2 2 -3
v -2 6 -3
v -2 7 -3
v -2 8 -3
v -1 1 -3
v -1 2 -3
v -1 6 -3
v -1 7 -3
v 1 1 -3
v 1 2 -3
v 1 6 -3
v 1 7 -3
v 2 0 -3
v 2 1 -3
v 2 2 -3
v 2 6 -3
v 2 7 -3
v 2 8 -3
v 3 1 -3
v 3 7 -3
v -2 2 -4
v -2 6 -4
v -1 1 -4
v -1 2 -4
v -1 6 -4
v -1 7 -4
v 1 1 -4
v 1 2 -4
v 1 6 -4
v 1 7 -4
v 2 2 -4
v 2 6 -4
v -2 0 -2
v 2 0 -2
v -2 0 -3
v 2 0 -3
v -1 1 -1
v 1 1 -1
v -3 1 -2
v -2 1 -2
v -1 1 -2
v 1 1 -2
v 2 1 -2
v 3 1 -2
v -3 1 -3
v -2 1 -3
v -1 1 -3
v 1 1 -3
v 2 1 -3
v 3 1 -3
v -1 1 -4
v 1 1 -4
v -2 2 -1
v -1 2 -1
v 1 2 -1
v 2 2 -1
v -2 2 -2
v -1 2 -2
v 1 2 -2
v 2 2 -2
v -2 2 -3
v -1 2 -3
v 1 2 -3
v 2 2 -3
v -2 2 -4
v -1 2 -4
v 1 2 -4
v 2 2 -4
v -1 6 -1
v 1 6 -1
v -2 6 -2
v -1 6 -2
v 1 6 -2
v 2 6 -2
v -2 6 -3
v -1 6 -3
v 1 6 -3
v 2 6 -3
v -1 6 -4
v 1 6 -4
v -1 7 -2
v 1 7 -2
v -1 7 -3
v 1 7 -3
v -1 1 -2
v 1 1 -2
v -1 1 -3
v 1 1 -3
v -1 2 -1
v 1 2 -1
v -2 2 -2
v -1 2 -2
v 1 2 -2
v 2 2 -2
v -2 2 -3
v -1 2 -3
v 1 2 -3
v 2 2 -3
v -1 2 -4
v 1 2 -4
v -2 6 -1
v -1 6 -1
v 1 6 -1
v 2 6 -1
v -2 6 -2
v -1 6 -2
v 1 6 -2
v 2 6 -2
v -2 6 -3
v -1 6 -3
v 1 6 -3
v 2 6 -3
v -2 6 -4
v -1 6 -4
v 1 6 -4
v 2 6 -4
v -1 7 -1
v 1 7 -1
v -3 7 -2
v -2 7 -2
v -1 7 -2
v 1 7 -2
v 2 7 -2
v 3 7 -2
v -3 7 -3
v -2 7 -3
v -1 7 -3
v 1 7 -3
v 2 7 -3
v 3 7 -3
v -1 7 -4
v 1 7 -4
v -2 8 -2
v 2 8 -2
v -2 8 -3
v 2 8 -3

# faces
f 3/2/1 2/2/1 1/2/1
f 4/2/1 2/2/1 3/2/1
f 7/2/1 6/2/1 5/2/1
f 8/2/1 6/2/1 7/2/1
f 13/1/1 10/1/1 9/1/1
f 14/1/1 10/1/1 13/1/1
f 15/1/1 12/1/1 11/1/1
f 16/1/1 12/1/1 15/1/1
f 19/2/1 18/2/1 17/2/1
f 20/2/1 18/2/1 19/2/1
f 25/1/1 22/1/1 21/1/1
f 26/1/1 22/1/1 25/1/1
f 27/1/1 24/1/1 23/1/1
f 28/1/1 24/1/1 27/1/1
f 30/2/1 27/2/1 26/2/1
f 31/2/1 27/2/1 30/2/1
f 33/1/1 30/1/1 29/1/1
f 34/1/1 30/1/1 33/1/1
f 35/1/1 32/1/1 31/1/1
f 36/1/1 32/1/1 35/1/1
f 40/2/1 38/2/1 37/2/1
f 41/2/1 38/2/1 40/2/1
f 43/1/1 40/1/1 39/1/1
f 44/1/1 40/1/1 43/1/1
f 45/1/1 42/1/1 41/1/1
f 46/1/1 42/1/1 45/1/1
f 47/2/1 45/2/1 44/2/1
f 48/2/1 45/2/1 47/2/1
f 51/2/1 50/2/1 49/2/1
f 52/2/1 50/2/1 51/2/1
f 53/2/2 54/2/2 55/2/2
f 55/2/2 54/2/2 56/2/2
f 57/2/2 58/2/2 60/2/2
f 60/2/2 58/2/2 61/2/2
f 59/1/2 60/1/2 63/1/2
f 63/1/2 60/1/2 64/1/2
f 61/1/2 62/1/2 65/1/2
f 65/1/2 62/1/2 66/1/2
f 64/2/2 65/2/2 67/2/2
f 67/2/2 65/2/2 68/2/2
f 69/1/2 70/1/2 73/1/2
f 73/1/2 70/1/2 74/1/2
f 71/1/2 72/1/2 75/1/2
f 75/1/2 72/1/2 76/1/2
f 74/2/2 75/2/2 78/2/2
f 78/2/2 75/2/2 79/2/2
f 77/1/2 78/1/2 81/1/2
f 81/1/2 78/1/2 82/1/2
f 79/1/2 80/1/2 83/1/2
f 83/1/2 80/1/2 84/1/2
f 85/2/2 86/2/2 87/2/2
f 87/2/2 86/2/2 88/2/2
f 89/1/2 90/1/2 93/1/2
f 93/1/2 90/1/2 94/1/2
f 91/1/2 92/1/2 95/1/2
f 95/1/2 92/1/2 96/1/2
f 97/2/2 98/2/2 99/2/2
f 99/2/2 98/2/2 100/2/2
f 101/2/2 102/2/2 103/2/2
f 103/2/2 102/2/2 104/2/2
f 108/1/3 106/1/3 105/1/3
f 109/1/3 106/1/3 108/1/3
f 111/1/3 108/1/3 107/1/3
f 112/1/3 108/1/3 111/1/3
f 113/1/3 110/1/3 109/1/3
f 114/1/3 110/1/3 113/1/3
f 115/1/3 113/1/3 112/1/3
f 116/1/3 113/1/3 115/1/3
f 120/2/3 118/2/3 117/2/3
f 121/2/3 118/2/3 120/2/3
f 122/2/3 118/2/3 121/2/3
f 123/2/3 118/2/3 122/2/3
f 125/2/3 120/2/3 119/2/3
f 125/2/3 121/2/3 120/2/3
f 126/2/3 121/2/3 125/2/3
f 127/2/3 124/2/3 123/2/3
f 127/2/3 123/2/3 122/2/3
f 128/2/3 124/2/3 127/2/3
f 129/2/3 125/2/3 119/2/3
f 130/2/3 127/2/3 126/2/3
f 131/2/3 127/2/3 130/2/3
f 132/2/3 124/2/3 128/2/3
f 133/2/3 129/2/3 119/2/3
f 133/2/3 130/2/3 129/2/3
f 134/2/3 130/2/3 133/2/3
f 135/2/3 130/2/3 134/2/3
f 136/2/3 132/2/3 131/2/3
f 137/2/3 124/2/3 132/2/3
f 137/2/3 132/2/3 136/2/3
f 138/2/3 124/2/3 137/2/3
f 139/2/3 135/2/3 134/2/3
f 139/2/3 136/2/3 135/2/3
f 139/2/3 137/2/3 136/2/3
f 140/2/3 137/2/3 139/2/3
f 144/1/3 142/1/3 141/1/3
f 145/1/3 142/1/3 144/1/3
f 147/1/3 144/1/3 143/1/3
f 148/1/3 144/1/3 147/1/3
f 149/1/3 146/1/3 145/1/3
f 150/1/3 146/1/3 149/1/3
f 151/1/3 149/1/3 148/1/3
f 152/1/3 149/1/3 151/1/3
f 153/1/4 154/1/4 156/1/4
f 156/1/4 154/1/4 157/1/4
f 155/1/4 156/1/4 159/1/4
f 159/1/4 156/1/4 160/1/4
f 157/1/4 158/1/4 161/1/4
f 161/1/4 158/1/4 162/1/4
f 160/1/4 161/1/4 163/1/4
f 163/1/4 161/1/4 164/1/4
f 165/2/4 166/2/4 168/2/4
f 168/2/4 166/2/4 169/2/4
f 169/2/4 166/2/4 170/2/4
f 170/2/4 166/2/4 171/2/4
f 167/2/4 168/2/4 173/2/4
f 168/2/4 169/2/4 173/2/4
f 173/2/4 169/2/4 174/2/4
f 171/2/4 172/2/4 175/2/4
f 170/2/4 171/2/4 175/2/4
f 175/2/4 172/2/4 176/2/4
f 167/2/4 173/2/4 177/2/4
f 174/2/4 175/2/4 178/2/4
f 178/2/4 175/2/4 179/2/4
f 176/2/4 172/2/4 180/2/4
f 167/2/4 177/2/4 181/2/4
f 177/2/4 178/2/4 181/2/4
f 181/2/4 178/2/4 182/2/4
f 182/2/4 178/2/4 183/2/4
f 179/2/4 180/2/4 184/2/4
f 180/2/4 172/2/4 185/2/4
f 184/2/4 180/2/4 185/2/4
f 185/2/4 172/2/4 186/2/4
f 182/2/4 183/2/4 187/2/4
f 183/2/4 184/2/4 187/2/4
f 184/2/4 185/2/4 187/2/4
f 187/2/4 185/2/4 188/2/4
f 189/1/4 190/1/4 192/1/4
f 192/1/4 190/1/4 193/1/4
f 191/1/4 192/1/4 195/1/4
f 195/1/4 192/1/4 196/1/4
f 193/1/4 194/1/4 197/1/4
f 197/1/4 194/1/4 198/1/4
f 196/1/4 197/1/4 199/1/4
f 199/1/4 197/1/4 200/1/4
f 203/2/5 202/2/5 201/2/5
f 204/2/5 202/2/5 203/2/5
f 209/1/5 206/1/5 205/1/5
f 210/1/5 206/1/5 209/1/5
f 213/2/5 208/2/5 207/2/5
f 214/2/5 208/2/5 213/2/5
f 217/2/5 212/2/5 211/2/5
f 218/2/5 212/2/5 217/2/5
f 219/1/5 216/1/5 215/1/5
f 220/1/5 216/1/5 219/1/5
f 225/1/5 222/1/5 221/1/5
f 226/1/5 222/1/5 225/1/5
f 227/1/5 224/1/5 223/1/5
f 228/1/5 224/1/5 227/1/5
f 230/2/5 227/2/5 226/2/5
f 231/2/5 227/2/5 230/2/5
f 233/1/5 230/1/5 229/1/5
f 234/1/5 230/1/5 233/1/5
f 235/1/5 232/1/5 231/1/5
f 236/1/5 232/1/5 235/1/5
f 240/1/5 238/1/5 237/1/5
f 241/1/5 238/1/5 240/1/5
f 243/2/5 240/2/5 239/2/5
f 244/2/5 240/2/5 243/2/5
f 245/2/5 242/2/5 241/2/5
f 246/2/5 242/2/5 245/2/5
f 247/1/5 245/1/5 244/1/5
f 248/1/5 245/1/5 247/1/5
f 251/2/5 250/2/5 249/2/5
f 252/2/5 250/2/5 251/2/5
f 253/2/6 254/2/6 255/2/6
f 255/2/6 254/2/6 256/2/6
f 257/1/6 258/1/6 260/1/6
f 260/1/6 258/1/6 261/1/6
f 259/2/6 260/2/6 263/2/6
f 263/2/6 260/2/6 264/2/6
f 261/2/6 262/2/6 265/2/6
f 265/2/6 262/2/6 266/2/6
f 264/1/6 265/1/6 267/1/6
f 267/1/6 265/1/6 268/1/6
f 269/1/6 270/1/6 273/1/6
f 273/1/6 270/1/6 274/1/6
f 271/1/6 272/1/6 275/1/6
f 275/1/6 272/1/6 276/1/6
f 274/2/6 275/2/6 278/2/6
f 278/2/6 275/2/6 279/2/6
f 277/1/6 278/1/6 281/1/6
f 281/1/6 278/1/6 282/1/6
f 279/1/6 280/1/6 283/1/6
f 283/1/6 280/1/6 284/1/6
f 285/1/6 286/1/6 289/1/6
f 289/1/6 286/1/6 290/1/6
f 287/2/6 288/2/6 293/2/6
f 293/2/6 288/2/6 294/2/6
f 291/2/6 292/2/6 297/2/6
f 297/2/6 292/2/6 298/2/6
f 295/1/6 296/1/6 299/1/6
f 299/1/6 296/1/6 300/1/6
f 301/2/6 302/2/6 303/2/6
f 303/2/6 302/2/6 304/2/6
