# MagicaVoxel @ Ephtracy

# group
g p

# material
mtllib p.mtl
usemtl palette

# normals
vn -1 0 0
vn 1 0 0
vn 0 0 1
vn 0 0 -1
vn 0 -1 0
vn 0 1 0

# texcoords
vt 0.931641 0.5
vt 0.994141 0.5

# verts
v -3 0 -2
v -3 0 -3
v -3 8 -2
v -3 8 -3
v -2 1 -1
v -2 1 -2
v -2 4 -3
v -2 4 -4
v -2 6 -3
v -2 6 -4
v -2 7 -1
v -2 7 -2
v -1 3 -3
v -1 3 -4
v -1 4 -3
v -1 4 -4
v -1 6 -3
v -1 6 -4
v -1 7 -3
v -1 7 -4
v 1 1 -3
v 1 1 -4
v 1 3 -3
v 1 3 -4
v 1 4 -1
v 1 4 -2
v 1 4 -3
v 1 4 -4
v 1 6 -1
v 1 6 -2
v 1 6 -3
v 1 6 -4
v 2 4 -2
v 2 4 -3
v 2 6 -2
v 2 6 -3
v -1 1 -1
v -1 1 -2
v -1 3 -1
v -1 3 -2
v -1 4 -1
v -1 4 -2
v -1 4 -3
v -1 4 -4
v -1 6 -1
v -1 6 -2
v -1 6 -3
v -1 6 -4
v 1 3 -1
v 1 3 -2
v 1 4 -1
v 1 4 -2
v 1 4 -3
v 1 6 -1
v 1 6 -2
v 1 6 -3
v 1 7 -1
v 1 7 -2
v 2 1 -3
v 2 1 -4
v 2 4 -1
v 2 4 -2
v 2 6 -1
v 2 6 -2
v 2 7 -3
v 2 7 -4
v 3 0 -2
v 3 0 -3
v 3 8 -2
v 3 8 -3
v -2 1 -1
v -2 7 -1
v -1 1 -1
v -1 3 -1
v -1 4 -1
v -1 6 -1
v 1 3 -1
v 1 4 -1
v 1 6 -1
v 1 7 -1
v 2 4 -1
v 2 6 -1
v -3 0 -2
v -3 8 -2
v -2 1 -2
v -2 7 -2
v -1 1 -2
v -1 3 -2
v -1 4 -2
v -1 6 -2
v 1 3 -2
v 1 4 -2
v 1 6 -2
v 1 7 -2
v 2 4 -2
v 2 6 -2
v 3 0 -2
v 3 8 -2
v 1 4 -3
v 1 6 -3
v 2 4 -3
v 2 6 -3
v 1 4 -2
v 1 6 -2
v 2 4 -2
v 2 6 -2
v -3 0 -3
v -3 8 -3
v -2 4 -3
v -2 6 -3
v -1 3 -3
v -1 4 -3
v -1 6 -3
v -1 7 -3
v 1 1 -3
v 1 3 -3
v 1 4 -3
v 1 6 -3
v 2 1 -3
v 2 7 -3
v 3 0 -3
v 3 8 -3
v -2 4 -4
v -2 6 -4
v -1 3 -4
v -1 4 -4
v -1 6 -4
v -1 7 -4
v 1 1 -4
v 1 3 -4
v 1 4 -4
v 1 6 -4
v 2 1 -4
v 2 7 -4
v -3 0 -2
v 3 0 -2
v -3 0 -3
v 3 0 -3
v -2 1 -1
v -1 1 -1
v -2 1 -2
v -1 1 -2
v 1 1 -3
v 2 1 -3
v 1 1 -4
v 2 1 -4
v -1 3 -1
v 1 3 -1
v -1 3 -2
v 1 3 -2
v -1 3 -3
v 1 3 -3
v -1 3 -4
v 1 3 -4
v 1 4 -1
v 2 4 -1
v 1 4 -2
v 2 4 -2
v -2 4 -3
v -1 4 -3
v -2 4 -4
v -1 4 -4
v -1 6 -1
v 1 6 -1
v -1 6 -2
v 1 6 -2
v 2 6 -2
v -1 6 -3
v 1 6 -3
v 2 6 -3
v -1 6 -4
v 1 6 -4
v -1 4 -1
v 1 4 -1
v -1 4 -2
v 1 4 -2
v 2 4 -2
v -1 4 -3
v 1 4 -3
v 2 4 -3
v -1 4 -4
v 1 4 -4
v 1 6 -1
v 2 6 -1
v 1 6 -2
v 2 6 -2
v -2 6 -3
v -1 6 -3
v -2 6 -4
v -1 6 -4
v -2 7 -1
v 1 7 -1
v -2 7 -2
v 1 7 -2
v -1 7 -3
v 2 7 -3
v -1 7 -4
v 2 7 -4
v -3 8 -2
v 3 8 -2
v -3 8 -3
v 3 8 -3

# faces
f 3/2/1 2/2/1 1/2/1
f 4/2/1 2/2/1 3/2/1
f 9/1/1 8/1/1 7/1/1
f 10/1/1 8/1/1 9/1/1
f 11/1/1 6/1/1 5/1/1
f 12/1/1 6/1/1 11/1/1
f 15/1/1 14/1/1 13/1/1
f 16/1/1 14/1/1 15/1/1
f 19/1/1 18/1/1 17/1/1
f 20/1/1 18/1/1 19/1/1
f 23/1/1 22/1/1 21/1/1
f 24/1/1 22/1/1 23/1/1
f 29/1/1 26/1/1 25/1/1
f 30/1/1 26/1/1 29/1/1
f 31/1/1 28/1/1 27/1/1
f 32/1/1 28/1/1 31/1/1
f 35/2/1 34/2/1 33/2/1
f 36/2/1 34/2/1 35/2/1
f 37/1/2 38/1/2 39/1/2
f 39/1/2 38/1/2 40/1/2
f 41/1/2 42/1/2 45/1/2
f 45/1/2 42/1/2 46/1/2
f 43/1/2 44/1/2 47/1/2
f 47/1/2 44/1/2 48/1/2
f 49/1/2 50/1/2 51/1/2
f 51/1/2 50/1/2 52/1/2
f 52/2/2 53/2/2 55/2/2
f 55/2/2 53/2/2 56/2/2
f 54/1/2 55/1/2 57/1/2
f 57/1/2 55/1/2 58/1/2
f 61/1/2 62/1/2 63/1/2
f 63/1/2 62/1/2 64/1/2
f 59/1/2 60/1/2 65/1/2
f 65/1/2 60/1/2 66/1/2
f 67/2/2 68/2/2 69/2/2
f 69/2/2 68/2/2 70/2/2
f 73/1/3 72/1/3 71/1/3
f 74/1/3 72/1/3 73/1/3
f 75/1/3 72/1/3 74/1/3
f 76/1/3 72/1/3 75/1/3
f 77/1/3 75/1/3 74/1/3
f 78/1/3 75/1/3 77/1/3
f 79/1/3 72/1/3 76/1/3
f 80/1/3 72/1/3 79/1/3
f 81/1/3 79/1/3 78/1/3
f 82/1/3 79/1/3 81/1/3
f 85/2/3 84/2/3 83/2/3
f 86/2/3 84/2/3 85/2/3
f 87/2/3 85/2/3 83/2/3
f 91/2/3 88/2/3 87/2/3
f 92/2/3 90/2/3 89/2/3
f 93/2/3 90/2/3 92/2/3
f 94/2/3 84/2/3 86/2/3
f 95/2/3 92/2/3 91/2/3
f 96/2/3 94/2/3 93/2/3
f 97/2/3 95/2/3 91/2/3
f 97/2/3 96/2/3 95/2/3
f 97/2/3 87/2/3 83/2/3
f 97/2/3 91/2/3 87/2/3
f 98/2/3 94/2/3 96/2/3
f 98/2/3 96/2/3 97/2/3
f 98/2/3 84/2/3 94/2/3
f 101/1/3 100/1/3 99/1/3
f 102/1/3 100/1/3 101/1/3
f 103/1/4 104/1/4 105/1/4
f 105/1/4 104/1/4 106/1/4
f 107/2/4 108/2/4 109/2/4
f 109/2/4 108/2/4 110/2/4
f 107/2/4 109/2/4 111/2/4
f 111/2/4 109/2/4 112/2/4
f 110/2/4 108/2/4 113/2/4
f 113/2/4 108/2/4 114/2/4
f 107/2/4 111/2/4 115/2/4
f 115/2/4 111/2/4 116/2/4
f 112/2/4 113/2/4 117/2/4
f 117/2/4 113/2/4 118/2/4
f 107/2/4 115/2/4 119/2/4
f 114/2/4 108/2/4 120/2/4
f 107/2/4 119/2/4 121/2/4
f 119/2/4 120/2/4 121/2/4
f 120/2/4 108/2/4 122/2/4
f 121/2/4 120/2/4 122/2/4
f 123/1/4 124/1/4 126/1/4
f 126/1/4 124/1/4 127/1/4
f 125/1/4 126/1/4 130/1/4
f 130/1/4 126/1/4 131/1/4
f 127/1/4 128/1/4 132/1/4
f 130/1/4 131/1/4 133/1/4
f 131/1/4 132/1/4 133/1/4
f 129/1/4 130/1/4 133/1/4
f 132/1/4 128/1/4 134/1/4
f 133/1/4 132/1/4 134/1/4
f 137/2/5 136/2/5 135/2/5
f 138/2/5 136/2/5 137/2/5
f 141/1/5 140/1/5 139/1/5
f 142/1/5 140/1/5 141/1/5
f 145/1/5 144/1/5 143/1/5
f 146/1/5 144/1/5 145/1/5
f 149/1/5 148/1/5 147/1/5
f 150/1/5 148/1/5 149/1/5
f 153/1/5 152/1/5 151/1/5
f 154/1/5 152/1/5 153/1/5
f 157/1/5 156/1/5 155/1/5
f 158/1/5 156/1/5 157/1/5
f 161/1/5 160/1/5 159/1/5
f 162/1/5 160/1/5 161/1/5
f 165/1/5 164/1/5 163/1/5
f 166/1/5 164/1/5 165/1/5
f 169/2/5 167/2/5 166/2/5
f 170/2/5 167/2/5 169/2/5
f 171/1/5 169/1/5 168/1/5
f 172/1/5 169/1/5 171/1/5
f 173/1/6 174/1/6 175/1/6
f 175/1/6 174/1/6 176/1/6
f 176/2/6 177/2/6 179/2/6
f 179/2/6 177/2/6 180/2/6
f 178/1/6 179/1/6 181/1/6
f 181/1/6 179/1/6 182/1/6
f 183/1/6 184/1/6 185/1/6
f 185/1/6 184/1/6 186/1/6
f 187/1/6 188/1/6 189/1/6
f 189/1/6 188/1/6 190/1/6
f 191/1/6 192/1/6 193/1/6
f 193/1/6 192/1/6 194/1/6
f 195/1/6 196/1/6 197/1/6
f 197/1/6 196/1/6 198/1/6
f 199/2/6 200/2/6 201/2/6
f 201/2/6 200/2/6 202/2/6
