# MagicaVoxel @ Ephtracy

# group
g r

# material
mtllib r.mtl
usemtl palette

# normals
vn -1 0 0
vn 1 0 0
vn 0 0 1
vn 0 0 -1
vn 0 -1 0
vn 0 1 0

# texcoords
vt 0.931641 0.5
vt 0.994141 0.5

# verts
v -3 0 -2
v -3 0 -3
v -3 8 -2
v -3 8 -3
v -2 1 -1
v -2 1 -2
v -2 1 -3
v -2 1 -4
v -2 3 -3
v -2 3 -4
v -2 4 -3
v -2 4 -4
v -2 6 -3
v -2 6 -4
v -2 7 -1
v -2 7 -2
v -1 3 -3
v -1 3 -4
v -1 4 -3
v -1 4 -4
v -1 6 -3
v -1 6 -4
v -1 7 -3
v -1 7 -4
v 1 1 -1
v 1 1 -2
v 1 1 -3
v 1 1 -4
v 1 3 -1
v 1 3 -2
v 1 3 -3
v 1 3 -4
v 1 4 -1
v 1 4 -2
v 1 4 -3
v 1 4 -4
v 1 6 -1
v 1 6 -2
v 1 6 -3
v 1 6 -4
v 2 1 -2
v 2 1 -3
v 2 3 -2
v 2 3 -3
v 2 4 -2
v 2 4 -3
v 2 6 -2
v 2 6 -3
v -1 1 -1
v -1 1 -2
v -1 1 -3
v -1 1 -4
v -1 3 -1
v -1 3 -2
v -1 3 -3
v -1 3 -4
v -1 4 -1
v -1 4 -2
v -1 4 -3
v -1 4 -4
v -1 6 -1
v -1 6 -2
v -1 6 -3
v -1 6 -4
v 1 1 -2
v 1 1 -3
v 1 3 -1
v 1 3 -2
v 1 3 -3
v 1 4 -1
v 1 4 -2
v 1 4 -3
v 1 6 -1
v 1 6 -2
v 1 6 -3
v 1 7 -1
v 1 7 -2
v 2 1 -1
v 2 1 -2
v 2 1 -3
v 2 1 -4
v 2 3 -1
v 2 3 -2
v 2 4 -1
v 2 4 -2
v 2 6 -1
v 2 6 -2
v 2 7 -3
v 2 7 -4
v 3 0 -2
v 3 0 -3
v 3 8 -2
v 3 8 -3
v -2 1 -1
v -2 7 -1
v -1 1 -1
v -1 3 -1
v -1 4 -1
v -1 6 -1
v 1 1 -1
v 1 3 -1
v 1 4 -1
v 1 6 -1
v 1 7 -1
v 2 1 -1
v 2 3 -1
v 2 4 -1
v 2 6 -1
v -3 0 -2
v -3 8 -2
v -2 1 -2
v -2 7 -2
v -1 1 -2
v -1 3 -2
v -1 4 -2
v -1 6 -2
v 1 1 -2
v 1 3 -2
v 1 4 -2
v 1 6 -2
v 1 7 -2
v 2 1 -2
v 2 3 -2
v 2 4 -2
v 2 6 -2
v 3 0 -2
v 3 8 -2
v 1 1 -3
v 1 3 -3
v 1 4 -3
v 1 6 -3
v 2 1 -3
v 2 3 -3
v 2 4 -3
v 2 6 -3
v 1 1 -2
v 1 3 -2
v 1 4 -2
v 1 6 -2
v 2 1 -2
v 2 3 -2
v 2 4 -2
v 2 6 -2
v -3 0 -3
v -3 8 -3
v -2 1 -3
v -2 3 -3
v -2 4 -3
v -2 6 -3
v -1 1 -3
v -1 3 -3
v -1 4 -3
v -1 6 -3
v -1 7 -3
v 1 1 -3
v 1 3 -3
v 1 4 -3
v 1 6 -3
v 2 1 -3
v 2 7 -3
v 3 0 -3
v 3 8 -3
v -2 1 -4
v -2 3 -4
v -2 4 -4
v -2 6 -4
v -1 1 -4
v -1 3 -4
v -1 4 -4
v -1 6 -4
v -1 7 -4
v 1 1 -4
v 1 3 -4
v 1 4 -4
v 1 6 -4
v 2 1 -4
v 2 7 -4
v -3 0 -2
v 3 0 -2
v -3 0 -3
v 3 0 -3
v -2 1 -1
v -1 1 -1
v 1 1 -1
v 2 1 -1
v -2 1 -2
v -1 1 -2
v 1 1 -2
v 2 1 -2
v -2 1 -3
v -1 1 -3
v 1 1 -3
v 2 1 -3
v -2 1 -4
v -1 1 -4
v 1 1 -4
v 2 1 -4
v -1 3 -1
v 1 3 -1
v -1 3 -2
v 1 3 -2
v 2 3 -2
v -1 3 -3
v 1 3 -3
v 2 3 -3
v -1 3 -4
v 1 3 -4
v 1 4 -1
v 2 4 -1
v 1 4 -2
v 2 4 -2
v -2 4 -3
v -1 4 -3
v -2 4 -4
v -1 4 -4
v -1 6 -1
v 1 6 -1
v -1 6 -2
v 1 6 -2
v 2 6 -2
v -1 6 -3
v 1 6 -3
v 2 6 -3
v -1 6 -4
v 1 6 -4
v 1 1 -2
v 2 1 -2
v 1 1 -3
v 2 1 -3
v 1 3 -1
v 2 3 -1
v 1 3 -2
v 2 3 -2
v -2 3 -3
v -1 3 -3
v -2 3 -4
v -1 3 -4
v -1 4 -1
v 1 4 -1
v -1 4 -2
v 1 4 -2
v 2 4 -2
v -1 4 -3
v 1 4 -3
v 2 4 -3
v -1 4 -4
v 1 4 -4
v 1 6 -1
v 2 6 -1
v 1 6 -2
v 2 6 -2
v -2 6 -3
v -1 6 -3
v -2 6 -4
v -1 6 -4
v -2 7 -1
v 1 7 -1
v -2 7 -2
v 1 7 -2
v -1 7 -3
v 2 7 -3
v -1 7 -4
v 2 7 -4
v -3 8 -2
v 3 8 -2
v -3 8 -3
v 3 8 -3

# faces
f 3/2/1 2/2/1 1/2/1
f 4/2/1 2/2/1 3/2/1
f 9/1/1 8/1/1 7/1/1
f 10/1/1 8/1/1 9/1/1
f 13/1/1 12/1/1 11/1/1
f 14/1/1 12/1/1 13/1/1
f 15/1/1 6/1/1 5/1/1
f 16/1/1 6/1/1 15/1/1
f 19/1/1 18/1/1 17/1/1
f 20/1/1 18/1/1 19/1/1
f 23/1/1 22/1/1 21/1/1
f 24/1/1 22/1/1 23/1/1
f 29/1/1 26/1/1 25/1/1
f 30/1/1 26/1/1 29/1/1
f 31/1/1 28/1/1 27/1/1
f 32/1/1 28/1/1 31/1/1
f 37/1/1 34/1/1 33/1/1
f 38/1/1 34/1/1 37/1/1
f 39/1/1 36/1/1 35/1/1
f 40/1/1 36/1/1 39/1/1
f 43/2/1 42/2/1 41/2/1
f 44/2/1 42/2/1 43/2/1
f 47/2/1 46/2/1 45/2/1
f 48/2/1 46/2/1 47/2/1
f 49/1/2 50/1/2 53/1/2
f 53/1/2 50/1/2 54/1/2
f 51/1/2 52/1/2 55/1/2
f 55/1/2 52/1/2 56/1/2
f 57/1/2 58/1/2 61/1/2
f 61/1/2 58/1/2 62/1/2
f 59/1/2 60/1/2 63/1/2
f 63/1/2 60/1/2 64/1/2
f 65/2/2 66/2/2 68/2/2
f 68/2/2 66/2/2 69/2/2
f 67/1/2 68/1/2 70/1/2
f 70/1/2 68/1/2 71/1/2
f 71/2/2 72/2/2 74/2/2
f 74/2/2 72/2/2 75/2/2
f 73/1/2 74/1/2 76/1/2
f 76/1/2 74/1/2 77/1/2
f 78/1/2 79/1/2 82/1/2
f 82/1/2 79/1/2 83/1/2
f 84/1/2 85/1/2 86/1/2
f 86/1/2 85/1/2 87/1/2
f 80/1/2 81/1/2 88/1/2
f 88/1/2 81/1/2 89/1/2
f 90/2/2 91/2/2 92/2/2
f 92/2/2 91/2/2 93/2/2
f 96/1/3 95/1/3 94/1/3
f 97/1/3 95/1/3 96/1/3
f 98/1/3 95/1/3 97/1/3
f 99/1/3 95/1/3 98/1/3
f 101/1/3 98/1/3 97/1/3
f 102/1/3 98/1/3 101/1/3
f 103/1/3 95/1/3 99/1/3
f 104/1/3 95/1/3 103/1/3
f 105/1/3 101/1/3 100/1/3
f 106/1/3 101/1/3 105/1/3
f 107/1/3 103/1/3 102/1/3
f 108/1/3 103/1/3 107/1/3
f 111/2/3 110/2/3 109/2/3
f 112/2/3 110/2/3 111/2/3
f 113/2/3 111/2/3 109/2/3
f 117/2/3 113/2/3 109/2/3
f 117/2/3 114/2/3 113/2/3
f 118/2/3 114/2/3 117/2/3
f 119/2/3 116/2/3 115/2/3
f 120/2/3 116/2/3 119/2/3
f 121/2/3 110/2/3 112/2/3
f 122/2/3 117/2/3 109/2/3
f 123/2/3 119/2/3 118/2/3
f 124/2/3 119/2/3 123/2/3
f 125/2/3 121/2/3 120/2/3
f 126/2/3 124/2/3 123/2/3
f 126/2/3 125/2/3 124/2/3
f 126/2/3 122/2/3 109/2/3
f 126/2/3 123/2/3 122/2/3
f 127/2/3 121/2/3 125/2/3
f 127/2/3 125/2/3 126/2/3
f 127/2/3 110/2/3 121/2/3
f 132/1/3 129/1/3 128/1/3
f 133/1/3 129/1/3 132/1/3
f 134/1/3 131/1/3 130/1/3
f 135/1/3 131/1/3 134/1/3
f 136/1/4 137/1/4 140/1/4
f 140/1/4 137/1/4 141/1/4
f 138/1/4 139/1/4 142/1/4
f 142/1/4 139/1/4 143/1/4
f 144/2/4 145/2/4 146/2/4
f 146/2/4 145/2/4 147/2/4
f 147/2/4 145/2/4 148/2/4
f 148/2/4 145/2/4 149/2/4
f 144/2/4 146/2/4 150/2/4
f 147/2/4 148/2/4 151/2/4
f 151/2/4 148/2/4 152/2/4
f 149/2/4 145/2/4 153/2/4
f 153/2/4 145/2/4 154/2/4
f 144/2/4 150/2/4 155/2/4
f 150/2/4 151/2/4 155/2/4
f 155/2/4 151/2/4 156/2/4
f 152/2/4 153/2/4 157/2/4
f 157/2/4 153/2/4 158/2/4
f 144/2/4 155/2/4 159/2/4
f 154/2/4 145/2/4 160/2/4
f 144/2/4 159/2/4 161/2/4
f 159/2/4 160/2/4 161/2/4
f 160/2/4 145/2/4 162/2/4
f 161/2/4 160/2/4 162/2/4
f 163/1/4 164/1/4 167/1/4
f 167/1/4 164/1/4 168/1/4
f 165/1/4 166/1/4 169/1/4
f 169/1/4 166/1/4 170/1/4
f 168/1/4 169/1/4 173/1/4
f 173/1/4 169/1/4 174/1/4
f 170/1/4 171/1/4 175/1/4
f 173/1/4 174/1/4 176/1/4
f 174/1/4 175/1/4 176/1/4
f 172/1/4 173/1/4 176/1/4
f 175/1/4 171/1/4 177/1/4
f 176/1/4 175/1/4 177/1/4
f 180/2/5 179/2/5 178/2/5
f 181/2/5 179/2/5 180/2/5
f 186/1/5 183/1/5 182/1/5
f 187/1/5 183/1/5 186/1/5
f 188/1/5 185/1/5 184/1/5
f 189/1/5 185/1/5 188/1/5
f 194/1/5 191/1/5 190/1/5
f 195/1/5 191/1/5 194/1/5
f 196/1/5 193/1/5 192/1/5
f 197/1/5 193/1/5 196/1/5
f 200/1/5 199/1/5 198/1/5
f 201/1/5 199/1/5 200/1/5
f 204/2/5 202/2/5 201/2/5
f 205/2/5 202/2/5 204/2/5
f 206/1/5 204/1/5 203/1/5
f 207/1/5 204/1/5 206/1/5
f 210/1/5 209/1/5 208/1/5
f 211/1/5 209/1/5 210/1/5
f 214/1/5 213/1/5 212/1/5
f 215/1/5 213/1/5 214/1/5
f 218/1/5 217/1/5 216/1/5
f 219/1/5 217/1/5 218/1/5
f 222/2/5 220/2/5 219/2/5
f 223/2/5 220/2/5 222/2/5
f 224/1/5 222/1/5 221/1/5
f 225/1/5 222/1/5 224/1/5
f 226/2/6 227/2/6 228/2/6
f 228/2/6 227/2/6 229/2/6
f 230/1/6 231/1/6 232/1/6
f 232/1/6 231/1/6 233/1/6
f 234/1/6 235/1/6 236/1/6
f 236/1/6 235/1/6 237/1/6
f 238/1/6 239/1/6 240/1/6
f 240/1/6 239/1/6 241/1/6
f 241/2/6 242/2/6 244/2/6
f 244/2/6 242/2/6 245/2/6
f 243/1/6 244/1/6 246/1/6
f 246/1/6 244/1/6 247/1/6
f 248/1/6 249/1/6 250/1/6
f 250/1/6 249/1/6 251/1/6
f 252/1/6 253/1/6 254/1/6
f 254/1/6 253/1/6 255/1/6
f 256/1/6 257/1/6 258/1/6
f 258/1/6 257/1/6 259/1/6
f 260/1/6 261/1/6 262/1/6
f 262/1/6 261/1/6 263/1/6
f 264/2/6 265/2/6 266/2/6
f 266/2/6 265/2/6 267/2/6
