# MagicaVoxel @ Ephtracy

# group
g stone

# material
mtllib stone.mtl
usemtl palette

# normals
vn -1 0 0
vn 1 0 0
vn 0 0 1
vn 0 0 -1
vn 0 -1 0
vn 0 1 0

# texcoords
vt 0.564453 0.5
vt 0.568359 0.5
vt 0.572266 0.5
vt 0.576172 0.5
vt 0.580078 0.5
vt 0.583984 0.5

# verts
v -3 0 1
v -3 0 -0
v -3 0 -1
v -3 0 -2
v -3 1 1
v -3 1 -0
v -3 1 -1
v -3 1 -2
v -3 1 -3
v -3 2 -0
v -3 2 -1
v -3 2 -3
v -2 0 3
v -2 0 2
v -2 0 1
v -2 0 -2
v -2 0 -3
v -2 1 3
v -2 1 2
v -2 1 1
v -2 1 -0
v -2 1 -2
v -2 1 -3
v -2 2 3
v -2 2 2
v -2 2 -0
v 0 1 -2
v 0 1 -3
v 0 2 -2
v 0 2 -3
v -1 1 -2
v -1 1 -3
v -1 2 -2
v -1 2 -3
v 1 0 3
v 1 0 2
v 1 1 2
v 1 1 -2
v 1 1 -3
v 1 2 3
v 1 2 2
v 1 2 -2
v 1 2 -3
v 2 0 2
v 2 0 1
v 2 0 -2
v 2 0 -3
v 2 1 2
v 2 1 1
v 2 1 -1
v 2 1 -2
v 2 1 -3
v 2 2 -1
v 2 2 -2
v 3 0 1
v 3 0 -1
v 3 0 -2
v 3 1 2
v 3 1 1
v 3 1 -1
v 3 1 -2
v 3 2 2
v 3 2 1
v 3 2 -1
v -2 0 3
v -2 1 3
v -2 2 3
v -1 0 3
v -1 1 3
v -1 2 3
v 0 1 3
v 0 2 3
v 1 0 3
v 1 2 3
v 1 0 2
v 1 1 2
v 1 2 2
v 2 0 2
v 2 1 2
v 2 2 2
v 3 1 2
v 3 2 2
v -3 0 1
v -3 1 1
v -2 0 1
v -2 1 1
v 2 0 1
v 2 1 1
v 3 0 1
v 3 1 1
v -3 1 -0
v -3 2 -0
v -2 1 -0
v -2 2 -0
v 2 1 -1
v 2 2 -1
v 3 1 -1
v 3 2 -1
v -3 0 -2
v -3 1 -2
v -2 0 -2
v -2 1 -2
v -1 1 -2
v -1 2 -2
v 0 1 -2
v 0 2 -2
v 1 1 -2
v 1 2 -2
v 2 0 -2
v 2 1 -2
v 2 2 -2
v 3 0 -2
v 3 1 -2
v -3 1 -3
v -3 2 -3
v -2 0 -3
v -2 1 -3
v -2 2 -3
v -1 0 -3
v -1 1 -3
v -1 2 -3
v 0 0 -3
v 0 1 -3
v 0 2 -3
v 1 1 -3
v 1 2 -3
v 2 0 -3
v 2 1 -3
v -2 0 3
v -1 0 3
v 1 0 3
v -2 0 2
v -1 0 2
v 1 0 2
v 2 0 2
v -3 0 1
v -2 0 1
v -1 0 1
v 0 0 1
v 1 0 1
v 2 0 1
v 3 0 1
v -3 0 -0
v -2 0 -0
v -1 0 -0
v 0 0 -0
v 1 0 -0
v -3 0 -1
v -2 0 -1
v -1 0 -1
v 0 0 -1
v 1 0 -1
v 2 0 -1
v 3 0 -1
v -3 0 -2
v -2 0 -2
v -1 0 -2
v 0 0 -2
v 1 0 -2
v 2 0 -2
v 3 0 -2
v -2 0 -3
v -1 0 -3
v 0 0 -3
v 2 0 -3
v 2 1 2
v 3 1 2
v 2 1 1
v 3 1 1
v -3 1 -2
v -2 1 -2
v -3 1 -3
v -2 1 -3
v -3 1 1
v -2 1 1
v -3 1 -0
v -2 1 -0
v 2 1 -1
v 3 1 -1
v -1 1 -2
v 0 1 -2
v 1 1 -2
v 2 1 -2
v 3 1 -2
v -1 1 -3
v 0 1 -3
v 1 1 -3
v 2 1 -3
v -2 2 3
v -1 2 3
v 0 2 3
v 1 2 3
v -2 2 2
v -1 2 2
v 0 2 2
v 1 2 2
v 2 2 2
v 3 2 2
v -1 2 1
v 0 2 1
v 1 2 1
v 2 2 1
v 3 2 1
v -3 2 -0
v -2 2 -0
v -1 2 -0
v 0 2 -0
v 1 2 -0
v -3 2 -1
v -2 2 -1
v -1 2 -1
v 0 2 -1
v 1 2 -1
v 2 2 -1
v 3 2 -1
v -2 2 -2
v -1 2 -2
v 0 2 -2
v 1 2 -2
v 2 2 -2
v -3 2 -3
v -2 2 -3
v -1 2 -3
v 0 2 -3
v 1 2 -3

# faces
f 5/4/1 2/4/1 1/4/1
f 6/2/1 3/2/1 2/2/1
f 6/4/1 2/4/1 5/4/1
f 7/6/1 4/6/1 3/6/1
f 7/2/1 3/2/1 6/2/1
f 8/6/1 4/6/1 7/6/1
f 10/4/1 7/4/1 6/4/1
f 11/2/1 9/2/1 8/2/1
f 11/4/1 7/4/1 10/4/1
f 11/2/1 8/2/1 7/2/1
f 12/2/1 9/2/1 11/2/1
f 18/4/1 14/4/1 13/4/1
f 19/5/1 15/5/1 14/5/1
f 19/4/1 14/4/1 18/4/1
f 20/5/1 15/5/1 19/5/1
f 22/2/1 17/2/1 16/2/1
f 23/2/1 17/2/1 22/2/1
f 24/2/1 19/2/1 18/2/1
f 25/1/1 21/1/1 20/1/1
f 25/2/1 19/2/1 24/2/1
f 25/1/1 20/1/1 19/1/1
f 26/1/1 21/1/1 25/1/1
f 29/2/1 28/2/1 27/2/1
f 30/2/1 28/2/1 29/2/1
f 31/4/2 32/4/2 33/4/2
f 33/4/2 32/4/2 34/4/2
f 35/2/2 36/2/2 37/2/2
f 35/2/2 37/2/2 40/2/2
f 40/2/2 37/2/2 41/2/2
f 38/2/2 39/2/2 42/2/2
f 42/2/2 39/2/2 43/2/2
f 44/5/2 45/5/2 48/5/2
f 48/5/2 45/5/2 49/5/2
f 46/2/2 47/2/2 51/2/2
f 51/2/2 47/2/2 52/2/2
f 50/5/2 51/5/2 53/5/2
f 53/5/2 51/5/2 54/5/2
f 55/2/2 56/2/2 59/2/2
f 56/4/2 57/4/2 60/4/2
f 59/2/2 56/2/2 60/2/2
f 60/4/2 57/4/2 61/4/2
f 58/4/2 59/4/2 62/4/2
f 59/2/2 60/2/2 63/2/2
f 62/4/2 59/4/2 63/4/2
f 63/2/2 60/2/2 64/2/2
f 68/4/3 66/4/3 65/4/3
f 69/2/3 67/2/3 66/2/3
f 69/4/3 66/4/3 68/4/3
f 70/2/3 67/2/3 69/2/3
f 71/2/3 69/2/3 68/2/3
f 71/4/3 70/4/3 69/4/3
f 72/4/3 70/4/3 71/4/3
f 73/2/3 71/2/3 68/2/3
f 73/2/3 72/2/3 71/2/3
f 74/2/3 72/2/3 73/2/3
f 78/5/3 76/5/3 75/5/3
f 79/6/3 77/6/3 76/6/3
f 79/5/3 76/5/3 78/5/3
f 80/6/3 77/6/3 79/6/3
f 81/4/3 80/4/3 79/4/3
f 82/4/3 80/4/3 81/4/3
f 85/4/3 84/4/3 83/4/3
f 86/4/3 84/4/3 85/4/3
f 89/2/3 88/2/3 87/2/3
f 90/2/3 88/2/3 89/2/3
f 93/4/3 92/4/3 91/4/3
f 94/4/3 92/4/3 93/4/3
f 95/2/4 96/2/4 97/2/4
f 97/2/4 96/2/4 98/2/4
f 99/6/4 100/6/4 101/6/4
f 101/6/4 100/6/4 102/6/4
f 103/1/4 104/1/4 105/1/4
f 105/1/4 104/1/4 106/1/4
f 107/5/4 108/5/4 110/5/4
f 110/5/4 108/5/4 111/5/4
f 109/4/4 110/4/4 112/4/4
f 112/4/4 110/4/4 113/4/4
f 114/2/4 115/2/4 117/2/4
f 117/2/4 115/2/4 118/2/4
f 116/2/4 117/2/4 119/2/4
f 117/4/4 118/4/4 120/4/4
f 119/2/4 117/2/4 120/2/4
f 120/4/4 118/4/4 121/4/4
f 119/4/4 120/4/4 122/4/4
f 122/4/4 120/4/4 123/4/4
f 122/2/4 123/2/4 125/2/4
f 123/2/4 124/2/4 125/2/4
f 125/2/4 124/2/4 126/2/4
f 122/2/4 125/2/4 127/2/4
f 127/2/4 125/2/4 128/2/4
f 132/4/5 130/4/5 129/4/5
f 133/2/5 131/2/5 130/2/5
f 133/4/5 130/4/5 132/4/5
f 134/2/5 131/2/5 133/2/5
f 137/5/5 133/5/5 132/5/5
f 138/1/5 134/1/5 133/1/5
f 138/5/5 133/5/5 137/5/5
f 139/1/5 134/1/5 138/1/5
f 140/5/5 135/5/5 134/5/5
f 140/1/5 134/1/5 139/1/5
f 141/5/5 135/5/5 140/5/5
f 143/4/5 137/4/5 136/4/5
f 144/3/5 138/3/5 137/3/5
f 144/4/5 137/4/5 143/4/5
f 145/6/5 139/6/5 138/6/5
f 145/3/5 138/3/5 144/3/5
f 146/3/5 140/3/5 139/3/5
f 146/6/5 139/6/5 145/6/5
f 147/1/5 141/1/5 140/1/5
f 147/3/5 140/3/5 146/3/5
f 148/2/5 144/2/5 143/2/5
f 149/1/5 145/1/5 144/1/5
f 149/2/5 144/2/5 148/2/5
f 149/1/5 146/1/5 145/1/5
f 149/1/5 147/1/5 146/1/5
f 150/1/5 147/1/5 149/1/5
f 151/1/5 147/1/5 150/1/5
f 152/1/5 141/1/5 147/1/5
f 152/1/5 147/1/5 151/1/5
f 153/2/5 142/2/5 141/2/5
f 153/1/5 141/1/5 152/1/5
f 154/2/5 142/2/5 153/2/5
f 155/6/5 149/6/5 148/6/5
f 156/1/5 150/1/5 149/1/5
f 156/6/5 149/6/5 155/6/5
f 157/5/5 151/5/5 150/5/5
f 157/1/5 150/1/5 156/1/5
f 158/1/5 152/1/5 151/1/5
f 158/5/5 151/5/5 157/5/5
f 159/6/5 153/6/5 152/6/5
f 159/1/5 152/1/5 158/1/5
f 160/4/5 154/4/5 153/4/5
f 160/6/5 153/6/5 159/6/5
f 161/4/5 154/4/5 160/4/5
f 162/2/5 157/2/5 156/2/5
f 163/4/5 158/4/5 157/4/5
f 163/2/5 157/2/5 162/2/5
f 164/2/5 160/2/5 159/2/5
f 164/4/5 158/4/5 163/4/5
f 164/2/5 159/2/5 158/2/5
f 165/2/5 160/2/5 164/2/5
f 168/4/5 167/4/5 166/4/5
f 169/4/5 167/4/5 168/4/5
f 172/2/5 171/2/5 170/2/5
f 173/2/5 171/2/5 172/2/5
f 174/4/6 175/4/6 176/4/6
f 176/4/6 175/4/6 177/4/6
f 178/4/6 179/4/6 183/4/6
f 183/4/6 179/4/6 184/4/6
f 180/4/6 181/4/6 185/4/6
f 185/4/6 181/4/6 186/4/6
f 182/2/6 183/2/6 187/2/6
f 187/2/6 183/2/6 188/2/6
f 189/2/6 190/2/6 193/2/6
f 190/4/6 191/4/6 194/4/6
f 193/2/6 190/2/6 194/2/6
f 191/2/6 192/2/6 195/2/6
f 194/4/6 191/4/6 195/4/6
f 195/2/6 192/2/6 196/2/6
f 193/1/6 194/1/6 199/1/6
f 194/5/6 195/5/6 199/5/6
f 195/1/6 196/1/6 200/1/6
f 199/5/6 195/5/6 200/5/6
f 196/6/6 197/6/6 201/6/6
f 200/1/6 196/1/6 201/1/6
f 197/4/6 198/4/6 202/4/6
f 201/6/6 197/6/6 202/6/6
f 202/4/6 198/4/6 203/4/6
f 200/1/6 201/1/6 205/1/6
f 199/1/6 200/1/6 205/1/6
f 193/1/6 199/1/6 205/1/6
f 201/1/6 202/1/6 205/1/6
f 205/1/6 202/1/6 206/1/6
f 206/1/6 202/1/6 207/1/6
f 207/1/6 202/1/6 208/1/6
f 204/4/6 205/4/6 209/4/6
f 205/3/6 206/3/6 210/3/6
f 209/4/6 205/4/6 210/4/6
f 206/6/6 207/6/6 211/6/6
f 210/3/6 206/3/6 211/3/6
f 207/3/6 208/3/6 212/3/6
f 211/6/6 207/6/6 212/6/6
f 208/1/6 202/1/6 213/1/6
f 212/3/6 208/3/6 213/3/6
f 202/2/6 203/2/6 214/2/6
f 213/1/6 202/1/6 214/1/6
f 214/2/6 203/2/6 215/2/6
f 209/2/6 210/2/6 216/2/6
f 210/5/6 211/5/6 216/5/6
f 212/1/6 213/1/6 217/1/6
f 216/5/6 211/5/6 217/5/6
f 211/1/6 212/1/6 217/1/6
f 217/1/6 213/1/6 218/1/6
f 213/5/6 214/5/6 219/5/6
f 218/1/6 213/1/6 219/1/6
f 219/5/6 214/5/6 220/5/6
f 209/2/6 216/2/6 221/2/6
f 216/4/6 217/4/6 222/4/6
f 221/2/6 216/2/6 222/2/6
f 222/4/6 217/4/6 223/4/6
f 218/2/6 219/2/6 224/2/6
f 224/2/6 219/2/6 225/2/6
