# MagicaVoxel @ Ephtracy

# group
g stump

# material
mtllib stump.mtl
usemtl palette

# normals
vn -1 0 0
vn 1 0 0
vn 0 0 1
vn 0 0 -1
vn 0 -1 0
vn 0 1 0

# texcoords
vt 0.474609 0.5
vt 0.478516 0.5
vt 0.482422 0.5
vt 0.486328 0.5
vt 0.490234 0.5

# verts
v -7 0 -1
v -7 0 -2
v -7 1 -1
v -7 1 -2
v -6 1 -1
v -6 1 -2
v -6 4 -1
v -6 4 -2
v -5 0 4
v -5 0 3
v -5 0 -0
v -5 0 -1
v -5 0 -2
v -5 0 -3
v -5 1 4
v -5 1 3
v -5 2 -0
v -5 2 -1
v -5 4 -1
v -5 4 -2
v -5 4 -3
v -5 6 -1
v -5 6 -2
v -4 0 3
v -4 0 -0
v -4 0 -3
v -4 0 -5
v -4 1 4
v -4 1 3
v -4 2 4
v -4 2 3
v -4 2 -0
v -4 2 -1
v -4 4 -0
v -4 4 -1
v -4 4 -2
v -4 4 -3
v -4 5 3
v -4 5 -0
v -4 5 -1
v -4 5 -2
v -4 5 -3
v -4 5 -5
v -4 6 -2
v -4 6 -3
v -3 0 5
v -3 0 4
v -3 0 -5
v -3 0 -6
v -3 2 4
v -3 2 3
v -3 3 5
v -3 3 4
v -3 4 4
v -3 4 3
v -3 4 -1
v -3 4 -2
v -3 5 4
v -3 5 3
v -3 5 -1
v -3 5 -2
v -3 5 -5
v -3 5 -6
v -2 5 4
v -2 5 3
v -2 6 4
v -2 6 3
v -1 0 4
v -1 0 3
v -1 2 4
v -1 2 3
v 1 0 5
v 1 0 4
v 1 3 5
v 1 3 4
v 1 5 -5
v 1 5 -6
v 1 6 -5
v 1 6 -6
v 2 0 4
v 2 0 -0
v 2 0 -1
v 2 0 -2
v 2 0 -3
v 2 0 -5
v 2 1 4
v 2 1 3
v 2 1 1
v 2 1 -0
v 2 2 1
v 2 2 -0
v 2 3 5
v 2 3 4
v 2 3 3
v 2 3 -0
v 2 3 -1
v 2 4 5
v 2 4 4
v 2 4 3
v 2 4 -2
v 2 4 -3
v 2 4 -5
v 2 5 3
v 2 5 -0
v 2 6 3
v 2 6 -0
v 3 0 6
v 3 0 5
v 3 0 -2
v 3 0 -3
v 3 1 1
v 3 1 -0
v 3 2 6
v 3 2 5
v 3 2 1
v 3 2 -0
v 3 2 -1
v 3 3 -0
v 3 3 -1
v 3 4 -2
v 3 4 -3
v 4 0 7
v 4 0 6
v 4 0 5
v 4 0 4
v 4 0 -0
v 4 0 -1
v 4 1 7
v 4 1 6
v 4 2 5
v 4 2 4
v 4 2 -0
v 4 2 -1
v -4 0 -0
v -4 0 -3
v -4 2 -0
v -4 2 -1
v -4 4 -1
v -4 4 -2
v -4 4 -3
v -4 5 -1
v -4 5 -2
v -3 0 4
v -3 0 -0
v -3 0 -3
v -3 0 -5
v -3 2 4
v -3 2 3
v -3 2 -0
v -3 2 -1
v -3 4 3
v -3 4 2
v -3 4 -1
v -3 4 -3
v -3 4 -5
v -3 5 -1
v -3 5 -3
v -3 6 -1
v -3 6 -3
v -2 2 5
v -2 2 4
v -2 3 5
v -2 3 4
v -1 0 5
v -1 0 4
v -1 2 5
v -1 2 4
v 0 5 4
v 0 5 3
v 0 6 4
v 0 6 3
v 1 0 4
v 1 0 3
v 1 1 4
v 1 1 3
v 2 3 -5
v 2 3 -6
v 2 4 4
v 2 4 3
v 2 4 -5
v 2 4 -6
v 2 5 4
v 2 5 3
v 2 5 -5
v 2 6 -5
v 2 6 -6
v 3 0 5
v 3 0 4
v 3 0 3
v 3 0 1
v 3 0 -3
v 3 0 -6
v 3 2 5
v 3 2 4
v 3 2 1
v 3 2 -0
v 3 3 5
v 3 3 4
v 3 3 -0
v 3 3 -1
v 3 3 -5
v 3 3 -6
v 3 4 5
v 3 4 4
v 3 4 3
v 3 4 2
v 3 5 2
v 3 5 -0
v 3 5 -1
v 3 5 -3
v 3 5 -5
v 3 6 3
v 3 6 -0
v 4 0 4
v 4 0 3
v 4 0 1
v 4 0 -0
v 4 0 -2
v 4 0 -3
v 4 1 6
v 4 1 5
v 4 2 6
v 4 2 5
v 4 2 4
v 4 2 1
v 4 2 -0
v 4 3 5
v 4 3 4
v 4 4 4
v 4 4 3
v 4 4 -1
v 4 4 -2
v 4 5 -1
v 4 5 -3
v 5 0 7
v 5 0 4
v 5 0 -0
v 5 0 -1
v 5 1 7
v 5 1 5
v 5 2 5
v 5 2 4
v 5 2 -1
v 5 2 -2
v 5 3 -0
v 5 3 -1
v 5 4 -1
v 5 4 -2
v 6 1 -1
v 6 1 -2
v 6 2 -1
v 6 2 -2
v 7 0 -1
v 7 0 -2
v 7 1 -1
v 7 1 -2
v 4 0 7
v 4 1 7
v 5 0 7
v 5 1 7
v 3 0 6
v 3 2 6
v 4 0 6
v 4 1 6
v 4 2 6
v -3 0 5
v -3 3 5
v -2 2 5
v -2 3 5
v -1 0 5
v -1 2 5
v 1 0 5
v 1 3 5
v 2 0 5
v 2 3 5
v 2 4 5
v 3 0 5
v 3 2 5
v 3 3 5
v 3 4 5
v 4 1 5
v 4 2 5
v 4 3 5
v 5 1 5
v 5 2 5
v -5 0 4
v -5 1 4
v -4 1 4
v -4 2 4
v -3 0 4
v -3 2 4
v -3 3 4
v -3 4 4
v -3 5 4
v -2 2 4
v -2 3 4
v -2 4 4
v -2 5 4
v -2 6 4
v -1 0 4
v -1 2 4
v 0 5 4
v 0 6 4
v 1 0 4
v 1 3 4
v 2 3 4
v 2 4 4
v 2 5 4
v 3 0 4
v 3 2 4
v 3 3 4
v 3 4 4
v 4 0 4
v 4 2 4
v 4 3 4
v 4 4 4
v -4 2 3
v -4 5 3
v -3 2 3
v -3 4 3
v -3 5 3
v 2 4 3
v 2 5 3
v 2 6 3
v 3 4 3
v 3 6 3
v 3 0 1
v 3 2 1
v 4 0 1
v 4 2 1
v -5 0 -0
v -5 2 -0
v -4 0 -0
v -4 2 -0
v 3 2 -0
v 3 3 -0
v 4 0 -0
v 4 2 -0
v 5 0 -0
v 5 3 -0
v -7 0 -1
v -7 1 -1
v -6 1 -1
v -6 4 -1
v -5 0 -1
v -5 2 -1
v -5 4 -1
v -5 6 -1
v -4 2 -1
v -4 4 -1
v -4 5 -1
v -4 6 -1
v -3 5 -1
v -3 6 -1
v 2 0 -1
v 2 3 -1
v 3 2 -1
v 3 3 -1
v 3 5 -1
v 4 0 -1
v 4 2 -1
v 4 4 -1
v 4 5 -1
v 5 0 -1
v 5 2 -1
v 5 3 -1
v 5 4 -1
v 6 1 -1
v 6 2 -1
v 7 0 -1
v 7 1 -1
v -4 4 -2
v -4 5 -2
v -3 4 -2
v -3 5 -2
v -4 0 -3
v -4 4 -3
v -3 0 -3
v -3 4 -3
v 2 0 -3
v 2 4 -3
v 3 0 -3
v 3 4 -3
v -3 0 -5
v -3 4 -5
v -2 0 -5
v -2 4 -5
v 1 5 -5
v 1 6 -5
v 2 0 -5
v 2 4 -5
v 2 5 -5
v 2 6 -5
v 3 0 5
v 3 2 5
v 4 0 5
v 4 2 5
v -3 0 4
v -3 2 4
v -1 0 4
v -1 2 4
v 1 0 4
v 1 1 4
v 2 0 4
v 2 1 4
v 4 0 4
v 4 2 4
v 5 0 4
v 5 2 4
v -5 0 3
v -5 1 3
v -4 0 3
v -4 1 3
v -3 2 3
v -3 4 3
v -2 4 3
v -2 5 3
v -2 6 3
v -1 0 3
v -1 2 3
v 0 5 3
v 0 6 3
v 1 0 3
v 1 1 3
v 1 3 3
v 2 1 3
v 2 3 3
v 2 4 3
v 3 0 3
v 3 4 3
v 4 0 3
v 4 4 3
v 2 1 1
v 2 2 1
v 3 1 1
v 3 2 1
v -4 0 -0
v -4 2 -0
v -3 0 -0
v -3 2 -0
v 2 0 -0
v 2 1 -0
v 2 2 -0
v 2 3 -0
v 2 5 -0
v 2 6 -0
v 3 1 -0
v 3 2 -0
v 3 3 -0
v 3 5 -0
v 3 6 -0
v 4 0 -0
v 4 2 -0
v -4 2 -1
v -4 4 -1
v -4 5 -1
v -3 2 -1
v -3 4 -1
v -3 5 -1
v -7 0 -2
v -7 1 -2
v -6 1 -2
v -6 4 -2
v -5 0 -2
v -5 4 -2
v -5 6 -2
v -4 4 -2
v -4 5 -2
v -4 6 -2
v 2 0 -2
v 2 4 -2
v 3 0 -2
v 3 4 -2
v 4 0 -2
v 4 4 -2
v 5 2 -2
v 5 4 -2
v 6 1 -2
v 6 2 -2
v 7 0 -2
v 7 1 -2
v -5 0 -3
v -5 4 -3
v -4 0 -3
v -4 4 -3
v -4 5 -3
v -4 6 -3
v -3 5 -3
v -3 6 -3
v 3 0 -3
v 3 5 -3
v 4 0 -3
v 4 5 -3
v -4 0 -5
v -4 5 -5
v -3 0 -5
v -3 5 -5
v 2 3 -5
v 2 4 -5
v 2 5 -5
v 3 3 -5
v 3 5 -5
v -3 0 -6
v -3 5 -6
v -2 0 -6
v -2 5 -6
v 0 4 -6
v 0 5 -6
v 1 5 -6
v 1 6 -6
v 2 3 -6
v 2 4 -6
v 2 6 -6
v 3 0 -6
v 3 3 -6
v 4 0 7
v 5 0 7
v 3 0 6
v 4 0 6
v -3 0 5
v -1 0 5
v 1 0 5
v 2 0 5
v 3 0 5
v 4 0 5
v -5 0 4
v -3 0 4
v -1 0 4
v 1 0 4
v 2 0 4
v 3 0 4
v 4 0 4
v 5 0 4
v -5 0 3
v -4 0 3
v -1 0 3
v 1 0 3
v 3 0 3
v 4 0 3
v 3 0 1
v 4 0 1
v -5 0 -0
v -4 0 -0
v -3 0 -0
v 2 0 -0
v 4 0 -0
v 5 0 -0
v -7 0 -1
v -5 0 -1
v 2 0 -1
v 4 0 -1
v 5 0 -1
v 7 0 -1
v -7 0 -2
v -5 0 -2
v 2 0 -2
v 3 0 -2
v 4 0 -2
v 7 0 -2
v -5 0 -3
v -4 0 -3
v -3 0 -3
v 2 0 -3
v 3 0 -3
v 4 0 -3
v -4 0 -5
v -3 0 -5
v -2 0 -5
v 2 0 -5
v -3 0 -6
v -2 0 -6
v 3 0 -6
v 1 1 4
v 2 1 4
v 1 1 3
v 2 1 3
v 3 2 5
v 4 2 5
v -3 2 4
v -1 2 4
v 3 2 4
v 4 2 4
v -3 2 3
v -1 2 3
v 2 2 1
v 3 2 1
v -4 2 -0
v -3 2 -0
v 2 2 -0
v 3 2 -0
v 4 2 -0
v -4 2 -1
v -3 2 -1
v 3 2 -1
v 4 2 -1
v 2 3 -0
v 3 3 -0
v 2 3 -1
v 3 3 -1
v -3 4 3
v -2 4 3
v 2 4 3
v -3 4 2
v -2 4 2
v 0 4 2
v 1 4 2
v -2 4 1
v 0 4 1
v -1 4 -0
v 0 4 -0
v -3 4 -1
v -4 4 -2
v -3 4 -2
v -2 4 -2
v -1 4 -2
v 0 4 -2
v 2 4 -2
v 3 4 -2
v -4 4 -3
v -3 4 -3
v -1 4 -3
v 0 4 -3
v 2 4 -3
v 3 4 -3
v 0 4 -4
v 1 4 -4
v -3 4 -5
v -2 4 -5
v 2 4 -5
v -4 5 -1
v -3 5 -1
v -4 5 -2
v -3 5 -2
v 4 1 7
v 5 1 7
v 4 1 6
v 4 1 5
v 5 1 5
v -5 1 4
v -4 1 4
v -5 1 3
v -4 1 3
v 2 1 1
v 3 1 1
v 2 1 -0
v 3 1 -0
v -7 1 -1
v -6 1 -1
v 6 1 -1
v 7 1 -1
v -7 1 -2
v -6 1 -2
v 6 1 -2
v 7 1 -2
v 3 2 6
v 4 2 6
v -2 2 5
v -1 2 5
v 3 2 5
v 4 2 5
v 5 2 5
v -4 2 4
v -3 2 4
v -2 2 4
v -1 2 4
v 4 2 4
v 5 2 4
v -4 2 3
v -3 2 3
v 3 2 1
v 4 2 1
v -5 2 -0
v -4 2 -0
v 3 2 -0
v 4 2 -0
v -5 2 -1
v -4 2 -1
v 5 2 -1
v 6 2 -1
v 5 2 -2
v 6 2 -2
v -3 3 5
v -2 3 5
v 1 3 5
v 2 3 5
v 3 3 5
v 4 3 5
v -3 3 4
v -2 3 4
v 1 3 4
v 2 3 4
v 3 3 4
v 4 3 4
v 3 3 -0
v 5 3 -0
v 3 3 -1
v 5 3 -1
v 2 3 -5
v 3 3 -5
v 2 3 -6
v 3 3 -6
v 2 4 5
v 3 4 5
v 2 4 4
v 3 4 4
v 4 4 4
v 2 4 3
v 3 4 3
v 4 4 3
v -6 4 -1
v -5 4 -1
v 4 4 -1
v 5 4 -1
v -6 4 -2
v -5 4 -2
v -4 4 -2
v 4 4 -2
v 5 4 -2
v -5 4 -3
v -4 4 -3
v -3 5 4
v -2 5 4
v 0 5 4
v 2 5 4
v -4 5 3
v -3 5 3
v -2 5 3
v 0 5 3
v 2 5 3
v -3 5 2
v -2 5 2
v 0 5 2
v 1 5 2
v -2 5 1
v 0 5 1
v -4 5 -0
v -3 5 -0
v -1 5 -0
v 0 5 -0
v 2 5 -0
v 3 5 -0
v -4 5 -1
v -3 5 -1
v 3 5 -1
v 4 5 -1
v -2 5 -2
v -1 5 -2
v 0 5 -2
v -4 5 -3
v -3 5 -3
v -1 5 -3
v 0 5 -3
v 3 5 -3
v 4 5 -3
v 0 5 -4
v 1 5 -4
v -4 5 -5
v -3 5 -5
v -2 5 -5
v 0 5 -5
v 1 5 -5
v 2 5 -5
v 3 5 -5
v -3 5 -6
v -2 5 -6
v 0 5 -6
v 1 5 -6
v -2 6 4
v 0 6 4
v -2 6 3
v 0 6 3
v 2 6 3
v 3 6 3
v 2 6 -0
v 3 6 -0
v -5 6 -1
v -4 6 -1
v -3 6 -1
v -5 6 -2
v -4 6 -2
v -4 6 -3
v -3 6 -3
v 1 6 -5
v 2 6 -5
v 1 6 -6
v 2 6 -6

# faces
f 3/4/1 2/4/1 1/4/1
f 4/4/1 2/4/1 3/4/1
f 7/4/1 6/4/1 5/4/1
f 8/4/1 6/4/1 7/4/1
f 15/4/1 10/4/1 9/4/1
f 16/4/1 10/4/1 15/4/1
f 17/4/1 12/4/1 11/4/1
f 18/4/1 12/4/1 17/4/1
f 20/4/1 14/4/1 13/4/1
f 21/4/1 14/4/1 20/4/1
f 22/4/1 20/4/1 19/4/1
f 23/4/1 20/4/1 22/4/1
f 29/4/1 25/4/1 24/4/1
f 30/4/1 29/4/1 28/4/1
f 31/4/1 25/4/1 29/4/1
f 31/4/1 29/4/1 30/4/1
f 32/4/1 25/4/1 31/4/1
f 34/4/1 33/4/1 32/4/1
f 34/4/1 32/4/1 31/4/1
f 35/4/1 33/4/1 34/4/1
f 37/4/1 27/4/1 26/4/1
f 38/4/1 34/4/1 31/4/1
f 39/5/1 35/5/1 34/5/1
f 39/4/1 34/4/1 38/4/1
f 40/5/1 35/5/1 39/5/1
f 41/4/1 37/4/1 36/4/1
f 42/4/1 27/4/1 37/4/1
f 42/4/1 37/4/1 41/4/1
f 43/4/1 27/4/1 42/4/1
f 44/5/1 42/5/1 41/5/1
f 45/5/1 42/5/1 44/5/1
f 50/4/1 47/4/1 46/4/1
f 52/4/1 50/4/1 46/4/1
f 52/4/1 51/4/1 50/4/1
f 53/4/1 51/4/1 52/4/1
f 54/4/1 51/4/1 53/4/1
f 55/4/1 51/4/1 54/4/1
f 58/5/1 55/5/1 54/5/1
f 59/5/1 55/5/1 58/5/1
f 60/3/1 57/3/1 56/3/1
f 61/3/1 57/3/1 60/3/1
f 62/3/1 49/3/1 48/3/1
f 63/3/1 49/3/1 62/3/1
f 66/5/1 65/5/1 64/5/1
f 67/5/1 65/5/1 66/5/1
f 70/4/1 69/4/1 68/4/1
f 71/4/1 69/4/1 70/4/1
f 74/3/1 73/3/1 72/3/1
f 75/3/1 73/3/1 74/3/1
f 78/5/1 77/5/1 76/5/1
f 79/5/1 77/5/1 78/5/1
f 86/4/1 81/4/1 80/4/1
f 87/4/1 81/4/1 86/4/1
f 88/4/1 81/4/1 87/4/1
f 89/4/1 81/4/1 88/4/1
f 90/4/1 88/4/1 87/4/1
f 94/4/1 90/4/1 87/4/1
f 94/4/1 91/4/1 90/4/1
f 95/4/1 91/4/1 94/4/1
f 96/4/1 83/4/1 82/4/1
f 97/4/1 93/4/1 92/4/1
f 98/4/1 93/4/1 97/4/1
f 99/4/1 95/4/1 94/4/1
f 99/4/1 96/4/1 95/4/1
f 100/4/1 83/4/1 96/4/1
f 100/4/1 96/4/1 99/4/1
f 101/4/1 85/4/1 84/4/1
f 102/4/1 85/4/1 101/4/1
f 105/5/1 104/5/1 103/5/1
f 106/5/1 104/5/1 105/5/1
f 113/4/1 108/4/1 107/4/1
f 114/4/1 108/4/1 113/4/1
f 115/4/1 112/4/1 111/4/1
f 116/4/1 112/4/1 115/4/1
f 118/4/1 117/4/1 116/4/1
f 119/4/1 117/4/1 118/4/1
f 120/4/1 110/4/1 109/4/1
f 121/4/1 110/4/1 120/4/1
f 128/4/1 123/4/1 122/4/1
f 129/4/1 123/4/1 128/4/1
f 130/4/1 125/4/1 124/4/1
f 131/4/1 125/4/1 130/4/1
f 132/4/1 127/4/1 126/4/1
f 133/4/1 127/4/1 132/4/1
f 134/4/2 135/4/2 136/4/2
f 136/4/2 135/4/2 137/4/2
f 137/4/2 135/4/2 138/4/2
f 138/4/2 135/4/2 139/4/2
f 139/4/2 135/4/2 140/4/2
f 138/4/2 139/4/2 141/4/2
f 141/4/2 139/4/2 142/4/2
f 143/4/2 144/4/2 147/4/2
f 147/4/2 144/4/2 148/4/2
f 148/4/2 144/4/2 149/4/2
f 149/4/2 150/4/2 151/4/2
f 148/4/2 149/4/2 151/4/2
f 151/4/2 150/4/2 152/4/2
f 152/4/2 150/4/2 153/4/2
f 145/4/2 146/4/2 154/4/2
f 154/4/2 146/4/2 155/4/2
f 156/5/2 157/5/2 158/5/2
f 158/5/2 157/5/2 159/5/2
f 160/4/2 161/4/2 162/4/2
f 162/4/2 161/4/2 163/4/2
f 164/4/2 165/4/2 166/4/2
f 166/4/2 165/4/2 167/4/2
f 168/5/2 169/5/2 170/5/2
f 170/5/2 169/5/2 171/5/2
f 172/4/2 173/4/2 174/4/2
f 174/4/2 173/4/2 175/4/2
f 176/4/2 177/4/2 180/4/2
f 180/4/2 177/4/2 181/4/2
f 178/4/2 179/4/2 182/4/2
f 182/4/2 179/4/2 183/4/2
f 180/5/2 181/5/2 184/5/2
f 184/5/2 181/5/2 185/5/2
f 185/5/2 181/5/2 186/5/2
f 187/4/2 188/4/2 193/4/2
f 193/4/2 188/4/2 194/4/2
f 189/4/2 190/4/2 195/4/2
f 195/4/2 196/4/2 199/4/2
f 191/4/2 192/4/2 201/4/2
f 201/4/2 192/4/2 202/4/2
f 197/4/2 198/4/2 203/4/2
f 203/4/2 198/4/2 204/4/2
f 199/4/2 200/4/2 205/4/2
f 189/4/2 195/4/2 205/4/2
f 195/4/2 199/4/2 205/4/2
f 205/4/2 200/4/2 206/4/2
f 206/4/2 200/4/2 207/4/2
f 205/5/2 206/5/2 207/5/2
f 207/4/2 200/4/2 208/4/2
f 208/4/2 200/4/2 209/4/2
f 191/4/2 201/4/2 210/4/2
f 210/4/2 201/4/2 211/4/2
f 205/5/2 207/5/2 212/5/2
f 207/5/2 208/5/2 212/5/2
f 212/5/2 208/5/2 213/5/2
f 220/4/2 221/4/2 222/4/2
f 222/4/2 221/4/2 223/4/2
f 214/4/2 215/4/2 224/4/2
f 216/4/2 217/4/2 225/4/2
f 225/4/2 217/4/2 226/4/2
f 223/4/2 224/4/2 227/4/2
f 224/4/2 215/4/2 228/4/2
f 227/4/2 224/4/2 228/4/2
f 228/4/2 215/4/2 229/4/2
f 229/4/2 215/4/2 230/4/2
f 218/4/2 219/4/2 232/4/2
f 231/4/2 232/4/2 233/4/2
f 232/4/2 219/4/2 234/4/2
f 233/4/2 232/4/2 234/4/2
f 235/4/2 236/4/2 239/4/2
f 239/4/2 236/4/2 240/4/2
f 240/4/2 236/4/2 241/4/2
f 241/4/2 236/4/2 242/4/2
f 237/4/2 238/4/2 243/4/2
f 243/4/2 244/4/2 245/4/2
f 237/4/2 243/4/2 245/4/2
f 245/4/2 244/4/2 246/4/2
f 246/4/2 244/4/2 247/4/2
f 247/4/2 244/4/2 248/4/2
f 249/4/2 250/4/2 251/4/2
f 251/4/2 250/4/2 252/4/2
f 253/4/2 254/4/2 255/4/2
f 255/4/2 254/4/2 256/4/2
f 259/4/3 258/4/3 257/4/3
f 260/4/3 258/4/3 259/4/3
f 263/4/3 262/4/3 261/4/3
f 264/4/3 262/4/3 263/4/3
f 265/4/3 262/4/3 264/4/3
f 268/4/3 267/4/3 266/4/3
f 269/4/3 267/4/3 268/4/3
f 270/4/3 268/4/3 266/4/3
f 271/4/3 268/4/3 270/4/3
f 274/3/3 273/3/3 272/3/3
f 275/3/3 273/3/3 274/3/3
f 277/4/3 275/4/3 274/4/3
f 277/4/3 276/4/3 275/4/3
f 278/4/3 276/4/3 277/4/3
f 279/4/3 276/4/3 278/4/3
f 280/4/3 276/4/3 279/4/3
f 282/4/3 279/4/3 278/4/3
f 283/4/3 279/4/3 282/4/3
f 284/4/3 282/4/3 281/4/3
f 285/4/3 282/4/3 284/4/3
f 288/4/3 287/4/3 286/4/3
f 290/4/3 288/4/3 286/4/3
f 290/4/3 289/4/3 288/4/3
f 291/4/3 289/4/3 290/4/3
f 296/4/3 293/4/3 292/4/3
f 297/5/3 294/5/3 293/5/3
f 297/4/3 293/4/3 296/4/3
f 298/5/3 294/5/3 297/5/3
f 301/4/3 296/4/3 295/4/3
f 301/4/3 297/4/3 296/4/3
f 301/4/3 298/4/3 297/4/3
f 302/5/3 299/5/3 298/5/3
f 302/4/3 301/4/3 300/4/3
f 302/4/3 298/4/3 301/4/3
f 303/5/3 299/5/3 302/5/3
f 304/4/3 302/4/3 300/4/3
f 305/4/3 302/4/3 304/4/3
f 306/4/3 302/4/3 305/4/3
f 307/4/3 302/4/3 306/4/3
f 308/4/3 302/4/3 307/4/3
f 313/4/3 310/4/3 309/4/3
f 314/4/3 310/4/3 313/4/3
f 315/4/3 312/4/3 311/4/3
f 316/4/3 312/4/3 315/4/3
f 319/4/3 318/4/3 317/4/3
f 320/4/3 318/4/3 319/4/3
f 321/4/3 318/4/3 320/4/3
f 325/5/3 323/5/3 322/5/3
f 325/5/3 324/5/3 323/5/3
f 326/5/3 324/5/3 325/5/3
f 329/4/3 328/4/3 327/4/3
f 330/4/3 328/4/3 329/4/3
f 333/4/3 332/4/3 331/4/3
f 334/4/3 332/4/3 333/4/3
f 338/4/3 336/4/3 335/4/3
f 339/4/3 338/4/3 337/4/3
f 340/4/3 336/4/3 338/4/3
f 340/4/3 338/4/3 339/4/3
f 343/4/3 342/4/3 341/4/3
f 345/4/3 343/4/3 341/4/3
f 345/4/3 344/4/3 343/4/3
f 346/4/3 344/4/3 345/4/3
f 347/4/3 344/4/3 346/4/3
f 349/4/3 348/4/3 347/4/3
f 349/4/3 347/4/3 346/4/3
f 350/4/3 348/4/3 349/4/3
f 351/4/3 348/4/3 350/4/3
f 352/4/3 348/4/3 351/4/3
f 353/5/3 352/5/3 351/5/3
f 354/5/3 352/5/3 353/5/3
f 357/4/3 356/4/3 355/4/3
f 358/4/3 356/4/3 357/4/3
f 360/4/3 357/4/3 355/4/3
f 361/4/3 357/4/3 360/4/3
f 362/4/3 359/4/3 358/4/3
f 363/4/3 359/4/3 362/4/3
f 366/4/3 362/4/3 358/4/3
f 367/4/3 362/4/3 366/4/3
f 368/4/3 365/4/3 364/4/3
f 369/4/3 365/4/3 368/4/3
f 370/4/3 368/4/3 364/4/3
f 371/4/3 368/4/3 370/4/3
f 374/4/3 373/4/3 372/4/3
f 375/4/3 373/4/3 374/4/3
f 378/4/3 377/4/3 376/4/3
f 379/4/3 377/4/3 378/4/3
f 382/4/3 381/4/3 380/4/3
f 383/4/3 381/4/3 382/4/3
f 386/3/3 385/3/3 384/3/3
f 387/3/3 385/3/3 386/3/3
f 390/4/3 387/4/3 386/4/3
f 391/4/3 387/4/3 390/4/3
f 392/5/3 389/5/3 388/5/3
f 393/5/3 389/5/3 392/5/3
f 394/4/4 395/4/4 396/4/4
f 396/4/4 395/4/4 397/4/4
f 398/4/4 399/4/4 400/4/4
f 400/4/4 399/4/4 401/4/4
f 402/3/4 403/3/4 404/3/4
f 404/3/4 403/3/4 405/3/4
f 406/4/4 407/4/4 408/4/4
f 408/4/4 407/4/4 409/4/4
f 410/4/4 411/4/4 412/4/4
f 412/4/4 411/4/4 413/4/4
f 414/4/4 415/4/4 416/4/4
f 414/4/4 416/4/4 420/4/4
f 417/5/4 418/5/4 421/5/4
f 421/5/4 418/5/4 422/5/4
f 419/4/4 420/4/4 423/4/4
f 423/4/4 420/4/4 424/4/4
f 420/4/4 416/4/4 425/4/4
f 424/4/4 420/4/4 425/4/4
f 424/3/4 425/3/4 426/3/4
f 425/4/4 416/4/4 427/4/4
f 426/3/4 425/3/4 427/3/4
f 427/4/4 416/4/4 428/4/4
f 429/4/4 430/4/4 431/4/4
f 431/4/4 430/4/4 432/4/4
f 433/4/4 434/4/4 435/4/4
f 435/4/4 434/4/4 436/4/4
f 437/4/4 438/4/4 439/4/4
f 439/4/4 438/4/4 440/4/4
f 441/4/4 442/4/4 447/4/4
f 443/4/4 444/4/4 448/4/4
f 448/4/4 444/4/4 449/4/4
f 445/5/4 446/5/4 450/5/4
f 450/5/4 446/5/4 451/5/4
f 441/4/4 447/4/4 452/4/4
f 447/4/4 448/4/4 452/4/4
f 452/4/4 448/4/4 453/4/4
f 454/4/4 455/4/4 457/4/4
f 455/5/4 456/5/4 458/5/4
f 457/4/4 455/4/4 458/4/4
f 458/5/4 456/5/4 459/5/4
f 460/4/4 461/4/4 462/4/4
f 460/4/4 462/4/4 464/4/4
f 462/4/4 463/4/4 464/4/4
f 464/4/4 463/4/4 465/4/4
f 465/4/4 466/4/4 467/4/4
f 467/4/4 466/4/4 468/4/4
f 468/4/4 466/4/4 469/4/4
f 470/4/4 471/4/4 472/4/4
f 472/4/4 471/4/4 473/4/4
f 474/4/4 475/4/4 476/4/4
f 476/4/4 475/4/4 477/4/4
f 474/4/4 476/4/4 478/4/4
f 478/4/4 476/4/4 479/4/4
f 474/4/4 478/4/4 480/4/4
f 480/4/4 478/4/4 481/4/4
f 482/4/4 483/4/4 484/4/4
f 484/4/4 483/4/4 485/4/4
f 486/5/4 487/5/4 488/5/4
f 488/5/4 487/5/4 489/5/4
f 490/4/4 491/4/4 492/4/4
f 492/4/4 491/4/4 493/4/4
f 494/4/4 495/4/4 496/4/4
f 496/4/4 495/4/4 497/4/4
f 498/4/4 499/4/4 501/4/4
f 499/4/4 500/4/4 501/4/4
f 501/4/4 500/4/4 502/4/4
f 503/3/4 504/3/4 505/3/4
f 505/3/4 504/3/4 506/3/4
f 505/4/4 506/4/4 507/4/4
f 507/4/4 506/4/4 508/4/4
f 507/5/4 508/5/4 509/5/4
f 505/4/4 507/4/4 511/4/4
f 507/5/4 509/5/4 512/5/4
f 511/4/4 507/4/4 512/4/4
f 509/5/4 510/5/4 512/5/4
f 512/5/4 510/5/4 513/5/4
f 505/4/4 511/4/4 514/4/4
f 514/4/4 511/4/4 515/4/4
f 519/4/5 517/4/5 516/4/5
f 524/4/5 519/4/5 518/4/5
f 525/4/5 517/4/5 519/4/5
f 525/4/5 519/4/5 524/4/5
f 527/4/5 521/4/5 520/4/5
f 528/4/5 521/4/5 527/4/5
f 529/3/5 523/3/5 522/3/5
f 530/4/5 524/4/5 523/4/5
f 530/3/5 523/3/5 529/3/5
f 531/4/5 524/4/5 530/4/5
f 532/4/5 517/4/5 525/4/5
f 533/4/5 517/4/5 532/4/5
f 534/4/5 527/4/5 526/4/5
f 535/4/5 527/4/5 534/4/5
f 536/4/5 529/4/5 528/4/5
f 537/4/5 529/4/5 536/4/5
f 538/4/5 531/4/5 530/4/5
f 538/4/5 532/4/5 531/4/5
f 539/4/5 532/4/5 538/4/5
f 540/4/5 538/4/5 530/4/5
f 543/4/5 527/4/5 535/4/5
f 544/4/5 527/4/5 543/4/5
f 545/4/5 541/4/5 540/4/5
f 545/4/5 540/4/5 530/4/5
f 546/4/5 541/4/5 545/4/5
f 549/4/5 543/4/5 542/4/5
f 551/4/5 547/4/5 546/4/5
f 552/4/5 547/4/5 551/4/5
f 554/4/5 549/4/5 548/4/5
f 555/4/5 543/4/5 549/4/5
f 555/4/5 549/4/5 554/4/5
f 556/4/5 553/4/5 552/4/5
f 556/4/5 552/4/5 551/4/5
f 556/4/5 551/4/5 550/4/5
f 557/4/5 553/4/5 556/4/5
f 558/4/5 553/4/5 557/4/5
f 559/4/5 553/4/5 558/4/5
f 560/4/5 543/4/5 555/4/5
f 561/4/5 543/4/5 560/4/5
f 564/4/5 558/4/5 557/4/5
f 565/4/5 558/4/5 564/4/5
f 566/4/5 562/4/5 561/4/5
f 567/4/5 562/4/5 566/4/5
f 569/4/5 564/4/5 563/4/5
f 570/3/5 568/3/5 567/3/5
f 571/4/5 569/4/5 568/4/5
f 571/3/5 568/3/5 570/3/5
f 572/4/5 564/4/5 569/4/5
f 572/4/5 569/4/5 571/4/5
f 575/3/5 574/3/5 573/3/5
f 576/3/5 574/3/5 575/3/5
f 581/4/5 578/4/5 577/4/5
f 582/4/5 578/4/5 581/4/5
f 583/4/5 580/4/5 579/4/5
f 584/4/5 580/4/5 583/4/5
f 589/4/5 586/4/5 585/4/5
f 590/4/5 586/4/5 589/4/5
f 592/4/5 588/4/5 587/4/5
f 593/4/5 588/4/5 592/4/5
f 594/4/5 591/4/5 590/4/5
f 595/4/5 591/4/5 594/4/5
f 598/4/5 597/4/5 596/4/5
f 599/4/5 597/4/5 598/4/5
f 603/4/5 601/4/5 600/4/5
f 604/3/5 602/3/5 601/3/5
f 604/4/5 601/4/5 603/4/5
f 605/3/5 602/3/5 604/3/5
f 606/3/5 602/3/5 605/3/5
f 607/3/5 604/3/5 603/3/5
f 607/3/5 605/3/5 604/3/5
f 608/1/5 606/1/5 605/1/5
f 608/3/5 605/3/5 607/3/5
f 609/1/5 608/1/5 607/1/5
f 610/1/5 606/1/5 608/1/5
f 610/1/5 608/1/5 609/1/5
f 611/3/5 607/3/5 603/3/5
f 613/3/5 607/3/5 611/3/5
f 614/1/5 609/1/5 607/1/5
f 614/3/5 607/3/5 613/3/5
f 615/2/5 610/2/5 609/2/5
f 615/1/5 609/1/5 614/1/5
f 616/1/5 606/1/5 610/1/5
f 616/2/5 610/2/5 615/2/5
f 617/3/5 602/3/5 606/3/5
f 619/4/5 613/4/5 612/4/5
f 620/3/5 615/3/5 614/3/5
f 620/4/5 613/4/5 619/4/5
f 620/3/5 614/3/5 613/3/5
f 621/1/5 616/1/5 615/1/5
f 621/3/5 615/3/5 620/3/5
f 622/1/5 606/1/5 616/1/5
f 622/1/5 616/1/5 621/1/5
f 623/4/5 618/4/5 617/4/5
f 623/3/5 617/3/5 606/3/5
f 624/4/5 618/4/5 623/4/5
f 625/3/5 621/3/5 620/3/5
f 625/1/5 606/1/5 622/1/5
f 625/3/5 622/3/5 621/3/5
f 626/3/5 623/3/5 606/3/5
f 626/1/5 606/1/5 625/1/5
f 627/3/5 625/3/5 620/3/5
f 627/3/5 626/3/5 625/3/5
f 628/3/5 626/3/5 627/3/5
f 629/3/5 623/3/5 626/3/5
f 629/3/5 626/3/5 628/3/5
f 632/5/5 631/5/5 630/5/5
f 633/5/5 631/5/5 632/5/5
f 634/4/6 635/4/6 636/4/6
f 636/4/6 635/4/6 637/4/6
f 637/4/6 635/4/6 638/4/6
f 639/4/6 640/4/6 641/4/6
f 641/4/6 640/4/6 642/4/6
f 643/4/6 644/4/6 645/4/6
f 645/4/6 644/4/6 646/4/6
f 647/4/6 648/4/6 651/4/6
f 651/4/6 648/4/6 652/4/6
f 649/4/6 650/4/6 653/4/6
f 653/4/6 650/4/6 654/4/6
f 655/4/6 656/4/6 659/4/6
f 659/4/6 656/4/6 660/4/6
f 657/4/6 658/4/6 664/4/6
f 664/4/6 658/4/6 665/4/6
f 660/4/6 661/4/6 666/4/6
f 666/4/6 661/4/6 667/4/6
f 662/4/6 663/4/6 668/4/6
f 668/4/6 663/4/6 669/4/6
f 670/4/6 671/4/6 674/4/6
f 674/4/6 671/4/6 675/4/6
f 672/4/6 673/4/6 676/4/6
f 676/4/6 673/4/6 677/4/6
f 678/4/6 679/4/6 680/4/6
f 680/4/6 679/4/6 681/4/6
f 682/4/6 683/4/6 688/4/6
f 688/4/6 683/4/6 689/4/6
f 684/3/6 685/3/6 690/3/6
f 690/3/6 685/3/6 691/3/6
f 686/4/6 687/4/6 692/4/6
f 692/4/6 687/4/6 693/4/6
f 694/4/6 695/4/6 696/4/6
f 696/4/6 695/4/6 697/4/6
f 698/4/6 699/4/6 700/4/6
f 700/4/6 699/4/6 701/4/6
f 702/4/6 703/4/6 704/4/6
f 704/4/6 703/4/6 705/4/6
f 704/4/6 705/4/6 707/4/6
f 705/4/6 706/4/6 707/4/6
f 707/4/6 706/4/6 708/4/6
f 708/4/6 706/4/6 709/4/6
f 710/4/6 711/4/6 714/4/6
f 714/4/6 711/4/6 715/4/6
f 712/4/6 713/4/6 717/4/6
f 717/4/6 713/4/6 718/4/6
f 715/4/6 716/4/6 719/4/6
f 719/4/6 716/4/6 720/4/6
f 721/5/6 722/5/6 726/5/6
f 726/5/6 722/5/6 727/5/6
f 723/4/6 724/4/6 728/4/6
f 728/4/6 724/4/6 729/4/6
f 726/4/6 727/4/6 730/4/6
f 725/4/6 726/4/6 730/4/6
f 728/3/6 729/3/6 731/3/6
f 730/4/6 727/4/6 731/4/6
f 727/3/6 728/3/6 731/3/6
f 731/3/6 729/3/6 732/3/6
f 732/3/6 729/3/6 733/3/6
f 730/3/6 731/3/6 734/3/6
f 731/3/6 732/3/6 734/3/6
f 732/1/6 733/1/6 735/1/6
f 734/3/6 732/3/6 735/3/6
f 725/4/6 730/4/6 736/4/6
f 730/3/6 734/3/6 737/3/6
f 736/4/6 730/4/6 737/4/6
f 734/1/6 735/1/6 738/1/6
f 735/1/6 733/1/6 739/1/6
f 738/1/6 735/1/6 739/1/6
f 733/3/6 729/3/6 740/3/6
f 736/5/6 737/5/6 742/5/6
f 737/3/6 734/3/6 743/3/6
f 742/5/6 737/5/6 743/5/6
f 740/4/6 741/4/6 744/4/6
f 734/1/6 738/1/6 746/1/6
f 743/3/6 734/3/6 746/3/6
f 738/2/6 739/2/6 747/2/6
f 746/1/6 738/1/6 747/1/6
f 739/1/6 733/1/6 748/1/6
f 747/2/6 739/2/6 748/2/6
f 746/3/6 747/3/6 750/3/6
f 743/3/6 746/3/6 750/3/6
f 747/1/6 748/1/6 751/1/6
f 750/3/6 747/3/6 751/3/6
f 748/1/6 733/1/6 752/1/6
f 751/1/6 748/1/6 752/1/6
f 744/4/6 745/4/6 753/4/6
f 740/4/6 744/4/6 753/4/6
f 753/4/6 745/4/6 754/4/6
f 752/1/6 733/1/6 755/1/6
f 750/3/6 751/3/6 755/3/6
f 751/3/6 752/3/6 755/3/6
f 733/3/6 740/3/6 756/3/6
f 755/1/6 733/1/6 756/1/6
f 749/4/6 750/4/6 757/4/6
f 750/3/6 755/3/6 758/3/6
f 757/4/6 750/4/6 758/4/6
f 755/3/6 756/3/6 758/3/6
f 758/3/6 756/3/6 759/3/6
f 759/3/6 756/3/6 760/3/6
f 756/3/6 740/3/6 761/3/6
f 760/3/6 756/3/6 761/3/6
f 740/4/6 753/4/6 762/4/6
f 761/3/6 740/3/6 762/3/6
f 762/4/6 753/4/6 763/4/6
f 758/3/6 759/3/6 764/3/6
f 759/4/6 760/4/6 765/4/6
f 764/3/6 759/3/6 765/3/6
f 760/5/6 761/5/6 766/5/6
f 765/4/6 760/4/6 766/4/6
f 766/5/6 761/5/6 767/5/6
f 768/5/6 769/5/6 770/5/6
f 770/5/6 769/5/6 771/5/6
f 772/5/6 773/5/6 774/5/6
f 774/5/6 773/5/6 775/5/6
f 776/4/6 777/4/6 779/4/6
f 777/5/6 778/5/6 780/5/6
f 779/4/6 777/4/6 780/4/6
f 780/5/6 778/5/6 781/5/6
f 781/5/6 778/5/6 782/5/6
f 783/5/6 784/5/6 785/5/6
f 785/5/6 784/5/6 786/5/6
