# MagicaVoxel @ Ephtracy

# group
g stump

# material
mtllib stump.mtl
usemtl palette

# normals
vn -1 0 0
vn 1 0 0
vn 0 0 1
vn 0 0 -1
vn 0 -1 0
vn 0 1 0

# texcoords
vt 0.474609 0.5
vt 0.478516 0.5
vt 0.482422 0.5
vt 0.486328 0.5
vt 0.490234 0.5

# verts
v -7 0 -1
v -7 0 -2
v -7 1 -1
v -7 1 -2
v -6 1 -1
v -6 1 -2
v -6 4 -1
v -6 4 -2
v -5 0 4
v -5 0 3
v -5 0 -0
v -5 0 -1
v -5 0 -2
v -5 0 -3
v -5 1 4
v -5 1 3
v -5 2 -0
v -5 2 -1
v -5 4 -1
v -5 4 -2
v -5 4 -3
v -5 6 -1
v -5 6 -2
v -4 0 3
v -4 0 -0
v -4 0 -3
v -4 0 -5
v -4 1 4
v -4 1 3
v -4 2 4
v -4 2 3
v -4 2 -0
v -4 2 -1
v -4 4 -0
v -4 4 -1
v -4 4 -2
v -4 4 -3
v -4 5 3
v -4 5 -0
v -4 5 -1
v -4 5 -2
v -4 5 -3
v -4 5 -5
v -4 6 -2
v -4 6 -3
v -3 0 5
v -3 0 4
v -3 0 -5
v -3 0 -6
v -3 2 4
v -3 2 3
v -3 3 5
v -3 3 4
v -3 4 4
v -3 4 3
v -3 4 -1
v -3 4 -2
v -3 5 4
v -3 5 3
v -3 5 -1
v -3 5 -2
v -3 5 -5
v -3 5 -6
v -2 5 4
v -2 5 3
v -2 6 4
v -2 6 3
v -1 0 4
v -1 0 3
v -1 2 4
v -1 2 3
v 0 4 -5
v 0 4 -6
v 0 5 -5
v 0 5 -6
v 1 0 5
v 1 0 4
v 1 3 5
v 1 3 4
v 1 5 -5
v 1 5 -6
v 1 6 -5
v 1 6 -6
v 2 0 4
v 2 0 -0
v 2 0 -1
v 2 0 -2
v 2 0 -3
v 2 0 -5
v 2 1 4
v 2 1 3
v 2 1 1
v 2 1 -0
v 2 2 1
v 2 2 -0
v 2 3 5
v 2 3 4
v 2 3 3
v 2 3 -0
v 2 3 -1
v 2 4 5
v 2 4 4
v 2 4 3
v 2 4 -2
v 2 4 -3
v 2 4 -5
v 2 5 3
v 2 5 -0
v 2 6 3
v 2 6 -0
v 3 0 6
v 3 0 5
v 3 0 -2
v 3 0 -3
v 3 1 1
v 3 1 -0
v 3 2 6
v 3 2 5
v 3 2 1
v 3 2 -0
v 3 2 -1
v 3 3 -0
v 3 3 -1
v 3 4 -2
v 3 4 -3
v 4 0 7
v 4 0 6
v 4 0 5
v 4 0 4
v 4 0 -0
v 4 0 -1
v 4 1 7
v 4 1 6
v 4 2 5
v 4 2 4
v 4 2 -0
v 4 2 -1
v -4 0 -0
v -4 0 -3
v -4 2 -0
v -4 2 -1
v -4 4 -1
v -4 4 -2
v -4 4 -3
v -4 5 -1
v -4 5 -2
v -3 0 4
v -3 0 -0
v -3 0 -3
v -3 0 -5
v -3 2 4
v -3 2 3
v -3 2 -0
v -3 2 -1
v -3 4 3
v -3 4 2
v -3 4 -1
v -3 4 -3
v -3 4 -5
v -3 5 -1
v -3 5 -3
v -3 6 -1
v -3 6 -3
v -2 2 5
v -2 2 4
v -2 3 5
v -2 3 4
v -2 4 -5
v -2 4 -6
v -2 5 -5
v -2 5 -6
v -1 0 5
v -1 0 4
v -1 2 5
v -1 2 4
v 0 5 4
v 0 5 3
v 0 6 4
v 0 6 3
v 1 0 4
v 1 0 3
v 1 1 4
v 1 1 3
v 2 3 -5
v 2 3 -6
v 2 4 4
v 2 4 3
v 2 4 -5
v 2 4 -6
v 2 5 4
v 2 5 3
v 2 5 -5
v 2 6 -5
v 2 6 -6
v 3 0 5
v 3 0 4
v 3 0 3
v 3 0 1
v 3 0 -3
v 3 0 -6
v 3 2 5
v 3 2 4
v 3 2 1
v 3 2 -0
v 3 3 5
v 3 3 4
v 3 3 -0
v 3 3 -1
v 3 3 -5
v 3 3 -6
v 3 4 5
v 3 4 4
v 3 4 3
v 3 4 2
v 3 5 2
v 3 5 -0
v 3 5 -1
v 3 5 -3
v 3 5 -5
v 3 6 3
v 3 6 -0
v 4 0 4
v 4 0 3
v 4 0 1
v 4 0 -0
v 4 0 -2
v 4 0 -3
v 4 1 6
v 4 1 5
v 4 2 6
v 4 2 5
v 4 2 4
v 4 2 1
v 4 2 -0
v 4 3 5
v 4 3 4
v 4 4 4
v 4 4 3
v 4 4 -1
v 4 4 -2
v 4 5 -1
v 4 5 -3
v 5 0 7
v 5 0 4
v 5 0 -0
v 5 0 -1
v 5 1 7
v 5 1 5
v 5 2 5
v 5 2 4
v 5 2 -1
v 5 2 -2
v 5 3 -0
v 5 3 -1
v 5 4 -1
v 5 4 -2
v 6 1 -1
v 6 1 -2
v 6 2 -1
v 6 2 -2
v 7 0 -1
v 7 0 -2
v 7 1 -1
v 7 1 -2
v 4 0 7
v 4 1 7
v 5 0 7
v 5 1 7
v 3 0 6
v 3 2 6
v 4 0 6
v 4 1 6
v 4 2 6
v -3 0 5
v -3 3 5
v -2 2 5
v -2 3 5
v -1 0 5
v -1 2 5
v 1 0 5
v 1 3 5
v 2 0 5
v 2 3 5
v 2 4 5
v 3 0 5
v 3 2 5
v 3 3 5
v 3 4 5
v 4 1 5
v 4 2 5
v 4 3 5
v 5 1 5
v 5 2 5
v -5 0 4
v -5 1 4
v -4 1 4
v -4 2 4
v -3 0 4
v -3 2 4
v -3 3 4
v -3 4 4
v -3 5 4
v -2 2 4
v -2 3 4
v -2 4 4
v -2 5 4
v -2 6 4
v -1 0 4
v -1 2 4
v 0 5 4
v 0 6 4
v 1 0 4
v 1 3 4
v 2 3 4
v 2 4 4
v 2 5 4
v 3 0 4
v 3 2 4
v 3 3 4
v 3 4 4
v 4 0 4
v 4 2 4
v 4 3 4
v 4 4 4
v -4 2 3
v -4 5 3
v -3 2 3
v -3 4 3
v -3 5 3
v 2 4 3
v 2 5 3
v 2 6 3
v 3 4 3
v 3 6 3
v 3 0 1
v 3 2 1
v 4 0 1
v 4 2 1
v -5 0 -0
v -5 2 -0
v -4 0 -0
v -4 2 -0
v 3 2 -0
v 3 3 -0
v 4 0 -0
v 4 2 -0
v 5 0 -0
v 5 3 -0
v -7 0 -1
v -7 1 -1
v -6 1 -1
v -6 4 -1
v -5 0 -1
v -5 2 -1
v -5 4 -1
v -5 6 -1
v -4 2 -1
v -4 4 -1
v -4 5 -1
v -4 6 -1
v -3 5 -1
v -3 6 -1
v 2 0 -1
v 2 3 -1
v 3 2 -1
v 3 3 -1
v 3 5 -1
v 4 0 -1
v 4 2 -1
v 4 4 -1
v 4 5 -1
v 5 0 -1
v 5 2 -1
v 5 3 -1
v 5 4 -1
v 6 1 -1
v 6 2 -1
v 7 0 -1
v 7 1 -1
v -4 4 -2
v -4 5 -2
v -3 4 -2
v -3 5 -2
v -4 0 -3
v -4 4 -3
v -3 0 -3
v -3 4 -3
v 2 0 -3
v 2 4 -3
v 3 0 -3
v 3 4 -3
v -3 0 -5
v -3 4 -5
v -2 0 -5
v -2 4 -5
v 1 5 -5
v 1 6 -5
v 2 0 -5
v 2 4 -5
v 2 5 -5
v 2 6 -5
v 3 0 5
v 3 2 5
v 4 0 5
v 4 2 5
v -3 0 4
v -3 2 4
v -1 0 4
v -1 2 4
v 1 0 4
v 1 1 4
v 2 0 4
v 2 1 4
v 4 0 4
v 4 2 4
v 5 0 4
v 5 2 4
v -5 0 3
v -5 1 3
v -4 0 3
v -4 1 3
v -3 2 3
v -3 4 3
v -2 4 3
v -2 5 3
v -2 6 3
v -1 0 3
v -1 2 3
v 0 5 3
v 0 6 3
v 1 0 3
v 1 1 3
v 1 3 3
v 2 1 3
v 2 3 3
v 2 4 3
v 3 0 3
v 3 4 3
v 4 0 3
v 4 4 3
v 2 1 1
v 2 2 1
v 3 1 1
v 3 2 1
v -4 0 -0
v -4 2 -0
v -3 0 -0
v -3 2 -0
v 2 0 -0
v 2 1 -0
v 2 2 -0
v 2 3 -0
v 2 5 -0
v 2 6 -0
v 3 1 -0
v 3 2 -0
v 3 3 -0
v 3 5 -0
v 3 6 -0
v 4 0 -0
v 4 2 -0
v -4 2 -1
v -4 4 -1
v -4 5 -1
v -3 2 -1
v -3 4 -1
v -3 5 -1
v -7 0 -2
v -7 1 -2
v -6 1 -2
v -6 4 -2
v -5 0 -2
v -5 4 -2
v -5 6 -2
v -4 4 -2
v -4 5 -2
v -4 6 -2
v 2 0 -2
v 2 4 -2
v 3 0 -2
v 3 4 -2
v 4 0 -2
v 4 4 -2
v 5 2 -2
v 5 4 -2
v 6 1 -2
v 6 2 -2
v 7 0 -2
v 7 1 -2
v -5 0 -3
v -5 4 -3
v -4 0 -3
v -4 4 -3
v -4 5 -3
v -4 6 -3
v -3 5 -3
v -3 6 -3
v 3 0 -3
v 3 5 -3
v 4 0 -3
v 4 5 -3
v -4 0 -5
v -4 5 -5
v -3 0 -5
v -3 5 -5
v -2 4 -5
v -2 5 -5
v 0 4 -5
v 0 5 -5
v 2 3 -5
v 2 4 -5
v 2 5 -5
v 3 3 -5
v 3 5 -5
v -3 0 -6
v -3 5 -6
v -2 0 -6
v -2 4 -6
v -2 5 -6
v 0 4 -6
v 0 5 -6
v 1 5 -6
v 1 6 -6
v 2 3 -6
v 2 4 -6
v 2 6 -6
v 3 0 -6
v 3 3 -6
v 4 0 7
v 5 0 7
v 3 0 6
v 4 0 6
v -3 0 5
v -1 0 5
v 1 0 5
v 2 0 5
v 3 0 5
v 4 0 5
v -5 0 4
v -3 0 4
v -1 0 4
v 1 0 4
v 2 0 4
v 3 0 4
v 4 0 4
v 5 0 4
v -5 0 3
v -4 0 3
v -1 0 3
v 1 0 3
v 3 0 3
v 4 0 3
v 3 0 1
v 4 0 1
v -5 0 -0
v -4 0 -0
v -3 0 -0
v 2 0 -0
v 4 0 -0
v 5 0 -0
v -7 0 -1
v -5 0 -1
v 2 0 -1
v 4 0 -1
v 5 0 -1
v 7 0 -1
v -7 0 -2
v -5 0 -2
v 2 0 -2
v 3 0 -2
v 4 0 -2
v 7 0 -2
v -5 0 -3
v -4 0 -3
v -3 0 -3
v 2 0 -3
v 3 0 -3
v 4 0 -3
v -4 0 -5
v -3 0 -5
v -2 0 -5
v 2 0 -5
v -3 0 -6
v -2 0 -6
v 3 0 -6
v 1 1 4
v 2 1 4
v 1 1 3
v 2 1 3
v 3 2 5
v 4 2 5
v -3 2 4
v -1 2 4
v 3 2 4
v 4 2 4
v -3 2 3
v -1 2 3
v 2 2 1
v 3 2 1
v -4 2 -0
v -3 2 -0
v 2 2 -0
v 3 2 -0
v 4 2 -0
v -4 2 -1
v -3 2 -1
v 3 2 -1
v 4 2 -1
v 2 3 -0
v 3 3 -0
v 2 3 -1
v 3 3 -1
v -3 4 3
v -2 4 3
v 2 4 3
v -3 4 2
v -2 4 2
v 0 4 2
v 1 4 2
v -2 4 1
v 0 4 1
v -1 4 -0
v 0 4 -0
v -3 4 -1
v -4 4 -2
v -3 4 -2
v -2 4 -2
v -1 4 -2
v 0 4 -2
v 2 4 -2
v 3 4 -2
v -4 4 -3
v -3 4 -3
v -1 4 -3
v 0 4 -3
v 2 4 -3
v 3 4 -3
v 0 4 -4
v 1 4 -4
v -3 4 -5
v -2 4 -5
v 2 4 -5
v -4 5 -1
v -3 5 -1
v -4 5 -2
v -3 5 -2
v 4 1 7
v 5 1 7
v 4 1 6
v 4 1 5
v 5 1 5
v -5 1 4
v -4 1 4
v -5 1 3
v -4 1 3
v 2 1 1
v 3 1 1
v 2 1 -0
v 3 1 -0
v -7 1 -1
v -6 1 -1
v 6 1 -1
v 7 1 -1
v -7 1 -2
v -6 1 -2
v 6 1 -2
v 7 1 -2
v 3 2 6
v 4 2 6
v -2 2 5
v -1 2 5
v 3 2 5
v 4 2 5
v 5 2 5
v -4 2 4
v -3 2 4
v -2 2 4
v -1 2 4
v 4 2 4
v 5 2 4
v -4 2 3
v -3 2 3
v 3 2 1
v 4 2 1
v -5 2 -0
v -4 2 -0
v 3 2 -0
v 4 2 -0
v -5 2 -1
v -4 2 -1
v 5 2 -1
v 6 2 -1
v 5 2 -2
v 6 2 -2
v -3 3 5
v -2 3 5
v 1 3 5
v 2 3 5
v 3 3 5
v 4 3 5
v -3 3 4
v -2 3 4
v 1 3 4
v 2 3 4
v 3 3 4
v 4 3 4
v 3 3 -0
v 5 3 -0
v 3 3 -1
v 5 3 -1
v 2 3 -5
v 3 3 -5
v 2 3 -6
v 3 3 -6
v 2 4 5
v 3 4 5
v 2 4 4
v 3 4 4
v 4 4 4
v 2 4 3
v 3 4 3
v 4 4 3
v -6 4 -1
v -5 4 -1
v 4 4 -1
v 5 4 -1
v -6 4 -2
v -5 4 -2
v -4 4 -2
v 4 4 -2
v 5 4 -2
v -5 4 -3
v -4 4 -3
v -2 4 -5
v 0 4 -5
v -2 4 -6
v 0 4 -6
v -3 5 4
v -2 5 4
v 0 5 4
v 2 5 4
v -4 5 3
v -3 5 3
v -2 5 3
v 0 5 3
v 2 5 3
v -3 5 2
v -2 5 2
v 0 5 2
v 1 5 2
v -2 5 1
v 0 5 1
v -4 5 -0
v -3 5 -0
v -1 5 -0
v 0 5 -0
v 2 5 -0
v 3 5 -0
v -4 5 -1
v -3 5 -1
v 3 5 -1
v 4 5 -1
v -2 5 -2
v -1 5 -2
v 0 5 -2
v -4 5 -3
v -3 5 -3
v -1 5 -3
v 0 5 -3
v 3 5 -3
v 4 5 -3
v 0 5 -4
v 1 5 -4
v -4 5 -5
v -3 5 -5
v -2 5 -5
v 0 5 -5
v 1 5 -5
v 2 5 -5
v 3 5 -5
v -3 5 -6
v -2 5 -6
v 0 5 -6
v 1 5 -6
v -2 6 4
v 0 6 4
v -2 6 3
v 0 6 3
v 2 6 3
v 3 6 3
v 2 6 -0
v 3 6 -0
v -5 6 -1
v -4 6 -1
v -3 6 -1
v -5 6 -2
v -4 6 -2
v -4 6 -3
v -3 6 -3
v 1 6 -5
v 2 6 -5
v 1 6 -6
v 2 6 -6

# faces
f 3/4/1 2/4/1 1/4/1
f 4/4/1 2/4/1 3/4/1
f 7/4/1 6/4/1 5/4/1
f 8/4/1 6/4/1 7/4/1
f 15/4/1 10/4/1 9/4/1
f 16/4/1 10/4/1 15/4/1
f 17/4/1 12/4/1 11/4/1
f 18/4/1 12/4/1 17/4/1
f 20/4/1 14/4/1 13/4/1
f 21/4/1 14/4/1 20/4/1
f 22/4/1 20/4/1 19/4/1
f 23/4/1 20/4/1 22/4/1
f 29/4/1 25/4/1 24/4/1
f 30/4/1 29/4/1 28/4/1
f 31/4/1 25/4/1 29/4/1
f 31/4/1 29/4/1 30/4/1
f 32/4/1 25/4/1 31/4/1
f 34/4/1 33/4/1 32/4/1
f 34/4/1 32/4/1 31/4/1
f 35/4/1 33/4/1 34/4/1
f 37/4/1 27/4/1 26/4/1
f 38/4/1 34/4/1 31/4/1
f 39/5/1 35/5/1 34/5/1
f 39/4/1 34/4/1 38/4/1
f 40/5/1 35/5/1 39/5/1
f 41/4/1 37/4/1 36/4/1
f 42/4/1 27/4/1 37/4/1
f 42/4/1 37/4/1 41/4/1
f 43/4/1 27/4/1 42/4/1
f 44/5/1 42/5/1 41/5/1
f 45/5/1 42/5/1 44/5/1
f 50/4/1 47/4/1 46/4/1
f 52/4/1 50/4/1 46/4/1
f 52/4/1 51/4/1 50/4/1
f 53/4/1 51/4/1 52/4/1
f 54/4/1 51/4/1 53/4/1
f 55/4/1 51/4/1 54/4/1
f 58/5/1 55/5/1 54/5/1
f 59/5/1 55/5/1 58/5/1
f 60/3/1 57/3/1 56/3/1
f 61/3/1 57/3/1 60/3/1
f 62/3/1 49/3/1 48/3/1
f 63/3/1 49/3/1 62/3/1
f 66/5/1 65/5/1 64/5/1
f 67/5/1 65/5/1 66/5/1
f 70/4/1 69/4/1 68/4/1
f 71/4/1 69/4/1 70/4/1
f 74/5/1 73/5/1 72/5/1
f 75/5/1 73/5/1 74/5/1
f 78/3/1 77/3/1 76/3/1
f 79/3/1 77/3/1 78/3/1
f 82/5/1 81/5/1 80/5/1
f 83/5/1 81/5/1 82/5/1
f 90/4/1 85/4/1 84/4/1
f 91/4/1 85/4/1 90/4/1
f 92/4/1 85/4/1 91/4/1
f 93/4/1 85/4/1 92/4/1
f 94/4/1 92/4/1 91/4/1
f 98/4/1 94/4/1 91/4/1
f 98/4/1 95/4/1 94/4/1
f 99/4/1 95/4/1 98/4/1
f 100/4/1 87/4/1 86/4/1
f 101/4/1 97/4/1 96/4/1
f 102/4/1 97/4/1 101/4/1
f 103/4/1 99/4/1 98/4/1
f 103/4/1 100/4/1 99/4/1
f 104/4/1 87/4/1 100/4/1
f 104/4/1 100/4/1 103/4/1
f 105/4/1 89/4/1 88/4/1
f 106/4/1 89/4/1 105/4/1
f 109/5/1 108/5/1 107/5/1
f 110/5/1 108/5/1 109/5/1
f 117/4/1 112/4/1 111/4/1
f 118/4/1 112/4/1 117/4/1
f 119/4/1 116/4/1 115/4/1
f 120/4/1 116/4/1 119/4/1
f 122/4/1 121/4/1 120/4/1
f 123/4/1 121/4/1 122/4/1
f 124/4/1 114/4/1 113/4/1
f 125/4/1 114/4/1 124/4/1
f 132/4/1 127/4/1 126/4/1
f 133/4/1 127/4/1 132/4/1
f 134/4/1 129/4/1 128/4/1
f 135/4/1 129/4/1 134/4/1
f 136/4/1 131/4/1 130/4/1
f 137/4/1 131/4/1 136/4/1
f 138/4/2 139/4/2 140/4/2
f 140/4/2 139/4/2 141/4/2
f 141/4/2 139/4/2 142/4/2
f 142/4/2 139/4/2 143/4/2
f 143/4/2 139/4/2 144/4/2
f 142/4/2 143/4/2 145/4/2
f 145/4/2 143/4/2 146/4/2
f 147/4/2 148/4/2 151/4/2
f 151/4/2 148/4/2 152/4/2
f 152/4/2 148/4/2 153/4/2
f 153/4/2 154/4/2 155/4/2
f 152/4/2 153/4/2 155/4/2
f 155/4/2 154/4/2 156/4/2
f 156/4/2 154/4/2 157/4/2
f 149/4/2 150/4/2 158/4/2
f 158/4/2 150/4/2 159/4/2
f 160/5/2 161/5/2 162/5/2
f 162/5/2 161/5/2 163/5/2
f 164/4/2 165/4/2 166/4/2
f 166/4/2 165/4/2 167/4/2
f 168/3/2 169/3/2 170/3/2
f 170/3/2 169/3/2 171/3/2
f 172/4/2 173/4/2 174/4/2
f 174/4/2 173/4/2 175/4/2
f 176/5/2 177/5/2 178/5/2
f 178/5/2 177/5/2 179/5/2
f 180/4/2 181/4/2 182/4/2
f 182/4/2 181/4/2 183/4/2
f 184/4/2 185/4/2 188/4/2
f 188/4/2 185/4/2 189/4/2
f 186/4/2 187/4/2 190/4/2
f 190/4/2 187/4/2 191/4/2
f 188/5/2 189/5/2 192/5/2
f 192/5/2 189/5/2 193/5/2
f 193/5/2 189/5/2 194/5/2
f 195/4/2 196/4/2 201/4/2
f 201/4/2 196/4/2 202/4/2
f 197/4/2 198/4/2 203/4/2
f 203/4/2 204/4/2 207/4/2
f 199/4/2 200/4/2 209/4/2
f 209/4/2 200/4/2 210/4/2
f 205/4/2 206/4/2 211/4/2
f 211/4/2 206/4/2 212/4/2
f 207/4/2 208/4/2 213/4/2
f 197/4/2 203/4/2 213/4/2
f 203/4/2 207/4/2 213/4/2
f 213/4/2 208/4/2 214/4/2
f 214/4/2 208/4/2 215/4/2
f 213/5/2 214/5/2 215/5/2
f 215/4/2 208/4/2 216/4/2
f 216/4/2 208/4/2 217/4/2
f 199/4/2 209/4/2 218/4/2
f 218/4/2 209/4/2 219/4/2
f 213/5/2 215/5/2 220/5/2
f 215/5/2 216/5/2 220/5/2
f 220/5/2 216/5/2 221/5/2
f 228/4/2 229/4/2 230/4/2
f 230/4/2 229/4/2 231/4/2
f 222/4/2 223/4/2 232/4/2
f 224/4/2 225/4/2 233/4/2
f 233/4/2 225/4/2 234/4/2
f 231/4/2 232/4/2 235/4/2
f 232/4/2 223/4/2 236/4/2
f 235/4/2 232/4/2 236/4/2
f 236/4/2 223/4/2 237/4/2
f 237/4/2 223/4/2 238/4/2
f 226/4/2 227/4/2 240/4/2
f 239/4/2 240/4/2 241/4/2
f 240/4/2 227/4/2 242/4/2
f 241/4/2 240/4/2 242/4/2
f 243/4/2 244/4/2 247/4/2
f 247/4/2 244/4/2 248/4/2
f 248/4/2 244/4/2 249/4/2
f 249/4/2 244/4/2 250/4/2
f 245/4/2 246/4/2 251/4/2
f 251/4/2 252/4/2 253/4/2
f 245/4/2 251/4/2 253/4/2
f 253/4/2 252/4/2 254/4/2
f 254/4/2 252/4/2 255/4/2
f 255/4/2 252/4/2 256/4/2
f 257/4/2 258/4/2 259/4/2
f 259/4/2 258/4/2 260/4/2
f 261/4/2 262/4/2 263/4/2
f 263/4/2 262/4/2 264/4/2
f 267/4/3 266/4/3 265/4/3
f 268/4/3 266/4/3 267/4/3
f 271/4/3 270/4/3 269/4/3
f 272/4/3 270/4/3 271/4/3
f 273/4/3 270/4/3 272/4/3
f 276/4/3 275/4/3 274/4/3
f 277/4/3 275/4/3 276/4/3
f 278/4/3 276/4/3 274/4/3
f 279/4/3 276/4/3 278/4/3
f 282/3/3 281/3/3 280/3/3
f 283/3/3 281/3/3 282/3/3
f 285/4/3 283/4/3 282/4/3
f 285/4/3 284/4/3 283/4/3
f 286/4/3 284/4/3 285/4/3
f 287/4/3 284/4/3 286/4/3
f 288/4/3 284/4/3 287/4/3
f 290/4/3 287/4/3 286/4/3
f 291/4/3 287/4/3 290/4/3
f 292/4/3 290/4/3 289/4/3
f 293/4/3 290/4/3 292/4/3
f 296/4/3 295/4/3 294/4/3
f 298/4/3 296/4/3 294/4/3
f 298/4/3 297/4/3 296/4/3
f 299/4/3 297/4/3 298/4/3
f 304/4/3 301/4/3 300/4/3
f 305/5/3 302/5/3 301/5/3
f 305/4/3 301/4/3 304/4/3
f 306/5/3 302/5/3 305/5/3
f 309/4/3 304/4/3 303/4/3
f 309/4/3 305/4/3 304/4/3
f 309/4/3 306/4/3 305/4/3
f 310/5/3 307/5/3 306/5/3
f 310/4/3 309/4/3 308/4/3
f 310/4/3 306/4/3 309/4/3
f 311/5/3 307/5/3 310/5/3
f 312/4/3 310/4/3 308/4/3
f 313/4/3 310/4/3 312/4/3
f 314/4/3 310/4/3 313/4/3
f 315/4/3 310/4/3 314/4/3
f 316/4/3 310/4/3 315/4/3
f 321/4/3 318/4/3 317/4/3
f 322/4/3 318/4/3 321/4/3
f 323/4/3 320/4/3 319/4/3
f 324/4/3 320/4/3 323/4/3
f 327/4/3 326/4/3 325/4/3
f 328/4/3 326/4/3 327/4/3
f 329/4/3 326/4/3 328/4/3
f 333/5/3 331/5/3 330/5/3
f 333/5/3 332/5/3 331/5/3
f 334/5/3 332/5/3 333/5/3
f 337/4/3 336/4/3 335/4/3
f 338/4/3 336/4/3 337/4/3
f 341/4/3 340/4/3 339/4/3
f 342/4/3 340/4/3 341/4/3
f 346/4/3 344/4/3 343/4/3
f 347/4/3 346/4/3 345/4/3
f 348/4/3 344/4/3 346/4/3
f 348/4/3 346/4/3 347/4/3
f 351/4/3 350/4/3 349/4/3
f 353/4/3 351/4/3 349/4/3
f 353/4/3 352/4/3 351/4/3
f 354/4/3 352/4/3 353/4/3
f 355/4/3 352/4/3 354/4/3
f 357/4/3 356/4/3 355/4/3
f 357/4/3 355/4/3 354/4/3
f 358/4/3 356/4/3 357/4/3
f 359/4/3 356/4/3 358/4/3
f 360/4/3 356/4/3 359/4/3
f 361/5/3 360/5/3 359/5/3
f 362/5/3 360/5/3 361/5/3
f 365/4/3 364/4/3 363/4/3
f 366/4/3 364/4/3 365/4/3
f 368/4/3 365/4/3 363/4/3
f 369/4/3 365/4/3 368/4/3
f 370/4/3 367/4/3 366/4/3
f 371/4/3 367/4/3 370/4/3
f 374/4/3 370/4/3 366/4/3
f 375/4/3 370/4/3 374/4/3
f 376/4/3 373/4/3 372/4/3
f 377/4/3 373/4/3 376/4/3
f 378/4/3 376/4/3 372/4/3
f 379/4/3 376/4/3 378/4/3
f 382/4/3 381/4/3 380/4/3
f 383/4/3 381/4/3 382/4/3
f 386/4/3 385/4/3 384/4/3
f 387/4/3 385/4/3 386/4/3
f 390/4/3 389/4/3 388/4/3
f 391/4/3 389/4/3 390/4/3
f 394/3/3 393/3/3 392/3/3
f 395/3/3 393/3/3 394/3/3
f 398/4/3 395/4/3 394/4/3
f 399/4/3 395/4/3 398/4/3
f 400/5/3 397/5/3 396/5/3
f 401/5/3 397/5/3 400/5/3
f 402/4/4 403/4/4 404/4/4
f 404/4/4 403/4/4 405/4/4
f 406/4/4 407/4/4 408/4/4
f 408/4/4 407/4/4 409/4/4
f 410/3/4 411/3/4 412/3/4
f 412/3/4 411/3/4 413/3/4
f 414/4/4 415/4/4 416/4/4
f 416/4/4 415/4/4 417/4/4
f 418/4/4 419/4/4 420/4/4
f 420/4/4 419/4/4 421/4/4
f 422/4/4 423/4/4 424/4/4
f 422/4/4 424/4/4 428/4/4
f 425/5/4 426/5/4 429/5/4
f 429/5/4 426/5/4 430/5/4
f 427/4/4 428/4/4 431/4/4
f 431/4/4 428/4/4 432/4/4
f 428/4/4 424/4/4 433/4/4
f 432/4/4 428/4/4 433/4/4
f 432/3/4 433/3/4 434/3/4
f 433/4/4 424/4/4 435/4/4
f 434/3/4 433/3/4 435/3/4
f 435/4/4 424/4/4 436/4/4
f 437/4/4 438/4/4 439/4/4
f 439/4/4 438/4/4 440/4/4
f 441/4/4 442/4/4 443/4/4
f 443/4/4 442/4/4 444/4/4
f 445/4/4 446/4/4 447/4/4
f 447/4/4 446/4/4 448/4/4
f 449/4/4 450/4/4 455/4/4
f 451/4/4 452/4/4 456/4/4
f 456/4/4 452/4/4 457/4/4
f 453/5/4 454/5/4 458/5/4
f 458/5/4 454/5/4 459/5/4
f 449/4/4 455/4/4 460/4/4
f 455/4/4 456/4/4 460/4/4
f 460/4/4 456/4/4 461/4/4
f 462/4/4 463/4/4 465/4/4
f 463/5/4 464/5/4 466/5/4
f 465/4/4 463/4/4 466/4/4
f 466/5/4 464/5/4 467/5/4
f 468/4/4 469/4/4 470/4/4
f 468/4/4 470/4/4 472/4/4
f 470/4/4 471/4/4 472/4/4
f 472/4/4 471/4/4 473/4/4
f 473/4/4 474/4/4 475/4/4
f 475/4/4 474/4/4 476/4/4
f 476/4/4 474/4/4 477/4/4
f 478/4/4 479/4/4 480/4/4
f 480/4/4 479/4/4 481/4/4
f 482/4/4 483/4/4 484/4/4
f 484/4/4 483/4/4 485/4/4
f 482/4/4 484/4/4 486/4/4
f 486/4/4 484/4/4 487/4/4
f 482/4/4 486/4/4 488/4/4
f 488/4/4 486/4/4 489/4/4
f 490/4/4 491/4/4 492/4/4
f 492/4/4 491/4/4 493/4/4
f 494/5/4 495/5/4 496/5/4
f 496/5/4 495/5/4 497/5/4
f 498/4/4 499/4/4 500/4/4
f 500/4/4 499/4/4 501/4/4
f 502/4/4 503/4/4 504/4/4
f 504/4/4 503/4/4 505/4/4
f 506/3/4 507/3/4 508/3/4
f 508/3/4 507/3/4 509/3/4
f 510/4/4 511/4/4 513/4/4
f 511/4/4 512/4/4 513/4/4
f 513/4/4 512/4/4 514/4/4
f 515/3/4 516/3/4 517/3/4
f 517/3/4 516/3/4 518/3/4
f 518/3/4 516/3/4 519/3/4
f 517/4/4 518/4/4 520/4/4
f 520/5/4 521/5/4 522/5/4
f 517/4/4 520/4/4 524/4/4
f 520/5/4 522/5/4 525/5/4
f 524/4/4 520/4/4 525/4/4
f 522/5/4 523/5/4 525/5/4
f 525/5/4 523/5/4 526/5/4
f 517/4/4 524/4/4 527/4/4
f 527/4/4 524/4/4 528/4/4
f 532/4/5 530/4/5 529/4/5
f 537/4/5 532/4/5 531/4/5
f 538/4/5 530/4/5 532/4/5
f 538/4/5 532/4/5 537/4/5
f 540/4/5 534/4/5 533/4/5
f 541/4/5 534/4/5 540/4/5
f 542/3/5 536/3/5 535/3/5
f 543/4/5 537/4/5 536/4/5
f 543/3/5 536/3/5 542/3/5
f 544/4/5 537/4/5 543/4/5
f 545/4/5 530/4/5 538/4/5
f 546/4/5 530/4/5 545/4/5
f 547/4/5 540/4/5 539/4/5
f 548/4/5 540/4/5 547/4/5
f 549/4/5 542/4/5 541/4/5
f 550/4/5 542/4/5 549/4/5
f 551/4/5 544/4/5 543/4/5
f 551/4/5 545/4/5 544/4/5
f 552/4/5 545/4/5 551/4/5
f 553/4/5 551/4/5 543/4/5
f 556/4/5 540/4/5 548/4/5
f 557/4/5 540/4/5 556/4/5
f 558/4/5 554/4/5 553/4/5
f 558/4/5 553/4/5 543/4/5
f 559/4/5 554/4/5 558/4/5
f 562/4/5 556/4/5 555/4/5
f 564/4/5 560/4/5 559/4/5
f 565/4/5 560/4/5 564/4/5
f 567/4/5 562/4/5 561/4/5
f 568/4/5 556/4/5 562/4/5
f 568/4/5 562/4/5 567/4/5
f 569/4/5 566/4/5 565/4/5
f 569/4/5 565/4/5 564/4/5
f 569/4/5 564/4/5 563/4/5
f 570/4/5 566/4/5 569/4/5
f 571/4/5 566/4/5 570/4/5
f 572/4/5 566/4/5 571/4/5
f 573/4/5 556/4/5 568/4/5
f 574/4/5 556/4/5 573/4/5
f 577/4/5 571/4/5 570/4/5
f 578/4/5 571/4/5 577/4/5
f 579/4/5 575/4/5 574/4/5
f 580/4/5 575/4/5 579/4/5
f 582/4/5 577/4/5 576/4/5
f 583/3/5 581/3/5 580/3/5
f 584/4/5 582/4/5 581/4/5
f 584/3/5 581/3/5 583/3/5
f 585/4/5 577/4/5 582/4/5
f 585/4/5 582/4/5 584/4/5
f 588/3/5 587/3/5 586/3/5
f 589/3/5 587/3/5 588/3/5
f 594/4/5 591/4/5 590/4/5
f 595/4/5 591/4/5 594/4/5
f 596/4/5 593/4/5 592/4/5
f 597/4/5 593/4/5 596/4/5
f 602/4/5 599/4/5 598/4/5
f 603/4/5 599/4/5 602/4/5
f 605/4/5 601/4/5 600/4/5
f 606/4/5 601/4/5 605/4/5
f 607/4/5 604/4/5 603/4/5
f 608/4/5 604/4/5 607/4/5
f 611/4/5 610/4/5 609/4/5
f 612/4/5 610/4/5 611/4/5
f 616/4/5 614/4/5 613/4/5
f 617/3/5 615/3/5 614/3/5
f 617/4/5 614/4/5 616/4/5
f 618/3/5 615/3/5 617/3/5
f 619/3/5 615/3/5 618/3/5
f 620/3/5 617/3/5 616/3/5
f 620/3/5 618/3/5 617/3/5
f 621/1/5 619/1/5 618/1/5
f 621/3/5 618/3/5 620/3/5
f 622/1/5 621/1/5 620/1/5
f 623/1/5 619/1/5 621/1/5
f 623/1/5 621/1/5 622/1/5
f 624/3/5 620/3/5 616/3/5
f 626/3/5 620/3/5 624/3/5
f 627/1/5 622/1/5 620/1/5
f 627/3/5 620/3/5 626/3/5
f 628/2/5 623/2/5 622/2/5
f 628/1/5 622/1/5 627/1/5
f 629/1/5 619/1/5 623/1/5
f 629/2/5 623/2/5 628/2/5
f 630/3/5 615/3/5 619/3/5
f 632/4/5 626/4/5 625/4/5
f 633/3/5 628/3/5 627/3/5
f 633/4/5 626/4/5 632/4/5
f 633/3/5 627/3/5 626/3/5
f 634/1/5 629/1/5 628/1/5
f 634/3/5 628/3/5 633/3/5
f 635/1/5 619/1/5 629/1/5
f 635/1/5 629/1/5 634/1/5
f 636/4/5 631/4/5 630/4/5
f 636/3/5 630/3/5 619/3/5
f 637/4/5 631/4/5 636/4/5
f 638/3/5 634/3/5 633/3/5
f 638/1/5 619/1/5 635/1/5
f 638/3/5 635/3/5 634/3/5
f 639/3/5 636/3/5 619/3/5
f 639/1/5 619/1/5 638/1/5
f 640/3/5 638/3/5 633/3/5
f 640/3/5 639/3/5 638/3/5
f 641/3/5 639/3/5 640/3/5
f 642/3/5 636/3/5 639/3/5
f 642/3/5 639/3/5 641/3/5
f 645/5/5 644/5/5 643/5/5
f 646/5/5 644/5/5 645/5/5
f 647/4/6 648/4/6 649/4/6
f 649/4/6 648/4/6 650/4/6
f 650/4/6 648/4/6 651/4/6
f 652/4/6 653/4/6 654/4/6
f 654/4/6 653/4/6 655/4/6
f 656/4/6 657/4/6 658/4/6
f 658/4/6 657/4/6 659/4/6
f 660/4/6 661/4/6 664/4/6
f 664/4/6 661/4/6 665/4/6
f 662/4/6 663/4/6 666/4/6
f 666/4/6 663/4/6 667/4/6
f 668/4/6 669/4/6 672/4/6
f 672/4/6 669/4/6 673/4/6
f 670/4/6 671/4/6 677/4/6
f 677/4/6 671/4/6 678/4/6
f 673/4/6 674/4/6 679/4/6
f 679/4/6 674/4/6 680/4/6
f 675/4/6 676/4/6 681/4/6
f 681/4/6 676/4/6 682/4/6
f 683/4/6 684/4/6 687/4/6
f 687/4/6 684/4/6 688/4/6
f 685/4/6 686/4/6 689/4/6
f 689/4/6 686/4/6 690/4/6
f 691/4/6 692/4/6 693/4/6
f 693/4/6 692/4/6 694/4/6
f 695/4/6 696/4/6 701/4/6
f 701/4/6 696/4/6 702/4/6
f 697/3/6 698/3/6 703/3/6
f 703/3/6 698/3/6 704/3/6
f 699/4/6 700/4/6 705/4/6
f 705/4/6 700/4/6 706/4/6
f 707/4/6 708/4/6 709/4/6
f 709/4/6 708/4/6 710/4/6
f 711/4/6 712/4/6 713/4/6
f 713/4/6 712/4/6 714/4/6
f 715/4/6 716/4/6 717/4/6
f 717/4/6 716/4/6 718/4/6
f 717/4/6 718/4/6 720/4/6
f 718/4/6 719/4/6 720/4/6
f 720/4/6 719/4/6 721/4/6
f 721/4/6 719/4/6 722/4/6
f 723/4/6 724/4/6 727/4/6
f 727/4/6 724/4/6 728/4/6
f 725/4/6 726/4/6 730/4/6
f 730/4/6 726/4/6 731/4/6
f 728/4/6 729/4/6 732/4/6
f 732/4/6 729/4/6 733/4/6
f 734/4/6 735/4/6 736/4/6
f 736/4/6 735/4/6 737/4/6
f 738/5/6 739/5/6 743/5/6
f 743/5/6 739/5/6 744/5/6
f 740/4/6 741/4/6 745/4/6
f 745/4/6 741/4/6 746/4/6
f 743/4/6 744/4/6 747/4/6
f 742/4/6 743/4/6 747/4/6
f 745/3/6 746/3/6 748/3/6
f 747/4/6 744/4/6 748/4/6
f 744/3/6 745/3/6 748/3/6
f 748/3/6 746/3/6 749/3/6
f 749/3/6 746/3/6 750/3/6
f 747/3/6 748/3/6 751/3/6
f 748/3/6 749/3/6 751/3/6
f 749/1/6 750/1/6 752/1/6
f 751/3/6 749/3/6 752/3/6
f 742/4/6 747/4/6 753/4/6
f 747/3/6 751/3/6 754/3/6
f 753/4/6 747/4/6 754/4/6
f 751/1/6 752/1/6 755/1/6
f 752/1/6 750/1/6 756/1/6
f 755/1/6 752/1/6 756/1/6
f 750/3/6 746/3/6 757/3/6
f 753/5/6 754/5/6 759/5/6
f 754/3/6 751/3/6 760/3/6
f 759/5/6 754/5/6 760/5/6
f 757/4/6 758/4/6 761/4/6
f 751/1/6 755/1/6 763/1/6
f 760/3/6 751/3/6 763/3/6
f 755/2/6 756/2/6 764/2/6
f 763/1/6 755/1/6 764/1/6
f 756/1/6 750/1/6 765/1/6
f 764/2/6 756/2/6 765/2/6
f 763/3/6 764/3/6 767/3/6
f 760/3/6 763/3/6 767/3/6
f 764/1/6 765/1/6 768/1/6
f 767/3/6 764/3/6 768/3/6
f 765/1/6 750/1/6 769/1/6
f 768/1/6 765/1/6 769/1/6
f 761/4/6 762/4/6 770/4/6
f 757/4/6 761/4/6 770/4/6
f 770/4/6 762/4/6 771/4/6
f 769/1/6 750/1/6 772/1/6
f 767/3/6 768/3/6 772/3/6
f 768/3/6 769/3/6 772/3/6
f 750/3/6 757/3/6 773/3/6
f 772/1/6 750/1/6 773/1/6
f 766/4/6 767/4/6 774/4/6
f 767/3/6 772/3/6 775/3/6
f 774/4/6 767/4/6 775/4/6
f 772/3/6 773/3/6 775/3/6
f 775/3/6 773/3/6 776/3/6
f 776/3/6 773/3/6 777/3/6
f 773/3/6 757/3/6 778/3/6
f 777/3/6 773/3/6 778/3/6
f 757/4/6 770/4/6 779/4/6
f 778/3/6 757/3/6 779/3/6
f 779/4/6 770/4/6 780/4/6
f 775/3/6 776/3/6 781/3/6
f 781/3/6 776/3/6 782/3/6
f 777/5/6 778/5/6 783/5/6
f 783/5/6 778/5/6 784/5/6
f 785/5/6 786/5/6 787/5/6
f 787/5/6 786/5/6 788/5/6
f 789/5/6 790/5/6 791/5/6
f 791/5/6 790/5/6 792/5/6
f 793/4/6 794/4/6 796/4/6
f 794/5/6 795/5/6 797/5/6
f 796/4/6 794/4/6 797/4/6
f 797/5/6 795/5/6 798/5/6
f 798/5/6 795/5/6 799/5/6
f 800/5/6 801/5/6 802/5/6
f 802/5/6 801/5/6 803/5/6
