# MagicaVoxel @ Ephtracy

# group
g t

# material
mtllib t.mtl
usemtl palette

# normals
vn -1 0 0
vn 1 0 0
vn 0 0 1
vn 0 0 -1
vn 0 -1 0
vn 0 1 0

# texcoords
vt 0.931641 0.5
vt 0.994141 0.5

# verts
v -4 5 -2
v -4 5 -3
v -4 8 -2
v -4 8 -3
v -3 6 -1
v -3 6 -2
v -3 6 -3
v -3 6 -4
v -3 7 -1
v -3 7 -2
v -3 7 -3
v -3 7 -4
v -2 0 -2
v -2 0 -3
v -2 5 -2
v -2 5 -3
v -1 1 -1
v -1 1 -2
v -1 1 -3
v -1 1 -4
v -1 6 -1
v -1 6 -2
v -1 6 -3
v -1 6 -4
v 1 1 -2
v 1 1 -3
v 1 6 -2
v 1 6 -3
v 3 6 -2
v 3 6 -3
v 3 7 -2
v 3 7 -3
v -3 6 -2
v -3 6 -3
v -3 7 -2
v -3 7 -3
v -1 1 -2
v -1 1 -3
v -1 6 -2
v -1 6 -3
v 1 1 -1
v 1 1 -2
v 1 1 -3
v 1 1 -4
v 1 6 -1
v 1 6 -2
v 1 6 -3
v 1 6 -4
v 2 0 -2
v 2 0 -3
v 2 5 -2
v 2 5 -3
v 3 6 -1
v 3 6 -2
v 3 6 -3
v 3 6 -4
v 3 7 -1
v 3 7 -2
v 3 7 -3
v 3 7 -4
v 4 5 -2
v 4 5 -3
v 4 8 -2
v 4 8 -3
v -3 6 -1
v -3 7 -1
v -1 1 -1
v -1 6 -1
v 1 1 -1
v 1 6 -1
v 3 6 -1
v 3 7 -1
v -4 5 -2
v -4 8 -2
v -3 6 -2
v -3 7 -2
v -2 0 -2
v -2 5 -2
v -1 1 -2
v -1 6 -2
v 1 1 -2
v 1 6 -2
v 2 0 -2
v 2 5 -2
v 3 6 -2
v 3 7 -2
v 4 5 -2
v 4 8 -2
v -3 6 -3
v -3 7 -3
v -1 1 -3
v -1 6 -3
v 1 1 -3
v 1 6 -3
v 3 6 -3
v 3 7 -3
v -3 6 -2
v -3 7 -2
v -1 1 -2
v -1 6 -2
v 1 1 -2
v 1 6 -2
v 3 6 -2
v 3 7 -2
v -4 5 -3
v -4 8 -3
v -3 6 -3
v -3 7 -3
v -2 0 -3
v -2 5 -3
v -1 1 -3
v -1 6 -3
v 1 1 -3
v 1 6 -3
v 2 0 -3
v 2 5 -3
v 3 6 -3
v 3 7 -3
v 4 5 -3
v 4 8 -3
v -3 6 -4
v -3 7 -4
v -1 1 -4
v -1 6 -4
v 1 1 -4
v 1 6 -4
v 3 6 -4
v 3 7 -4
v -2 0 -2
v 2 0 -2
v -2 0 -3
v 2 0 -3
v -1 1 -1
v 1 1 -1
v -1 1 -2
v 1 1 -2
v -1 1 -3
v 1 1 -3
v -1 1 -4
v 1 1 -4
v -4 5 -2
v -2 5 -2
v 2 5 -2
v 4 5 -2
v -4 5 -3
v -2 5 -3
v 2 5 -3
v 4 5 -3
v -3 6 -1
v -1 6 -1
v 1 6 -1
v 3 6 -1
v -3 6 -2
v -1 6 -2
v 1 6 -2
v 3 6 -2
v -3 6 -3
v -1 6 -3
v 1 6 -3
v 3 6 -3
v -3 6 -4
v -1 6 -4
v 1 6 -4
v 3 6 -4
v -3 7 -2
v 3 7 -2
v -3 7 -3
v 3 7 -3
v -1 1 -2
v 1 1 -2
v -1 1 -3
v 1 1 -3
v -3 6 -2
v -1 6 -2
v 1 6 -2
v 3 6 -2
v -3 6 -3
v -1 6 -3
v 1 6 -3
v 3 6 -3
v -3 7 -1
v 3 7 -1
v -3 7 -2
v 3 7 -2
v -3 7 -3
v 3 7 -3
v -3 7 -4
v 3 7 -4
v -4 8 -2
v 4 8 -2
v -4 8 -3
v 4 8 -3

# faces
f 3/2/1 2/2/1 1/2/1
f 4/2/1 2/2/1 3/2/1
f 9/1/1 6/1/1 5/1/1
f 10/1/1 6/1/1 9/1/1
f 11/1/1 8/1/1 7/1/1
f 12/1/1 8/1/1 11/1/1
f 15/2/1 14/2/1 13/2/1
f 16/2/1 14/2/1 15/2/1
f 21/1/1 18/1/1 17/1/1
f 22/1/1 18/1/1 21/1/1
f 23/1/1 20/1/1 19/1/1
f 24/1/1 20/1/1 23/1/1
f 27/2/1 26/2/1 25/2/1
f 28/2/1 26/2/1 27/2/1
f 31/2/1 30/2/1 29/2/1
f 32/2/1 30/2/1 31/2/1
f 33/2/2 34/2/2 35/2/2
f 35/2/2 34/2/2 36/2/2
f 37/2/2 38/2/2 39/2/2
f 39/2/2 38/2/2 40/2/2
f 41/1/2 42/1/2 45/1/2
f 45/1/2 42/1/2 46/1/2
f 43/1/2 44/1/2 47/1/2
f 47/1/2 44/1/2 48/1/2
f 49/2/2 50/2/2 51/2/2
f 51/2/2 50/2/2 52/2/2
f 53/1/2 54/1/2 57/1/2
f 57/1/2 54/1/2 58/1/2
f 55/1/2 56/1/2 59/1/2
f 59/1/2 56/1/2 60/1/2
f 61/2/2 62/2/2 63/2/2
f 63/2/2 62/2/2 64/2/2
f 68/1/3 66/1/3 65/1/3
f 69/1/3 68/1/3 67/1/3
f 70/1/3 66/1/3 68/1/3
f 70/1/3 68/1/3 69/1/3
f 71/1/3 66/1/3 70/1/3
f 72/1/3 66/1/3 71/1/3
f 75/2/3 74/2/3 73/2/3
f 76/2/3 74/2/3 75/2/3
f 78/2/3 75/2/3 73/2/3
f 79/2/3 78/2/3 77/2/3
f 80/2/3 75/2/3 78/2/3
f 80/2/3 78/2/3 79/2/3
f 81/2/3 79/2/3 77/2/3
f 83/2/3 81/2/3 77/2/3
f 83/2/3 82/2/3 81/2/3
f 84/2/3 82/2/3 83/2/3
f 85/2/3 82/2/3 84/2/3
f 86/2/3 74/2/3 76/2/3
f 87/2/3 85/2/3 84/2/3
f 87/2/3 86/2/3 85/2/3
f 88/2/3 74/2/3 86/2/3
f 88/2/3 86/2/3 87/2/3
f 92/1/3 90/1/3 89/1/3
f 93/1/3 92/1/3 91/1/3
f 94/1/3 90/1/3 92/1/3
f 94/1/3 92/1/3 93/1/3
f 95/1/3 90/1/3 94/1/3
f 96/1/3 90/1/3 95/1/3
f 97/1/4 98/1/4 100/1/4
f 99/1/4 100/1/4 101/1/4
f 100/1/4 98/1/4 102/1/4
f 101/1/4 100/1/4 102/1/4
f 102/1/4 98/1/4 103/1/4
f 103/1/4 98/1/4 104/1/4
f 105/2/4 106/2/4 107/2/4
f 107/2/4 106/2/4 108/2/4
f 105/2/4 107/2/4 110/2/4
f 109/2/4 110/2/4 111/2/4
f 110/2/4 107/2/4 112/2/4
f 111/2/4 110/2/4 112/2/4
f 109/2/4 111/2/4 113/2/4
f 109/2/4 113/2/4 115/2/4
f 113/2/4 114/2/4 115/2/4
f 115/2/4 114/2/4 116/2/4
f 116/2/4 114/2/4 117/2/4
f 108/2/4 106/2/4 118/2/4
f 116/2/4 117/2/4 119/2/4
f 117/2/4 118/2/4 119/2/4
f 118/2/4 106/2/4 120/2/4
f 119/2/4 118/2/4 120/2/4
f 121/1/4 122/1/4 124/1/4
f 123/1/4 124/1/4 125/1/4
f 124/1/4 122/1/4 126/1/4
f 125/1/4 124/1/4 126/1/4
f 126/1/4 122/1/4 127/1/4
f 127/1/4 122/1/4 128/1/4
f 131/2/5 130/2/5 129/2/5
f 132/2/5 130/2/5 131/2/5
f 135/1/5 134/1/5 133/1/5
f 136/1/5 134/1/5 135/1/5
f 139/1/5 138/1/5 137/1/5
f 140/1/5 138/1/5 139/1/5
f 145/2/5 142/2/5 141/2/5
f 146/2/5 142/2/5 145/2/5
f 147/2/5 144/2/5 143/2/5
f 148/2/5 144/2/5 147/2/5
f 153/1/5 150/1/5 149/1/5
f 154/1/5 150/1/5 153/1/5
f 155/1/5 152/1/5 151/1/5
f 156/1/5 152/1/5 155/1/5
f 161/1/5 158/1/5 157/1/5
f 162/1/5 158/1/5 161/1/5
f 163/1/5 160/1/5 159/1/5
f 164/1/5 160/1/5 163/1/5
f 167/2/5 166/2/5 165/2/5
f 168/2/5 166/2/5 167/2/5
f 169/2/6 170/2/6 171/2/6
f 171/2/6 170/2/6 172/2/6
f 173/2/6 174/2/6 177/2/6
f 177/2/6 174/2/6 178/2/6
f 175/2/6 176/2/6 179/2/6
f 179/2/6 176/2/6 180/2/6
f 181/1/6 182/1/6 183/1/6
f 183/1/6 182/1/6 184/1/6
f 185/1/6 186/1/6 187/1/6
f 187/1/6 186/1/6 188/1/6
f 189/2/6 190/2/6 191/2/6
f 191/2/6 190/2/6 192/2/6
